	.include "MPlayDef.s"
	.section .rodata
	.align 2, 0
song_unk_720_0: @ 0x08352BEC
	.byte VOL, 0x6E
	.byte KEYSH, 0x00
song_unk_720_0_001: @ 0x08352BF0
	.byte TEMPO, 0x36
	.byte VOICE, 0x5D
	.byte N22, Cn1, v096
	.byte W24
	.byte Ds1, v048
	.byte W24
	.byte Cn1, v096
	.byte W24
	.byte Ds1, v048
	.byte W24
song_unk_720_0_000: @ 0x08352C01
	.byte N22, Cn1, v096
	.byte W24
	.byte Ds1, v048
	.byte W24
	.byte Cn1, v096
	.byte W24
	.byte Ds1, v048
	.byte W24
	.byte PEND
	.byte PATT
	 .4byte song_unk_720_0_000
	.byte PATT
	 .4byte song_unk_720_0_000
	.byte PATT
	 .4byte song_unk_720_0_000
	.byte PATT
	 .4byte song_unk_720_0_000
	.byte PATT
	 .4byte song_unk_720_0_000
	.byte PATT
	 .4byte song_unk_720_0_000
	.byte GOTO
	 .4byte song_unk_720_0_001
	.byte FINE
song_unk_720_1: @ 0x08352C33
	.byte VOL, 0x6E
	.byte KEYSH, 0x00
song_unk_720_1_003: @ 0x08352C37
	.byte VOICE, 0x65
	.byte PAN, 0x60
	.byte N00, Cn4, v024
	.byte W24
	.byte N00
	.byte W24
	.byte N00
	.byte W24
	.byte N00
	.byte W24
song_unk_720_1_002: @ 0x08352C45
	.byte N00, Cn4, v024
	.byte W24
	.byte N00
	.byte W24
	.byte N00
	.byte W24
	.byte N00
	.byte W24
	.byte PEND
	.byte PATT
	 .4byte song_unk_720_1_002
	.byte PATT
	 .4byte song_unk_720_1_002
	.byte PATT
	 .4byte song_unk_720_1_002
	.byte PATT
	 .4byte song_unk_720_1_002
	.byte PATT
	 .4byte song_unk_720_1_002
	.byte PATT
	 .4byte song_unk_720_1_002
	.byte GOTO
	 .4byte song_unk_720_1_003
	.byte FINE
song_unk_720_2: @ 0x08352C74
	.byte VOL, 0x6E
	.byte KEYSH, 0x00
song_unk_720_2_005: @ 0x08352C78
	.byte VOICE, 0x67
	.byte PAN, 0x20
	.byte W12
	.byte N00, Cn4, v024
	.byte W24
	.byte N00
	.byte W24
	.byte N00
	.byte W24
	.byte N00
	.byte W12
song_unk_720_2_004: @ 0x08352C87
	.byte W12
	.byte N00, Cn4, v024
	.byte W24
	.byte N00
	.byte W24
	.byte N00
	.byte W24
	.byte N00
	.byte W12
	.byte PEND
	.byte PATT
	 .4byte song_unk_720_2_004
	.byte PATT
	 .4byte song_unk_720_2_004
	.byte PATT
	 .4byte song_unk_720_2_004
	.byte PATT
	 .4byte song_unk_720_2_004
	.byte PATT
	 .4byte song_unk_720_2_004
	.byte PATT
	 .4byte song_unk_720_2_004
	.byte GOTO
	 .4byte song_unk_720_2_005
	.byte FINE
song_unk_720_3: @ 0x08352CB7
	.byte VOL, 0x6E
	.byte KEYSH, 0x00
song_unk_720_3_007: @ 0x08352CBB
	.byte VOICE, 0x03
	.byte N02, Ds1, v096
	.byte W18
	.byte Ds2
	.byte W18
	.byte As1, v064
	.byte W12
	.byte Ds1, v096
	.byte W18
	.byte Ds2
	.byte W18
	.byte As1, v064
	.byte W12
song_unk_720_3_006: @ 0x08352CCE
	.byte N02, Ds1, v096
	.byte W18
	.byte Ds2
	.byte W18
	.byte As1, v064
	.byte W12
	.byte Ds1, v096
	.byte W18
	.byte Ds2
	.byte W18
	.byte As1, v064
	.byte W12
	.byte PEND
	.byte PATT
	 .4byte song_unk_720_3_006
	.byte W96
	.byte PATT
	 .4byte song_unk_720_3_006
	.byte PATT
	 .4byte song_unk_720_3_006
	.byte PATT
	 .4byte song_unk_720_3_006
	.byte PATT
	 .4byte song_unk_720_3_006
	.byte GOTO
	 .4byte song_unk_720_3_007
	.byte FINE
song_unk_720_4: @ 0x08352D00
	.byte VOL, 0x6E
	.byte KEYSH, 0x00
song_unk_720_4_008: @ 0x08352D04
	.byte VOICE, 0x26
	.byte MOD, 0x00
	.byte PAN, 0x3C
	.byte W12
	.byte N08, As3, v096
	.byte W12
	.byte Cn4
	.byte W12
	.byte Ds4
	.byte W12
	.byte N16, Dn4
	.byte W18
	.byte N08, As3
	.byte W18
	.byte N90, Cn4
	.byte W12
	.byte W18
	.byte BEND, 0x2D
	.byte W06
	.byte 0x40
	.byte W24
	.byte MOD, 0x02
	.byte W48
	.byte 0x00
	.byte W12
	.byte N08, As3
	.byte W12
	.byte Cn4
	.byte W12
	.byte Ds4
	.byte W12
	.byte N16, Dn4
	.byte W18
	.byte N08, As3
	.byte W18
	.byte N78, Gn3
	.byte W12
	.byte W18
	.byte BEND, 0x2D
	.byte W06
	.byte 0x40
	.byte W24
	.byte MOD, 0x02
	.byte W36
	.byte 0x00
	.byte N08, As3
	.byte W12
	.byte N66, Fn3
	.byte W36
	.byte MOD, 0x02
	.byte W48
	.byte 0x00
	.byte N04, Gn3
	.byte W06
	.byte Gs3
	.byte W06
	.byte N66, As3
	.byte W36
	.byte MOD, 0x02
	.byte W48
	.byte 0x00
	.byte N04, Gs3
	.byte W06
	.byte Gn3
	.byte W06
	.byte N90, Fn3
	.byte W36
	.byte MOD, 0x02
	.byte W60
	.byte W96
	.byte GOTO
	 .4byte song_unk_720_4_008
	.byte FINE
song_unk_720_5: @ 0x08352D69
	.byte VOL, 0x6E
	.byte KEYSH, 0x00
song_unk_720_5_012: @ 0x08352D6D
	.byte VOICE, 0x7C
	.byte PAN, 0x50
	.byte W18
	.byte N00, Gn3, v112
	.byte W18
	.byte N00
	.byte W60
song_unk_720_5_009: @ 0x08352D78
	.byte W18
	.byte N00, Gs3, v112
	.byte W18
	.byte N00
	.byte W60
	.byte PEND
song_unk_720_5_010: @ 0x08352D80
	.byte W18
	.byte N00, Gn3, v112
	.byte W18
	.byte N00
	.byte W60
	.byte PEND
song_unk_720_5_011: @ 0x08352D88
	.byte W18
	.byte N00, As3, v112
	.byte W18
	.byte N00
	.byte W60
	.byte PEND
	.byte PATT
	 .4byte song_unk_720_5_009
	.byte PATT
	 .4byte song_unk_720_5_010
	.byte PATT
	 .4byte song_unk_720_5_009
	.byte PATT
	 .4byte song_unk_720_5_011
	.byte GOTO
	 .4byte song_unk_720_5_012
	.byte FINE
	.align 2, 0
	.global song_unk_720
song_unk_720: @ 0x08352DAC (song header)
	.byte 6, 0, 10, 0 @ trackCount, blockCount, priority, reverb
	.4byte gUnknown_0804CE78 @ voice group
	.4byte song_unk_720_0
	.4byte song_unk_720_1
	.4byte song_unk_720_2
	.4byte song_unk_720_3
	.4byte song_unk_720_4
	.4byte song_unk_720_5

