	.include "MPlayDef.s"
	.section .rodata
	.align 2, 0
song_unk_130_0: @ 0x0834AB58
	.byte KEYSH, 0x00
song_unk_130_0_002: @ 0x0834AB5A
	.byte TEMPO, 0x4B
	.byte VOICE, 0x22
	.byte VOL, 0x5A
	.byte W24
	.byte N32, En4, v040
	.byte W36
	.byte Cn4
	.byte W36
song_unk_130_0_001: @ 0x0834AB67
	.byte N32, Dn4, v040
	.byte W36
	.byte Fn3
	.byte W36
	.byte N23, Gn3
	.byte W24
	.byte PEND
song_unk_130_0_000: @ 0x0834AB71
	.byte W24
	.byte N32, En4, v040
	.byte W36
	.byte Cn4
	.byte W36
	.byte PEND
	.byte Dn4
	.byte W36
	.byte Gn4
	.byte W36
	.byte N23, Fn4
	.byte W24
	.byte PATT
	 .4byte song_unk_130_0_000
	.byte PATT
	 .4byte song_unk_130_0_001
	.byte N44, An3, v040
	.byte W48
	.byte An4
	.byte W48
	.byte Gn4
	.byte W48
	.byte En4
	.byte W48
	.byte GOTO
	 .4byte song_unk_130_0_002
	.byte FINE
song_unk_130_1: @ 0x0834AB9A
	.byte KEYSH, 0x00
song_unk_130_1_005: @ 0x0834AB9C
	.byte VOICE, 0x78
	.byte VOL, 0x5A
	.byte W24
	.byte N32, En3, v040
	.byte W36
	.byte Cn3
	.byte W36
song_unk_130_1_004: @ 0x0834ABA7
	.byte N32, Dn3, v040
	.byte W36
	.byte Fn2
	.byte W36
	.byte N23, Gn2
	.byte W24
	.byte PEND
song_unk_130_1_003: @ 0x0834ABB1
	.byte W24
	.byte N32, En3, v040
	.byte W36
	.byte Cn3
	.byte W36
	.byte PEND
	.byte Dn3
	.byte W36
	.byte Gn3
	.byte W36
	.byte N23, Fn3
	.byte W24
	.byte PATT
	 .4byte song_unk_130_1_003
	.byte PATT
	 .4byte song_unk_130_1_004
	.byte N44, An2, v040
	.byte W48
	.byte An3
	.byte W48
	.byte Gn3
	.byte W48
	.byte En3
	.byte W48
	.byte GOTO
	 .4byte song_unk_130_1_005
	.byte FINE
song_unk_130_2: @ 0x0834ABDA
	.byte KEYSH, 0x00
song_unk_130_2_007: @ 0x0834ABDC
	.byte VOICE, 0x39
	.byte VOL, 0x5A
	.byte N11, An2, v036
	.byte N11, Dn3
	.byte W12
	.byte N05, Dn2
	.byte W12
	.byte N05
	.byte W12
	.byte N11, An2
	.byte N11, Dn3
	.byte W12
	.byte N05, Dn2
	.byte W12
	.byte N05
	.byte W12
	.byte N05
	.byte W12
	.byte N05
	.byte W12
	.byte N05
	.byte W12
	.byte N05
	.byte W12
	.byte N05
	.byte W12
	.byte N11, Gn2
	.byte N11, Cn3
	.byte W12
	.byte N05, Dn2
	.byte W12
	.byte N05
	.byte W12
	.byte N11, Fs2
	.byte N11, Bn2
	.byte W12
	.byte N05, Dn2
	.byte W12
song_unk_130_2_006: @ 0x0834AC11
	.byte N11, An2, v036
	.byte N11, Dn3
	.byte W12
	.byte N05, Dn2
	.byte W12
	.byte N05
	.byte W12
	.byte N11, An2
	.byte N11, Dn3
	.byte W12
	.byte N05, Dn2
	.byte W12
	.byte N05
	.byte W12
	.byte N05
	.byte W12
	.byte N05
	.byte W12
	.byte PEND
	.byte N05
	.byte W12
	.byte N05
	.byte W12
	.byte N05
	.byte W12
	.byte N11, Dn3
	.byte N11, Gn3
	.byte W24
	.byte N05, Dn2
	.byte W12
	.byte N11, Cn3
	.byte N11, Fn3
	.byte W12
	.byte N05, Dn2
	.byte W12
	.byte PATT
	 .4byte song_unk_130_2_006
	.byte N05, Dn2, v036
	.byte W12
	.byte N05
	.byte W12
	.byte N05
	.byte W12
	.byte N11, Gn2
	.byte N11, Cn3
	.byte W12
	.byte N05, Dn2
	.byte W12
	.byte N05
	.byte W12
	.byte N11, Fs2
	.byte N11, Bn2
	.byte W12
	.byte N05, En2
	.byte W12
	.byte N11, Cn3
	.byte N11, Fn3
	.byte W12
	.byte N05, Fn2
	.byte W12
	.byte N05
	.byte W12
	.byte N11, Cn3
	.byte N11, Fn3
	.byte W12
	.byte N05, Fn2
	.byte W12
	.byte N05
	.byte W12
	.byte N05
	.byte W12
	.byte N05
	.byte W12
	.byte N11, Gn2
	.byte N11, Cn3
	.byte W12
	.byte N05, Cn2
	.byte W12
	.byte N05
	.byte W12
	.byte N11, Gn2
	.byte N11, Cn3
	.byte W12
	.byte N05, Cn2
	.byte W12
	.byte N05
	.byte W12
	.byte N05
	.byte W12
	.byte N05
	.byte W12
	.byte GOTO
	 .4byte song_unk_130_2_007
	.byte FINE
song_unk_130_3: @ 0x0834AC96
	.byte KEYSH, 0x00
song_unk_130_3_009: @ 0x0834AC98
	.byte VOICE, 0x41
	.byte VOL, 0x5A
	.byte N11, Dn2, v080
	.byte W12
	.byte Cn2
	.byte W12
	.byte Dn2
	.byte W12
	.byte Dn1
	.byte W60
	.byte W36
	.byte En1
	.byte W12
	.byte Fn1
	.byte W12
	.byte Fn2
	.byte W12
	.byte Gn1
	.byte W12
	.byte Gn2
	.byte W12
song_unk_130_3_008: @ 0x0834ACB1
	.byte N11, Dn2, v080
	.byte W12
	.byte Cn2
	.byte W12
	.byte Dn2
	.byte W12
	.byte Dn1
	.byte W60
	.byte PEND
	.byte W36
	.byte Fn1
	.byte W12
	.byte Gn1
	.byte W12
	.byte Gn2
	.byte W12
	.byte An1
	.byte W12
	.byte An2
	.byte W12
	.byte PATT
	 .4byte song_unk_130_3_008
	.byte W36
	.byte N11, Cn1, v080
	.byte W12
	.byte Dn1
	.byte W12
	.byte Dn2
	.byte W12
	.byte En1
	.byte W12
	.byte En2
	.byte W12
	.byte Fn2
	.byte W12
	.byte En2
	.byte W12
	.byte Fn2
	.byte W12
	.byte Fn1
	.byte W48
	.byte Bn1
	.byte W12
	.byte Cn2
	.byte W12
	.byte Bn1
	.byte W12
	.byte Cn2
	.byte W12
	.byte Cn1
	.byte W24
	.byte Cn2
	.byte W12
	.byte Gn2
	.byte W12
	.byte An2
	.byte W12
	.byte GOTO
	 .4byte song_unk_130_3_009
	.byte FINE
song_unk_130_4: @ 0x0834ACF7
	.byte KEYSH, 0x00
song_unk_130_4_012: @ 0x0834ACF9
	.byte VOICE, 0x5D
	.byte VOL, 0x5A
	.byte N05, Cn1, v072
	.byte N23, Fs1, v020
	.byte W24
	.byte N23
	.byte W12
	.byte N05, Cn1, v072
	.byte W12
	.byte N23, Fs1, v020
	.byte W24
	.byte N05, Cn1, v072
	.byte N23, Fs1, v020
	.byte W12
	.byte N05, Cn1, v072
	.byte W12
song_unk_130_4_011: @ 0x0834AD19
	.byte N23, Fs1, v020
	.byte W24
	.byte N05, Cn1, v072
	.byte N23, Fs1, v020
	.byte W12
	.byte N05, Cn1, v072
	.byte W12
	.byte N23, Fs1, v020
	.byte W24
	.byte N23
	.byte W12
	.byte N05, Cn1, v072
	.byte W12
	.byte PEND
song_unk_130_4_010: @ 0x0834AD33
	.byte N05, Cn1, v072
	.byte N23, Fs1, v020
	.byte W24
	.byte N23
	.byte W12
	.byte N05, Cn1, v072
	.byte W12
	.byte N23, Fs1, v020
	.byte W24
	.byte N05, Cn1, v072
	.byte N23, Fs1, v020
	.byte W12
	.byte N05, Cn1, v072
	.byte W12
	.byte PEND
	.byte N23, Fs1, v020
	.byte W24
	.byte N05, Cn1, v072
	.byte N23, Fs1, v020
	.byte W12
	.byte N05, Cn1, v072
	.byte W12
	.byte N23, Fs1, v020
	.byte W24
	.byte N23
	.byte W24
	.byte PATT
	 .4byte song_unk_130_4_010
	.byte PATT
	 .4byte song_unk_130_4_011
	.byte N05, Cn1, v072
	.byte N23, Fs1, v020
	.byte W24
	.byte N23
	.byte W12
	.byte N05, Cn1, v072
	.byte W12
	.byte N23, Fs1, v020
	.byte W24
	.byte N23
	.byte W12
	.byte N05, Cn1, v072
	.byte W12
	.byte N05
	.byte N23, Fs1, v020
	.byte W24
	.byte N23
	.byte W12
	.byte N05, Cn1, v072
	.byte W12
	.byte N23, Fs1, v020
	.byte W24
	.byte N23
	.byte W24
	.byte GOTO
	 .4byte song_unk_130_4_012
	.byte FINE
song_unk_130_5: @ 0x0834AD9D
	.byte KEYSH, 0x00
song_unk_130_5_013: @ 0x0834AD9F
	.byte VOICE, 0x5E
	.byte VOL, 0x5A
	.byte W48
	.byte N11, Gs2, v060
	.byte W48
	.byte W48
	.byte N11
	.byte W48
	.byte W48
	.byte N11
	.byte W48
	.byte W48
	.byte N11
	.byte W36
	.byte N11
	.byte W12
	.byte W48
	.byte N11
	.byte W48
	.byte W48
	.byte N11
	.byte W48
	.byte W48
	.byte N11
	.byte W48
	.byte W12
	.byte N11
	.byte W36
	.byte N11
	.byte W24
	.byte N11
	.byte W12
	.byte N11
	.byte W12
	.byte GOTO
	 .4byte song_unk_130_5_013
	.byte FINE
	.align 2, 0
	.global song_unk_130
song_unk_130: @ 0x0834ADCC (song header)
	.byte 6, 0, 10, 0 @ trackCount, blockCount, priority, reverb
	.4byte gUnknown_0804CE78 @ voice group
	.4byte song_unk_130_0
	.4byte song_unk_130_1
	.4byte song_unk_130_2
	.4byte song_unk_130_3
	.4byte song_unk_130_4
	.4byte song_unk_130_5

