	.include "MPlayDef.s"
	.section .rodata
	.align 2, 0
song_unk_273_0: @ 0x0834EA50
	.byte KEYSH, 0x00
song_unk_273_0_001: @ 0x0834EA52
	.byte TEMPO, 0x21
	.byte VOICE, 0x78
	.byte VOL, 0x7F
	.byte TIE, En1, v060
	.byte N48, Gs1, v052
	.byte N48, Bn1
	.byte W44
	.byte W03
	.byte An1
	.byte N48, Cs2
	.byte W48
	.byte Gs1
	.byte N48, Ds2
	.byte W01
	.byte W44
	.byte W03
	.byte An1
	.byte N48, Cs2
	.byte W24
	.byte N24, Bn0, v060
	.byte W01
	.byte EOT, En1
	.byte W23
	.byte N24
	.byte N72, Gs1, v052
	.byte N48, Bn1
	.byte W01
	.byte W23
	.byte N24, Ds1, v060
	.byte W24
	.byte Cs1
	.byte N24, En2, v052
	.byte W24
	.byte Bn0, v060
	.byte N24, Cs2, v052
	.byte N24, Ds2
	.byte W24
	.byte N48, An0, v060
	.byte N48, Cs2, v052
	.byte N48, En2
	.byte W01
	.byte W44
	.byte W03
	.byte Bn0, v060
	.byte N48, An1, v052
	.byte N24, Cs2
	.byte W24
	.byte Ds2
	.byte W24
	.byte N72, En1, v060
	.byte N48, Gs1, v052
	.byte N48, Bn1
	.byte W01
	.byte W44
	.byte W03
	.byte An1
	.byte N48, Cs2
	.byte W24
	.byte N24, Bn0, v060
	.byte W24
	.byte En1
	.byte N48, Gs1, v052
	.byte N24, Ds2
	.byte W01
	.byte W23
	.byte Ds1, v060
	.byte N24, Bn1, v052
	.byte W24
	.byte Cs1
	.byte N48, Gs2
	.byte W01
	.byte N23, Bn1
	.byte W23
	.byte N24, Bn0, v060
	.byte N24, Cs2, v052
	.byte W24
	.byte N48, An0, v060
	.byte N24, En2, v052
	.byte N24, Cs3
	.byte W01
	.byte W23
	.byte Cs2
	.byte N24, Gs2
	.byte W24
	.byte N48, Bn0, v060
	.byte N24, An1, v052
	.byte N24, En2
	.byte W24
	.byte Cs2
	.byte N24, An2
	.byte W24
	.byte N48, En1, v060
	.byte N96, Bn1, v052
	.byte N96, Gs2
	.byte W01
	.byte W44
	.byte W03
	.byte N48, Dn1, v060
	.byte W48
	.byte An0, v052
	.byte N24, En1
	.byte N36, Gs1
	.byte W01
song_unk_273_0_000: @ 0x0834EB05
	.byte W11
	.byte N24, Cs2, v052
	.byte W12
	.byte En2
	.byte W12
	.byte N36, An1
	.byte N12, Cs3
	.byte W12
	.byte N24, Bn1
	.byte N24, Fs2
	.byte N24, Ds3
	.byte W24
	.byte An0
	.byte N48, Fs1
	.byte N24, En2
	.byte N24, Cs3
	.byte W24
	.byte N48, Gs0
	.byte N48, Ds2
	.byte N36, Bn2
	.byte W01
	.byte PEND
	.byte W23
	.byte N24, Bn1
	.byte W12
	.byte N06, Cs3
	.byte W06
	.byte Ds3
	.byte W06
	.byte N24, Cs1
	.byte N24, Ds2
	.byte N48, Gs2
	.byte N48, En3
	.byte W24
	.byte N24, Bn0
	.byte N24, Cs2
	.byte W24
	.byte N48, Fs0
	.byte N36, Cs1
	.byte N24, An1
	.byte W01
	.byte W11
	.byte Cs2
	.byte W12
	.byte En2
	.byte W12
	.byte N12, An1
	.byte N12, Cs3
	.byte W12
	.byte N48, Bn0
	.byte N48, Fs1
	.byte N24, Ds2
	.byte N24, Bn2
	.byte W24
	.byte Cs2
	.byte N24, An2
	.byte W24
	.byte N48, Gs0
	.byte N24, Fs1
	.byte N24, Ds2
	.byte N48, Bn2
	.byte W01
	.byte W23
	.byte N24, Bn1
	.byte N24, Fs2
	.byte W24
	.byte Cs1
	.byte N24, Ds2
	.byte N48, En2
	.byte N48, Gs2
	.byte W24
	.byte N24, Bn0
	.byte N24, Cs2
	.byte W24
	.byte N48, An0
	.byte N24, En1
	.byte N36, Gs1
	.byte W01
	.byte PATT
	 .4byte song_unk_273_0_000
	.byte W23
	.byte N24, Bn1, v052
	.byte W12
	.byte N06, Cs3
	.byte W06
	.byte Ds3
	.byte W06
	.byte N48, Cs1
	.byte N24, Ds2
	.byte N24, Gs2
	.byte N36, En3
	.byte W24
	.byte N24, Gs1
	.byte N24, En2
	.byte W12
	.byte N06, Fs3
	.byte W06
	.byte Gs3
	.byte W06
	.byte N96, Dn1
	.byte N48, Fs2
	.byte N48, Cs3
	.byte N24, An3
	.byte W01
	.byte W23
	.byte Gs3
	.byte W24
	.byte Cs2
	.byte N24, An2
	.byte N24, En3
	.byte W24
	.byte An1
	.byte N24, En2
	.byte N24, Cs3
	.byte W24
	.byte TIE, Bn0, v060
	.byte N48, Cs2, v052
	.byte N48, An2
	.byte N48, En3
	.byte W01
	.byte W44
	.byte W03
	.byte An1
	.byte N48, Ds2
	.byte N48, Fs2
	.byte W48
	.byte W01
	.byte EOT, Bn0
	.byte GOTO
	 .4byte song_unk_273_0_001
	.byte FINE
song_unk_273_1: @ 0x0834EBD6
	.byte KEYSH, 0x00
song_unk_273_1_003: @ 0x0834EBD8
	.byte VOICE, 0x13
	.byte VOL, 0x7F
	.byte W96
	.byte W96
	.byte W96
	.byte W96
	.byte W96
	.byte W96
	.byte W96
	.byte W96
song_unk_273_1_002: @ 0x0834EBE4
	.byte W12
	.byte N12, Cs4, v048
	.byte W12
	.byte En4
	.byte W12
	.byte Cs5
	.byte W12
	.byte N24, Ds5
	.byte W24
	.byte Cs5
	.byte W24
	.byte PEND
	.byte N36, Bn4
	.byte W36
	.byte N06, Cs5
	.byte W06
	.byte Ds5
	.byte W06
	.byte N48, En5
	.byte W48
	.byte W12
	.byte N12, Cs4
	.byte W12
	.byte En4
	.byte W12
	.byte Cs5
	.byte W12
	.byte N24, Bn4
	.byte W24
	.byte An4
	.byte W24
	.byte N48, Bn4
	.byte W48
	.byte Gs4
	.byte W48
	.byte PATT
	 .4byte song_unk_273_1_002
	.byte N36, Bn4, v048
	.byte W36
	.byte N06, Cs5
	.byte W06
	.byte Ds5
	.byte W06
	.byte N36, En5
	.byte W36
	.byte N06, Fs5
	.byte W06
	.byte Gs5
	.byte W06
	.byte N24, An5
	.byte W24
	.byte Gs5
	.byte W24
	.byte En5
	.byte W24
	.byte Cs5
	.byte W24
	.byte N48, En5
	.byte W96
	.byte GOTO
	 .4byte song_unk_273_1_003
	.byte FINE
song_unk_273_2: @ 0x0834EC38
	.byte KEYSH, 0x00
song_unk_273_2_005: @ 0x0834EC3A
	.byte VOICE, 0x31
	.byte VOL, 0x7F
	.byte W96
	.byte W96
	.byte W96
	.byte W96
	.byte W96
	.byte W96
	.byte W96
	.byte W96
song_unk_273_2_004: @ 0x0834EC46
	.byte W12
	.byte N12, An2, v040
	.byte W12
	.byte Cs3
	.byte W12
	.byte En3
	.byte W12
	.byte N24, Fs3
	.byte W24
	.byte En3
	.byte W24
	.byte PEND
	.byte N36, Ds3
	.byte W36
	.byte N06, En3
	.byte W06
	.byte Fs3
	.byte W06
	.byte N48, Gs3
	.byte W48
	.byte W12
	.byte N12, An2
	.byte W12
	.byte Cs3
	.byte W12
	.byte En3
	.byte W12
	.byte N24, Ds3
	.byte W24
	.byte Cs3
	.byte W24
	.byte N48, Ds3
	.byte W48
	.byte Bn2
	.byte W48
	.byte PATT
	 .4byte song_unk_273_2_004
	.byte N36, Ds3, v040
	.byte W36
	.byte N06, En3
	.byte W06
	.byte Fs3
	.byte W06
	.byte N36, Gs3
	.byte W36
	.byte N06, An3
	.byte W06
	.byte Bn3
	.byte W06
	.byte N24, Cs4
	.byte W24
	.byte Bn3
	.byte W24
	.byte Gs3
	.byte W24
	.byte En3
	.byte W24
	.byte N48, An3
	.byte W96
	.byte GOTO
	 .4byte song_unk_273_2_005
	.byte FINE
song_unk_273_3: @ 0x0834EC9A
	.byte KEYSH, 0x00
song_unk_273_3_008: @ 0x0834EC9C
	.byte VOICE, 0x58
	.byte VOL, 0x7F
	.byte W96
	.byte W96
	.byte W96
	.byte W96
	.byte W96
	.byte W96
	.byte W96
	.byte W96
song_unk_273_3_006: @ 0x0834ECA8
	.byte N06, An2, v052
	.byte W06
	.byte N06
	.byte W06
	.byte En3
	.byte W06
	.byte An3
	.byte W30
	.byte An2
	.byte W06
	.byte N06
	.byte W06
	.byte En3
	.byte W06
	.byte An3
	.byte W30
	.byte PEND
song_unk_273_3_007: @ 0x0834ECBB
	.byte N06, Gs2, v052
	.byte W06
	.byte N06
	.byte W06
	.byte Ds3
	.byte W06
	.byte Gs3
	.byte W18
	.byte Bn2
	.byte W06
	.byte Cn3
	.byte W06
	.byte Cs3
	.byte W06
	.byte N06
	.byte W06
	.byte Gs3
	.byte W06
	.byte Cs4
	.byte W18
	.byte Bn2
	.byte W06
	.byte Cs3
	.byte W06
	.byte PEND
	.byte Fs2
	.byte W06
	.byte N06
	.byte W06
	.byte Cs3
	.byte W06
	.byte Fs3
	.byte W30
	.byte Bn2
	.byte W06
	.byte N06
	.byte W06
	.byte Fs3
	.byte W06
	.byte Bn3
	.byte W18
	.byte Fs2
	.byte W06
	.byte Gn2
	.byte W06
	.byte Gs2
	.byte W06
	.byte N06
	.byte W06
	.byte Ds3
	.byte W06
	.byte Gs3
	.byte W12
	.byte Fs3
	.byte W06
	.byte Gs3
	.byte W06
	.byte Bn2
	.byte W06
	.byte Cs3
	.byte W06
	.byte Cs4
	.byte W12
	.byte Ds3
	.byte W12
	.byte En3
	.byte W12
	.byte Gs3
	.byte W06
	.byte PATT
	 .4byte song_unk_273_3_006
	.byte PATT
	 .4byte song_unk_273_3_007
	.byte N06, Dn3, v052
	.byte W06
	.byte N06
	.byte W06
	.byte An3
	.byte W06
	.byte Dn4
	.byte W30
	.byte Dn3
	.byte W06
	.byte N06
	.byte W06
	.byte An3
	.byte W06
	.byte Dn4
	.byte W12
	.byte Dn3
	.byte W06
	.byte Cs3
	.byte W06
	.byte Cn3
	.byte W06
	.byte Bn2
	.byte W06
	.byte N06
	.byte W06
	.byte Fs3
	.byte W06
	.byte Bn3
	.byte W12
	.byte Fs3
	.byte W06
	.byte Bn2
	.byte W60
	.byte GOTO
	 .4byte song_unk_273_3_008
	.byte FINE
song_unk_273_4: @ 0x0834ED36
	.byte KEYSH, 0x00
song_unk_273_4_010: @ 0x0834ED38
	.byte VOICE, 0x7C
	.byte VOL, 0x7F
	.byte W12
	.byte N12, Gs2, v056
	.byte W12
	.byte Bn2
	.byte W12
	.byte En3, v076
	.byte W12
	.byte N01, En3, v068
	.byte W01
	.byte N30, Fs3, v076
	.byte W32
	.byte W03
	.byte N06, Gs3
	.byte W06
	.byte An3
	.byte W06
	.byte N24, Bn3
	.byte W24
	.byte En3
	.byte W24
	.byte N48, Fs3
	.byte W48
song_unk_273_4_009: @ 0x0834ED5C
	.byte W12
	.byte N12, Gs2, v056
	.byte W12
	.byte Bn2
	.byte W12
	.byte En3, v076
	.byte W12
	.byte N01, En3, v068
	.byte W01
	.byte N30, Fs3, v076
	.byte W32
	.byte W03
	.byte N06, Gs3
	.byte W06
	.byte An3
	.byte W06
	.byte PEND
	.byte N30, Bn3
	.byte W36
	.byte N01, Gs3, v068
	.byte W01
	.byte N06, An3, v076
	.byte W05
	.byte Gs3
	.byte W06
	.byte N48, Fs3
	.byte W48
	.byte PATT
	 .4byte song_unk_273_4_009
	.byte N24, Bn3, v068
	.byte W24
	.byte N23, En3, v076
	.byte W24
	.byte N24, En4, v056
	.byte W24
	.byte N12, Ds4, v068
	.byte W12
	.byte En4
	.byte W12
	.byte N01, Gn4
	.byte W01
	.byte N23, Gs4, v056
	.byte W23
	.byte N24, En4, v068
	.byte W24
	.byte Cs4
	.byte W24
	.byte En4
	.byte W24
	.byte N96
	.byte W96
	.byte W96
	.byte W96
	.byte W96
	.byte W96
	.byte W96
	.byte W96
	.byte W96
	.byte W96
	.byte GOTO
	 .4byte song_unk_273_4_010
	.byte FINE
song_unk_273_5: @ 0x0834EDBB
	.byte KEYSH, 0x00
song_unk_273_5_015: @ 0x0834EDBD
	.byte VOICE, 0x5D
	.byte VOL, 0x7F
	.byte W24
	.byte N01, Fs1, v012
	.byte W48
	.byte N01
	.byte W24
song_unk_273_5_011: @ 0x0834EDC8
	.byte W24
	.byte N01, Fs1, v012
	.byte W48
	.byte N01
	.byte W24
	.byte PEND
	.byte PATT
	 .4byte song_unk_273_5_011
	.byte PATT
	 .4byte song_unk_273_5_011
	.byte PATT
	 .4byte song_unk_273_5_011
	.byte PATT
	 .4byte song_unk_273_5_011
	.byte PATT
	 .4byte song_unk_273_5_011
	.byte W24
	.byte N01, Fs1, v012
	.byte W24
	.byte N06, Cn1, v072
	.byte W06
	.byte Cn2, v060
	.byte W12
	.byte Bn1
	.byte W06
	.byte N12, Fs1, v016
	.byte N06, An1, v060
	.byte W12
	.byte Gn1
	.byte W06
	.byte N06
	.byte W06
song_unk_273_5_012: @ 0x0834EE02
	.byte N06, Cn1, v072
	.byte N01, Fs1, v016
	.byte N48, Cs2, v032
	.byte W06
	.byte N01, Fs1, v012
	.byte W06
	.byte Fs1, v016
	.byte W06
	.byte Fs1, v012
	.byte W06
	.byte N06, Dn1, v056
	.byte N01, Fs1, v016
	.byte W06
	.byte Fs1, v012
	.byte W06
	.byte Fs1, v016
	.byte W06
	.byte N06, Cn1, v072
	.byte N01, Fs1, v012
	.byte W06
	.byte N06, Cn1, v072
	.byte N01, Fs1, v016
	.byte W06
	.byte Fs1, v012
	.byte W06
	.byte Fs1, v016
	.byte W06
	.byte Fs1, v012
	.byte W06
	.byte N06, Dn1, v056
	.byte N01, Fs1, v016
	.byte W06
	.byte Fs1, v012
	.byte W06
	.byte Fs1, v016
	.byte W06
	.byte Fs1, v012
	.byte W06
	.byte PEND
song_unk_273_5_013: @ 0x0834EE4B
	.byte N06, Cn1, v072
	.byte N01, Fs1, v016
	.byte W06
	.byte Fs1, v012
	.byte W06
	.byte Fs1, v016
	.byte W06
	.byte Fs1, v012
	.byte W06
	.byte N06, Dn1, v056
	.byte N01, Fs1, v016
	.byte W06
	.byte Fs1, v012
	.byte W06
	.byte Fs1, v016
	.byte W06
	.byte N06, Cn1, v072
	.byte N01, Fs1, v012
	.byte W06
	.byte N06, Cn1, v072
	.byte N01, Fs1, v016
	.byte W06
	.byte Fs1, v012
	.byte W06
	.byte Fs1, v016
	.byte W06
	.byte Fs1, v012
	.byte W06
	.byte N06, Dn1, v056
	.byte N01, Fs1, v016
	.byte W06
	.byte Fs1, v012
	.byte W06
	.byte N12, Fs1, v016
	.byte W12
	.byte PEND
song_unk_273_5_014: @ 0x0834EE8E
	.byte N06, Cn1, v072
	.byte N01, Fs1, v016
	.byte W06
	.byte Fs1, v012
	.byte W06
	.byte Fs1, v016
	.byte W06
	.byte Fs1, v012
	.byte W06
	.byte N06, Dn1, v056
	.byte N01, Fs1, v016
	.byte W06
	.byte Fs1, v012
	.byte W06
	.byte Fs1, v016
	.byte W06
	.byte N06, Cn1, v072
	.byte N01, Fs1, v012
	.byte W06
	.byte N06, Cn1, v072
	.byte N01, Fs1, v016
	.byte W06
	.byte Fs1, v012
	.byte W06
	.byte Fs1, v016
	.byte W06
	.byte Fs1, v012
	.byte W06
	.byte N06, Dn1, v056
	.byte N01, Fs1, v016
	.byte W06
	.byte Fs1, v012
	.byte W06
	.byte Fs1, v016
	.byte W06
	.byte Fs1, v012
	.byte W06
	.byte PEND
	.byte N06, Cn1, v072
	.byte N01, Fs1, v016
	.byte W06
	.byte Fs1, v012
	.byte W06
	.byte Fs1, v016
	.byte W06
	.byte Fs1, v012
	.byte W06
	.byte N06, Dn1, v056
	.byte N01, Fs1, v016
	.byte W06
	.byte Fs1, v012
	.byte W06
	.byte Fs1, v016
	.byte W06
	.byte N06, Cn1, v072
	.byte N01, Fs1, v012
	.byte W06
	.byte N06, Cn1, v072
	.byte N01, Fs1, v016
	.byte W06
	.byte Fs1, v012
	.byte W06
	.byte Fs1, v016
	.byte W06
	.byte Fs1, v012
	.byte W06
	.byte N06, Dn1, v056
	.byte N12, Fs1, v016
	.byte W12
	.byte N01
	.byte N06, An1, v060
	.byte W06
	.byte N01, Fs1, v012
	.byte N06, An1, v060
	.byte W06
	.byte PATT
	 .4byte song_unk_273_5_012
	.byte PATT
	 .4byte song_unk_273_5_013
	.byte PATT
	 .4byte song_unk_273_5_014
	.byte N06, Cn1, v072
	.byte N01, Fs1, v016
	.byte W06
	.byte Fs1, v012
	.byte W06
	.byte Fs1, v016
	.byte N06, Cn2, v060
	.byte W06
	.byte N01, Fs1, v012
	.byte W06
	.byte N06, Dn1, v056
	.byte N01, Fs1, v016
	.byte W06
	.byte Fs1, v012
	.byte N06, Bn1, v060
	.byte W06
	.byte N01, Fs1, v016
	.byte W06
	.byte N06, Cn1, v072
	.byte N01, Fs1, v012
	.byte W06
	.byte Fs1, v016
	.byte N06, An1, v060
	.byte N48, Cs2, v032
	.byte W06
	.byte N01, Fs1, v012
	.byte W06
	.byte Fs1, v016
	.byte W06
	.byte N06, Cn1, v072
	.byte N01, Fs1, v012
	.byte W06
	.byte N12, Fs1, v016
	.byte N06, Gn1, v060
	.byte W24
	.byte GOTO
	 .4byte song_unk_273_5_015
	.byte FINE
	.align 2, 0
	.global song_unk_273
song_unk_273: @ 0x0834EF7C (song header)
	.byte 6, 0, 10, 0 @ trackCount, blockCount, priority, reverb
	.4byte voicegroup000 @ voice group
	.4byte song_unk_273_0
	.4byte song_unk_273_1
	.4byte song_unk_273_2
	.4byte song_unk_273_3
	.4byte song_unk_273_4
	.4byte song_unk_273_5
	.size song_unk_273,.-song_unk_273
