	.include "MPlayDef.s"
	.section .rodata
	.align 2, 0
song_unk_81_0: @ 0x083488C8
	.byte KEYSH, 0x00
	.byte TEMPO, 0x48
	.byte W48
song_unk_81_0_002: @ 0x083488CD
	.byte VOICE, 0x22
	.byte VOL, 0x7F
	.byte PAN, 0x7F
	.byte N03, Cn4, v060
	.byte W12
	.byte As3
	.byte W12
	.byte Cn4
	.byte W12
	.byte As3
	.byte W12
song_unk_81_0_000: @ 0x083488DD
	.byte N03, Cn4, v060
	.byte W12
	.byte As3
	.byte W06
	.byte Cn4
	.byte W30
	.byte Gn3
	.byte W12
	.byte Fn3
	.byte W12
	.byte Gn3
	.byte W12
	.byte Fn3
	.byte W12
	.byte PEND
song_unk_81_0_001: @ 0x083488EE
	.byte N03, Gn3, v060
	.byte W12
	.byte Fn3
	.byte W06
	.byte Gn3
	.byte W30
	.byte Gs3
	.byte W12
	.byte Gn3
	.byte W12
	.byte Gs3
	.byte W12
	.byte Gn3
	.byte W12
	.byte PEND
	.byte Gs3
	.byte W12
	.byte Gn3
	.byte W06
	.byte Gs3
	.byte W30
	.byte Cn4
	.byte W12
	.byte As3
	.byte W12
	.byte Cn4
	.byte W12
	.byte As3
	.byte W12
	.byte Cn4
	.byte W12
	.byte As3
	.byte W06
	.byte Cn4
	.byte W30
	.byte N03
	.byte W12
	.byte As3
	.byte W12
	.byte Cn4
	.byte W12
	.byte As3
	.byte W12
	.byte PATT
	 .4byte song_unk_81_0_000
	.byte PATT
	 .4byte song_unk_81_0_001
	.byte N03, Gs3, v060
	.byte W12
	.byte Gn3
	.byte W06
	.byte Gs3
	.byte W30
	.byte Cs4
	.byte W12
	.byte Cn4
	.byte W12
	.byte Cs4
	.byte W12
	.byte Cn4
	.byte W12
	.byte Cs4
	.byte W12
	.byte Cn4
	.byte W06
	.byte Cs4
	.byte W30
	.byte GOTO
	 .4byte song_unk_81_0_002
	.byte FINE
song_unk_81_1: @ 0x08348941
	.byte KEYSH, 0x00
	.byte W48
song_unk_81_1_004: @ 0x08348944
	.byte VOICE, 0x52
	.byte VOL, 0x7F
	.byte PAN, 0x00
	.byte N03, Fn4, v072
	.byte W12
	.byte Ds4
	.byte W12
	.byte Fn4
	.byte W12
	.byte Ds4
	.byte W12
song_unk_81_1_003: @ 0x08348954
	.byte N03, Fn4, v072
	.byte W12
	.byte Ds4
	.byte W06
	.byte Fn4
	.byte W30
	.byte Cn4
	.byte W12
	.byte As3
	.byte W12
	.byte Cn4
	.byte W12
	.byte As3
	.byte W12
	.byte PEND
	.byte Cn4
	.byte W12
	.byte As3
	.byte W06
	.byte Cn4
	.byte W30
	.byte Cs4
	.byte W12
	.byte Cn4
	.byte W12
	.byte Cs4
	.byte W12
	.byte Cn4
	.byte W12
	.byte Cs4
	.byte W12
	.byte Cn4
	.byte W06
	.byte Cs4
	.byte W30
	.byte Gn4
	.byte W12
	.byte Fn4
	.byte W12
	.byte Gn4
	.byte W12
	.byte Fn4
	.byte W12
	.byte Gn4
	.byte W12
	.byte Fn4
	.byte W06
	.byte Gn4
	.byte W30
	.byte Fn4
	.byte W12
	.byte Ds4
	.byte W12
	.byte Fn4
	.byte W12
	.byte Ds4
	.byte W12
	.byte PATT
	 .4byte song_unk_81_1_003
	.byte N03, Cn4, v072
	.byte W12
	.byte As3
	.byte W06
	.byte Cn4
	.byte W30
	.byte Fn4
	.byte W12
	.byte Ds4
	.byte W12
	.byte Fn4
	.byte W12
	.byte Ds4
	.byte W12
	.byte Fn4
	.byte W12
	.byte Ds4
	.byte W06
	.byte Fn4
	.byte W30
	.byte As4
	.byte W12
	.byte Gs4
	.byte W12
	.byte As4
	.byte W12
	.byte Gs4
	.byte W12
	.byte As4
	.byte W12
	.byte Gs4
	.byte W06
	.byte As4
	.byte W30
	.byte GOTO
	 .4byte song_unk_81_1_004
	.byte FINE
song_unk_81_2: @ 0x083489BE
	.byte KEYSH, 0x00
	.byte W48
song_unk_81_2_007: @ 0x083489C1
	.byte VOICE, 0x58
	.byte VOL, 0x7F
	.byte N05, Fn3, v060
	.byte W18
	.byte N05
	.byte W18
	.byte Fn3, v052
	.byte W06
	.byte N05
	.byte W06
song_unk_81_2_005: @ 0x083489D0
	.byte W48
	.byte N05, Cn3, v060
	.byte W18
	.byte N05
	.byte W18
	.byte N05
	.byte W06
	.byte N05
	.byte W06
	.byte PEND
song_unk_81_2_006: @ 0x083489DC
	.byte W48
	.byte N05, Cs3, v060
	.byte W18
	.byte N05
	.byte W18
	.byte N05
	.byte W06
	.byte N05
	.byte W06
	.byte PEND
	.byte W48
	.byte Gs3
	.byte W18
	.byte N05
	.byte W18
	.byte N05
	.byte W06
	.byte N05
	.byte W06
	.byte W12
	.byte Gn3
	.byte W06
	.byte N05
	.byte W30
	.byte Fn3
	.byte W18
	.byte N05
	.byte W18
	.byte Fn3, v052
	.byte W06
	.byte N05
	.byte W06
	.byte PATT
	 .4byte song_unk_81_2_005
	.byte PATT
	 .4byte song_unk_81_2_006
	.byte W12
	.byte N05, Ds3, v060
	.byte W06
	.byte N05
	.byte W30
	.byte Fs3
	.byte W18
	.byte N05
	.byte W18
	.byte N05
	.byte W06
	.byte N05
	.byte W06
	.byte W48
	.byte GOTO
	 .4byte song_unk_81_2_007
	.byte FINE
song_unk_81_3: @ 0x08348A1F
	.byte KEYSH, 0x00
	.byte VOICE, 0x5E
	.byte VOL, 0x7F
	.byte N05, Cn3, v052
	.byte W06
	.byte N05
	.byte W06
	.byte N05
	.byte W12
	.byte N11, Cn2
	.byte N05, Cn3
	.byte W12
	.byte N11, Cn2
	.byte N05, Cn3
	.byte W12
song_unk_81_3_010: @ 0x08348A37
	.byte VOICE, 0x5D
	.byte VOL, 0x7F
	.byte N05, Cn1, v060
	.byte N00, Fs1, v016
	.byte W06
	.byte Fs1, v012
	.byte W06
	.byte Fs1, v016
	.byte W06
	.byte Fs1, v012
	.byte W06
	.byte N05, Dn1, v052
	.byte N00, Fs1, v016
	.byte W06
	.byte Fs1, v012
	.byte W06
	.byte N05, Cn1, v060
	.byte N00, Fs1, v016
	.byte W06
	.byte Fs1, v012
	.byte W06
song_unk_81_3_008: @ 0x08348A5F
	.byte N00, Fs1, v016
	.byte W06
	.byte Fs1, v012
	.byte W06
	.byte N05, Cn1, v060
	.byte N00, Fs1, v016
	.byte W06
	.byte Fs1, v012
	.byte W06
	.byte N05, Dn1, v052
	.byte N00, Fs1, v016
	.byte W06
	.byte Fs1, v012
	.byte W06
	.byte Fs1, v016
	.byte W06
	.byte N05, Cn1, v060
	.byte N00, Fs1, v012
	.byte W06
	.byte N05, Cn1, v060
	.byte N00, Fs1, v016
	.byte W06
	.byte Fs1, v012
	.byte W06
	.byte Fs1, v016
	.byte W06
	.byte Fs1, v012
	.byte W06
	.byte N05, Dn1, v052
	.byte N00, Fs1, v016
	.byte W06
	.byte Fs1, v012
	.byte W06
	.byte N05, Cn1, v060
	.byte N00, Fs1, v016
	.byte W06
	.byte Fs1, v012
	.byte W06
	.byte PEND
song_unk_81_3_009: @ 0x08348AA9
	.byte N00, Fs1, v016
	.byte W06
	.byte N05, Dn1, v052
	.byte N00, Fs1, v012
	.byte W06
	.byte N05, Cn1, v060
	.byte N00, Fs1, v016
	.byte W06
	.byte Fs1, v012
	.byte W06
	.byte N05, Dn1, v052
	.byte N00, Fs1, v016
	.byte W06
	.byte Fs1, v012
	.byte W06
	.byte N11, Fs1, v016
	.byte W12
	.byte N05, Cn1, v060
	.byte N00, Fs1, v016
	.byte W06
	.byte Fs1, v012
	.byte W06
	.byte Fs1, v016
	.byte W06
	.byte Fs1, v012
	.byte W06
	.byte N05, Dn1, v052
	.byte N00, Fs1, v016
	.byte W06
	.byte Fs1, v012
	.byte W06
	.byte N05, Cn1, v060
	.byte N00, Fs1, v016
	.byte W06
	.byte Fs1, v012
	.byte W06
	.byte PEND
	.byte PATT
	 .4byte song_unk_81_3_008
	.byte N00, Fs1, v016
	.byte W06
	.byte N05, Dn1, v052
	.byte N00, Fs1, v012
	.byte W06
	.byte N05, Cn1, v060
	.byte N00, Fs1, v016
	.byte W06
	.byte Fs1, v012
	.byte W06
	.byte N05, Dn1, v052
	.byte N00, Fs1, v016
	.byte W06
	.byte Fs1, v012
	.byte W06
	.byte N11, Fs1, v016
	.byte W06
	.byte N05, Dn1, v052
	.byte W06
	.byte Cn1, v060
	.byte N00, Fs1, v016
	.byte W06
	.byte Fs1, v012
	.byte W06
	.byte Fs1, v016
	.byte W06
	.byte Fs1, v012
	.byte W06
	.byte N05, Dn1, v052
	.byte N00, Fs1, v016
	.byte W06
	.byte Fs1, v012
	.byte W06
	.byte N05, Cn1, v060
	.byte N00, Fs1, v016
	.byte W06
	.byte Fs1, v012
	.byte W06
	.byte PATT
	 .4byte song_unk_81_3_008
	.byte PATT
	 .4byte song_unk_81_3_009
	.byte PATT
	 .4byte song_unk_81_3_008
	.byte N05, Dn1, v052
	.byte N00, Fs1, v016
	.byte W06
	.byte Fs1, v012
	.byte W06
	.byte N05, Dn1, v052
	.byte N00, Fs1, v016
	.byte W06
	.byte Fs1, v012
	.byte W06
	.byte N05, Dn1, v052
	.byte N00, Fs1, v016
	.byte W06
	.byte Fs1, v012
	.byte W06
	.byte N05, Dn1, v052
	.byte N11, Fs1, v016
	.byte W12
	.byte GOTO
	 .4byte song_unk_81_3_010
	.byte FINE
song_unk_81_4: @ 0x08348B7A
	.byte KEYSH, 0x00
	.byte W48
song_unk_81_4_012: @ 0x08348B7D
	.byte VOICE, 0x78
	.byte VOL, 0x7F
	.byte N42, Cn3, v060
	.byte W44
	.byte W02
	.byte N11, Fn2
	.byte W02
song_unk_81_4_011: @ 0x08348B89
	.byte W10
	.byte N11, Gn2, v060
	.byte W12
	.byte Gs2
	.byte W12
	.byte Cn3
	.byte W12
	.byte N44, As2
	.byte W48
	.byte Ds2
	.byte W02
	.byte PEND
	.byte W44
	.byte W02
	.byte N11, Cs2
	.byte W12
	.byte Cn2
	.byte W12
	.byte Cs2
	.byte W12
	.byte Ds2
	.byte W12
	.byte Fn2
	.byte W02
	.byte W10
	.byte Gn2
	.byte W12
	.byte Gs2
	.byte W12
	.byte As2
	.byte W12
	.byte N44, Cn3
	.byte W48
	.byte N11, As2
	.byte W02
	.byte W10
	.byte Cn3
	.byte W12
	.byte N23, As2
	.byte W24
	.byte N44, Cn3
	.byte W48
	.byte N11, Fn2
	.byte W02
	.byte PATT
	 .4byte song_unk_81_4_011
	.byte W44
	.byte W02
	.byte N11, Fn2, v060
	.byte W12
	.byte Gn2
	.byte W12
	.byte Gs2
	.byte W12
	.byte Cn3
	.byte W12
	.byte As2
	.byte W02
	.byte W10
	.byte Gn2
	.byte W12
	.byte Ds2
	.byte W12
	.byte Cn2
	.byte W12
	.byte N92, Fn2
	.byte W48
	.byte W02
	.byte W48
	.byte GOTO
	 .4byte song_unk_81_4_012
	.byte FINE
	.align 2, 0
	.global song_unk_81
song_unk_81: @ 0x08348BE4 (song header)
	.byte 5, 0, 10, 0 @ trackCount, blockCount, priority, reverb
	.4byte gUnknown_0804CE78 @ voice group
	.4byte song_unk_81_0
	.4byte song_unk_81_1
	.4byte song_unk_81_2
	.4byte song_unk_81_3
	.4byte song_unk_81_4

