	.include "MPlayDef.s"
	.section .rodata
	.align 2, 0
song_unk_744_0: @ 0x083AA288
	.byte VOL, 0x6E
	.byte KEYSH, 0x00
song_unk_744_0_001: @ 0x083AA28C
	.byte TEMPO, 0x2E
	.byte VOICE, 0x5D
	.byte N24, Gs6, v127
	.byte W24
	.byte N24
	.byte W24
	.byte N24
	.byte W24
	.byte N24
	.byte W24
song_unk_744_0_000: @ 0x083AA29A
	.byte N24, Gs6, v127
	.byte W24
	.byte N24
	.byte W24
	.byte N24
	.byte W24
	.byte N24
	.byte W24
	.byte PEND
	.byte PATT
	 .4byte song_unk_744_0_000
	.byte PATT
	 .4byte song_unk_744_0_000
	.byte PATT
	 .4byte song_unk_744_0_000
	.byte PATT
	 .4byte song_unk_744_0_000
	.byte PATT
	 .4byte song_unk_744_0_000
	.byte PATT
	 .4byte song_unk_744_0_000
	.byte GOTO
	 .4byte song_unk_744_0_001
	.byte FINE
song_unk_744_1: @ 0x083AA2C9
	.byte VOL, 0x6E
	.byte KEYSH, 0x00
song_unk_744_1_004: @ 0x083AA2CD
	.byte VOICE, 0x5D
	.byte N04, Cn1, v096
	.byte W36
	.byte N04
	.byte W32
	.byte Ds4, v080
	.byte W04
	.byte Ds1
	.byte W12
	.byte Cn1, v096
	.byte W12
song_unk_744_1_002: @ 0x083AA2DD
	.byte W12
	.byte N04, Cn1, v096
	.byte W20
	.byte N04
	.byte W16
	.byte N04
	.byte W24
	.byte Ds1, v080
	.byte W24
	.byte PEND
song_unk_744_1_003: @ 0x083AA2EA
	.byte N04, Cn1, v096
	.byte W36
	.byte N04
	.byte W32
	.byte Ds4, v080
	.byte W04
	.byte Ds1
	.byte W12
	.byte Cn1, v096
	.byte W12
	.byte PEND
	.byte PATT
	 .4byte song_unk_744_1_002
	.byte PATT
	 .4byte song_unk_744_1_003
	.byte PATT
	 .4byte song_unk_744_1_002
	.byte PATT
	 .4byte song_unk_744_1_003
	.byte PATT
	 .4byte song_unk_744_1_002
	.byte GOTO
	 .4byte song_unk_744_1_004
	.byte FINE
song_unk_744_2: @ 0x083AA318
	.byte VOL, 0x6E
	.byte KEYSH, 0x00
song_unk_744_2_006: @ 0x083AA31C
	.byte VOICE, 0x44
	.byte N06, Cs2, v112
	.byte W08
	.byte N06
	.byte W28
	.byte N06
	.byte W08
	.byte N06
	.byte W52
	.byte W96
	.byte N06
	.byte W08
	.byte N06
	.byte W28
	.byte N06
	.byte W08
	.byte N06
	.byte W52
	.byte W96
song_unk_744_2_005: @ 0x083AA332
	.byte N06, Gs1, v112
	.byte W08
	.byte N06
	.byte W28
	.byte N06
	.byte W08
	.byte N06
	.byte W52
	.byte PEND
	.byte W96
	.byte PATT
	 .4byte song_unk_744_2_005
	.byte W96
	.byte GOTO
	 .4byte song_unk_744_2_006
	.byte FINE
song_unk_744_3: @ 0x083AA34A
	.byte VOL, 0x6E
	.byte KEYSH, 0x00
song_unk_744_3_008: @ 0x083AA34E
	.byte VOICE, 0x00
	.byte N02, Fn5, v080
	.byte W12
	.byte N02
	.byte W12
	.byte Gn5
	.byte W12
	.byte N02
	.byte W12
	.byte Gs5
	.byte W20
	.byte As5
	.byte W28
	.byte W96
	.byte Fn5
	.byte W12
	.byte N02
	.byte W12
	.byte Gn5
	.byte W12
	.byte N02
	.byte W12
	.byte Gs5
	.byte W20
	.byte As5
	.byte W28
	.byte W96
song_unk_744_3_007: @ 0x083AA36C
	.byte N02, Ds5, v080
	.byte W12
	.byte N02
	.byte W12
	.byte Gn5
	.byte W12
	.byte N02
	.byte W12
	.byte Gs5
	.byte W20
	.byte As5
	.byte W28
	.byte PEND
	.byte W96
	.byte PATT
	 .4byte song_unk_744_3_007
	.byte W96
	.byte GOTO
	 .4byte song_unk_744_3_008
	.byte FINE
song_unk_744_4: @ 0x083AA388
	.byte VOL, 0x6E
	.byte KEYSH, 0x00
song_unk_744_4_010: @ 0x083AA38C
	.byte VOICE, 0x7B
	.byte PAN, 0x7F
	.byte N03, Cs3, v080
	.byte W12
	.byte N03
	.byte W12
	.byte Ds3
	.byte W12
	.byte N03
	.byte W12
	.byte Fn3
	.byte W20
	.byte Gn3
	.byte W28
	.byte W96
	.byte Cs3
	.byte W12
	.byte N03
	.byte W12
	.byte Ds3
	.byte W12
	.byte N03
	.byte W12
	.byte Fn3
	.byte W20
	.byte Gn3
	.byte W28
	.byte W96
song_unk_744_4_009: @ 0x083AA3AC
	.byte N03, Cn3, v080
	.byte W12
	.byte N03
	.byte W12
	.byte Ds3
	.byte W12
	.byte N03
	.byte W12
	.byte Fn3
	.byte W20
	.byte Gn3
	.byte W28
	.byte PEND
	.byte W96
	.byte PATT
	 .4byte song_unk_744_4_009
	.byte W96
	.byte GOTO
	 .4byte song_unk_744_4_010
	.byte FINE
song_unk_744_5: @ 0x083AA3C8
	.byte VOL, 0x6E
	.byte KEYSH, 0x00
song_unk_744_5_011: @ 0x083AA3CC
	.byte VOICE, 0x7C
	.byte PAN, 0x00
	.byte N06, Cs3, v080
	.byte W12
	.byte N06
	.byte W12
	.byte N06
	.byte W12
	.byte N06
	.byte W12
	.byte Ds3
	.byte W20
	.byte Cs3
	.byte W28
	.byte PEND
	.byte W96
	.byte PATT
	 .4byte song_unk_744_5_011
	.byte W96
song_unk_744_5_012: @ 0x083AA3E6
	.byte N06, Cn3, v080
	.byte W12
	.byte N06
	.byte W12
	.byte N06
	.byte W12
	.byte N06
	.byte W12
	.byte Cs3
	.byte W20
	.byte Cn3
	.byte W28
	.byte PEND
	.byte W96
	.byte PATT
	 .4byte song_unk_744_5_012
	.byte W96
	.byte GOTO
	 .4byte song_unk_744_5_011
	.byte FINE
	.align 2, 0
	.global song_unk_744
song_unk_744: @ 0x083AA404 (song header)
	.byte 6, 0, 10, 0 @ trackCount, blockCount, priority, reverb
	.4byte voicegroup000 @ voice group
	.4byte song_unk_744_0
	.4byte song_unk_744_1
	.4byte song_unk_744_2
	.4byte song_unk_744_3
	.4byte song_unk_744_4
	.4byte song_unk_744_5
	.size song_unk_744,.-song_unk_744
