	.include "MPlayDef.s"
	.section .rodata
	.align 2, 0
song_unk_161_0: @ 0x0834B788
	.byte KEYSH, 0x00
	.byte TEMPO, 0x47
	.byte W48
song_unk_161_0_001: @ 0x0834B78D
	.byte VOICE, 0x39
	.byte VOL, 0x7F
	.byte BEND, 0x40
	.byte W12
	.byte N12, Fn3, v040
	.byte W03
	.byte BEND, 0x60
	.byte W09
	.byte 0x40
	.byte N12, Cs3
	.byte W12
	.byte An2
	.byte W12
song_unk_161_0_000: @ 0x0834B7A1
	.byte N24, En3, v040
	.byte W03
	.byte BEND, 0x60
	.byte W09
	.byte 0x40
	.byte W12
	.byte N12, As2
	.byte W12
	.byte N60, Cs3
	.byte W03
	.byte BEND, 0x60
	.byte W09
	.byte 0x40
	.byte W12
	.byte MOD, 0x0A
	.byte W36
	.byte PEND
	.byte 0x00
	.byte N48, Gs2
	.byte W24
	.byte MOD, 0x0A
	.byte W24
	.byte 0x00
	.byte BEND, 0x40
	.byte W12
	.byte N12, Fn3
	.byte W03
	.byte BEND, 0x60
	.byte W09
	.byte 0x40
	.byte N12, Cs3
	.byte W12
	.byte An2
	.byte W12
	.byte PATT
	 .4byte song_unk_161_0_000
	.byte MOD, 0x00
	.byte BEND, 0x40
	.byte N48, Ds3, v040
	.byte W03
	.byte BEND, 0x60
	.byte W21
	.byte MOD, 0x0A
	.byte W24
	.byte 0x00
	.byte BEND, 0x40
	.byte W12
	.byte N12, Gs3
	.byte W03
	.byte BEND, 0x60
	.byte W09
	.byte 0x40
	.byte N12, En3
	.byte W12
	.byte Cn3
	.byte W12
	.byte N24, Gn3
	.byte W03
	.byte BEND, 0x60
	.byte W09
	.byte 0x40
	.byte W12
	.byte N12, Cs3
	.byte W12
	.byte N60, En3
	.byte W03
	.byte BEND, 0x60
	.byte W09
	.byte 0x40
	.byte W12
	.byte MOD, 0x0A
	.byte W36
	.byte 0x00
	.byte N48, Bn2
	.byte W24
	.byte MOD, 0x0A
	.byte W24
	.byte 0x00
	.byte N24, Cn3
	.byte W24
	.byte N72, Fs3
	.byte W03
	.byte BEND, 0x60
	.byte W21
	.byte MOD, 0x0A
	.byte W24
	.byte VOL, 0x7F
	.byte W24
	.byte MOD, 0x00
	.byte BEND, 0x40
	.byte N48
	.byte W24
	.byte MOD, 0x0A
	.byte W24
	.byte 0x00
	.byte N48, Fn3
	.byte W24
	.byte MOD, 0x0A
	.byte W23
	.byte 0x00
	.byte W01
	.byte GOTO
	 .4byte song_unk_161_0_001
	.byte FINE
song_unk_161_1: @ 0x0834B838
	.byte KEYSH, 0x00
	.byte W48
song_unk_161_1_002: @ 0x0834B83B
	.byte VOICE, 0x41
	.byte VOL, 0x7F
	.byte N12, An1, v060
	.byte W12
	.byte Gn1
	.byte W12
	.byte An1
	.byte W12
	.byte Cn2
	.byte W12
	.byte As1
	.byte W12
	.byte Cs2
	.byte W12
	.byte Fn2
	.byte W12
	.byte En2
	.byte W12
	.byte Ds2
	.byte W12
	.byte As1
	.byte W12
	.byte Dn2
	.byte W24
	.byte Cs2
	.byte W12
	.byte Gs1
	.byte W12
	.byte Cn2
	.byte W24
	.byte As1
	.byte W12
	.byte Gs1
	.byte W12
	.byte As1
	.byte W12
	.byte Cs2
	.byte W12
	.byte Bn1
	.byte W12
	.byte Dn2
	.byte W12
	.byte Fs2
	.byte W12
	.byte Fn2
	.byte W12
	.byte En2
	.byte W12
	.byte Bn1
	.byte W12
	.byte Ds2
	.byte W24
	.byte Dn2
	.byte W12
	.byte An1
	.byte W12
	.byte Cs2
	.byte W24
	.byte N12
	.byte W12
	.byte Bn1
	.byte W12
	.byte Cs2
	.byte W12
	.byte En2
	.byte W12
	.byte Dn2
	.byte W12
	.byte Fn2
	.byte W12
	.byte An2
	.byte W12
	.byte Gs2
	.byte W12
	.byte Gn2
	.byte W12
	.byte Dn2
	.byte W12
	.byte Fs2
	.byte W24
	.byte Fn2
	.byte W12
	.byte Cn2
	.byte W12
	.byte En2
	.byte W24
	.byte As1
	.byte W12
	.byte Gs1
	.byte W12
	.byte As1
	.byte W12
	.byte Cs2
	.byte W12
	.byte Bn1
	.byte W12
	.byte Dn2
	.byte W12
	.byte Fs2
	.byte W12
	.byte Fn2
	.byte W12
	.byte As2
	.byte W12
	.byte Dn2
	.byte W12
	.byte An2
	.byte W12
	.byte Gs2
	.byte W12
	.byte Gn2
	.byte W12
	.byte Cn2
	.byte W12
	.byte Fs2
	.byte W12
	.byte Fn2
	.byte W12
	.byte GOTO
	 .4byte song_unk_161_1_002
	.byte FINE
song_unk_161_2: @ 0x0834B8BB
	.byte KEYSH, 0x00
	.byte W48
song_unk_161_2_004: @ 0x0834B8BE
	.byte VOICE, 0x7C
	.byte VOL, 0x7F
	.byte N10, Gn2, v040
	.byte N10, An2
	.byte W12
	.byte Gn2
	.byte N10, An2
	.byte W12
	.byte Gn2
	.byte N10, An2
	.byte W12
	.byte Gn2
	.byte N10, An2
	.byte W12
song_unk_161_2_003: @ 0x0834B8D4
	.byte W84
	.byte N12, Bn2, v040
	.byte N12, Cs3
	.byte W12
	.byte PEND
	.byte W12
	.byte Fs2
	.byte N12, Gs2
	.byte W36
	.byte N10, Gn2
	.byte N10, An2
	.byte W12
	.byte Gn2
	.byte N10, An2
	.byte W12
	.byte Gn2
	.byte N10, An2
	.byte W12
	.byte Gn2
	.byte N10, An2
	.byte W12
	.byte PATT
	 .4byte song_unk_161_2_003
	.byte W12
	.byte N12, Fs2, v040
	.byte N12, Gs2
	.byte W36
	.byte N10, As2
	.byte N10, Cn3
	.byte W12
	.byte As2
	.byte N10, Cn3
	.byte W12
	.byte As2
	.byte N10, Cn3
	.byte W12
	.byte As2
	.byte N10, Cn3
	.byte W12
	.byte W84
	.byte N12, Dn3
	.byte N12, En3
	.byte W12
	.byte W12
	.byte An2
	.byte N12, Bn2
	.byte W36
	.byte N10, Gn2
	.byte N10, An2
	.byte W12
	.byte Gn2
	.byte N10, An2
	.byte W12
	.byte Gn2
	.byte N10, An2
	.byte W12
	.byte Gn2
	.byte N10, An2
	.byte W12
	.byte PATT
	 .4byte song_unk_161_2_003
	.byte W12
	.byte N12, Fs2, v040
	.byte N12, Gs2
	.byte W36
	.byte GOTO
	 .4byte song_unk_161_2_004
	.byte FINE
song_unk_161_3: @ 0x0834B93D
	.byte KEYSH, 0x00
	.byte W48
song_unk_161_3_007: @ 0x0834B940
	.byte VOICE, 0x5D
	.byte VOL, 0x7F
	.byte N06, Cn1, v072
	.byte N01, Fs1, v020
	.byte W12
	.byte N06, Cn1, v072
	.byte N01, Fs1, v020
	.byte W12
	.byte N01
	.byte W12
	.byte N06, Cn1, v072
	.byte N01, Fs1, v020
	.byte W12
song_unk_161_3_005: @ 0x0834B95B
	.byte N01, Fs1, v020
	.byte W12
	.byte N01
	.byte W12
	.byte N06, Cn1, v072
	.byte N01, Fs1, v020
	.byte W12
	.byte N06, Cn1, v072
	.byte N01, Fs1, v020
	.byte W12
	.byte N01
	.byte W12
	.byte N06, Cn1, v072
	.byte N01, Fs1, v020
	.byte W12
	.byte N06, Cn1, v072
	.byte N01, Fs1, v020
	.byte W12
	.byte N01
	.byte W12
	.byte PEND
song_unk_161_3_006: @ 0x0834B982
	.byte N01, Fs1, v020
	.byte W12
	.byte N06, Cn1, v072
	.byte N01, Fs1, v020
	.byte W12
	.byte N06, Cn1, v072
	.byte N01, Fs1, v020
	.byte W12
	.byte N12
	.byte W12
	.byte N06, Cn1, v072
	.byte N01, Fs1, v020
	.byte W12
	.byte N06, Cn1, v072
	.byte N01, Fs1, v020
	.byte W12
	.byte N01
	.byte W12
	.byte N06, Cn1, v072
	.byte N01, Fs1, v020
	.byte W12
	.byte PEND
	.byte PATT
	 .4byte song_unk_161_3_005
	.byte N01, Fs1, v020
	.byte W12
	.byte N01
	.byte W12
	.byte N06, Cn1, v072
	.byte N01, Fs1, v020
	.byte W12
	.byte N12
	.byte W12
	.byte N06, Cn1, v072
	.byte N01, Fs1, v020
	.byte W12
	.byte N06, Cn1, v072
	.byte N01, Fs1, v020
	.byte W12
	.byte N01
	.byte W12
	.byte N06, Cn1, v072
	.byte N01, Fs1, v020
	.byte W12
	.byte PATT
	 .4byte song_unk_161_3_005
	.byte PATT
	 .4byte song_unk_161_3_006
	.byte N01, Fs1, v020
	.byte W12
	.byte N01
	.byte W12
	.byte N06, Cn1, v072
	.byte N01, Fs1, v020
	.byte W12
	.byte N06, Cn1, v072
	.byte N01, Fs1, v020
	.byte W12
	.byte N01
	.byte W12
	.byte N01
	.byte W12
	.byte N01
	.byte W12
	.byte N06, Cn1, v072
	.byte N01, Fs1, v020
	.byte W12
	.byte N01
	.byte W12
	.byte N01
	.byte W12
	.byte N01
	.byte W12
	.byte N12
	.byte W12
	.byte GOTO
	 .4byte song_unk_161_3_007
	.byte FINE
song_unk_161_4: @ 0x0834BA12
	.byte KEYSH, 0x00
	.byte VOICE, 0x5E
	.byte VOL, 0x7F
	.byte N12, An2, v060
	.byte W12
	.byte N12
	.byte W12
	.byte N12
	.byte W12
	.byte N12
	.byte W12
song_unk_161_4_008: @ 0x0834BA22
	.byte W48
	.byte N12, An2, v060
	.byte W96
	.byte N12
	.byte W96
	.byte N12
	.byte W96
	.byte N12
	.byte W12
	.byte N12
	.byte W24
	.byte N12
	.byte W60
	.byte N12
	.byte W96
	.byte N12
	.byte W96
	.byte N12
	.byte W60
	.byte N12
	.byte W36
	.byte N12
	.byte W24
	.byte N12
	.byte W12
	.byte N12
	.byte W12
	.byte GOTO
	 .4byte song_unk_161_4_008
	.byte FINE
	.align 2, 0
	.global song_unk_161
song_unk_161: @ 0x0834BA48 (song header)
	.byte 5, 0, 10, 0 @ trackCount, blockCount, priority, reverb
	.4byte voicegroup000 @ voice group
	.4byte song_unk_161_0
	.4byte song_unk_161_1
	.4byte song_unk_161_2
	.4byte song_unk_161_3
	.4byte song_unk_161_4
	.size song_unk_161,.-song_unk_161
