	.include "MPlayDef.s"
	.section .rodata
	.align 2, 0
song_unk_168_0: @ 0x0834BB3C
	.byte KEYSH, 0x00
	.byte TEMPO, 0x46
	.byte W36
song_unk_168_0_001: @ 0x0834BB41
	.byte VOICE, 0x41
	.byte VOL, 0x7F
	.byte N18, An1, v072
	.byte W20
	.byte N16, En2
	.byte W16
	.byte N12, An2
	.byte W12
	.byte N18, An1
	.byte W12
song_unk_168_0_000: @ 0x0834BB52
	.byte W08
	.byte N16, Dn2, v072
	.byte W16
	.byte N12, An2
	.byte W12
	.byte N18, An1
	.byte W20
	.byte N16, En2
	.byte W16
	.byte N12, An2
	.byte W12
	.byte N18, An1
	.byte W12
	.byte PEND
	.byte PATT
	 .4byte song_unk_168_0_000
	.byte PATT
	 .4byte song_unk_168_0_000
	.byte PATT
	 .4byte song_unk_168_0_000
	.byte PATT
	 .4byte song_unk_168_0_000
	.byte PATT
	 .4byte song_unk_168_0_000
	.byte PATT
	 .4byte song_unk_168_0_000
	.byte W08
	.byte N16, Dn2, v072
	.byte W16
	.byte N12, An2
	.byte W12
	.byte GOTO
	 .4byte song_unk_168_0_001
	.byte FINE
song_unk_168_1: @ 0x0834BB93
	.byte KEYSH, 0x00
	.byte W36
song_unk_168_1_003: @ 0x0834BB96
	.byte VOICE, 0x7B
	.byte VOL, 0x7F
	.byte W06
	.byte N18, Dn3, v040
	.byte N18, Gn3
	.byte W18
	.byte N06, Dn3
	.byte N06, Gn3
	.byte W12
	.byte Cs3
	.byte N06, Fs3
	.byte W12
	.byte N18, Dn3
	.byte N18, Gn3
	.byte W12
song_unk_168_1_002: @ 0x0834BBAF
	.byte W06
	.byte N06, Dn3, v040
	.byte N06, Gn3
	.byte W12
	.byte Cs3
	.byte N06, Fs3
	.byte W12
	.byte Dn3
	.byte N06, Gn3
	.byte W12
	.byte N18, Dn3
	.byte N18, Gn3
	.byte W18
	.byte N06, Dn3
	.byte N06, Gn3
	.byte W12
	.byte Cs3
	.byte N06, Fs3
	.byte W12
	.byte N18, Dn3
	.byte N18, Gn3
	.byte W12
	.byte PEND
	.byte W06
	.byte N06, Fs3
	.byte N06, An3
	.byte W12
	.byte Dn3
	.byte N06, Fs3
	.byte W12
	.byte N24, Cs3
	.byte N24, En3
	.byte W24
	.byte N06, Cs3
	.byte N06, En3
	.byte W42
	.byte W96
	.byte W42
	.byte N18, Dn3
	.byte N18, Gn3
	.byte W18
	.byte N06, Dn3
	.byte N06, Gn3
	.byte W12
	.byte Cs3
	.byte N06, Fs3
	.byte W12
	.byte N18, Dn3
	.byte N18, Gn3
	.byte W12
	.byte PATT
	 .4byte song_unk_168_1_002
	.byte W06
	.byte N06, Fs3, v040
	.byte N06, An3
	.byte W12
	.byte Gn3
	.byte N06, Bn3
	.byte W12
	.byte N24, An3
	.byte N24, Cs4
	.byte W24
	.byte N06, An3
	.byte N06, Cs4
	.byte W42
	.byte W96
	.byte W36
	.byte GOTO
	 .4byte song_unk_168_1_003
	.byte FINE
song_unk_168_2: @ 0x0834BC1D
	.byte KEYSH, 0x00
	.byte W36
song_unk_168_2_004: @ 0x0834BC20
	.byte VOICE, 0x7C
	.byte VOL, 0x7F
	.byte W60
	.byte W96
	.byte W66
	.byte N06, An3, v056
	.byte W12
	.byte N06
	.byte W06
	.byte Gn3
	.byte W06
	.byte Fs3
	.byte W06
	.byte Gn3
	.byte W06
	.byte En3
	.byte W06
	.byte Dn3
	.byte W06
	.byte En3
	.byte W06
	.byte Fs3
	.byte W06
	.byte Dn3
	.byte W06
	.byte Cs3
	.byte W06
	.byte En3
	.byte W06
	.byte Bn2
	.byte W06
	.byte Dn3
	.byte W06
	.byte Cs3
	.byte W06
	.byte Dn3
	.byte W06
	.byte Cs3
	.byte W06
	.byte An2
	.byte W06
	.byte Gn2
	.byte W06
	.byte An2
	.byte W06
	.byte Bn2
	.byte W06
	.byte Gn2
	.byte W06
	.byte Fs2
	.byte W06
	.byte Gn2
	.byte W06
	.byte Fs2
	.byte W06
	.byte Dn2
	.byte W66
	.byte W96
	.byte W66
	.byte En3
	.byte W06
	.byte An3
	.byte W06
	.byte En4
	.byte W06
	.byte Dn4
	.byte W06
	.byte Cs4
	.byte W06
	.byte Dn4
	.byte W06
	.byte En4
	.byte W06
	.byte Gn4
	.byte W06
	.byte Fs4
	.byte W06
	.byte Gn4
	.byte W06
	.byte Gs4
	.byte W06
	.byte An4
	.byte W06
	.byte En4
	.byte W06
	.byte Cs4
	.byte W06
	.byte Cn4
	.byte N06, Fs4
	.byte W06
	.byte Bn3
	.byte W06
	.byte An3
	.byte W06
	.byte En3
	.byte W06
	.byte Fs3
	.byte W06
	.byte An3
	.byte W06
	.byte En3
	.byte W06
	.byte Cs3
	.byte W06
	.byte Cn3
	.byte N06, Fs3
	.byte W06
	.byte Bn2
	.byte W06
	.byte An2
	.byte W06
	.byte En2
	.byte W06
	.byte Fs2
	.byte W06
	.byte GOTO
	 .4byte song_unk_168_2_004
	.byte FINE
song_unk_168_3: @ 0x0834BC9F
	.byte KEYSH, 0x00
	.byte VOICE, 0x5D
	.byte VOL, 0x7F
	.byte W06
	.byte N06, Bn1, v056
	.byte W06
	.byte N12, An1
	.byte W12
	.byte Gn1
	.byte W12
song_unk_168_3_007: @ 0x0834BCAF
	.byte N06, Cn1, v060
	.byte W06
	.byte Dn1, v020
	.byte W06
	.byte N02, Fs1
	.byte W06
	.byte N06, Cn1, v060
	.byte W06
	.byte Bn1
	.byte W06
	.byte Dn1, v020
	.byte W06
	.byte N02, Fs1
	.byte W06
	.byte N06, Cn1, v060
	.byte W06
	.byte N06
	.byte W06
	.byte Dn1, v020
	.byte W06
song_unk_168_3_005: @ 0x0834BCCE
	.byte N02, Fs1, v020
	.byte W06
	.byte N06, Cn1, v060
	.byte W06
	.byte Bn1
	.byte W06
	.byte Dn1, v040
	.byte W06
	.byte N02, Fs1, v020
	.byte W06
	.byte N06, Cn1, v060
	.byte W06
	.byte N06
	.byte W06
	.byte Dn1, v040
	.byte W06
	.byte N02, Fs1, v020
	.byte W06
	.byte N06, Cn1, v060
	.byte W06
	.byte Bn1
	.byte W06
	.byte Dn1, v020
	.byte W06
	.byte N02, Fs1
	.byte W06
	.byte N06, Cn1, v060
	.byte W06
	.byte N06
	.byte W06
	.byte Dn1, v020
	.byte W06
	.byte PEND
song_unk_168_3_006: @ 0x0834BD02
	.byte N02, Fs1, v020
	.byte W06
	.byte N06, Cn1, v060
	.byte W06
	.byte Bn1
	.byte W06
	.byte Dn1, v040
	.byte W06
	.byte N12, Fs1, v020
	.byte W06
	.byte N06, Cn1, v060
	.byte W06
	.byte N06
	.byte W06
	.byte Dn1, v020
	.byte W06
	.byte N02, Fs1
	.byte W06
	.byte N06, Cn1, v060
	.byte W06
	.byte Bn1
	.byte W06
	.byte Dn1, v020
	.byte W06
	.byte N02, Fs1
	.byte W06
	.byte N06, Cn1, v060
	.byte W06
	.byte N06
	.byte W06
	.byte Dn1, v020
	.byte W06
	.byte PEND
	.byte PATT
	 .4byte song_unk_168_3_005
	.byte PATT
	 .4byte song_unk_168_3_006
	.byte PATT
	 .4byte song_unk_168_3_005
	.byte PATT
	 .4byte song_unk_168_3_006
	.byte PATT
	 .4byte song_unk_168_3_005
	.byte N02, Fs1, v020
	.byte W06
	.byte N06, Cn1, v060
	.byte W06
	.byte Bn1
	.byte W06
	.byte Dn1, v040
	.byte W06
	.byte N12, Fs1, v020
	.byte W06
	.byte N06, Cn1, v060
	.byte W06
	.byte GOTO
	 .4byte song_unk_168_3_007
	.byte FINE
song_unk_168_4: @ 0x0834BD69
	.byte KEYSH, 0x00
	.byte W36
song_unk_168_4_009: @ 0x0834BD6C
	.byte VOICE, 0x65
	.byte VOL, 0x7F
	.byte N02, Cn4, v012
	.byte W07
	.byte N02
	.byte W05
	.byte Cn4, v020
	.byte W07
	.byte N02
	.byte W05
	.byte Cn4, v012
	.byte W07
	.byte N02
	.byte W05
	.byte Cn4, v020
	.byte W07
	.byte N02
	.byte W05
	.byte Cn4, v012
	.byte W07
	.byte N02
	.byte W05
song_unk_168_4_008: @ 0x0834BD8A
	.byte N02, Cn4, v020
	.byte W07
	.byte N02
	.byte W05
	.byte Cn4, v012
	.byte W07
	.byte N02
	.byte W05
	.byte Cn4, v020
	.byte W07
	.byte N02
	.byte W05
	.byte Cn4, v012
	.byte W07
	.byte N02
	.byte W05
	.byte Cn4, v020
	.byte W07
	.byte N02
	.byte W05
	.byte Cn4, v012
	.byte W07
	.byte N02
	.byte W05
	.byte Cn4, v020
	.byte W07
	.byte N02
	.byte W05
	.byte Cn4, v012
	.byte W07
	.byte N02
	.byte W05
	.byte PEND
	.byte PATT
	 .4byte song_unk_168_4_008
	.byte PATT
	 .4byte song_unk_168_4_008
	.byte PATT
	 .4byte song_unk_168_4_008
	.byte PATT
	 .4byte song_unk_168_4_008
	.byte PATT
	 .4byte song_unk_168_4_008
	.byte PATT
	 .4byte song_unk_168_4_008
	.byte N02, Cn4, v020
	.byte W07
	.byte N02
	.byte W05
	.byte Cn4, v012
	.byte W07
	.byte N02
	.byte W05
	.byte Cn4, v020
	.byte W07
	.byte N02
	.byte W05
	.byte GOTO
	 .4byte song_unk_168_4_009
	.byte FINE
	.align 2, 0
	.global song_unk_168
song_unk_168: @ 0x0834BDE8 (song header)
	.byte 5, 0, 10, 0 @ trackCount, blockCount, priority, reverb
	.4byte voicegroup000 @ voice group
	.4byte song_unk_168_0
	.4byte song_unk_168_1
	.4byte song_unk_168_2
	.4byte song_unk_168_3
	.4byte song_unk_168_4
	.size song_unk_168,.-song_unk_168
