	.include "MPlayDef.s"
	.section .rodata
	.align 2, 0
song_unk_733_0: @ 0x0835405C
	.byte VOL, 0x6E
	.byte KEYSH, 0x00
song_unk_733_0_001: @ 0x08354060
	.byte TEMPO, 0x31
	.byte VOICE, 0x5D
	.byte PAN, 0x40
	.byte N11, Cn1, v127
	.byte W24
	.byte Dn1, v048
	.byte W36
	.byte Cn1, v127
	.byte W12
	.byte Dn1, v048
	.byte W24
song_unk_733_0_000: @ 0x08354073
	.byte N11, Cn1, v127
	.byte W24
	.byte Dn1, v048
	.byte W36
	.byte Cn1, v127
	.byte W12
	.byte Dn1, v048
	.byte W24
	.byte PEND
	.byte PATT
	 .4byte song_unk_733_0_000
	.byte PATT
	 .4byte song_unk_733_0_000
	.byte PATT
	 .4byte song_unk_733_0_000
	.byte PATT
	 .4byte song_unk_733_0_000
	.byte PATT
	 .4byte song_unk_733_0_000
	.byte PATT
	 .4byte song_unk_733_0_000
	.byte PATT
	 .4byte song_unk_733_0_000
	.byte GOTO
	 .4byte song_unk_733_0_001
	.byte FINE
song_unk_733_1: @ 0x083540AA
	.byte VOL, 0x6E
	.byte KEYSH, 0x00
song_unk_733_1_003: @ 0x083540AE
	.byte VOICE, 0x64
	.byte PAN, 0x00
	.byte N01, Fs6, v080
	.byte W12
	.byte N01
	.byte W12
	.byte N01
	.byte W12
	.byte N01
	.byte W12
	.byte N01
	.byte W12
	.byte N01
	.byte W12
	.byte N01
	.byte W12
	.byte N01
	.byte W12
song_unk_733_1_002: @ 0x083540C4
	.byte N01, Fs6, v080
	.byte W12
	.byte N01
	.byte W12
	.byte N01
	.byte W12
	.byte N01
	.byte W12
	.byte N01
	.byte W12
	.byte N01
	.byte W12
	.byte N01
	.byte W12
	.byte N01
	.byte W12
	.byte PEND
	.byte PATT
	 .4byte song_unk_733_1_002
	.byte PATT
	 .4byte song_unk_733_1_002
	.byte PATT
	 .4byte song_unk_733_1_002
	.byte PATT
	 .4byte song_unk_733_1_002
	.byte PATT
	 .4byte song_unk_733_1_002
	.byte PATT
	 .4byte song_unk_733_1_002
	.byte PATT
	 .4byte song_unk_733_1_002
	.byte GOTO
	 .4byte song_unk_733_1_003
	.byte FINE
song_unk_733_2: @ 0x08354100
	.byte VOL, 0x6E
	.byte KEYSH, 0x00
song_unk_733_2_004: @ 0x08354104
	.byte VOICE, 0x03
	.byte N23, As4, v064
	.byte W24
	.byte Gs4
	.byte W48
	.byte As3
	.byte W24
	.byte W96
	.byte Gn4
	.byte W24
	.byte Fn4
	.byte W48
	.byte Gn4
	.byte W24
	.byte W24
	.byte As4
	.byte W72
	.byte N23
	.byte W24
	.byte Gs4
	.byte W48
	.byte Cn5
	.byte W24
	.byte W60
	.byte As3
	.byte W24
	.byte Ds4
	.byte W12
	.byte W24
	.byte Gn4
	.byte W36
	.byte N23
	.byte W24
	.byte Ds4
	.byte W12
	.byte W24
	.byte N23
	.byte W36
	.byte As3
	.byte W36
	.byte W96
	.byte GOTO
	 .4byte song_unk_733_2_004
	.byte FINE
song_unk_733_3: @ 0x08354136
	.byte VOL, 0x6E
	.byte KEYSH, 0x00
song_unk_733_3_005: @ 0x0835413A
	.byte VOICE, 0x21
	.byte W12
	.byte N23, Gn4, v064
	.byte W24
	.byte As4
	.byte W48
	.byte Gs4
	.byte W12
	.byte W96
	.byte W12
	.byte Ds4
	.byte W24
	.byte Gn4
	.byte W48
	.byte Cn5
	.byte W12
	.byte W36
	.byte Gn4
	.byte W60
	.byte W12
	.byte N23
	.byte W24
	.byte As4
	.byte W48
	.byte N23
	.byte W12
	.byte W72
	.byte Cn4
	.byte W24
	.byte Fn4
	.byte W36
	.byte As4
	.byte W36
	.byte Fn4
	.byte W24
	.byte N23
	.byte W36
	.byte Cn4
	.byte W60
	.byte W96
	.byte GOTO
	 .4byte song_unk_733_3_005
	.byte FINE
song_unk_733_4: @ 0x0835416B
	.byte VOL, 0x6E
	.byte KEYSH, 0x00
song_unk_733_4_008: @ 0x0835416F
	.byte VOICE, 0x7C
	.byte PAN, 0x60
	.byte N11, Dn4, v048
	.byte W60
	.byte N11
	.byte W36
song_unk_733_4_006: @ 0x08354179
	.byte N11, Ds4, v048
	.byte W60
	.byte N11
	.byte W36
	.byte PEND
song_unk_733_4_007: @ 0x08354180
	.byte N11, Fn4, v048
	.byte W60
	.byte N11
	.byte W36
	.byte PEND
	.byte En4
	.byte W60
	.byte N11
	.byte W36
	.byte PATT
	 .4byte song_unk_733_4_006
	.byte PATT
	 .4byte song_unk_733_4_007
	.byte N11, Gn4, v048
	.byte W60
	.byte N11
	.byte W36
	.byte TIE
	.byte W96
	.byte W72
	.byte EOT
	.byte W24
	.byte GOTO
	 .4byte song_unk_733_4_008
	.byte FINE
song_unk_733_5: @ 0x083541A6
	.byte VOL, 0x6E
	.byte KEYSH, 0x00
song_unk_733_5_011: @ 0x083541AA
	.byte VOICE, 0x7C
	.byte PAN, 0x40
	.byte N11, As3, v048
	.byte W60
	.byte N11
	.byte W36
song_unk_733_5_010: @ 0x083541B4
	.byte N11, Cn4, v048
	.byte W60
	.byte N11
	.byte W36
	.byte PEND
song_unk_733_5_009: @ 0x083541BB
	.byte N11, Dn4, v048
	.byte W60
	.byte N11
	.byte W36
	.byte PEND
	.byte PATT
	 .4byte song_unk_733_5_009
	.byte PATT
	 .4byte song_unk_733_5_010
	.byte PATT
	 .4byte song_unk_733_5_009
	.byte N11, Ds4, v048
	.byte W60
	.byte N11
	.byte W36
	.byte TIE, Cn4
	.byte W96
	.byte W72
	.byte EOT
	.byte W24
	.byte GOTO
	 .4byte song_unk_733_5_011
	.byte FINE
song_unk_733_6: @ 0x083541E3
	.byte VOL, 0x6E
	.byte KEYSH, 0x00
song_unk_733_6_014: @ 0x083541E7
	.byte VOICE, 0x7C
	.byte PAN, 0x20
	.byte N11, Ds3, v048
	.byte W60
	.byte N11
	.byte W36
song_unk_733_6_012: @ 0x083541F1
	.byte N11, Fn3, v048
	.byte W60
	.byte N11
	.byte W36
	.byte PEND
song_unk_733_6_013: @ 0x083541F8
	.byte N11, Gn3, v048
	.byte W60
	.byte N11
	.byte W36
	.byte PEND
	.byte As3
	.byte W60
	.byte N11
	.byte W36
	.byte PATT
	 .4byte song_unk_733_6_012
	.byte PATT
	 .4byte song_unk_733_6_013
	.byte N11, Gs3, v048
	.byte W60
	.byte N11
	.byte W36
	.byte TIE, As3
	.byte W96
	.byte W72
	.byte EOT
	.byte W24
	.byte GOTO
	 .4byte song_unk_733_6_014
	.byte FINE
	.align 2, 0
	.global song_unk_733
song_unk_733: @ 0x08354220 (song header)
	.byte 7, 0, 10, 0 @ trackCount, blockCount, priority, reverb
	.4byte voicegroup000 @ voice group
	.4byte song_unk_733_0
	.4byte song_unk_733_1
	.4byte song_unk_733_2
	.4byte song_unk_733_3
	.4byte song_unk_733_4
	.4byte song_unk_733_5
	.4byte song_unk_733_6
	.size song_unk_733,.-song_unk_733
