	.include "MPlayDef.s"
	.section .rodata
	.align 2, 0
song_unk_175_0: @ 0x0834C148
	.byte KEYSH, 0x00
	.byte TEMPO, 0x41
	.byte VOICE, 0x01
	.byte VOL, 0x7F
	.byte N05, Gn3, v052
	.byte W08
	.byte En3
	.byte W08
	.byte Gn3
	.byte W08
	.byte Bn3
	.byte W08
	.byte Gn3
	.byte W08
	.byte Bn3
	.byte W08
	.byte N23, Dn4
	.byte W24
	.byte N05, Dn3
	.byte W04
	.byte En3
	.byte W04
	.byte Fs3
	.byte W04
	.byte Gn3
	.byte W04
	.byte An3
	.byte W04
	.byte As3
	.byte W04
song_unk_175_0_000: @ 0x0834C16E
	.byte N05, Bn3, v052
	.byte W12
	.byte Dn3
	.byte W24
	.byte Bn3
	.byte W12
	.byte Cn4
	.byte W12
	.byte En3
	.byte W24
	.byte Cn4
	.byte W12
	.byte PEND
	.byte Bn3
	.byte W12
	.byte Dn3
	.byte W24
	.byte Bn3
	.byte W12
	.byte An3
	.byte W12
	.byte Cn3
	.byte W24
	.byte An3
	.byte W12
	.byte PATT
	 .4byte song_unk_175_0_000
	.byte N05, Bn3, v052
	.byte W12
	.byte Dn3
	.byte W24
	.byte Bn3
	.byte W12
	.byte An3
	.byte W24
	.byte N17, Bn3
	.byte W18
	.byte N05, An3
	.byte W06
song_unk_175_0_001: @ 0x0834C19E
	.byte N05, Gn3, v052
	.byte W24
	.byte Bn3
	.byte W24
	.byte Dn4
	.byte W24
	.byte Gn4
	.byte W24
	.byte PEND
song_unk_175_0_002: @ 0x0834C1A9
	.byte N23, En4, v052
	.byte W24
	.byte N05, Dn4
	.byte W12
	.byte Cn4
	.byte W12
	.byte N23, Dn4
	.byte W24
	.byte N17, Gn3
	.byte W18
	.byte N05, Bn3
	.byte W06
	.byte PEND
	.byte An3
	.byte W24
	.byte Cn4
	.byte W24
	.byte En4
	.byte W24
	.byte Gn3
	.byte W24
	.byte N44, Bn3
	.byte W48
	.byte N05, An3
	.byte W24
	.byte N17, Bn3
	.byte W18
	.byte N05, An3
	.byte W06
	.byte PATT
	 .4byte song_unk_175_0_001
	.byte PATT
	 .4byte song_unk_175_0_002
	.byte N05, An3, v052
	.byte W12
	.byte N05
	.byte W06
	.byte Bn3
	.byte W06
	.byte N23, Cn4
	.byte W48
	.byte N05
	.byte W12
	.byte Dn4
	.byte W12
	.byte N44, En4
	.byte W48
	.byte N05, Fs4
	.byte W06
	.byte Gn4
	.byte W06
	.byte Fs4
	.byte W06
	.byte En4
	.byte W06
	.byte Dn4
	.byte W06
	.byte Cn4
	.byte W06
	.byte Bn3
	.byte W06
	.byte An3
	.byte W06
	.byte GOTO
	 .4byte song_unk_175_0_000
	.byte FINE
song_unk_175_1: @ 0x0834C203
	.byte KEYSH, 0x00
	.byte VOICE, 0x41
	.byte VOL, 0x7F
	.byte N05, An2, v080
	.byte W24
	.byte En3
	.byte W24
	.byte N23, Dn3
	.byte W48
song_unk_175_1_003: @ 0x0834C212
	.byte N05, Gn2, v080
	.byte W12
	.byte N05
	.byte W24
	.byte N05
	.byte W12
	.byte N05
	.byte W12
	.byte N05
	.byte W24
	.byte N05
	.byte W12
	.byte PEND
	.byte PATT
	 .4byte song_unk_175_1_003
	.byte PATT
	 .4byte song_unk_175_1_003
song_unk_175_1_004: @ 0x0834C22B
	.byte N05, Gn2, v080
	.byte W12
	.byte N05
	.byte W24
	.byte N05
	.byte W12
	.byte Fs2
	.byte W12
	.byte N05
	.byte W24
	.byte N05
	.byte W12
	.byte PEND
song_unk_175_1_005: @ 0x0834C23A
	.byte N05, En2, v080
	.byte W12
	.byte N05
	.byte W24
	.byte N05
	.byte W12
	.byte Bn2
	.byte W12
	.byte N05
	.byte W24
	.byte N05
	.byte W12
	.byte PEND
song_unk_175_1_006: @ 0x0834C249
	.byte N05, Cn3, v080
	.byte W12
	.byte N05
	.byte W24
	.byte N05
	.byte W12
	.byte Gn2
	.byte W12
	.byte N05
	.byte W24
	.byte N05
	.byte W12
	.byte PEND
song_unk_175_1_007: @ 0x0834C258
	.byte N05, Fn2, v080
	.byte W12
	.byte N05
	.byte W24
	.byte N05
	.byte W12
	.byte N05
	.byte W12
	.byte N05
	.byte W24
	.byte N05
	.byte W12
	.byte PEND
	.byte PATT
	 .4byte song_unk_175_1_004
	.byte PATT
	 .4byte song_unk_175_1_005
	.byte PATT
	 .4byte song_unk_175_1_006
	.byte PATT
	 .4byte song_unk_175_1_007
	.byte N05, Cn3, v080
	.byte W12
	.byte N05
	.byte W24
	.byte N05
	.byte W12
	.byte Dn3
	.byte W12
	.byte N05
	.byte W24
	.byte N05
	.byte W12
	.byte GOTO
	 .4byte song_unk_175_1_003
	.byte FINE
song_unk_175_2: @ 0x0834C28F
	.byte KEYSH, 0x00
	.byte VOICE, 0x65
	.byte VOL, 0x7F
	.byte N01, Gs3, v032
	.byte W08
	.byte N01
	.byte W08
	.byte N01
	.byte W08
	.byte N01
	.byte W08
	.byte N01
	.byte W08
	.byte N01
	.byte W08
	.byte N01
	.byte W24
	.byte N01
	.byte W04
	.byte N01
	.byte W04
	.byte N01
	.byte W04
	.byte N01
	.byte W04
	.byte N01
	.byte W04
	.byte N01
	.byte W04
song_unk_175_2_008: @ 0x0834C2B1
	.byte N01, Gs3, v032
	.byte W12
	.byte N01
	.byte W12
	.byte N01
	.byte W06
	.byte N01
	.byte W06
	.byte N01
	.byte W06
	.byte N01
	.byte W06
	.byte N01
	.byte W12
	.byte N01
	.byte W12
	.byte N01
	.byte W12
	.byte N01
	.byte W06
	.byte N01
	.byte W06
	.byte PEND
	.byte PATT
	 .4byte song_unk_175_2_008
	.byte PATT
	 .4byte song_unk_175_2_008
	.byte N01, Gs3, v032
	.byte W12
	.byte N01
	.byte W12
	.byte N01
	.byte W06
	.byte N01
	.byte W06
	.byte N01
	.byte W06
	.byte N01
	.byte W06
	.byte N01
	.byte W12
	.byte N01
	.byte W12
	.byte N01
	.byte W04
	.byte N01
	.byte W04
	.byte N01
	.byte W04
	.byte N01
	.byte W04
	.byte N01
	.byte W04
	.byte N01
	.byte W04
song_unk_175_2_009: @ 0x0834C2F2
	.byte N01, Gs3, v032
	.byte W12
	.byte N01
	.byte W06
	.byte N01
	.byte W06
	.byte N01
	.byte W12
	.byte N01
	.byte W06
	.byte N01
	.byte W06
	.byte N01
	.byte W12
	.byte N01
	.byte W12
	.byte N01
	.byte W06
	.byte N01
	.byte W06
	.byte N01
	.byte W12
	.byte PEND
	.byte PATT
	 .4byte song_unk_175_2_009
	.byte PATT
	 .4byte song_unk_175_2_009
	.byte N01, Gs3, v032
	.byte W12
	.byte N01
	.byte W06
	.byte N01
	.byte W06
	.byte N01
	.byte W12
	.byte N01
	.byte W06
	.byte N01
	.byte W06
	.byte N01
	.byte W12
	.byte N01
	.byte W12
	.byte N01
	.byte W04
	.byte N01
	.byte W04
	.byte N01
	.byte W04
	.byte N01
	.byte W04
	.byte N01
	.byte W04
	.byte N01
	.byte W04
	.byte PATT
	 .4byte song_unk_175_2_009
	.byte PATT
	 .4byte song_unk_175_2_009
	.byte PATT
	 .4byte song_unk_175_2_009
	.byte N01, Gs3, v032
	.byte W12
	.byte N01
	.byte W12
	.byte N01
	.byte W12
	.byte N01
	.byte W12
	.byte N01
	.byte W04
	.byte N01
	.byte W04
	.byte N01
	.byte W04
	.byte N01
	.byte W04
	.byte N01
	.byte W04
	.byte N01
	.byte W04
	.byte N01
	.byte W06
	.byte N01
	.byte W06
	.byte N01
	.byte W06
	.byte N01
	.byte W06
	.byte GOTO
	 .4byte song_unk_175_2_008
	.byte FINE
	.align 2, 0
	.global song_unk_175
song_unk_175: @ 0x0834C368 (song header)
	.byte 3, 0, 10, 0 @ trackCount, blockCount, priority, reverb
	.4byte gUnknown_0804CE78 @ voice group
	.4byte song_unk_175_0
	.4byte song_unk_175_1
	.4byte song_unk_175_2

