	.include "MPlayDef.s"
	.section .rodata
	.align 2, 0
song_unk_676_0: @ 0x083511B8
	.byte KEYSH, 0x00
	.byte TEMPO, 0x3C
	.byte VOICE, 0x00
	.byte VOL, 0x7F
	.byte N07, As3, v052
	.byte W16
	.byte Gs3
	.byte W08
	.byte Gn3
	.byte W16
	.byte Fn3
	.byte W08
	.byte Ds3
	.byte W16
	.byte Dn3
	.byte W08
	.byte Cn3
	.byte W16
	.byte Bn2
	.byte W08
	.byte N23, As2
	.byte W96
song_unk_676_0_000: @ 0x083511D5
	.byte N07, Ds3, v052
	.byte W16
	.byte N07
	.byte W08
	.byte Dn3
	.byte W16
	.byte Ds3
	.byte W08
	.byte Gn3
	.byte W16
	.byte N07
	.byte W08
	.byte Fs3
	.byte W16
	.byte Gn3
	.byte W08
	.byte PEND
	.byte Ds3
	.byte W16
	.byte N07
	.byte W08
	.byte Dn3
	.byte W16
	.byte Ds3
	.byte W08
	.byte N23, An2
	.byte W48
	.byte PATT
	 .4byte song_unk_676_0_000
	.byte N07, As3, v052
	.byte W16
	.byte N07
	.byte W08
	.byte An3
	.byte W16
	.byte As3
	.byte W08
	.byte N23, En3
	.byte W48
	.byte N07, Gs3
	.byte W16
	.byte N07
	.byte W08
	.byte N07
	.byte W16
	.byte As3
	.byte W08
	.byte Bn3
	.byte W16
	.byte Cn4
	.byte W08
	.byte Bn3
	.byte W16
	.byte Cn4
	.byte W08
	.byte Gn3
	.byte W16
	.byte N07
	.byte W08
	.byte N07
	.byte W16
	.byte Gs3
	.byte W08
	.byte An3
	.byte W16
	.byte As3
	.byte W08
	.byte An3
	.byte W16
	.byte As3
	.byte W08
	.byte As2
	.byte W24
	.byte N07
	.byte W08
	.byte Dn3
	.byte W08
	.byte Fs3
	.byte W08
	.byte As3
	.byte W48
	.byte W24
	.byte En3
	.byte W24
	.byte N15
	.byte W48
	.byte GOTO
	 .4byte song_unk_676_0_000
	.byte FINE
song_unk_676_1: @ 0x0835123B
	.byte KEYSH, 0x00
	.byte VOICE, 0x42
	.byte VOL, 0x7F
	.byte N07, As1, v080
	.byte W16
	.byte Cn2
	.byte W08
	.byte Dn2
	.byte W16
	.byte Ds2
	.byte W08
	.byte Fn2
	.byte W16
	.byte Gn2
	.byte W08
	.byte Gs2
	.byte W16
	.byte An2
	.byte W08
	.byte N23, As2
	.byte W64
	.byte N07, As1
	.byte W08
	.byte Cn2
	.byte W16
	.byte Dn2
	.byte W08
song_unk_676_1_001: @ 0x0835125D
	.byte N07, Ds2, v080
	.byte W24
	.byte As2
	.byte W24
	.byte An2
	.byte W24
	.byte As2
	.byte W24
	.byte PEND
song_unk_676_1_002: @ 0x08351268
	.byte N07, Ds2, v080
	.byte W24
	.byte As2
	.byte W24
	.byte N23, Bn1
	.byte W48
	.byte PEND
	.byte PATT
	 .4byte song_unk_676_1_001
	.byte PATT
	 .4byte song_unk_676_1_002
	.byte N07, Gs2, v080
	.byte W24
	.byte Ds3
	.byte W24
	.byte Cn3
	.byte W24
	.byte Ds3
	.byte W24
	.byte Gn2
	.byte W24
	.byte Ds3
	.byte W24
	.byte As2
	.byte W24
	.byte Ds3
	.byte W24
	.byte En2
	.byte W96
	.byte W24
	.byte Fn4
	.byte W24
	.byte N15
	.byte W16
	.byte N07, As1
	.byte W08
	.byte Cn2
	.byte W16
	.byte Dn2
	.byte W08
	.byte GOTO
	 .4byte song_unk_676_1_001
	.byte FINE
song_unk_676_2: @ 0x083512A2
	.byte KEYSH, 0x00
	.byte VOICE, 0x65
	.byte VOL, 0x7F
	.byte N02, Gn2, v072
	.byte W16
	.byte Cn5, v032
	.byte W08
	.byte Gs3, v040
	.byte W16
	.byte Cn5, v032
	.byte W08
	.byte Gn2, v072
	.byte W16
	.byte Cn5, v032
	.byte W08
	.byte Gs3, v040
	.byte W16
	.byte Cn5, v032
	.byte W08
song_unk_676_2_005: @ 0x083512C1
	.byte N02, Gs3, v040
	.byte W24
	.byte Gn2, v092
	.byte W24
	.byte N02
	.byte W16
	.byte Gs3, v040
	.byte W08
	.byte N02
	.byte W16
	.byte N02
	.byte W08
	.byte PEND
song_unk_676_2_003: @ 0x083512D2
	.byte N02, Gn2, v072
	.byte W16
	.byte Cn5, v032
	.byte W08
	.byte Gs3, v040
	.byte W16
	.byte Cn5, v032
	.byte W08
	.byte Gn2, v072
	.byte W16
	.byte Cn5, v032
	.byte W08
	.byte Gs3, v040
	.byte W16
	.byte Cn5, v032
	.byte W08
	.byte PEND
song_unk_676_2_004: @ 0x083512EC
	.byte N02, Gn2, v072
	.byte W16
	.byte Cn5, v032
	.byte W08
	.byte Gs3, v040
	.byte W16
	.byte Cn5, v032
	.byte W08
	.byte Gn2, v072
	.byte W16
	.byte Gs3, v040
	.byte W08
	.byte Cn5, v032
	.byte W16
	.byte Gs3, v040
	.byte W08
	.byte PEND
	.byte PATT
	 .4byte song_unk_676_2_003
	.byte PATT
	 .4byte song_unk_676_2_004
	.byte PATT
	 .4byte song_unk_676_2_003
	.byte PATT
	 .4byte song_unk_676_2_003
	.byte N02, Gn2, v072
	.byte W24
	.byte Cn5, v032
	.byte W08
	.byte N02
	.byte W08
	.byte N02
	.byte W08
	.byte N02
	.byte W24
	.byte Gs3, v040
	.byte W08
	.byte N02
	.byte W08
	.byte N02
	.byte W08
	.byte PATT
	 .4byte song_unk_676_2_005
	.byte GOTO
	 .4byte song_unk_676_2_003
	.byte FINE
	.align 2, 0
	.global song_unk_676
song_unk_676: @ 0x0835133C (song header)
	.byte 3, 0, 10, 0 @ trackCount, blockCount, priority, reverb
	.4byte gUnknown_0804CE78 @ voice group
	.4byte song_unk_676_0
	.4byte song_unk_676_1
	.4byte song_unk_676_2

