	.include "MPlayDef.s"
	.section .rodata
	.align 2, 0
song_unk_29_0: @ 0x08347B8C
	.byte KEYSH, 0x00
	.byte TEMPO, 0x4B
	.byte VOICE, 0x45
	.byte VOL, 0x7F
	.byte N01, Cs8, v112
	.byte N01, Ds8
	.byte W01
	.byte Bn7
	.byte W01
	.byte An7
	.byte W01
	.byte Fn7, v096
	.byte N01, Gn7
	.byte W01
	.byte As7, v112
	.byte W01
	.byte Gs7
	.byte W01
	.byte En7
	.byte N01, Fs7
	.byte W01
	.byte Dn7, v096
	.byte W01
	.byte Cn7
	.byte W01
	.byte Ds7, v112
	.byte N01, Fn7
	.byte W01
	.byte Cs7
	.byte W01
	.byte Bn6
	.byte W01
	.byte Gn6, v096
	.byte N01, An6
	.byte W01
	.byte Cn7, v112
	.byte W01
	.byte As6
	.byte W01
	.byte Fs6
	.byte N01, Gs6
	.byte W01
	.byte En6, v096
	.byte W01
	.byte Dn6
	.byte W01
	.byte Ds6, v112
	.byte N01, Fn6
	.byte W01
	.byte Cs6, v096
	.byte W01
	.byte Bn5, v112
	.byte W01
	.byte Gn5, v096
	.byte N01, An5
	.byte W01
	.byte Cn6, v112
	.byte W01
	.byte As5
	.byte W01
	.byte Fs5
	.byte N01, Gs5
	.byte W01
	.byte En5, v096
	.byte W01
	.byte Dn5
	.byte W01
	.byte Fn5, v112
	.byte N01, Gn5
	.byte W01
	.byte Ds5, v096
	.byte W01
	.byte Cs5
	.byte W01
	.byte Gs7, v112
	.byte N01, As7
	.byte W01
	.byte Fs7
	.byte W01
	.byte En7
	.byte W01
	.byte Cn7, v096
	.byte N01, Dn7
	.byte W01
	.byte Fn7, v112
	.byte W01
	.byte Ds7
	.byte W01
	.byte Bn6
	.byte N01, Cs7
	.byte W01
	.byte An6, v096
	.byte W01
	.byte Gn6
	.byte W01
	.byte As6, v112
	.byte N01, Cn7
	.byte W01
	.byte Gs6
	.byte W01
	.byte Fs6
	.byte W01
	.byte Dn6, v096
	.byte N01, En6
	.byte W01
	.byte Gn6, v112
	.byte W01
	.byte Fn6
	.byte W01
	.byte Cs6
	.byte N01, Ds6
	.byte W01
	.byte Bn5, v096
	.byte W01
	.byte An5
	.byte W01
	.byte As5, v112
	.byte N01, Cn6
	.byte W01
	.byte Gs5, v096
	.byte W01
	.byte Fs5, v112
	.byte W01
	.byte Dn5, v096
	.byte N01, En5
	.byte W01
	.byte Gn5, v112
	.byte W01
	.byte Fn5
	.byte W01
	.byte Cs5
	.byte N01, Ds5
	.byte W01
	.byte Bn4, v096
	.byte W01
	.byte An4
	.byte W01
	.byte Cn5, v112
	.byte N01, Dn5
	.byte W01
	.byte As4, v096
	.byte W01
	.byte Gs4
	.byte W01
	.byte Ds7, v112
	.byte N01, Fn7
	.byte W01
	.byte Cs7
	.byte W01
	.byte Bn6
	.byte W01
	.byte Gn6, v096
	.byte N01, An6
	.byte W01
	.byte Cn7, v112
	.byte W01
	.byte As6
	.byte W01
	.byte Fs6
	.byte N01, Gs6
	.byte W01
	.byte En6, v096
	.byte W01
	.byte Dn6
	.byte W01
	.byte Fn6, v112
	.byte N01, Gn6
	.byte W01
	.byte Ds6
	.byte W01
	.byte Cs6
	.byte W01
	.byte An5, v096
	.byte N01, Bn5
	.byte W01
	.byte Dn6, v112
	.byte W01
	.byte Cn6
	.byte W01
	.byte Gs5
	.byte N01, As5
	.byte W01
	.byte Fs5, v096
	.byte W01
	.byte En5
	.byte W01
	.byte Fn5, v112
	.byte N01, Gn5
	.byte W01
	.byte Ds5, v096
	.byte W01
	.byte Cs5, v112
	.byte W01
	.byte An4, v096
	.byte N01, Bn4
	.byte W01
	.byte Dn5, v112
	.byte W01
	.byte Cn5
	.byte W01
	.byte Gs4
	.byte N01, As4
	.byte W01
	.byte Fs4, v096
	.byte W01
	.byte En4
	.byte W01
	.byte Gn4, v112
	.byte N01, An4
	.byte W01
	.byte Fn4, v096
	.byte W01
	.byte Ds4
	.byte W01
	.byte As6, v112
	.byte N01, Cn7
	.byte W01
	.byte Gs6
	.byte W01
	.byte Fs6
	.byte W01
	.byte Dn6, v096
	.byte N01, En6
	.byte W01
	.byte Gn6, v112
	.byte W01
	.byte Fn6
	.byte W01
	.byte Cs6
	.byte N01, Ds6
	.byte W01
	.byte Bn5, v096
	.byte W01
	.byte An5
	.byte W01
	.byte Cn6, v112
	.byte N01, Dn6
	.byte W01
	.byte As5
	.byte W01
	.byte Gs5
	.byte W01
	.byte En5, v096
	.byte N01, Fs5
	.byte W01
	.byte An5, v112
	.byte W01
	.byte Gn5
	.byte W01
	.byte Ds5
	.byte N01, Fn5
	.byte W01
	.byte Cs5, v096
	.byte W01
	.byte Bn4
	.byte W01
	.byte Cn5, v112
	.byte N01, Dn5
	.byte W01
	.byte As4, v096
	.byte W01
	.byte Gs4, v112
	.byte W01
	.byte En4, v096
	.byte N01, Fs4
	.byte W01
	.byte An4, v112
	.byte W01
	.byte Gn4
	.byte W01
	.byte Ds4
	.byte N01, Fn4
	.byte W01
	.byte Cs4, v096
	.byte W01
	.byte Bn3
	.byte W01
	.byte Dn4, v112
	.byte N01, En4
	.byte W01
	.byte Cn4, v096
	.byte W01
	.byte As3
	.byte W01
	.byte FINE
	.align 2, 0
	.global song_unk_29
song_unk_29: @ 0x08347D18 (song header)
	.byte 1, 0, 10, 0 @ trackCount, blockCount, priority, reverb
	.4byte voicegroup000 @ voice group
	.4byte song_unk_29_0
	.size song_unk_29,.-song_unk_29
