	.include "MPlayDef.s"
	.section .rodata
	.align 2, 0
song_unk_246_0: @ 0x0834DD38
	.byte KEYSH, 0x00
	.byte TEMPO, 0x3C
	.byte VOICE, 0x02
	.byte VOL, 0x7F
	.byte N07, An3, v052
	.byte W08
	.byte N03, Gs3
	.byte W04
	.byte N07, An3
	.byte W08
	.byte N03, As3
	.byte W04
	.byte N07, An3
	.byte W08
	.byte N03, As3
	.byte W04
	.byte N07, Bn3
	.byte W08
	.byte N03, As3
	.byte W04
	.byte N07, Bn3
	.byte W08
	.byte N03, Cn4
	.byte W04
	.byte N07, Bn3
	.byte W08
	.byte N03, Cn4
	.byte W04
	.byte N07, Cs4
	.byte W08
	.byte N03, Dn4
	.byte W04
	.byte N07, Ds4
	.byte W08
	.byte N03, En4
	.byte W04
song_unk_246_0_000: @ 0x0834DD71
	.byte N01, Cs4, v052
	.byte W02
	.byte N09, Dn4
	.byte W10
	.byte N01, Cs4
	.byte W02
	.byte N09, Dn4
	.byte W10
	.byte N07, An3
	.byte W08
	.byte N03, Gs3
	.byte W04
	.byte N07, Gn3
	.byte W08
	.byte N03, Fn3
	.byte W04
	.byte N01, Cs4
	.byte W02
	.byte N09, Dn4
	.byte W10
	.byte N01, Cs4
	.byte W02
	.byte N09, Dn4
	.byte W10
	.byte N07, An3
	.byte W08
	.byte N03, Gs3
	.byte W04
	.byte N07, Gn3
	.byte W08
	.byte N03, Fn3
	.byte W04
	.byte PEND
song_unk_246_0_001: @ 0x0834DDA3
	.byte N05, Gn3, v052
	.byte W12
	.byte An3
	.byte W12
	.byte Fn3
	.byte W12
	.byte Gn3
	.byte W12
	.byte N23, Dn3
	.byte W48
	.byte PEND
	.byte PATT
	 .4byte song_unk_246_0_000
	.byte N05, Gn3, v052
	.byte W12
	.byte N07, Fs3
	.byte W08
	.byte N03, Gn3
	.byte W12
	.byte Fs3
	.byte W04
	.byte N05, Gn3
	.byte W12
	.byte Cn4
	.byte W24
	.byte N17, Cs4
	.byte W24
	.byte PATT
	 .4byte song_unk_246_0_000
	.byte PATT
	 .4byte song_unk_246_0_001
	.byte N07, Cn3, v052
	.byte W08
	.byte N03, Cs3
	.byte W04
	.byte N07, Dn3
	.byte W08
	.byte N03, Fn3
	.byte W04
	.byte N07, Cn3
	.byte W08
	.byte N03, Cs3
	.byte W04
	.byte N07, Dn3
	.byte W08
	.byte N03, Fn3
	.byte W04
	.byte N07, Gn3
	.byte W08
	.byte N03, Gs3
	.byte W04
	.byte N07, An3
	.byte W08
	.byte N03, Cn4
	.byte W04
	.byte N07, Gn3
	.byte W08
	.byte N03, Gs3
	.byte W04
	.byte N07, An3
	.byte W08
	.byte N03, Cn4
	.byte W04
	.byte N05, Dn4
	.byte W12
	.byte N07, Gs3
	.byte W08
	.byte N03, An3
	.byte W12
	.byte Cs3
	.byte W04
	.byte N05, Dn3
	.byte W12
	.byte Fn3
	.byte W24
	.byte N23, An3
	.byte W24
	.byte GOTO
	 .4byte song_unk_246_0_000
	.byte FINE
song_unk_246_1: @ 0x0834DE1E
	.byte KEYSH, 0x00
	.byte VOICE, 0x41
	.byte VOL, 0x7F
	.byte N05, An2, v072
	.byte W24
	.byte Gn2
	.byte W24
	.byte Fn2
	.byte W24
	.byte En2
	.byte W24
song_unk_246_1_002: @ 0x0834DE2E
	.byte N05, Dn2, v072
	.byte W12
	.byte An2
	.byte W12
	.byte Fn2
	.byte W12
	.byte An2
	.byte W12
	.byte Dn2
	.byte W12
	.byte An2
	.byte W12
	.byte Fn2
	.byte W12
	.byte An2
	.byte W12
	.byte PEND
	.byte Gn2
	.byte W12
	.byte Dn3
	.byte W12
	.byte Bn2
	.byte W12
	.byte Dn3
	.byte W12
	.byte Gn2
	.byte W12
	.byte Bn2
	.byte W12
	.byte Cn3
	.byte W12
	.byte Cs3
	.byte W12
	.byte PATT
	 .4byte song_unk_246_1_002
	.byte N05, Gn2, v072
	.byte W12
	.byte Dn3
	.byte W12
	.byte Bn2
	.byte W12
	.byte Dn3
	.byte W12
	.byte Cn3
	.byte W24
	.byte N23, An2
	.byte W24
	.byte PATT
	 .4byte song_unk_246_1_002
	.byte N05, Gn2, v072
	.byte W12
	.byte Dn3
	.byte W12
	.byte Bn2
	.byte W12
	.byte Dn3
	.byte W12
	.byte Gn2
	.byte W12
	.byte Bn2
	.byte W12
	.byte Cn3
	.byte W12
	.byte Bn2
	.byte W12
	.byte As2
	.byte W12
	.byte Dn3
	.byte W12
	.byte Bn2
	.byte W12
	.byte Dn3
	.byte W12
	.byte Cn3
	.byte W12
	.byte Fn3
	.byte W12
	.byte Dn3
	.byte W12
	.byte Fn3
	.byte W12
	.byte Gn2
	.byte W12
	.byte Dn3
	.byte W12
	.byte Cn3
	.byte W12
	.byte Cn2
	.byte W12
	.byte Fn2
	.byte W24
	.byte N23, En2
	.byte W24
	.byte GOTO
	 .4byte song_unk_246_1_002
	.byte FINE
song_unk_246_2: @ 0x0834DE9F
	.byte KEYSH, 0x00
	.byte VOICE, 0x65
	.byte VOL, 0x7F
	.byte N01, Gs3, v032
	.byte W12
	.byte N01
	.byte W12
	.byte N01
	.byte W12
	.byte N01
	.byte W12
	.byte N01
	.byte W04
	.byte N01
	.byte W04
	.byte N01
	.byte W04
	.byte N01
	.byte W04
	.byte N01
	.byte W04
	.byte N01
	.byte W04
	.byte N01
	.byte W12
	.byte N01
	.byte W08
	.byte N01
	.byte W04
song_unk_246_2_003: @ 0x0834DEC1
	.byte N01, Gs2, v092
	.byte W12
	.byte Gs3, v032
	.byte W12
	.byte Gs2, v092
	.byte W12
	.byte Gs3, v032
	.byte W12
	.byte Gs2, v092
	.byte W12
	.byte Gs3, v032
	.byte W12
	.byte Gs2, v092
	.byte W12
	.byte Gs3, v032
	.byte W12
	.byte PEND
song_unk_246_2_004: @ 0x0834DEDB
	.byte N01, Gs2, v092
	.byte W12
	.byte Gs3, v032
	.byte W12
	.byte Gs2, v092
	.byte W12
	.byte Gs3, v032
	.byte W12
	.byte Gs2, v092
	.byte W12
	.byte Gs3, v032
	.byte W12
	.byte Gs2, v092
	.byte W08
	.byte Gs3, v032
	.byte W04
	.byte N01
	.byte W12
	.byte PEND
	.byte PATT
	 .4byte song_unk_246_2_003
song_unk_246_2_005: @ 0x0834DEFC
	.byte N01, Gs2, v092
	.byte W12
	.byte Gs3, v032
	.byte W12
	.byte Gs2, v092
	.byte W08
	.byte Gs3, v032
	.byte W04
	.byte N01
	.byte W12
	.byte Gs2, v092
	.byte W24
	.byte N01
	.byte W04
	.byte Gs3, v032
	.byte W04
	.byte N01
	.byte W04
	.byte N01
	.byte W04
	.byte N01
	.byte W04
	.byte N01
	.byte W04
	.byte PEND
	.byte PATT
	 .4byte song_unk_246_2_003
	.byte PATT
	 .4byte song_unk_246_2_004
	.byte PATT
	 .4byte song_unk_246_2_003
	.byte PATT
	 .4byte song_unk_246_2_005
	.byte GOTO
	 .4byte song_unk_246_2_003
	.byte FINE
	.align 2, 0
	.global song_unk_246
song_unk_246: @ 0x0834DF38 (song header)
	.byte 3, 0, 10, 0 @ trackCount, blockCount, priority, reverb
	.4byte gUnknown_0804CE78 @ voice group
	.4byte song_unk_246_0
	.4byte song_unk_246_1
	.4byte song_unk_246_2

