	.include "MPlayDef.s"
	.section .rodata
	.align 2, 0
song_unk_722_0: @ 0x08352F40
	.byte VOL, 0x6E
	.byte KEYSH, 0x00
song_unk_722_0_000: @ 0x08352F44
	.byte TEMPO, 0x34
	.byte VOICE, 0x05
	.byte PAN, 0x40
	.byte TUNE, 0x4E
	.byte W24
	.byte N08, Cn4, v048
	.byte W24
	.byte Dn4
	.byte W24
	.byte Fn4
	.byte W24
	.byte En4
	.byte W24
	.byte Cn4
	.byte W24
	.byte Dn4
	.byte W48
	.byte W24
	.byte Cn4
	.byte W24
	.byte Dn4
	.byte W24
	.byte Fn4
	.byte W24
	.byte En4
	.byte W96
	.byte W24
	.byte As3
	.byte W24
	.byte Cn4
	.byte W24
	.byte En4
	.byte W24
	.byte Dn4
	.byte W24
	.byte As3
	.byte W24
	.byte Cn4
	.byte W48
	.byte W24
	.byte N08
	.byte W40
	.byte N07, An3
	.byte W08
	.byte N08, As3
	.byte W24
	.byte Cn4
	.byte W96
	.byte GOTO
	 .4byte song_unk_722_0_000
	.byte FINE
song_unk_722_1: @ 0x08352F82
	.byte VOL, 0x6E
	.byte KEYSH, 0x00
song_unk_722_1_002: @ 0x08352F86
	.byte VOICE, 0x5D
	.byte N11, Cn1, v127
	.byte W40
	.byte N11
	.byte W08
	.byte Ds4, v096
	.byte W48
song_unk_722_1_001: @ 0x08352F91
	.byte N11, Cn1, v127
	.byte W40
	.byte N11
	.byte W08
	.byte Ds4, v096
	.byte W48
	.byte PEND
	.byte PATT
	 .4byte song_unk_722_1_001
	.byte PATT
	 .4byte song_unk_722_1_001
	.byte PATT
	 .4byte song_unk_722_1_001
	.byte PATT
	 .4byte song_unk_722_1_001
	.byte PATT
	 .4byte song_unk_722_1_001
	.byte PATT
	 .4byte song_unk_722_1_001
	.byte GOTO
	 .4byte song_unk_722_1_002
	.byte FINE
song_unk_722_2: @ 0x08352FBF
	.byte VOL, 0x6E
	.byte KEYSH, 0x00
song_unk_722_2_004: @ 0x08352FC3
	.byte VOICE, 0x65
	.byte PAN, 0x28
	.byte N01, Cn4, v028
	.byte W16
	.byte N01
	.byte W08
	.byte N01
	.byte W16
	.byte N01
	.byte W08
	.byte N01
	.byte W16
	.byte N01
	.byte W08
	.byte N01
	.byte W16
	.byte N01
	.byte W08
song_unk_722_2_003: @ 0x08352FD9
	.byte N01, Cn4, v028
	.byte W16
	.byte N01
	.byte W08
	.byte N01
	.byte W16
	.byte N01
	.byte W08
	.byte N01
	.byte W16
	.byte N01
	.byte W08
	.byte N01
	.byte W16
	.byte N01
	.byte W08
	.byte PEND
	.byte PATT
	 .4byte song_unk_722_2_003
	.byte PATT
	 .4byte song_unk_722_2_003
	.byte PATT
	 .4byte song_unk_722_2_003
	.byte PATT
	 .4byte song_unk_722_2_003
	.byte PATT
	 .4byte song_unk_722_2_003
	.byte PATT
	 .4byte song_unk_722_2_003
	.byte GOTO
	 .4byte song_unk_722_2_004
	.byte FINE
song_unk_722_3: @ 0x08353010
	.byte VOL, 0x6E
	.byte KEYSH, 0x00
song_unk_722_3_005: @ 0x08353014
	.byte VOICE, 0x23
	.byte PAN, 0x40
	.byte W24
	.byte N08, Cn4, v064
	.byte W24
	.byte Dn4
	.byte W24
	.byte Fn4
	.byte W24
	.byte En4
	.byte W24
	.byte Cn4
	.byte W24
	.byte Dn4
	.byte W48
	.byte W24
	.byte Cn4
	.byte W24
	.byte Dn4
	.byte W24
	.byte Fn4
	.byte W24
	.byte En4
	.byte W96
	.byte W24
	.byte As3
	.byte W24
	.byte Cn4
	.byte W24
	.byte En4
	.byte W24
	.byte Dn4
	.byte W24
	.byte As3
	.byte W24
	.byte Cn4
	.byte W48
	.byte W24
	.byte N08
	.byte W40
	.byte N07, An3
	.byte W08
	.byte N08, As3
	.byte W24
	.byte Cn4
	.byte W96
	.byte GOTO
	 .4byte song_unk_722_3_005
	.byte FINE
song_unk_722_4: @ 0x0835304E
	.byte VOL, 0x6E
	.byte KEYSH, 0x00
song_unk_722_4_008: @ 0x08353052
	.byte VOICE, 0x44
	.byte N05, Fn2, v127
	.byte W48
	.byte Cn2
	.byte W48
song_unk_722_4_007: @ 0x0835305A
	.byte N05, Fn2, v127
	.byte W48
	.byte Cn2
	.byte W48
	.byte PEND
song_unk_722_4_006: @ 0x08353061
	.byte N05, Gn2, v127
	.byte W48
	.byte Cn2
	.byte W48
	.byte PEND
	.byte PATT
	 .4byte song_unk_722_4_006
	.byte PATT
	 .4byte song_unk_722_4_006
	.byte PATT
	 .4byte song_unk_722_4_006
	.byte PATT
	 .4byte song_unk_722_4_007
	.byte PATT
	 .4byte song_unk_722_4_007
	.byte GOTO
	 .4byte song_unk_722_4_008
	.byte FINE
	.align 2, 0
	.global song_unk_722
song_unk_722: @ 0x08353088 (song header)
	.byte 5, 0, 10, 0 @ trackCount, blockCount, priority, reverb
	.4byte voicegroup000 @ voice group
	.4byte song_unk_722_0
	.4byte song_unk_722_1
	.4byte song_unk_722_2
	.4byte song_unk_722_3
	.4byte song_unk_722_4
	.size song_unk_722,.-song_unk_722
