	.include "MPlayDef.s"
	.section .rodata
	.align 2, 0
song_unk_452_0: @ 0x0834FFB4
	.byte KEYSH, 0x00
	.byte TEMPO, 0x4B
	.byte VOICE, 0x66
	.byte VOL, 0x7F
	.byte TIE, En3, v020
	.byte W09
song_unk_452_0_000: @ 0x0834FFC0
	.byte W84
	.byte W03
	.byte W11
	.byte GOTO
	 .4byte song_unk_452_0_000
	.byte W13
	.byte EOT, En3
	.byte FINE
song_unk_452_1: @ 0x0834FFCC
	.byte KEYSH, 0x00
	.byte VOICE, 0x20
	.byte VOL, 0x7F
	.byte N00, Cn3, v040
	.byte N00, Cs3
	.byte W01
	.byte Dn3
	.byte W01
	.byte Ds3
	.byte W01
	.byte En3
	.byte N00, Fn3
	.byte W01
	.byte Fs3
	.byte W01
	.byte Gn3
	.byte W01
	.byte Gs3
	.byte N00, An3
	.byte W01
	.byte As3
	.byte W01
	.byte Bn3
	.byte W01
song_unk_452_1_001: @ 0x0834FFEC
	.byte N00, Cn3, v040
	.byte N00, Cn4
	.byte W01
	.byte Cs3
	.byte W01
	.byte Dn3
	.byte W01
	.byte Ds3
	.byte N00, En3
	.byte W01
	.byte Fn3
	.byte W01
	.byte Fs3
	.byte W01
	.byte Gn3
	.byte N00, Gs3
	.byte W01
	.byte An3
	.byte W01
	.byte As3
	.byte W01
	.byte Bn3
	.byte N00, Cn4
	.byte W01
	.byte Cn3
	.byte W01
	.byte Cs3
	.byte W01
	.byte Dn3
	.byte N00, Ds3
	.byte W01
	.byte En3
	.byte W01
	.byte Fn3
	.byte W01
	.byte Fs3
	.byte N00, Gn3
	.byte W01
	.byte Gs3
	.byte W01
	.byte An3
	.byte W01
	.byte As3
	.byte N00, Bn3
	.byte W01
	.byte Cn4
	.byte W01
	.byte Cn3
	.byte W01
	.byte Cs3
	.byte N00, Dn3
	.byte W01
	.byte Ds3
	.byte W01
	.byte En3
	.byte W01
	.byte Fn3
	.byte N00, Fs3
	.byte W01
	.byte Gn3
	.byte W01
	.byte Gs3
	.byte W01
	.byte An3
	.byte N00, As3
	.byte W01
	.byte Bn3
	.byte W01
	.byte Cn4
	.byte W01
	.byte Cn3
	.byte N00, Cs3
	.byte W01
	.byte Dn3
	.byte W01
	.byte Ds3
	.byte W01
	.byte En3
	.byte N00, Fn3
	.byte W01
	.byte Fs3
	.byte W01
	.byte Gn3
	.byte W01
	.byte Gs3
	.byte N00, An3
	.byte W01
	.byte As3
	.byte W01
	.byte Bn3
	.byte W01
	.byte Cn3
	.byte N00, Cn4
	.byte W01
	.byte Cs3
	.byte W01
	.byte Dn3
	.byte W01
	.byte Ds3
	.byte N00, En3
	.byte W01
	.byte Fn3
	.byte W01
	.byte Fs3
	.byte W01
	.byte Gn3
	.byte N00, Gs3
	.byte W01
	.byte An3
	.byte W01
	.byte As3
	.byte W01
	.byte Bn3
	.byte N00, Cn4
	.byte W01
	.byte Cn3
	.byte W01
	.byte Cs3
	.byte W01
	.byte Dn3
	.byte N00, Ds3
	.byte W01
	.byte En3
	.byte W01
	.byte Fn3
	.byte W01
	.byte Fs3
	.byte N00, Gn3
	.byte W01
	.byte Gs3
	.byte W01
	.byte An3
	.byte W01
	.byte As3
	.byte N00, Bn3
	.byte W01
	.byte Cn4
	.byte W01
	.byte Cn3
	.byte W01
	.byte Cs3
	.byte N00, Dn3
	.byte W01
	.byte Ds3
	.byte W01
	.byte En3
	.byte W01
	.byte Fn3
	.byte N00, Fs3
	.byte W01
	.byte Gn3
	.byte W01
	.byte Gs3
	.byte W01
	.byte An3
	.byte N00, As3
	.byte W01
	.byte Bn3
	.byte W01
	.byte Cn4
	.byte W01
	.byte Cn3
	.byte N00, Cs3
	.byte W01
	.byte Dn3
	.byte W01
	.byte Ds3
	.byte W01
	.byte En3
	.byte N00, Fn3
	.byte W01
	.byte Fs3
	.byte W01
	.byte Gn3
	.byte W01
	.byte Gs3
	.byte N00, An3
	.byte W01
	.byte As3
	.byte W01
	.byte Bn3
	.byte W01
	.byte Cn3
	.byte N00, Cn4
	.byte W01
	.byte Cs3
	.byte W01
	.byte Dn3
	.byte W01
	.byte Ds3
	.byte N00, En3
	.byte W01
	.byte Fn3
	.byte W01
	.byte Fs3
	.byte W01
	.byte Gn3
	.byte N00, Gs3
	.byte W01
	.byte An3
	.byte W01
	.byte As3
	.byte W01
	.byte Bn3
	.byte N00, Cn4
	.byte W01
	.byte Cn3
	.byte W01
	.byte Cs3
	.byte W01
	.byte Dn3
	.byte N00, Ds3
	.byte W01
	.byte En3
	.byte W01
	.byte Fn3
	.byte W01
	.byte Fs3
	.byte N00, Gn3
	.byte W01
	.byte Gs3
	.byte W01
	.byte An3
	.byte W01
	.byte As3
	.byte N00, Bn3
	.byte W01
	.byte Cn4
	.byte W01
	.byte GOTO
	 .4byte song_unk_452_1_001
	.byte FINE
	.align 2, 0
	.global song_unk_452
song_unk_452: @ 0x083500FC (song header)
	.byte 2, 0, 100, 0 @ trackCount, blockCount, priority, reverb
	.4byte gUnknown_0804CE78 @ voice group
	.4byte song_unk_452_0
	.4byte song_unk_452_1

