	.include "MPlayDef.s"
	.section .rodata
	.align 2, 0
song_unk_174_0: @ 0x0834BF3C
	.byte KEYSH, 0x00
song_unk_174_0_001: @ 0x0834BF3E
	.byte TEMPO, 0x48
	.byte VOICE, 0x7C
	.byte VOL, 0x7F
	.byte W12
	.byte N12, Cs3, v060
	.byte N12, Fn3
	.byte W36
	.byte Cs3
	.byte N12, Fn3
	.byte W36
	.byte N60
	.byte N60, As3
	.byte W12
song_unk_174_0_000: @ 0x0834BF53
	.byte W48
	.byte N12, Ds3, v060
	.byte N12, Fs3
	.byte W12
	.byte Fn3
	.byte N12, Gs3
	.byte W12
	.byte N24, Fs3
	.byte N24, As3
	.byte W24
	.byte PEND
	.byte W12
	.byte N12, Ds3
	.byte N12, Gs3
	.byte W36
	.byte Ds3
	.byte N12, Gs3
	.byte W36
	.byte N48
	.byte N48, Cs4
	.byte W12
	.byte W36
	.byte N24, Gs3
	.byte N24, Bn3
	.byte W24
	.byte N12, As3
	.byte N12, Cs4
	.byte W12
	.byte Gs3
	.byte N12, Bn3
	.byte W12
	.byte Ds3
	.byte N12, Gs3
	.byte W12
	.byte W12
	.byte Cs3
	.byte N12, Fn3
	.byte W36
	.byte Cs3
	.byte N12, Fn3
	.byte W36
	.byte N60
	.byte N60, As3
	.byte W12
	.byte PATT
	 .4byte song_unk_174_0_000
	.byte W12
	.byte N12, Gs3, v060
	.byte N12, Bn3
	.byte W36
	.byte As3
	.byte N12, Cs4
	.byte W36
	.byte N36, Bn3
	.byte N36, Ds4
	.byte W12
	.byte W24
	.byte N12, As3
	.byte N12, Cs4
	.byte W12
	.byte Gs3
	.byte N12, Bn3
	.byte W24
	.byte Gs3
	.byte N12, Cs4
	.byte W24
	.byte Fs3
	.byte N12, As3
	.byte W12
	.byte GOTO
	 .4byte song_unk_174_0_001
	.byte FINE
song_unk_174_1: @ 0x0834BFBF
	.byte KEYSH, 0x00
song_unk_174_1_002: @ 0x0834BFC1
	.byte VOICE, 0x41
	.byte VOL, 0x7F
	.byte N12, Ds2, v056
	.byte W12
	.byte N12
	.byte W12
	.byte Cs2
	.byte W12
	.byte Ds2
	.byte W24
	.byte Cs2
	.byte W24
	.byte N12
	.byte W12
	.byte Ds2
	.byte W12
	.byte Cs2
	.byte W12
	.byte Ds2
	.byte W24
	.byte Cs3
	.byte W12
	.byte Ds3
	.byte W24
	.byte Ds2
	.byte W12
	.byte En2
	.byte W12
	.byte N12
	.byte W12
	.byte Ds2
	.byte W12
	.byte En2
	.byte W24
	.byte N12
	.byte W24
	.byte Ds2
	.byte W12
	.byte En2
	.byte W12
	.byte Ds2
	.byte W12
	.byte En2
	.byte W36
	.byte Bn1
	.byte W12
	.byte Cs2
	.byte W12
	.byte Dn2
	.byte W12
	.byte Ds2
	.byte W12
	.byte N12
	.byte W12
	.byte Cs2
	.byte W12
	.byte Ds2
	.byte W24
	.byte Cs2
	.byte W24
	.byte N12
	.byte W12
	.byte Ds2
	.byte W12
	.byte Cs2
	.byte W12
	.byte Ds2
	.byte W24
	.byte Cs3
	.byte W12
	.byte Ds3
	.byte W12
	.byte Fs2
	.byte W12
	.byte Gn2
	.byte W12
	.byte Gs2
	.byte W12
	.byte N12
	.byte W12
	.byte Fs2
	.byte W12
	.byte Gs2
	.byte W24
	.byte Ds2
	.byte W24
	.byte Fs2
	.byte W12
	.byte En2
	.byte W12
	.byte Ds2
	.byte W12
	.byte En2
	.byte W36
	.byte Bn1
	.byte W12
	.byte En2
	.byte W12
	.byte Fs2
	.byte W12
	.byte GOTO
	 .4byte song_unk_174_1_002
	.byte FINE
song_unk_174_2: @ 0x0834C02F
	.byte KEYSH, 0x00
song_unk_174_2_003: @ 0x0834C031
	.byte VOICE, 0x78
	.byte VOL, 0x7F
	.byte TIE, Cs2, v040
	.byte W96
	.byte W48
	.byte EOT
	.byte N48, Fs2
	.byte W48
	.byte TIE, Ds2
	.byte W96
	.byte W48
	.byte EOT
	.byte N48, Gs2
	.byte W48
	.byte TIE, Cs2
	.byte W96
	.byte W48
	.byte EOT
	.byte N48, Fs2
	.byte W48
	.byte N96, Ds2
	.byte W96
	.byte Ds3, v032
	.byte W96
	.byte GOTO
	 .4byte song_unk_174_2_003
	.byte FINE
song_unk_174_3: @ 0x0834C05A
	.byte KEYSH, 0x00
song_unk_174_3_006: @ 0x0834C05C
	.byte VOICE, 0x5D
	.byte VOL, 0x7F
	.byte N06, Cn1, v072
	.byte N02, Fs1, v016
	.byte W12
	.byte N06, Cn1, v072
	.byte N02, Fs1, v016
	.byte W12
	.byte N02
	.byte W12
	.byte N02
	.byte W12
	.byte N06, Dn1, v052
	.byte N02, Fs1, v016
	.byte W12
	.byte N12
	.byte W12
	.byte N02
	.byte W12
	.byte N06, Cn1, v072
	.byte N02, Fs1, v016
	.byte W12
song_unk_174_3_005: @ 0x0834C084
	.byte N02, Fs1, v016
	.byte W12
	.byte N06, Cn1, v072
	.byte N02, Fs1, v016
	.byte W12
	.byte N06, Cn1, v072
	.byte N02, Fs1, v016
	.byte W12
	.byte N02
	.byte W12
	.byte N06, Dn1, v052
	.byte N02, Fs1, v016
	.byte W12
	.byte N02
	.byte W12
	.byte N02
	.byte W12
	.byte N12
	.byte W12
	.byte PEND
song_unk_174_3_004: @ 0x0834C0A6
	.byte N06, Cn1, v072
	.byte N02, Fs1, v016
	.byte W12
	.byte N06, Cn1, v072
	.byte N02, Fs1, v016
	.byte W12
	.byte N02
	.byte W12
	.byte N02
	.byte W12
	.byte N06, Dn1, v052
	.byte N02, Fs1, v016
	.byte W12
	.byte N12
	.byte W12
	.byte N02
	.byte W12
	.byte N06, Cn1, v072
	.byte N02, Fs1, v016
	.byte W12
	.byte PEND
	.byte N02
	.byte W12
	.byte N06, Cn1, v072
	.byte N02, Fs1, v016
	.byte W12
	.byte N06, Cn1, v072
	.byte N02, Fs1, v016
	.byte W12
	.byte N02
	.byte W12
	.byte N06, Dn1, v052
	.byte N02, Fs1, v016
	.byte W12
	.byte N06, Cn1, v072
	.byte N02, Fs1, v016
	.byte W12
	.byte N02
	.byte W12
	.byte N12
	.byte W12
	.byte PATT
	 .4byte song_unk_174_3_004
	.byte PATT
	 .4byte song_unk_174_3_005
	.byte PATT
	 .4byte song_unk_174_3_004
	.byte N02, Fs1, v016
	.byte W12
	.byte N06, Dn1, v052
	.byte N02, Fs1, v016
	.byte W12
	.byte N02
	.byte W12
	.byte N06, Cn1, v072
	.byte N02, Fs1, v016
	.byte W12
	.byte N06, Dn1, v052
	.byte N02, Fs1, v016
	.byte W12
	.byte N02
	.byte W12
	.byte N06, Dn1, v052
	.byte N02, Fs1, v016
	.byte W12
	.byte N06, Dn1, v052
	.byte N12, Fs1, v016
	.byte W12
	.byte GOTO
	 .4byte song_unk_174_3_006
	.byte FINE
	.align 2, 0
	.global song_unk_174
song_unk_174: @ 0x0834C130 (song header)
	.byte 4, 0, 10, 0 @ trackCount, blockCount, priority, reverb
	.4byte voicegroup000 @ voice group
	.4byte song_unk_174_0
	.4byte song_unk_174_1
	.4byte song_unk_174_2
	.4byte song_unk_174_3
	.size song_unk_174,.-song_unk_174
