	.include "MPlayDef.s"
	.section .rodata
	.align 2, 0
song_unk_156_0: @ 0x0834B36C
	.byte KEYSH, 0x00
	.byte TEMPO, 0x3C
	.byte VOICE, 0x03
	.byte VOL, 0x7F
	.byte N05, Gn3, v056
	.byte W06
	.byte Bn3
	.byte W06
	.byte Dn4
	.byte W06
	.byte Gn3
	.byte W06
	.byte Gn4
	.byte W06
	.byte Dn4
	.byte W06
	.byte Bn3
	.byte W06
	.byte Gn3
	.byte W06
	.byte As3
	.byte W06
	.byte Dn4
	.byte W06
	.byte Fn4
	.byte W06
	.byte As3
	.byte W06
	.byte As4
	.byte W06
	.byte Fn4
	.byte W06
	.byte Dn4
	.byte W06
	.byte As3
	.byte W06
	.byte Cn4
	.byte W06
	.byte Bn3
	.byte W06
	.byte Cn4
	.byte W06
	.byte Dn4
	.byte W06
	.byte TEMPO, 0x37
	.byte En4
	.byte W06
	.byte Fs4
	.byte W06
	.byte Gn4
	.byte W06
	.byte An4
	.byte W06
	.byte TEMPO, 0x35
	.byte As4
	.byte W06
	.byte An4
	.byte W06
	.byte As4
	.byte W06
	.byte Cn5
	.byte W06
	.byte TEMPO, 0x2E
	.byte Dn5
	.byte W06
	.byte Ds5
	.byte W06
	.byte TEMPO, 0x29
	.byte Fn5
	.byte W06
	.byte Fs5
	.byte W06
	.byte N44, Gn5
	.byte W48
	.byte FINE
song_unk_156_1: @ 0x0834B3C2
	.byte KEYSH, 0x00
	.byte VOICE, 0x22
	.byte VOL, 0x7F
	.byte N05, Bn2, v052
	.byte W06
	.byte Dn3
	.byte W06
	.byte Gn3
	.byte W06
	.byte Bn2
	.byte W06
	.byte Bn3
	.byte W06
	.byte Gn3
	.byte W06
	.byte Dn3
	.byte W06
	.byte Bn2
	.byte W06
	.byte Dn3
	.byte W06
	.byte Fn3
	.byte W06
	.byte As3
	.byte W06
	.byte Dn3
	.byte W06
	.byte Dn4
	.byte W06
	.byte As3
	.byte W06
	.byte Fn3
	.byte W06
	.byte Dn3
	.byte W06
	.byte En3
	.byte W06
	.byte Ds3
	.byte W06
	.byte En3
	.byte W06
	.byte Fs3
	.byte W06
	.byte Gn3
	.byte W06
	.byte An3
	.byte W06
	.byte Bn3
	.byte W06
	.byte Cn4
	.byte W06
	.byte Dn4
	.byte W06
	.byte Cs4
	.byte W06
	.byte Dn4
	.byte W06
	.byte Ds4
	.byte W06
	.byte Fn4
	.byte W06
	.byte Gn4
	.byte W06
	.byte An4
	.byte W06
	.byte As4
	.byte W06
	.byte N44, Bn4
	.byte W48
	.byte FINE
song_unk_156_2: @ 0x0834B40E
	.byte KEYSH, 0x00
	.byte VOICE, 0x57
	.byte VOL, 0x7F
	.byte N23, Gn4, v052
	.byte W24
	.byte Gn3
	.byte W24
	.byte As3
	.byte W24
	.byte N11, Dn4
	.byte W12
	.byte Cs4
	.byte W12
	.byte N23, Cn4
	.byte W24
	.byte Gn3
	.byte W24
	.byte Ds3
	.byte W24
	.byte Fn3
	.byte W24
	.byte N44, Gn3
	.byte W48
	.byte FINE
song_unk_156_3: @ 0x0834B42E
	.byte KEYSH, 0x00
	.byte VOICE, 0x7B
	.byte VOL, 0x7F
	.byte W09
	.byte N03, Bn2, v040
	.byte N03, Gn3, v052
	.byte W06
	.byte Bn2, v040
	.byte N03, Gn3, v052
	.byte W09
	.byte N23, Bn2, v040
	.byte N23, Gn3, v052
	.byte W32
	.byte W01
	.byte N03, Dn3, v040
	.byte N03, Fn3, v052
	.byte W24
	.byte Dn3, v040
	.byte N03, Fn3, v052
	.byte W15
	.byte W09
	.byte En3, v040
	.byte N03, Gn3, v052
	.byte W06
	.byte En3, v040
	.byte N03, Gn3, v052
	.byte W09
	.byte N23, En3, v040
	.byte N23, Gn3, v052
	.byte W24
	.byte Dn3, v040
	.byte N23, As3, v052
	.byte W24
	.byte Cn3, v040
	.byte N23, An3, v052
	.byte W24
	.byte N44, Bn2, v040
	.byte N44, Gn3, v052
	.byte W48
	.byte FINE
song_unk_156_4: @ 0x0834B47F
	.byte KEYSH, 0x00
	.byte VOICE, 0x78
	.byte VOL, 0x7F
	.byte N92, Dn2, v052
	.byte N44, Bn2
	.byte W48
	.byte As2
	.byte W48
	.byte En2
	.byte N44, Cn3
	.byte W48
	.byte N23, Ds2
	.byte N23, As2
	.byte W24
	.byte Fn2
	.byte N23, An2
	.byte W24
	.byte N44, Gn2
	.byte N44, Bn2
	.byte W48
	.byte FINE
song_unk_156_5: @ 0x0834B4A0
	.byte KEYSH, 0x00
	.byte VOICE, 0x5D
	.byte VOL, 0x7F
	.byte N44, Cs2, v052
	.byte W96
	.byte W96
	.byte N44
	.byte W48
	.byte FINE
	.align 2, 0
	.global song_unk_156
song_unk_156: @ 0x0834B4B0 (song header)
	.byte 6, 0, 10, 0 @ trackCount, blockCount, priority, reverb
	.4byte gUnknown_0804CE78 @ voice group
	.4byte song_unk_156_0
	.4byte song_unk_156_1
	.4byte song_unk_156_2
	.4byte song_unk_156_3
	.4byte song_unk_156_4
	.4byte song_unk_156_5

