	.include "MPlayDef.s"
	.section .rodata
	.align 2, 0
song_unk_677_0: @ 0x08351350
	.byte KEYSH, 0x00
	.byte TEMPO, 0x4D
	.byte VOICE, 0x01
	.byte VOL, 0x7F
	.byte N03, Gn3, v040
	.byte W12
	.byte N03
	.byte W12
	.byte N03
	.byte W06
	.byte Fs3
	.byte W06
	.byte Gn3
	.byte W06
	.byte An3
	.byte W06
	.byte Bn3
	.byte W12
	.byte N03
	.byte W12
	.byte N03
	.byte W06
	.byte As3
	.byte W06
	.byte Bn3
	.byte W06
	.byte Cn4
	.byte W06
	.byte Dn4
	.byte W12
	.byte N03
	.byte W12
	.byte N03
	.byte W06
	.byte Cs4
	.byte W06
	.byte Dn4
	.byte W06
	.byte En4
	.byte W06
	.byte Fn4
	.byte W24
	.byte Fs4
	.byte W24
song_unk_677_0_000: @ 0x08351382
	.byte N03, Gn4, v040
	.byte W06
	.byte N03
	.byte W06
	.byte N03
	.byte W12
	.byte En4
	.byte W06
	.byte N03
	.byte W06
	.byte N03
	.byte W12
	.byte Dn4
	.byte W06
	.byte N03
	.byte W06
	.byte N03
	.byte W12
	.byte Cn4
	.byte W06
	.byte N03
	.byte W06
	.byte N03
	.byte W12
	.byte PEND
song_unk_677_0_001: @ 0x0835139D
	.byte N03, An3, v040
	.byte W06
	.byte N03
	.byte W06
	.byte N03
	.byte W12
	.byte Gn3
	.byte W06
	.byte N03
	.byte W06
	.byte N03
	.byte W12
	.byte En3
	.byte W06
	.byte N03
	.byte W06
	.byte N03
	.byte W12
	.byte Gn3
	.byte W06
	.byte N03
	.byte W06
	.byte N03
	.byte W12
	.byte PEND
song_unk_677_0_002: @ 0x083513B8
	.byte N03, Fn3, v040
	.byte W06
	.byte N03
	.byte W06
	.byte N03
	.byte W12
	.byte Gn3
	.byte W06
	.byte N03
	.byte W06
	.byte N03
	.byte W12
	.byte An3
	.byte W06
	.byte N03
	.byte W06
	.byte N03
	.byte W12
	.byte Cn4
	.byte W06
	.byte N03
	.byte W06
	.byte N03
	.byte W12
	.byte PEND
	.byte Gn3
	.byte W06
	.byte N03
	.byte W06
	.byte N03
	.byte W12
	.byte An3
	.byte W06
	.byte N03
	.byte W06
	.byte N03
	.byte W12
	.byte Bn3
	.byte W06
	.byte N03
	.byte W06
	.byte N03
	.byte W12
	.byte Dn4
	.byte W06
	.byte N03
	.byte W06
	.byte N03
	.byte W12
	.byte PATT
	 .4byte song_unk_677_0_000
	.byte PATT
	 .4byte song_unk_677_0_001
	.byte PATT
	 .4byte song_unk_677_0_002
	.byte N03, Bn3, v040
	.byte W06
	.byte N03
	.byte W06
	.byte N03
	.byte W12
	.byte Dn4
	.byte W06
	.byte N03
	.byte W06
	.byte N03
	.byte W12
	.byte Cn4
	.byte W12
	.byte N03
	.byte W12
	.byte N03
	.byte W24
	.byte En4
	.byte W12
	.byte N03
	.byte W12
	.byte N03
	.byte W06
	.byte Dn4
	.byte W06
	.byte Cn4
	.byte W06
	.byte Bn3
	.byte W06
	.byte En4
	.byte W12
	.byte N03
	.byte W12
	.byte N03
	.byte W06
	.byte Dn4
	.byte W06
	.byte Cn4
	.byte W06
	.byte Bn3
	.byte W06
	.byte An3
	.byte W12
	.byte Cn4
	.byte W12
	.byte Bn3
	.byte W12
	.byte Cn4
	.byte W12
	.byte An3
	.byte W12
	.byte N03
	.byte W12
	.byte N03
	.byte W24
	.byte Dn4
	.byte W12
	.byte N03
	.byte W12
	.byte N03
	.byte W06
	.byte Cn4
	.byte W06
	.byte Bn3
	.byte W06
	.byte An3
	.byte W06
	.byte Dn4
	.byte W12
	.byte N03
	.byte W12
	.byte N03
	.byte W06
	.byte Cn4
	.byte W06
	.byte Bn3
	.byte W06
	.byte An3
	.byte W06
	.byte Gn3
	.byte W12
	.byte An3
	.byte W12
	.byte Bn3
	.byte W12
	.byte Cn4
	.byte W12
	.byte Dn4
	.byte W24
	.byte Gn4
	.byte W24
	.byte En4
	.byte W06
	.byte N03
	.byte W06
	.byte Ds4
	.byte W06
	.byte N03
	.byte W06
	.byte En4
	.byte W06
	.byte N03
	.byte W06
	.byte Gn4
	.byte W06
	.byte N03
	.byte W06
	.byte Fn4
	.byte W06
	.byte N03
	.byte W06
	.byte En4
	.byte W06
	.byte N03
	.byte W06
	.byte Fn4
	.byte W06
	.byte N03
	.byte W06
	.byte An4
	.byte W06
	.byte N03
	.byte W06
	.byte Gn4
	.byte W12
	.byte N03
	.byte W12
	.byte N03
	.byte W06
	.byte Fn4
	.byte W06
	.byte En4
	.byte W06
	.byte Dn4
	.byte W06
	.byte Cn4
	.byte W12
	.byte Cn3
	.byte W12
	.byte N03
	.byte W24
	.byte GOTO
	 .4byte song_unk_677_0_000
	.byte FINE
song_unk_677_1: @ 0x08351490
	.byte KEYSH, 0x00
	.byte VOICE, 0x40
	.byte VOL, 0x7F
	.byte N05, Gn2, v080
	.byte W36
	.byte N05
	.byte W12
	.byte N05
	.byte W36
	.byte N05
	.byte W12
	.byte N05
	.byte W24
	.byte N05
	.byte W24
	.byte N05
	.byte W24
	.byte Cs2
	.byte W24
song_unk_677_1_003: @ 0x083514A8
	.byte N05, Cn2, v080
	.byte W12
	.byte Gn2
	.byte W12
	.byte En2
	.byte W12
	.byte Gn2
	.byte W12
	.byte Cn2
	.byte W12
	.byte Gn2
	.byte W12
	.byte En2
	.byte W12
	.byte Gn2
	.byte W12
	.byte PEND
	.byte PATT
	 .4byte song_unk_677_1_003
song_unk_677_1_004: @ 0x083514C0
	.byte N05, Fn2, v080
	.byte W12
	.byte Cn3
	.byte W12
	.byte An2
	.byte W12
	.byte Cn3
	.byte W12
	.byte Fs2
	.byte W12
	.byte Cn3
	.byte W12
	.byte An2
	.byte W12
	.byte Cn3
	.byte W12
	.byte PEND
	.byte Gn2
	.byte W12
	.byte Dn3
	.byte W12
	.byte Bn2
	.byte W12
	.byte Dn3
	.byte W12
	.byte Gn2
	.byte W12
	.byte Dn3
	.byte W12
	.byte Bn2
	.byte W12
	.byte Dn3
	.byte W12
	.byte PATT
	 .4byte song_unk_677_1_003
	.byte PATT
	 .4byte song_unk_677_1_003
	.byte PATT
	 .4byte song_unk_677_1_004
song_unk_677_1_005: @ 0x083514F2
	.byte N05, Gn2, v080
	.byte W12
	.byte Dn3
	.byte W12
	.byte Bn2
	.byte W12
	.byte Dn3
	.byte W12
	.byte Cn3
	.byte W12
	.byte Cn2
	.byte W12
	.byte N05
	.byte W24
	.byte PEND
	.byte En2
	.byte W12
	.byte Bn2
	.byte W12
	.byte Gs2
	.byte W12
	.byte Bn2
	.byte W12
	.byte En2
	.byte W12
	.byte Bn2
	.byte W12
	.byte Gs2
	.byte W12
	.byte Bn2
	.byte W12
	.byte An2
	.byte W12
	.byte En3
	.byte W12
	.byte Cn3
	.byte W12
	.byte En3
	.byte W12
	.byte An2
	.byte W12
	.byte En3
	.byte W12
	.byte Cn3
	.byte W12
	.byte En3
	.byte W12
	.byte Dn2
	.byte W12
	.byte An2
	.byte W12
	.byte Fs2
	.byte W12
	.byte An2
	.byte W12
	.byte Dn2
	.byte W12
	.byte An2
	.byte W12
	.byte Fs2
	.byte W12
	.byte An2
	.byte W12
	.byte Gn2
	.byte W12
	.byte Dn3
	.byte W12
	.byte Bn2
	.byte W12
	.byte Dn3
	.byte W12
	.byte Gn2
	.byte W24
	.byte Cs2
	.byte W24
	.byte Cn2
	.byte W12
	.byte Gn2
	.byte W12
	.byte En2
	.byte W12
	.byte Gn2
	.byte W12
	.byte Fn2
	.byte W12
	.byte Cn3
	.byte W12
	.byte An2
	.byte W12
	.byte Cn3
	.byte W12
	.byte PATT
	 .4byte song_unk_677_1_005
	.byte GOTO
	 .4byte song_unk_677_1_003
	.byte FINE
song_unk_677_2: @ 0x0835155A
	.byte KEYSH, 0x00
	.byte VOICE, 0x65
	.byte VOL, 0x7F
	.byte N01, Fn2, v092
	.byte W12
	.byte N00, Ds4, v032
	.byte W12
	.byte N00
	.byte W06
	.byte N00
	.byte W06
	.byte N01, Fn2, v092
	.byte W06
	.byte N00, Ds4, v032
	.byte W06
	.byte N01, Fn2, v092
	.byte W12
	.byte N00, Ds4, v032
	.byte W12
	.byte N00
	.byte W06
	.byte N00
	.byte W06
	.byte N01, Fn2, v092
	.byte W06
	.byte N00, Ds4, v032
	.byte W06
	.byte N01, Fn2, v092
	.byte W12
	.byte N00, Ds4, v032
	.byte W12
	.byte N01, Fn2, v092
	.byte W06
	.byte N00, Ds4, v032
	.byte W06
	.byte N00
	.byte W06
	.byte N00
	.byte W06
	.byte N01, Fn2, v092
	.byte W12
	.byte Fn3, v052
	.byte W06
	.byte N01
	.byte W06
	.byte N01
	.byte W12
	.byte N01
	.byte W06
	.byte N01
	.byte W06
song_unk_677_2_006: @ 0x083515AB
	.byte N01, Fn2, v092
	.byte W12
	.byte N00, Ds4, v032
	.byte W06
	.byte N00
	.byte W06
	.byte N01, Fn3, v052
	.byte W12
	.byte N00, Ds4, v032
	.byte W06
	.byte N00
	.byte W06
	.byte N01, Fn2, v092
	.byte W12
	.byte N00, Ds4, v032
	.byte W06
	.byte N00
	.byte W06
	.byte N01, Fn3, v052
	.byte W12
	.byte N00, Ds4, v032
	.byte W06
	.byte N00
	.byte W06
	.byte PEND
	.byte PATT
	 .4byte song_unk_677_2_006
	.byte PATT
	 .4byte song_unk_677_2_006
	.byte PATT
	 .4byte song_unk_677_2_006
	.byte PATT
	 .4byte song_unk_677_2_006
	.byte PATT
	 .4byte song_unk_677_2_006
	.byte PATT
	 .4byte song_unk_677_2_006
	.byte N01, Fn2, v092
	.byte W12
	.byte N00, Ds4, v032
	.byte W06
	.byte N00
	.byte W06
	.byte N01, Fn3, v052
	.byte W12
	.byte N00, Ds4, v032
	.byte W06
	.byte N00
	.byte W06
	.byte N01, Fn3, v052
	.byte W12
	.byte N01
	.byte W06
	.byte N00, Ds4, v032
	.byte W06
	.byte N01, Fn3, v052
	.byte W12
	.byte N01
	.byte W06
	.byte N01
	.byte W06
	.byte PATT
	 .4byte song_unk_677_2_006
	.byte PATT
	 .4byte song_unk_677_2_006
	.byte PATT
	 .4byte song_unk_677_2_006
	.byte N01, Fn3, v052
	.byte W12
	.byte N01
	.byte W06
	.byte N00, Ds4, v032
	.byte W06
	.byte N01, Fn3, v052
	.byte W12
	.byte N01
	.byte W06
	.byte N00, Ds4, v032
	.byte W06
	.byte N01, Fn2, v092
	.byte W12
	.byte Fn3, v052
	.byte W06
	.byte N01
	.byte W06
	.byte N01
	.byte W12
	.byte N01
	.byte W06
	.byte N01
	.byte W06
	.byte PATT
	 .4byte song_unk_677_2_006
	.byte N01, Fn2, v092
	.byte W12
	.byte N00, Ds4, v032
	.byte W06
	.byte N00
	.byte W06
	.byte N01, Fn3, v052
	.byte W12
	.byte N00, Ds4, v032
	.byte W06
	.byte N00
	.byte W06
	.byte N01, Fn3, v052
	.byte W12
	.byte N01
	.byte W12
	.byte N01
	.byte W12
	.byte N00, Ds4, v032
	.byte W06
	.byte N00
	.byte W06
	.byte GOTO
	 .4byte song_unk_677_2_006
	.byte FINE
	.align 2, 0
	.global song_unk_677
song_unk_677: @ 0x08351678 (song header)
	.byte 3, 0, 10, 0 @ trackCount, blockCount, priority, reverb
	.4byte gUnknown_0804CE78 @ voice group
	.4byte song_unk_677_0
	.4byte song_unk_677_1
	.4byte song_unk_677_2

