	.include "MPlayDef.s"
	.section .rodata
	.align 2, 0
song_unk_236_0: @ 0x0834D2B0
	.byte KEYSH, 0x00
	.byte TEMPO, 0x50
	.byte VOICE, 0x01
	.byte VOL, 0x7F
	.byte N06, Fn2, v060
	.byte W08
	.byte En2
	.byte W08
	.byte Fn2
	.byte W08
	.byte Gn2
	.byte W08
	.byte Fs2
	.byte W08
	.byte Gn2
	.byte W08
	.byte Gs2
	.byte W08
	.byte Gn2
	.byte W08
	.byte Gs2
	.byte W08
	.byte An2
	.byte W08
	.byte As2
	.byte W08
	.byte Cn3
	.byte W08
song_unk_236_0_000: @ 0x0834D2D2
	.byte N44, Cs3, v060
	.byte W48
	.byte Cn3
	.byte W48
	.byte PEND
song_unk_236_0_001: @ 0x0834D2D9
	.byte N44, Fn2, v060
	.byte W48
	.byte N22
	.byte W24
	.byte As2
	.byte W24
	.byte PEND
song_unk_236_0_002: @ 0x0834D2E2
	.byte N22, Cn3, v060
	.byte W24
	.byte As2
	.byte W24
	.byte An2
	.byte W24
	.byte As2
	.byte W24
	.byte PEND
	.byte Fn3
	.byte W24
	.byte Fs3
	.byte W24
	.byte N14, Ds3
	.byte W16
	.byte N06, Cs3
	.byte W08
	.byte N22, Cn3
	.byte W24
	.byte PATT
	 .4byte song_unk_236_0_000
	.byte PATT
	 .4byte song_unk_236_0_001
	.byte PATT
	 .4byte song_unk_236_0_002
	.byte N22, Fn3, v060
	.byte W24
	.byte Fs3
	.byte W24
	.byte N06, Ds3
	.byte W08
	.byte Gs2
	.byte W08
	.byte As2
	.byte W08
	.byte Cn3
	.byte W08
	.byte Cs3
	.byte W08
	.byte Ds3
	.byte W08
song_unk_236_0_003: @ 0x0834D31C
	.byte N44, Fn3, v060
	.byte W48
	.byte Gs3
	.byte W48
	.byte PEND
song_unk_236_0_004: @ 0x0834D323
	.byte N22, As3, v060
	.byte W24
	.byte Gn3
	.byte W24
	.byte Fn3
	.byte W24
	.byte Ds3
	.byte W24
	.byte PEND
	.byte Fn3
	.byte W24
	.byte N44, Ds3
	.byte W48
	.byte N22, As2
	.byte W24
	.byte N44, Cn3
	.byte W48
	.byte N06, Gn2
	.byte W08
	.byte Gs2
	.byte W08
	.byte As2
	.byte W08
	.byte Cn3
	.byte W08
	.byte Cs3
	.byte W08
	.byte Ds3
	.byte W08
	.byte PATT
	 .4byte song_unk_236_0_003
	.byte PATT
	 .4byte song_unk_236_0_004
	.byte N22, Fn3, v060
	.byte W24
	.byte N44, Ds3
	.byte W48
	.byte N22, As3
	.byte W24
	.byte N14, An3
	.byte W16
	.byte N06, Cn4
	.byte W08
	.byte N30, Fn4
	.byte W32
	.byte N06, Fn3
	.byte W08
	.byte Fs3
	.byte W08
	.byte Gn3
	.byte W08
	.byte Gs3
	.byte W08
	.byte An3
	.byte W08
	.byte N14, As3
	.byte W96
	.byte W96
	.byte W96
	.byte W96
	.byte GOTO
	 .4byte song_unk_236_0_000
	.byte FINE
song_unk_236_1: @ 0x0834D37A
	.byte KEYSH, 0x00
	.byte VOICE, 0x41
	.byte VOL, 0x7F
	.byte W48
	.byte N06, Fn2, v080
	.byte W08
	.byte En2
	.byte W08
	.byte Fn2
	.byte W08
	.byte Fs2
	.byte W08
	.byte Gn2
	.byte W08
	.byte An2
	.byte W08
song_unk_236_1_005: @ 0x0834D38F
	.byte N06, As2, v080
	.byte W16
	.byte N06
	.byte W08
	.byte N06
	.byte W16
	.byte N06
	.byte W08
	.byte N06
	.byte W16
	.byte N06
	.byte W08
	.byte N06
	.byte W16
	.byte N06
	.byte W08
	.byte PEND
song_unk_236_1_006: @ 0x0834D3A2
	.byte N06, Gs2, v080
	.byte W16
	.byte N06
	.byte W08
	.byte N06
	.byte W16
	.byte N06
	.byte W08
	.byte N06
	.byte W16
	.byte N06
	.byte W08
	.byte N06
	.byte W16
	.byte N06
	.byte W08
	.byte PEND
song_unk_236_1_007: @ 0x0834D3B5
	.byte N06, Gn2, v080
	.byte W16
	.byte N06
	.byte W08
	.byte N06
	.byte W16
	.byte N06
	.byte W08
	.byte N06
	.byte W16
	.byte N06
	.byte W08
	.byte N06
	.byte W16
	.byte N06
	.byte W08
	.byte PEND
	.byte Fs2
	.byte W16
	.byte N06
	.byte W08
	.byte N06
	.byte W16
	.byte N06
	.byte W08
	.byte Gs2
	.byte W16
	.byte N06
	.byte W08
	.byte N06
	.byte W16
	.byte N06
	.byte W08
	.byte PATT
	 .4byte song_unk_236_1_005
	.byte PATT
	 .4byte song_unk_236_1_006
	.byte PATT
	 .4byte song_unk_236_1_007
	.byte N06, Fs2, v080
	.byte W16
	.byte N06
	.byte W08
	.byte N06
	.byte W16
	.byte N06
	.byte W08
	.byte Gs2
	.byte W16
	.byte N06
	.byte W08
	.byte N06
	.byte W08
	.byte As2
	.byte W08
	.byte Cn3
	.byte W08
song_unk_236_1_008: @ 0x0834D3FB
	.byte N06, Cs3, v080
	.byte W16
	.byte N06
	.byte W08
	.byte N06
	.byte W16
	.byte N06
	.byte W08
	.byte N06
	.byte W16
	.byte N06
	.byte W08
	.byte N06
	.byte W16
	.byte N06
	.byte W08
	.byte PEND
	.byte PATT
	 .4byte song_unk_236_1_008
song_unk_236_1_009: @ 0x0834D413
	.byte N06, Cn3, v080
	.byte W16
	.byte N06
	.byte W08
	.byte N06
	.byte W16
	.byte N06
	.byte W08
	.byte N06
	.byte W16
	.byte N06
	.byte W08
	.byte N06
	.byte W16
	.byte N06
	.byte W08
	.byte PEND
	.byte Fn3
	.byte W16
	.byte N06
	.byte W08
	.byte N06
	.byte W16
	.byte N06
	.byte W08
	.byte Ds3
	.byte W16
	.byte N06
	.byte W08
	.byte N06
	.byte W16
	.byte N06
	.byte W08
	.byte PATT
	 .4byte song_unk_236_1_008
	.byte PATT
	 .4byte song_unk_236_1_008
	.byte PATT
	 .4byte song_unk_236_1_009
	.byte N06, Fn3, v080
	.byte W16
	.byte N06
	.byte W08
	.byte N06
	.byte W16
	.byte N06
	.byte W08
	.byte N06
	.byte W16
	.byte N06
	.byte W08
	.byte N06
	.byte W16
	.byte N06
	.byte W08
	.byte PATT
	 .4byte song_unk_236_1_005
song_unk_236_1_010: @ 0x0834D45C
	.byte N06, As2, v080
	.byte W16
	.byte N06
	.byte W08
	.byte N06
	.byte W16
	.byte N06
	.byte W08
	.byte Cs3
	.byte W08
	.byte Cs4
	.byte W08
	.byte Cs3
	.byte W08
	.byte Ds3
	.byte W08
	.byte Ds4
	.byte W08
	.byte Ds3
	.byte W08
	.byte PEND
	.byte PATT
	 .4byte song_unk_236_1_005
	.byte PATT
	 .4byte song_unk_236_1_010
	.byte GOTO
	 .4byte song_unk_236_1_005
	.byte FINE
song_unk_236_2: @ 0x0834D483
	.byte KEYSH, 0x00
	.byte VOICE, 0x66
	.byte VOL, 0x7F
	.byte N02, Cn4, v012
	.byte W08
	.byte N02
	.byte W08
	.byte N02
	.byte W08
	.byte N02
	.byte W08
	.byte N02
	.byte W08
	.byte N02
	.byte W08
	.byte Cn3, v040
	.byte W08
	.byte N02
	.byte W08
	.byte N02
	.byte W08
	.byte N02
	.byte W08
	.byte N02
	.byte W08
	.byte N02
	.byte W08
song_unk_236_2_011: @ 0x0834D4A4
	.byte N02, Gs2, v052
	.byte W08
	.byte Cn4, v012
	.byte W08
	.byte Gs2, v052
	.byte W08
	.byte Cn3, v040
	.byte W08
	.byte Cn4, v012
	.byte W08
	.byte N02
	.byte W08
	.byte Gs2, v052
	.byte W08
	.byte Cn4, v012
	.byte W08
	.byte Gs2, v052
	.byte W08
	.byte Cn3, v040
	.byte W08
	.byte Cn4, v012
	.byte W08
	.byte N02
	.byte W08
	.byte PEND
	.byte PATT
	 .4byte song_unk_236_2_011
	.byte PATT
	 .4byte song_unk_236_2_011
song_unk_236_2_012: @ 0x0834D4D2
	.byte N02, Gs2, v052
	.byte W08
	.byte Cn4, v012
	.byte W08
	.byte Gs2, v052
	.byte W08
	.byte Cn3, v040
	.byte W08
	.byte Cn4, v012
	.byte W08
	.byte N02
	.byte W08
	.byte Gs2, v052
	.byte W08
	.byte Cn4, v012
	.byte W08
	.byte Gs2, v052
	.byte W08
	.byte Cn3, v040
	.byte W08
	.byte N02
	.byte W08
	.byte N02
	.byte W08
	.byte PEND
	.byte PATT
	 .4byte song_unk_236_2_011
	.byte PATT
	 .4byte song_unk_236_2_011
	.byte PATT
	 .4byte song_unk_236_2_011
song_unk_236_2_013: @ 0x0834D504
	.byte N02, Gs2, v052
	.byte W08
	.byte Cn4, v012
	.byte W08
	.byte Gs2, v052
	.byte W08
	.byte Cn3, v040
	.byte W08
	.byte Cn4, v012
	.byte W08
	.byte N02
	.byte W08
	.byte Gs2, v052
	.byte W08
	.byte Cn3, v040
	.byte W08
	.byte N02
	.byte W08
	.byte N02
	.byte W08
	.byte N02
	.byte W08
	.byte N02
	.byte W08
	.byte PEND
	.byte PATT
	 .4byte song_unk_236_2_011
	.byte PATT
	 .4byte song_unk_236_2_011
	.byte PATT
	 .4byte song_unk_236_2_011
	.byte PATT
	 .4byte song_unk_236_2_012
	.byte PATT
	 .4byte song_unk_236_2_011
	.byte PATT
	 .4byte song_unk_236_2_011
	.byte PATT
	 .4byte song_unk_236_2_011
	.byte PATT
	 .4byte song_unk_236_2_013
	.byte PATT
	 .4byte song_unk_236_2_011
	.byte PATT
	 .4byte song_unk_236_2_011
	.byte PATT
	 .4byte song_unk_236_2_011
	.byte N02, Cn3, v040
	.byte W08
	.byte N02
	.byte W08
	.byte N02
	.byte W08
	.byte N02
	.byte W08
	.byte N02
	.byte W08
	.byte N02
	.byte W08
	.byte N02
	.byte W08
	.byte N02
	.byte W08
	.byte N02
	.byte W08
	.byte N02
	.byte W08
	.byte N02
	.byte W08
	.byte N02
	.byte W08
	.byte GOTO
	 .4byte song_unk_236_2_011
	.byte FINE
	.align 2, 0
	.global song_unk_236
song_unk_236: @ 0x0834D57C (song header)
	.byte 3, 0, 10, 0 @ trackCount, blockCount, priority, reverb
	.4byte voicegroup000 @ voice group
	.4byte song_unk_236_0
	.4byte song_unk_236_1
	.4byte song_unk_236_2
	.size song_unk_236,.-song_unk_236
