	.include "MPlayDef.s"
	.section .rodata
	.align 2, 0
song_unk_239_0: @ 0x0834D818
	.byte KEYSH, 0x00
	.byte TEMPO, 0x4D
	.byte W48
song_unk_239_0_002: @ 0x0834D81D
	.byte VOICE, 0x78
	.byte VOL, 0x7F
	.byte N03, Dn3, v052
	.byte W03
	.byte N21, Ds3
	.byte W21
	.byte N12, Cs3
	.byte W12
	.byte N24, Gs2
	.byte W12
song_unk_239_0_000: @ 0x0834D82E
	.byte W12
	.byte N12, Fs2, v052
	.byte W12
	.byte En2
	.byte W12
	.byte N24, Fs2
	.byte W24
	.byte N12, Gs2
	.byte W12
	.byte Bn2
	.byte W12
	.byte Cs3
	.byte W12
	.byte PEND
song_unk_239_0_001: @ 0x0834D840
	.byte N42, Bn2, v052
	.byte W48
	.byte N03, Dn3
	.byte W03
	.byte N21, Ds3
	.byte W21
	.byte N12, Cs3
	.byte W12
	.byte N24, Gs2
	.byte W12
	.byte PEND
	.byte W12
	.byte N12, Fs2
	.byte W12
	.byte En2
	.byte W12
	.byte N24, Fs2
	.byte W24
	.byte N12, Gs2
	.byte W12
	.byte An2
	.byte W12
	.byte Gs2
	.byte W12
	.byte N03, An2
	.byte W03
	.byte N09, Bn2
	.byte W09
	.byte N12, An2
	.byte W12
	.byte En2
	.byte W12
	.byte Fs2
	.byte W12
	.byte N03, Dn3
	.byte W03
	.byte N21, Ds3
	.byte W21
	.byte N12, Cs3
	.byte W12
	.byte N24, Gs2
	.byte W12
	.byte PATT
	 .4byte song_unk_239_0_000
	.byte PATT
	 .4byte song_unk_239_0_001
	.byte W12
	.byte N12, Fs2, v052
	.byte W12
	.byte En2
	.byte W12
	.byte N24, Bn2
	.byte W24
	.byte N12, An2
	.byte W12
	.byte Gs2
	.byte W12
	.byte An2
	.byte W12
	.byte Gs2
	.byte W12
	.byte En2
	.byte W12
	.byte Fs2
	.byte W12
	.byte En2
	.byte W12
	.byte GOTO
	 .4byte song_unk_239_0_002
	.byte FINE
song_unk_239_1: @ 0x0834D8A3
	.byte KEYSH, 0x00
	.byte W48
song_unk_239_1_005: @ 0x0834D8A6
	.byte VOICE, 0x41
	.byte VOL, 0x7F
	.byte W01
	.byte N11, Cs2, v056
	.byte W12
	.byte Bn1
	.byte W12
	.byte Cs2
	.byte W12
	.byte Bn2
	.byte W11
song_unk_239_1_003: @ 0x0834D8B5
	.byte W01
	.byte N11, Cs3, v056
	.byte W12
	.byte Fs2
	.byte W12
	.byte Gs2
	.byte W12
	.byte Cs2
	.byte W12
	.byte En2
	.byte W12
	.byte Ds2
	.byte W12
	.byte En2
	.byte W12
	.byte Bn2
	.byte W11
	.byte PEND
song_unk_239_1_004: @ 0x0834D8C9
	.byte W01
	.byte N11, En3, v056
	.byte W12
	.byte En2
	.byte W12
	.byte Bn1
	.byte W12
	.byte As1
	.byte W12
	.byte An1
	.byte W12
	.byte Gs1
	.byte W12
	.byte An1
	.byte W12
	.byte Gs2
	.byte W11
	.byte PEND
	.byte W01
	.byte An2
	.byte W12
	.byte Cs2
	.byte W12
	.byte Ds2
	.byte W12
	.byte En2
	.byte W12
	.byte Ds2
	.byte W12
	.byte Cs2
	.byte W12
	.byte Ds2
	.byte W12
	.byte Fs2
	.byte W11
	.byte W01
	.byte Gs2
	.byte W12
	.byte Gs1
	.byte W12
	.byte Fs1
	.byte W12
	.byte Gs1
	.byte W12
	.byte Cs2
	.byte W12
	.byte Bn1
	.byte W12
	.byte Cs2
	.byte W12
	.byte Bn2
	.byte W11
	.byte PATT
	 .4byte song_unk_239_1_003
	.byte PATT
	 .4byte song_unk_239_1_004
	.byte W01
	.byte N11, An2, v056
	.byte W12
	.byte An1
	.byte W12
	.byte Bn1
	.byte W12
	.byte Cs2
	.byte W12
	.byte Dn2
	.byte W12
	.byte Cs2
	.byte W12
	.byte Dn2
	.byte W12
	.byte Cs3
	.byte W11
	.byte W01
	.byte Dn3
	.byte W12
	.byte Dn2
	.byte W12
	.byte En2
	.byte W12
	.byte Dn2
	.byte W11
	.byte GOTO
	 .4byte song_unk_239_1_005
	.byte FINE
song_unk_239_2: @ 0x0834D92B
	.byte KEYSH, 0x00
	.byte W48
song_unk_239_2_008: @ 0x0834D92E
	.byte VOICE, 0x39
	.byte VOL, 0x7F
	.byte N06, Cs2, v040
	.byte W12
	.byte N06
	.byte W12
	.byte N12, Gs2
	.byte N12, Cs3
	.byte W12
	.byte N06, Cs2
	.byte W12
song_unk_239_2_006: @ 0x0834D940
	.byte N06, Cs2, v040
	.byte W12
	.byte N12, Gs2
	.byte N12, Cs3
	.byte W12
	.byte N06, Cs2
	.byte W12
	.byte N06
	.byte W12
	.byte En2
	.byte W12
	.byte N06
	.byte W12
	.byte N12, Bn2
	.byte N12, En3
	.byte W12
	.byte N06, En2
	.byte W12
	.byte PEND
song_unk_239_2_007: @ 0x0834D95B
	.byte N06, En2, v040
	.byte W12
	.byte N12, Bn2
	.byte N12, En3
	.byte W12
	.byte N06, En2
	.byte W12
	.byte N06
	.byte W12
	.byte An1
	.byte W12
	.byte N06
	.byte W12
	.byte N12, En2
	.byte N12, An2
	.byte W12
	.byte N06, An1
	.byte W12
	.byte PEND
	.byte N06
	.byte W12
	.byte N12, En2
	.byte N12, An2
	.byte W12
	.byte N06, An1
	.byte W12
	.byte N06
	.byte W12
	.byte N12, Cs3
	.byte N12, Fs3
	.byte W12
	.byte N06, Fs2
	.byte W12
	.byte N06
	.byte W12
	.byte N12, Cs3
	.byte N12, Fs3
	.byte W12
	.byte N06, Ds2
	.byte W12
	.byte N12, Gs2
	.byte N12, Ds3
	.byte W12
	.byte N06, Ds2
	.byte W12
	.byte N06
	.byte W12
	.byte Cs2
	.byte W12
	.byte N06
	.byte W12
	.byte N12, Gs2
	.byte N12, Cs3
	.byte W12
	.byte N06, Cs2
	.byte W12
	.byte PATT
	 .4byte song_unk_239_2_006
	.byte PATT
	 .4byte song_unk_239_2_007
	.byte N06, An1, v040
	.byte W12
	.byte N12, En2
	.byte N12, An2
	.byte W12
	.byte N06, An1
	.byte W12
	.byte N06
	.byte W12
	.byte N12, Dn3
	.byte N12, Fs3
	.byte W12
	.byte N06, Dn2
	.byte W12
	.byte N06
	.byte W12
	.byte N12, Dn3
	.byte N12, Fs3
	.byte W12
	.byte N06, Dn2
	.byte W12
	.byte N24, Fs3
	.byte N24, Cs4
	.byte W12
	.byte MOD, 0x08
	.byte W12
	.byte 0x00
	.byte N06, Dn2
	.byte W12
	.byte GOTO
	 .4byte song_unk_239_2_008
	.byte FINE
song_unk_239_3: @ 0x0834D9E6
	.byte KEYSH, 0x00
	.byte W48
song_unk_239_3_011: @ 0x0834D9E9
	.byte VOICE, 0x01
	.byte VOL, 0x7F
	.byte N03, Dn4, v032
	.byte W03
	.byte N21, Ds4
	.byte W21
	.byte N12, Cs4
	.byte W12
	.byte N24, Gs3
	.byte W12
song_unk_239_3_009: @ 0x0834D9FA
	.byte W12
	.byte N12, Fs3, v032
	.byte W12
	.byte En3
	.byte W12
	.byte N24, Fs3
	.byte W24
	.byte N12, Gs3
	.byte W12
	.byte Bn3
	.byte W12
	.byte Cs4
	.byte W12
	.byte PEND
song_unk_239_3_010: @ 0x0834DA0C
	.byte N42, Bn3, v032
	.byte W48
	.byte N03, Dn4
	.byte W03
	.byte N21, Ds4
	.byte W21
	.byte N12, Cs4
	.byte W12
	.byte N24, Gs3
	.byte W12
	.byte PEND
	.byte W12
	.byte N12, Fs3
	.byte W12
	.byte En3
	.byte W12
	.byte N24, Fs3
	.byte W24
	.byte N12, Gs3
	.byte W12
	.byte An3
	.byte W12
	.byte Gs3
	.byte W12
	.byte N03, An3
	.byte W03
	.byte N09, Bn3
	.byte W09
	.byte N12, An3
	.byte W12
	.byte En3
	.byte W12
	.byte Fs3
	.byte W12
	.byte N03, Dn4
	.byte W03
	.byte N21, Ds4
	.byte W21
	.byte N12, Cs4
	.byte W12
	.byte N24, Gs3
	.byte W12
	.byte PATT
	 .4byte song_unk_239_3_009
	.byte PATT
	 .4byte song_unk_239_3_010
	.byte W12
	.byte N12, Fs3, v032
	.byte W12
	.byte En3
	.byte W12
	.byte N03, As3
	.byte W03
	.byte N21, Bn3
	.byte W21
	.byte N12, An3
	.byte W12
	.byte Gs3
	.byte W12
	.byte An3
	.byte W12
	.byte Gs3
	.byte W12
	.byte En3
	.byte W12
	.byte Fs3
	.byte W12
	.byte En3
	.byte W12
	.byte GOTO
	 .4byte song_unk_239_3_011
	.byte FINE
song_unk_239_4: @ 0x0834DA72
	.byte KEYSH, 0x00
	.byte VOICE, 0x5D
	.byte VOL, 0x7F
	.byte N06, Dn1, v052
	.byte W06
	.byte N06
	.byte W06
	.byte Cn1, v072
	.byte N12, Fs1, v020
	.byte W12
	.byte N06, Dn1, v052
	.byte W12
	.byte N06
	.byte W06
	.byte N06
	.byte W06
song_unk_239_4_014: @ 0x0834DA8C
	.byte N06, Cn1, v072
	.byte W12
	.byte N01, Fs1, v020
	.byte W12
	.byte N06, Dn1, v052
	.byte W12
	.byte N01, Fs1, v020
	.byte W12
song_unk_239_4_012: @ 0x0834DA9C
	.byte N06, Cn1, v072
	.byte W12
	.byte N01, Fs1, v020
	.byte W12
	.byte N06, Dn1, v052
	.byte W12
	.byte N01, Fs1, v020
	.byte W12
	.byte N06, Cn1, v072
	.byte W12
	.byte N01, Fs1, v020
	.byte W12
	.byte N06, Dn1, v052
	.byte W12
	.byte N01, Fs1, v020
	.byte W12
	.byte PEND
song_unk_239_4_013: @ 0x0834DABD
	.byte N06, Cn1, v072
	.byte W12
	.byte N06
	.byte N01, Fs1, v020
	.byte W12
	.byte N06, Dn1, v052
	.byte W12
	.byte N12, Fs1, v020
	.byte W12
	.byte N06, Cn1, v072
	.byte W12
	.byte N01, Fs1, v020
	.byte W12
	.byte N06, Dn1, v052
	.byte W12
	.byte N01, Fs1, v020
	.byte W12
	.byte PEND
	.byte PATT
	 .4byte song_unk_239_4_012
	.byte N06, Cn1, v072
	.byte W12
	.byte N06
	.byte N12, Fs1, v020
	.byte W12
	.byte N06, Dn1, v052
	.byte W12
	.byte N06
	.byte N01, Fs1, v020
	.byte W06
	.byte N06, Dn1, v052
	.byte W06
	.byte Cn1, v072
	.byte W12
	.byte N01, Fs1, v020
	.byte W12
	.byte N06, Dn1, v052
	.byte W12
	.byte N01, Fs1, v020
	.byte W12
	.byte PATT
	 .4byte song_unk_239_4_012
	.byte PATT
	 .4byte song_unk_239_4_013
	.byte N06, Cn1, v072
	.byte W12
	.byte N01, Fs1, v020
	.byte W12
	.byte N06, Dn1, v052
	.byte W12
	.byte N01, Fs1, v020
	.byte W12
	.byte N06, Cn1, v072
	.byte W12
	.byte N01, Fs1, v020
	.byte W12
	.byte N06, Dn1, v052
	.byte W12
	.byte N12, Fs1, v020
	.byte W12
	.byte N06, Cn1, v072
	.byte W12
	.byte Dn1, v052
	.byte N01, Fs1, v020
	.byte W12
	.byte N06, Dn1, v052
	.byte W06
	.byte N06
	.byte W06
	.byte N06
	.byte N01, Fs1, v020
	.byte W12
	.byte GOTO
	 .4byte song_unk_239_4_014
	.byte FINE
	.align 2, 0
	.global song_unk_239
song_unk_239: @ 0x0834DB50 (song header)
	.byte 5, 0, 10, 0 @ trackCount, blockCount, priority, reverb
	.4byte voicegroup000 @ voice group
	.4byte song_unk_239_0
	.4byte song_unk_239_1
	.4byte song_unk_239_2
	.4byte song_unk_239_3
	.4byte song_unk_239_4
	.size song_unk_239,.-song_unk_239
