	.include "MPlayDef.s"
	.section .rodata
	.align 2, 0
song_unk_214_0: @ 0x0834CB58
	.byte KEYSH, 0x00
song_unk_214_0_001: @ 0x0834CB5A
	.byte TEMPO, 0x48
	.byte VOICE, 0x7C
	.byte VOL, 0x7F
	.byte N32, Cs3, v052
	.byte N32, En3, v072
	.byte W36
	.byte N11, En3, v052
	.byte N11, An3, v072
	.byte W24
	.byte Cs3, v052
	.byte N11, En3, v072
	.byte W12
	.byte Dn3, v052
	.byte N11, Fs3, v072
	.byte W12
	.byte N56, En3, v052
	.byte N56, Gn3, v072
	.byte W12
song_unk_214_0_000: @ 0x0834CB81
	.byte W72
	.byte N11, En3, v052
	.byte N11, Gn3, v072
	.byte W12
	.byte Fs3, v052
	.byte N11, An3, v072
	.byte W12
	.byte PEND
	.byte N44, Gn3, v052
	.byte N44, Bn3, v072
	.byte W60
	.byte N11, En3, v052
	.byte N11, Gn3, v072
	.byte W12
	.byte Gn3, v052
	.byte N11, Bn3, v072
	.byte W12
	.byte N22, Fs3, v052
	.byte N22, An3, v072
	.byte W12
	.byte W12
	.byte N11, Gn3, v052
	.byte N11, Bn3, v072
	.byte W12
	.byte Fs3, v052
	.byte N11, An3, v072
	.byte W12
	.byte N22, Dn3, v052
	.byte N22, Fs3, v072
	.byte W24
	.byte N11, En3, v052
	.byte N11, Gn3, v072
	.byte W12
	.byte Dn3, v052
	.byte N11, Fs3, v072
	.byte W12
	.byte Bn2, v052
	.byte N11, Dn3, v060
	.byte W12
	.byte N32, Cs3, v052
	.byte N32, En3, v072
	.byte W36
	.byte N11, En3, v052
	.byte N11, An3, v072
	.byte W24
	.byte Cs3, v052
	.byte N11, En3, v072
	.byte W12
	.byte Dn3, v052
	.byte N11, Fs3, v072
	.byte W12
	.byte N56, En3, v052
	.byte N56, Gn3, v072
	.byte W12
	.byte PATT
	 .4byte song_unk_214_0_000
	.byte N44, Gn3, v052
	.byte N44, Bn3, v072
	.byte W60
	.byte N11, Gn3, v052
	.byte N11, Bn3, v072
	.byte W12
	.byte An3, v052
	.byte N11, Cs4, v072
	.byte W12
	.byte N22, An3, v052
	.byte N22, Dn4, v072
	.byte W12
	.byte W12
	.byte N11, An3, v052
	.byte N11, Cs4, v072
	.byte W12
	.byte Fs3, v052
	.byte N11, An3, v072
	.byte W12
	.byte N22, An3, v052
	.byte N22, Cn4, v072
	.byte W24
	.byte N11, Gn3, v052
	.byte N11, Bn3, v072
	.byte W12
	.byte En3, v052
	.byte N11, Gn3, v072
	.byte W12
	.byte Fs3, v052
	.byte N11, An3, v072
	.byte W12
	.byte GOTO
	 .4byte song_unk_214_0_001
	.byte FINE
song_unk_214_1: @ 0x0834CC42
	.byte KEYSH, 0x00
song_unk_214_1_005: @ 0x0834CC44
	.byte VOICE, 0x41
	.byte VOL, 0x7F
	.byte N11, An1, v060
	.byte W12
	.byte Gn1
	.byte W12
	.byte An1
	.byte W12
	.byte Gn2
	.byte W12
	.byte An2
	.byte W12
	.byte An1
	.byte W24
	.byte Gn1
	.byte W12
song_unk_214_1_002: @ 0x0834CC58
	.byte N11, An1, v060
	.byte W12
	.byte Gn1
	.byte W12
	.byte An1
	.byte W24
	.byte Gn2
	.byte W12
	.byte An2
	.byte W24
	.byte Gn1
	.byte W12
	.byte PEND
song_unk_214_1_003: @ 0x0834CC67
	.byte N11, An1, v060
	.byte W12
	.byte Gn1
	.byte W12
	.byte An1
	.byte W12
	.byte Gn2
	.byte W12
	.byte An2
	.byte W12
	.byte Cn2
	.byte W12
	.byte Cs2
	.byte W12
	.byte Dn2
	.byte W12
	.byte PEND
song_unk_214_1_004: @ 0x0834CC7A
	.byte W12
	.byte N11, Cs2, v060
	.byte W24
	.byte Cn2
	.byte W24
	.byte Bn1
	.byte W24
	.byte As1
	.byte W12
	.byte PEND
	.byte An1
	.byte W12
	.byte Gn1
	.byte W12
	.byte An1
	.byte W12
	.byte Gn2
	.byte W12
	.byte An2
	.byte W12
	.byte An1
	.byte W24
	.byte Gn1
	.byte W12
	.byte PATT
	 .4byte song_unk_214_1_002
	.byte PATT
	 .4byte song_unk_214_1_003
	.byte PATT
	 .4byte song_unk_214_1_004
	.byte GOTO
	 .4byte song_unk_214_1_005
	.byte FINE
song_unk_214_2: @ 0x0834CCA9
	.byte KEYSH, 0x00
song_unk_214_2_007: @ 0x0834CCAB
	.byte VOICE, 0x00
	.byte VOL, 0x7F
	.byte N04, Gn4, v028
	.byte W12
	.byte Fs4, v032
	.byte W12
	.byte Gn4, v028
	.byte W12
	.byte An4
	.byte W60
	.byte W96
song_unk_214_2_006: @ 0x0834CCBC
	.byte N04, Gn4, v028
	.byte W12
	.byte Fs4
	.byte W12
	.byte Gn4
	.byte W12
	.byte An4
	.byte W60
	.byte PEND
	.byte W96
	.byte Gn4
	.byte W12
	.byte Fs4, v032
	.byte W12
	.byte Gn4, v028
	.byte W12
	.byte An4
	.byte W60
	.byte W96
	.byte PATT
	 .4byte song_unk_214_2_006
	.byte W96
	.byte GOTO
	 .4byte song_unk_214_2_007
	.byte FINE
song_unk_214_3: @ 0x0834CCDF
	.byte KEYSH, 0x00
song_unk_214_3_010: @ 0x0834CCE1
	.byte VOICE, 0x5D
	.byte VOL, 0x7F
	.byte N05, Cn1, v072
	.byte N01, Fs1, v016
	.byte W12
	.byte N01
	.byte W12
	.byte N01
	.byte W12
	.byte N05, Cn1, v072
	.byte N01, Fs1, v016
	.byte W12
	.byte N05, Dn1, v052
	.byte N01, Fs1, v016
	.byte W12
	.byte N11
	.byte W12
	.byte N01
	.byte W12
	.byte N05, Cn1, v072
	.byte N01, Fs1, v016
	.byte W12
song_unk_214_3_008: @ 0x0834CD09
	.byte N05, Cn1, v072
	.byte N01, Fs1, v016
	.byte W12
	.byte N01
	.byte W12
	.byte N01
	.byte W12
	.byte N05, Cn1, v072
	.byte N01, Fs1, v016
	.byte W12
	.byte N05, Dn1, v052
	.byte N01, Fs1, v016
	.byte W12
	.byte N01
	.byte W12
	.byte N01
	.byte W12
	.byte N05, Cn1, v072
	.byte N11, Fs1, v016
	.byte W12
	.byte PEND
song_unk_214_3_009: @ 0x0834CD2E
	.byte N05, Cn1, v072
	.byte N01, Fs1, v016
	.byte W12
	.byte N01
	.byte W12
	.byte N01
	.byte W12
	.byte N05, Cn1, v072
	.byte N01, Fs1, v016
	.byte W12
	.byte N05, Dn1, v052
	.byte N01, Fs1, v016
	.byte W12
	.byte N11
	.byte W12
	.byte N05, Cn1, v072
	.byte N01, Fs1, v016
	.byte W12
	.byte N05, Cn1, v072
	.byte N01, Fs1, v016
	.byte W12
	.byte PEND
	.byte N01
	.byte W12
	.byte N05, Cn1, v072
	.byte N01, Fs1, v016
	.byte W12
	.byte N01
	.byte W12
	.byte N05, Cn1, v072
	.byte N01, Fs1, v016
	.byte W12
	.byte N05, Dn1, v052
	.byte N01, Fs1, v016
	.byte W12
	.byte N01
	.byte W12
	.byte N01
	.byte W12
	.byte N05, Dn1, v052
	.byte N11, Fs1, v016
	.byte W12
	.byte N05, Cn1, v072
	.byte N01, Fs1, v016
	.byte W12
	.byte N01
	.byte W12
	.byte N01
	.byte W12
	.byte N05, Cn1, v072
	.byte N01, Fs1, v016
	.byte W12
	.byte N05, Dn1, v052
	.byte N01, Fs1, v016
	.byte W12
	.byte N11
	.byte W12
	.byte N01
	.byte W12
	.byte N05, Cn1, v072
	.byte N01, Fs1, v016
	.byte W12
	.byte PATT
	 .4byte song_unk_214_3_008
	.byte PATT
	 .4byte song_unk_214_3_009
	.byte N01, Fs1, v016
	.byte W12
	.byte N05, Dn1, v052
	.byte N01, Fs1, v016
	.byte W12
	.byte N01
	.byte W12
	.byte N05, Cn1, v072
	.byte N01, Fs1, v016
	.byte W12
	.byte N05, Dn1, v052
	.byte N01, Fs1, v016
	.byte W12
	.byte N05, Dn1, v052
	.byte N01, Fs1, v016
	.byte W12
	.byte N05, Dn1, v052
	.byte N01, Fs1, v016
	.byte W12
	.byte N05, Cn1, v072
	.byte N11, Fs1, v016
	.byte W12
	.byte GOTO
	 .4byte song_unk_214_3_010
	.byte FINE
	.align 2, 0
	.global song_unk_214
song_unk_214: @ 0x0834CDE0 (song header)
	.byte 4, 0, 10, 0 @ trackCount, blockCount, priority, reverb
	.4byte gUnknown_0804CE78 @ voice group
	.4byte song_unk_214_0
	.4byte song_unk_214_1
	.4byte song_unk_214_2
	.4byte song_unk_214_3

