	.include "MPlayDef.s"
	.section .rodata
	.align 2, 0
song_unk_739_0: @ 0x08354AB4
	.byte VOL, 0x6E
	.byte KEYSH, 0x00
song_unk_739_0_001: @ 0x08354AB8
	.byte TEMPO, 0x4A
	.byte VOICE, 0x5D
	.byte W24
	.byte N24, Ds4, v080
	.byte W24
	.byte Gs6, v127
	.byte W24
	.byte W48
	.byte N24
	.byte W24
song_unk_739_0_000: @ 0x08354AC7
	.byte W24
	.byte N24, Ds4, v080
	.byte W24
	.byte Gs6, v127
	.byte W24
	.byte PEND
	.byte W48
	.byte N24
	.byte W24
	.byte PATT
	 .4byte song_unk_739_0_000
	.byte W48
	.byte N24, Gs6, v127
	.byte W24
	.byte PATT
	 .4byte song_unk_739_0_000
	.byte W48
	.byte N24, Gs6, v127
	.byte W24
	.byte GOTO
	 .4byte song_unk_739_0_001
	.byte FINE
song_unk_739_1: @ 0x08354AED
	.byte VOL, 0x6E
	.byte KEYSH, 0x00
song_unk_739_1_002: @ 0x08354AF1
	.byte VOICE, 0x64
	.byte PAN, 0x30
	.byte W64
	.byte N01, Fs6, v127
	.byte W08
	.byte W24
	.byte N01
	.byte W48
	.byte W64
	.byte N01
	.byte W08
	.byte W24
	.byte N01
	.byte W48
	.byte W64
	.byte N01
	.byte W08
	.byte W24
	.byte N01
	.byte W48
	.byte W64
	.byte N01
	.byte W08
	.byte W24
	.byte N01
	.byte W48
	.byte GOTO
	 .4byte song_unk_739_1_002
	.byte FINE
song_unk_739_2: @ 0x08354B15
	.byte VOL, 0x6E
	.byte KEYSH, 0x00
song_unk_739_2_003: @ 0x08354B19
	.byte VOICE, 0x03
	.byte N72, Cn4, v096
	.byte W72
	.byte W72
	.byte Cs4
	.byte W72
	.byte Gn3
	.byte W72
	.byte Cn4
	.byte W72
	.byte W72
	.byte W72
	.byte W72
	.byte GOTO
	 .4byte song_unk_739_2_003
	.byte FINE
song_unk_739_3: @ 0x08354B2F
	.byte VOL, 0x6E
	.byte KEYSH, 0x00
song_unk_739_3_004: @ 0x08354B33
	.byte VOICE, 0x21
	.byte PAN, 0x40
	.byte W72
	.byte W72
	.byte W72
	.byte W48
	.byte N72, Cs4, v096
	.byte W24
	.byte W72
	.byte W72
	.byte VOICE, 0x1E
	.byte PAN, 0x7F
	.byte N12, As4, v064
	.byte W24
	.byte Gn4
	.byte W24
	.byte Gs4
	.byte W24
	.byte N24, As4
	.byte W72
	.byte GOTO
	 .4byte song_unk_739_3_004
	.byte FINE
song_unk_739_4: @ 0x08354B56
	.byte VOL, 0x6E
	.byte KEYSH, 0x00
song_unk_739_4_005: @ 0x08354B5A
	.byte VOICE, 0x4D
	.byte N12, Gs2, v096
	.byte W72
	.byte Ds2, v127
	.byte W72
	.byte As2, v096
	.byte W72
	.byte Ds2, v127
	.byte W72
	.byte Gs2, v096
	.byte W72
	.byte Ds2, v127
	.byte W72
	.byte As2, v096
	.byte W72
	.byte Ds2, v127
	.byte W72
	.byte GOTO
	 .4byte song_unk_739_4_005
	.byte FINE
song_unk_739_5: @ 0x08354B7B
	.byte VOL, 0x6E
	.byte KEYSH, 0x00
song_unk_739_5_008: @ 0x08354B7F
	.byte VOICE, 0x78
	.byte PAN, 0x60
	.byte W24
	.byte N05, Cn3, v064
	.byte W24
	.byte N05
	.byte W24
song_unk_739_5_007: @ 0x08354B8A
	.byte W24
	.byte N05, Cn3, v064
	.byte W24
	.byte N05
	.byte W24
	.byte PEND
song_unk_739_5_006: @ 0x08354B92
	.byte W24
	.byte N05, Cs3, v064
	.byte W24
	.byte N05
	.byte W24
	.byte PEND
	.byte PATT
	 .4byte song_unk_739_5_006
	.byte PATT
	 .4byte song_unk_739_5_007
	.byte PATT
	 .4byte song_unk_739_5_007
	.byte PATT
	 .4byte song_unk_739_5_006
	.byte PATT
	 .4byte song_unk_739_5_006
	.byte GOTO
	 .4byte song_unk_739_5_008
	.byte FINE
song_unk_739_6: @ 0x08354BB9
	.byte VOL, 0x6E
	.byte KEYSH, 0x00
song_unk_739_6_011: @ 0x08354BBD
	.byte VOICE, 0x78
	.byte PAN, 0x20
	.byte W24
	.byte N05, Gs2, v064
	.byte W24
	.byte N05
	.byte W24
song_unk_739_6_010: @ 0x08354BC8
	.byte W24
	.byte N05, Gs2, v064
	.byte W24
	.byte N05
	.byte W24
	.byte PEND
song_unk_739_6_009: @ 0x08354BD0
	.byte W24
	.byte N05, As2, v064
	.byte W24
	.byte N05
	.byte W24
	.byte PEND
	.byte PATT
	 .4byte song_unk_739_6_009
	.byte PATT
	 .4byte song_unk_739_6_010
	.byte PATT
	 .4byte song_unk_739_6_010
	.byte PATT
	 .4byte song_unk_739_6_009
	.byte PATT
	 .4byte song_unk_739_6_009
	.byte GOTO
	 .4byte song_unk_739_6_011
	.byte FINE
	.align 2, 0
	.global song_unk_739
song_unk_739: @ 0x08354BF8 (song header)
	.byte 7, 0, 10, 0 @ trackCount, blockCount, priority, reverb
	.4byte voicegroup000 @ voice group
	.4byte song_unk_739_0
	.4byte song_unk_739_1
	.4byte song_unk_739_2
	.4byte song_unk_739_3
	.4byte song_unk_739_4
	.4byte song_unk_739_5
	.4byte song_unk_739_6
	.size song_unk_739,.-song_unk_739
