	.include "MPlayDef.s"
	.section .rodata
	.align 2, 0
song_unk_685_0: @ 0x08351AC0
	.byte KEYSH, 0x00
song_unk_685_0_001: @ 0x08351AC2
	.byte TEMPO, 0x46
	.byte VOICE, 0x5D
	.byte VOL, 0x64
	.byte N05, Cn1, v092
	.byte W12
	.byte N00, Fs1, v020
	.byte W12
	.byte N05, Cn1, v092
	.byte W12
	.byte N00, Fs1, v020
	.byte W12
	.byte N05, Cn1, v092
	.byte W12
	.byte N00, Fs1, v020
	.byte W12
	.byte N05, Cn1, v092
	.byte W12
	.byte N00, Fs1, v020
	.byte W12
song_unk_685_0_000: @ 0x08351AE8
	.byte N05, Cn1, v092
	.byte W12
	.byte N00, Fs1, v020
	.byte W12
	.byte N05, Cn1, v092
	.byte W12
	.byte N00, Fs1, v020
	.byte W12
	.byte N05, Cn1, v092
	.byte W12
	.byte N00, Fs1, v020
	.byte W12
	.byte N05, Cn1, v092
	.byte W12
	.byte N00, Fs1, v020
	.byte W12
	.byte PEND
	.byte PATT
	 .4byte song_unk_685_0_000
	.byte PATT
	 .4byte song_unk_685_0_000
	.byte GOTO
	 .4byte song_unk_685_0_001
	.byte FINE
song_unk_685_1: @ 0x08351B19
	.byte KEYSH, 0x00
song_unk_685_1_002: @ 0x08351B1B
	.byte VOICE, 0x02
	.byte VOL, 0x64
	.byte N01, Cn2, v052
	.byte W06
	.byte Cn3
	.byte W06
	.byte Cn2
	.byte W06
	.byte N01
	.byte W06
	.byte Cn4, v040
	.byte W06
	.byte N01
	.byte W06
	.byte N01
	.byte W06
	.byte Cn5
	.byte W54
	.byte W96
	.byte Cn2, v052
	.byte W06
	.byte Cn3
	.byte W06
	.byte Cn2
	.byte W06
	.byte N01
	.byte W06
	.byte Cn4, v040
	.byte W06
	.byte N01
	.byte W06
	.byte N01
	.byte W06
	.byte Cn5
	.byte W54
	.byte W96
	.byte GOTO
	 .4byte song_unk_685_1_002
	.byte FINE
song_unk_685_2: @ 0x08351B4C
	.byte KEYSH, 0x00
song_unk_685_2_004: @ 0x08351B4E
	.byte VOICE, 0x65
	.byte VOL, 0x64
	.byte W06
	.byte N00, Cn5, v032
	.byte W18
	.byte N00
	.byte W18
	.byte N00
	.byte W18
	.byte N00
	.byte W06
	.byte N00
	.byte W12
	.byte N00
	.byte W12
	.byte N00
	.byte W06
song_unk_685_2_003: @ 0x08351B63
	.byte W12
	.byte N00, Cn5, v032
	.byte W12
	.byte N00
	.byte W06
	.byte N00
	.byte W18
	.byte N00
	.byte W18
	.byte N00
	.byte W12
	.byte N00
	.byte W06
	.byte N00
	.byte W12
	.byte PEND
	.byte W06
	.byte N00
	.byte W18
	.byte N00
	.byte W18
	.byte N00
	.byte W18
	.byte N00
	.byte W06
	.byte N00
	.byte W12
	.byte N00
	.byte W12
	.byte N00
	.byte W06
	.byte PATT
	 .4byte song_unk_685_2_003
	.byte GOTO
	 .4byte song_unk_685_2_004
	.byte FINE
song_unk_685_3: @ 0x08351B8F
	.byte KEYSH, 0x00
song_unk_685_3_005: @ 0x08351B91
	.byte VOICE, 0x3E
	.byte VOL, 0x64
	.byte N32, Cn1, v092
	.byte W36
	.byte N11, Cn2
	.byte W60
	.byte W96
	.byte N32, Cn1
	.byte W36
	.byte N11, Cn2
	.byte W60
	.byte W18
	.byte N05, Cn3, v080
	.byte W06
	.byte N23, As2
	.byte W42
	.byte N05, Cn2
	.byte W06
	.byte N23, As1
	.byte W24
	.byte GOTO
	 .4byte song_unk_685_3_005
	.byte FINE
song_unk_685_4: @ 0x08351BB7
	.byte KEYSH, 0x00
song_unk_685_4_007: @ 0x08351BB9
	.byte VOICE, 0x1F
	.byte VOL, 0x64
	.byte N00, Cn3, v052
	.byte W12
	.byte N00
	.byte W06
	.byte N00
	.byte W12
	.byte N00
	.byte W06
	.byte N00
	.byte W12
	.byte N00
	.byte W06
	.byte N00
	.byte W18
	.byte N00
	.byte W12
	.byte N00
	.byte W12
song_unk_685_4_006: @ 0x08351BD1
	.byte N00, Cn3, v052
	.byte W06
	.byte N00
	.byte W12
	.byte N00
	.byte W18
	.byte N00
	.byte W06
	.byte N00
	.byte W12
	.byte N00
	.byte W06
	.byte N00
	.byte W12
	.byte N00
	.byte W18
	.byte N00
	.byte W06
	.byte PEND
	.byte N00
	.byte W12
	.byte N00
	.byte W06
	.byte N00
	.byte W12
	.byte N00
	.byte W06
	.byte N00
	.byte W12
	.byte N00
	.byte W06
	.byte N00
	.byte W18
	.byte N00
	.byte W12
	.byte N00
	.byte W12
	.byte PATT
	 .4byte song_unk_685_4_006
	.byte GOTO
	 .4byte song_unk_685_4_007
	.byte FINE
	.align 2, 0
	.global song_unk_685
song_unk_685: @ 0x08351C04 (song header)
	.byte 5, 0, 10, 0 @ trackCount, blockCount, priority, reverb
	.4byte gUnknown_0804CE78 @ voice group
	.4byte song_unk_685_0
	.4byte song_unk_685_1
	.4byte song_unk_685_2
	.4byte song_unk_685_3
	.4byte song_unk_685_4

