	.include "MPlayDef.s"
	.section .rodata
	.align 2, 0
song_unk_738_0: @ 0x083548E4
	.byte VOL, 0x6E
	.byte KEYSH, 0x00
song_unk_738_0_001: @ 0x083548E8
	.byte TEMPO, 0x36
	.byte VOICE, 0x5D
	.byte N23, Cn1, v127
	.byte W48
	.byte N23
	.byte W48
song_unk_738_0_000: @ 0x083548F2
	.byte N23, Cn1, v127
	.byte W48
	.byte N23
	.byte W48
	.byte PEND
	.byte PATT
	 .4byte song_unk_738_0_000
	.byte PATT
	 .4byte song_unk_738_0_000
	.byte PATT
	 .4byte song_unk_738_0_000
	.byte PATT
	 .4byte song_unk_738_0_000
	.byte PATT
	 .4byte song_unk_738_0_000
	.byte PATT
	 .4byte song_unk_738_0_000
	.byte GOTO
	 .4byte song_unk_738_0_001
	.byte FINE
song_unk_738_1: @ 0x0835491D
	.byte VOL, 0x6E
	.byte KEYSH, 0x00
song_unk_738_1_003: @ 0x08354921
	.byte VOICE, 0x5E
	.byte PAN, 0x48
	.byte W24
	.byte N23, Gn3, v080
	.byte W48
	.byte N23
	.byte W24
song_unk_738_1_002: @ 0x0835492C
	.byte W24
	.byte N23, Gn3, v080
	.byte W48
	.byte N23
	.byte W24
	.byte PEND
	.byte PATT
	 .4byte song_unk_738_1_002
	.byte PATT
	 .4byte song_unk_738_1_002
	.byte PATT
	 .4byte song_unk_738_1_002
	.byte PATT
	 .4byte song_unk_738_1_002
	.byte PATT
	 .4byte song_unk_738_1_002
	.byte PATT
	 .4byte song_unk_738_1_002
	.byte GOTO
	 .4byte song_unk_738_1_003
	.byte FINE
song_unk_738_2: @ 0x08354958
	.byte VOL, 0x6E
	.byte KEYSH, 0x00
song_unk_738_2_006: @ 0x0835495C
	.byte VOICE, 0x64
	.byte PAN, 0x00
	.byte W12
	.byte N00, Fs6, v127
	.byte W24
	.byte N00
	.byte W24
	.byte N00
	.byte W24
	.byte N00
	.byte W12
song_unk_738_2_004: @ 0x0835496B
	.byte W12
	.byte N00, Fs6, v127
	.byte W24
	.byte N00
	.byte W24
	.byte N00
	.byte W24
	.byte N11, Fs6, v064
	.byte W12
	.byte PEND
song_unk_738_2_005: @ 0x08354979
	.byte W12
	.byte N00, Fs6, v127
	.byte W24
	.byte N00
	.byte W24
	.byte N00
	.byte W24
	.byte N00
	.byte W12
	.byte PEND
	.byte PATT
	 .4byte song_unk_738_2_004
	.byte PATT
	 .4byte song_unk_738_2_005
	.byte PATT
	 .4byte song_unk_738_2_004
	.byte PATT
	 .4byte song_unk_738_2_005
	.byte PATT
	 .4byte song_unk_738_2_004
	.byte GOTO
	 .4byte song_unk_738_2_006
	.byte FINE
song_unk_738_3: @ 0x083549A4
	.byte VOL, 0x6E
	.byte KEYSH, 0x00
song_unk_738_3_008: @ 0x083549A8
	.byte VOICE, 0x00
	.byte PAN, 0x7F
	.byte W12
	.byte N03, Gn4, v064
	.byte W12
	.byte An4
	.byte W12
	.byte Cn5
	.byte W12
	.byte Bn4
	.byte W24
	.byte Gn4
	.byte W12
	.byte An4
	.byte W12
song_unk_738_3_007: @ 0x083549BB
	.byte W12
	.byte N03, Dn4, v064
	.byte W24
	.byte N03
	.byte W12
	.byte N23, Gn4
	.byte W48
	.byte PEND
	.byte W48
	.byte N01, Gn5, v080
	.byte W12
	.byte En5
	.byte W12
	.byte Fn5
	.byte W12
	.byte N05, Gn5
	.byte W12
	.byte W60
	.byte N01
	.byte W12
	.byte Gn4
	.byte W12
	.byte N01
	.byte W12
	.byte W12
	.byte N03, Gn4, v064
	.byte W12
	.byte An4
	.byte W12
	.byte Cn5
	.byte W12
	.byte Bn4
	.byte W24
	.byte Gn4
	.byte W12
	.byte An4
	.byte W12
	.byte PATT
	 .4byte song_unk_738_3_007
	.byte W48
	.byte N01, En5, v080
	.byte W12
	.byte Cn5
	.byte W12
	.byte Dn5
	.byte W12
	.byte N05, En5
	.byte W12
	.byte W96
	.byte GOTO
	 .4byte song_unk_738_3_008
	.byte FINE
song_unk_738_4: @ 0x08354A00
	.byte VOL, 0x6E
	.byte KEYSH, 0x00
song_unk_738_4_010: @ 0x08354A04
	.byte VOICE, 0x1E
	.byte PAN, 0x00
	.byte TUNE, 0x36
	.byte W12
	.byte N03, Gn4, v064
	.byte W12
	.byte An4
	.byte W12
	.byte Cn5
	.byte W12
	.byte Bn4
	.byte W24
	.byte Gn4
	.byte W12
	.byte An4
	.byte W12
song_unk_738_4_009: @ 0x08354A19
	.byte W12
	.byte N03, Dn4, v064
	.byte W24
	.byte N03
	.byte W12
	.byte N23, Gn4
	.byte W48
	.byte PEND
	.byte W96
	.byte W96
	.byte W12
	.byte N03
	.byte W12
	.byte An4
	.byte W12
	.byte Cn5
	.byte W12
	.byte Bn4
	.byte W24
	.byte Gn4
	.byte W12
	.byte An4
	.byte W12
	.byte PATT
	 .4byte song_unk_738_4_009
	.byte W96
	.byte W96
	.byte GOTO
	 .4byte song_unk_738_4_010
	.byte FINE
song_unk_738_5: @ 0x08354A40
	.byte VOL, 0x6E
	.byte KEYSH, 0x00
song_unk_738_5_012: @ 0x08354A44
	.byte VOICE, 0x4D
	.byte PAN, 0x40
	.byte N03, Cn2, v127
	.byte W12
	.byte Cn3, v096
	.byte W24
	.byte Cn2, v127
	.byte W12
	.byte As1
	.byte W12
	.byte As2, v096
	.byte W24
	.byte As1, v127
	.byte W12
song_unk_738_5_011: @ 0x08354A5A
	.byte N03, Cn2, v127
	.byte W12
	.byte Cn3, v096
	.byte W24
	.byte Cn2, v127
	.byte W12
	.byte As1
	.byte W12
	.byte As2, v096
	.byte W24
	.byte As1, v127
	.byte W12
	.byte PEND
	.byte PATT
	 .4byte song_unk_738_5_011
	.byte PATT
	 .4byte song_unk_738_5_011
	.byte PATT
	 .4byte song_unk_738_5_011
	.byte PATT
	 .4byte song_unk_738_5_011
	.byte PATT
	 .4byte song_unk_738_5_011
	.byte PATT
	 .4byte song_unk_738_5_011
	.byte GOTO
	 .4byte song_unk_738_5_012
	.byte FINE
	.align 2, 0
	.global song_unk_738
song_unk_738: @ 0x08354A94 (song header)
	.byte 6, 0, 10, 0 @ trackCount, blockCount, priority, reverb
	.4byte gUnknown_0804CE78 @ voice group
	.4byte song_unk_738_0
	.4byte song_unk_738_1
	.4byte song_unk_738_2
	.4byte song_unk_738_3
	.4byte song_unk_738_4
	.4byte song_unk_738_5

