	.include "MPlayDef.s"
	.section .rodata
	.align 2, 0
song_unk_737_0: @ 0x08354724
	.byte VOL, 0x6E
	.byte KEYSH, 0x00
song_unk_737_0_001: @ 0x08354728
	.byte TEMPO, 0x36
	.byte VOICE, 0x5D
	.byte N05, Cn1, v127
	.byte W24
	.byte Gs6
	.byte W40
	.byte Cn1
	.byte W08
	.byte Gs6
	.byte W24
song_unk_737_0_000: @ 0x08354736
	.byte N05, Cn1, v127
	.byte W24
	.byte Gs6
	.byte W40
	.byte Cn1
	.byte W08
	.byte Gs6
	.byte W24
	.byte PEND
	.byte PATT
	 .4byte song_unk_737_0_000
	.byte PATT
	 .4byte song_unk_737_0_000
	.byte PATT
	 .4byte song_unk_737_0_000
	.byte PATT
	 .4byte song_unk_737_0_000
	.byte PATT
	 .4byte song_unk_737_0_000
	.byte PATT
	 .4byte song_unk_737_0_000
	.byte GOTO
	 .4byte song_unk_737_0_001
	.byte FINE
song_unk_737_1: @ 0x08354765
	.byte VOL, 0x6E
	.byte KEYSH, 0x00
song_unk_737_1_003: @ 0x08354769
	.byte VOICE, 0x64
	.byte PAN, 0x00
	.byte N00, Fs6, v080
	.byte W24
	.byte N00
	.byte W24
	.byte N00
	.byte W24
	.byte N00
	.byte W24
song_unk_737_1_002: @ 0x08354777
	.byte N00, Fs6, v080
	.byte W24
	.byte N00
	.byte W24
	.byte N00
	.byte W24
	.byte N00
	.byte W24
	.byte PEND
	.byte PATT
	 .4byte song_unk_737_1_002
	.byte PATT
	 .4byte song_unk_737_1_002
	.byte PATT
	 .4byte song_unk_737_1_002
	.byte PATT
	 .4byte song_unk_737_1_002
	.byte PATT
	 .4byte song_unk_737_1_002
	.byte PATT
	 .4byte song_unk_737_1_002
	.byte GOTO
	 .4byte song_unk_737_1_003
	.byte FINE
song_unk_737_2: @ 0x083547A6
	.byte VOL, 0x6E
	.byte KEYSH, 0x00
song_unk_737_2_005: @ 0x083547AA
	.byte VOICE, 0x00
	.byte MOD, 0x01
	.byte PAN, 0x44
	.byte W16
	.byte N07, Gn4, v056
	.byte W08
	.byte Gs4
	.byte W08
	.byte An4
	.byte W08
	.byte Cn5
	.byte W08
	.byte Bn4
	.byte W24
	.byte Gn4
	.byte W16
	.byte N11, An4
	.byte W08
	.byte W96
	.byte W16
	.byte N07, Gn4
	.byte W08
	.byte An4
	.byte W16
	.byte Cn5
	.byte W08
	.byte Bn4
	.byte W24
	.byte Gn4
	.byte W16
	.byte N11, Dn4
	.byte W08
	.byte W88
	.byte N03, En4
	.byte W04
	.byte Gn4
	.byte W04
song_unk_737_2_004: @ 0x083547D8
	.byte N11, En4, v056
	.byte W88
	.byte N07
	.byte W08
	.byte PEND
	.byte N11, Fn4
	.byte W88
	.byte N07, Gn4
	.byte W08
	.byte PATT
	 .4byte song_unk_737_2_004
	.byte N11, Cn5, v056
	.byte W24
	.byte Bn4
	.byte W24
	.byte An4
	.byte W24
	.byte Gn4
	.byte W24
	.byte GOTO
	 .4byte song_unk_737_2_005
	.byte FINE
song_unk_737_3: @ 0x083547FA
	.byte VOL, 0x6E
	.byte KEYSH, 0x00
song_unk_737_3_008: @ 0x083547FE
	.byte VOICE, 0x1E
	.byte PAN, 0x3C
	.byte N11, Cn2, v056
	.byte W64
	.byte Gn1
	.byte W32
song_unk_737_3_006: @ 0x08354808
	.byte N11, Dn2, v040
	.byte W64
	.byte Gn1, v056
	.byte W32
	.byte PEND
song_unk_737_3_007: @ 0x08354810
	.byte N11, Cn2, v056
	.byte W64
	.byte Gn1
	.byte W32
	.byte PEND
	.byte PATT
	 .4byte song_unk_737_3_006
	.byte PATT
	 .4byte song_unk_737_3_007
	.byte PATT
	 .4byte song_unk_737_3_006
	.byte PATT
	 .4byte song_unk_737_3_007
	.byte PATT
	 .4byte song_unk_737_3_006
	.byte GOTO
	 .4byte song_unk_737_3_008
	.byte FINE
song_unk_737_4: @ 0x08354836
	.byte VOL, 0x6E
	.byte KEYSH, 0x00
song_unk_737_4_011: @ 0x0835483A
	.byte VOICE, 0x7C
	.byte PAN, 0x60
	.byte N03, En4, v032
	.byte W24
	.byte Gn3
	.byte W24
	.byte En4
	.byte W24
	.byte Gn3
	.byte W16
	.byte En4
	.byte W08
song_unk_737_4_009: @ 0x0835484A
	.byte N03, Fn4, v032
	.byte W24
	.byte Gn3
	.byte W24
	.byte Fn4
	.byte W24
	.byte Gn3
	.byte W16
	.byte Fn4
	.byte W08
	.byte PEND
song_unk_737_4_010: @ 0x08354857
	.byte N03, En4, v032
	.byte W24
	.byte Gn3
	.byte W24
	.byte En4
	.byte W24
	.byte Gn3
	.byte W16
	.byte En4
	.byte W08
	.byte PEND
	.byte PATT
	 .4byte song_unk_737_4_009
	.byte PATT
	 .4byte song_unk_737_4_010
	.byte PATT
	 .4byte song_unk_737_4_009
	.byte PATT
	 .4byte song_unk_737_4_010
	.byte PATT
	 .4byte song_unk_737_4_009
	.byte GOTO
	 .4byte song_unk_737_4_011
	.byte FINE
song_unk_737_5: @ 0x08354883
	.byte VOL, 0x6E
	.byte KEYSH, 0x00
song_unk_737_5_014: @ 0x08354887
	.byte VOICE, 0x7C
	.byte PAN, 0x50
	.byte N03, Cn4, v032
	.byte W48
	.byte N03
	.byte W40
	.byte N03
	.byte W08
song_unk_737_5_012: @ 0x08354893
	.byte N03, Dn4, v032
	.byte W48
	.byte N03
	.byte W40
	.byte N03
	.byte W08
	.byte PEND
song_unk_737_5_013: @ 0x0835489C
	.byte N03, Cn4, v032
	.byte W48
	.byte N03
	.byte W40
	.byte N03
	.byte W08
	.byte PEND
	.byte PATT
	 .4byte song_unk_737_5_012
	.byte PATT
	 .4byte song_unk_737_5_013
	.byte PATT
	 .4byte song_unk_737_5_012
	.byte PATT
	 .4byte song_unk_737_5_013
	.byte PATT
	 .4byte song_unk_737_5_012
	.byte GOTO
	 .4byte song_unk_737_5_014
	.byte FINE
	.align 2, 0
	.global song_unk_737
song_unk_737: @ 0x083548C4 (song header)
	.byte 6, 0, 10, 0 @ trackCount, blockCount, priority, reverb
	.4byte gUnknown_0804CE78 @ voice group
	.4byte song_unk_737_0
	.4byte song_unk_737_1
	.4byte song_unk_737_2
	.4byte song_unk_737_3
	.4byte song_unk_737_4
	.4byte song_unk_737_5

