	.include "MPlayDef.s"
	.section .rodata
	.align 2, 0
song_unk_13_0: @ 0x08347344
	.byte KEYSH, 0x00
song_unk_13_0_000: @ 0x08347346
	.byte TEMPO, 0x46
	.byte VOICE, 0x03
	.byte VOL, 0x7F
	.byte W12
	.byte N11, Gs3, v056
	.byte W12
	.byte Cs4
	.byte W12
	.byte Gs4
	.byte W12
	.byte Fs4
	.byte W12
	.byte Fn4
	.byte W12
	.byte Ds4
	.byte W12
	.byte Cs4
	.byte W12
	.byte Ds4
	.byte W12
	.byte N05, Fn4
	.byte W06
	.byte Cs4
	.byte W18
	.byte N11, Bn3
	.byte W12
	.byte Ds4
	.byte W12
	.byte N05, Fn4
	.byte W06
	.byte Cs4
	.byte W18
	.byte N11, Bn3
	.byte W12
	.byte W12
	.byte As3
	.byte W12
	.byte Cs4
	.byte W12
	.byte As4
	.byte W12
	.byte Gs4
	.byte W12
	.byte Fs4
	.byte W12
	.byte Fn4
	.byte W12
	.byte Ds4
	.byte W12
	.byte En4
	.byte W12
	.byte N05, Ds4
	.byte W06
	.byte Cs4
	.byte W18
	.byte N11, Bn3
	.byte W12
	.byte En4
	.byte W12
	.byte N05, Ds4
	.byte W06
	.byte Cs4
	.byte W18
	.byte N11, Bn3
	.byte W12
	.byte GOTO
	 .4byte song_unk_13_0_000
	.byte FINE
song_unk_13_1: @ 0x0834739A
	.byte KEYSH, 0x00
song_unk_13_1_001: @ 0x0834739C
	.byte VOICE, 0x4E
	.byte VOL, 0x7F
	.byte N05, Cs2, v120
	.byte W06
	.byte Gs2
	.byte W06
	.byte N11, Cs3
	.byte W12
	.byte Cs4, v072
	.byte W12
	.byte Cs2, v120
	.byte W12
	.byte Cs4, v072
	.byte W12
	.byte Cs2, v120
	.byte W12
	.byte Gs2
	.byte W12
	.byte Cs3
	.byte W12
	.byte N05, Gs1
	.byte W06
	.byte Bn1
	.byte W06
	.byte N11, Gs2
	.byte W12
	.byte Gs3, v072
	.byte W12
	.byte Gs1, v120
	.byte W12
	.byte Gs3, v072
	.byte W12
	.byte Gs1, v120
	.byte W12
	.byte Bn1
	.byte W12
	.byte Gs2
	.byte W12
	.byte N05, Fs2
	.byte W06
	.byte Cs3
	.byte W06
	.byte N11, Fs3
	.byte W12
	.byte Fs4, v072
	.byte W12
	.byte Fs2, v120
	.byte W12
	.byte Fs4, v072
	.byte W12
	.byte Fs2, v120
	.byte W12
	.byte Cs3
	.byte W12
	.byte Fs3
	.byte W12
	.byte N05, An1
	.byte W06
	.byte En2
	.byte W06
	.byte N11, An2
	.byte W12
	.byte An3, v072
	.byte W12
	.byte An1, v120
	.byte W12
	.byte Bn3, v072
	.byte W12
	.byte Fs2, v120
	.byte W12
	.byte En2
	.byte W12
	.byte Ds2
	.byte W12
	.byte GOTO
	 .4byte song_unk_13_1_001
	.byte FINE
song_unk_13_2: @ 0x08347407
	.byte KEYSH, 0x00
song_unk_13_2_002: @ 0x08347409
	.byte VOICE, 0x20
	.byte VOL, 0x7F
	.byte N05, Fn5, v032
	.byte W06
	.byte Gs4
	.byte W06
	.byte Ds5
	.byte W06
	.byte Gs4
	.byte W06
	.byte Ds5
	.byte W06
	.byte Fn5
	.byte W06
	.byte Cs5
	.byte W06
	.byte Ds5
	.byte W06
	.byte Gs4
	.byte W06
	.byte Cs5
	.byte W06
	.byte Ds5
	.byte W06
	.byte Gs4
	.byte W06
	.byte Ds5
	.byte W06
	.byte Fn5
	.byte W06
	.byte Gs4
	.byte W06
	.byte Cs5
	.byte W06
	.byte Ds5
	.byte W06
	.byte Fs4
	.byte W06
	.byte Cs5
	.byte W06
	.byte Fs4
	.byte W06
	.byte Cs5
	.byte W06
	.byte Ds5
	.byte W06
	.byte Fs4
	.byte W06
	.byte Bn4
	.byte W06
	.byte Fs4
	.byte W06
	.byte Cs5
	.byte W06
	.byte Fs4
	.byte W06
	.byte Cs5
	.byte W06
	.byte Ds5
	.byte W06
	.byte Fs4
	.byte W06
	.byte Bn4
	.byte W06
	.byte Fs4
	.byte W06
	.byte Fs5
	.byte W06
	.byte As4
	.byte W06
	.byte Fn5
	.byte W06
	.byte As4
	.byte W06
	.byte Fn5
	.byte W06
	.byte Fs5
	.byte W06
	.byte Cs5
	.byte W06
	.byte Fn5
	.byte W06
	.byte As4
	.byte W06
	.byte Ds5
	.byte W06
	.byte As4
	.byte W06
	.byte Fn5
	.byte W06
	.byte As4
	.byte W06
	.byte Fn5
	.byte W06
	.byte Fs5
	.byte W06
	.byte As4
	.byte W06
	.byte Cs5
	.byte W06
	.byte En4
	.byte W06
	.byte Bn4
	.byte W06
	.byte En4
	.byte W06
	.byte Bn4
	.byte W06
	.byte Cs5
	.byte W06
	.byte En4
	.byte W06
	.byte En5
	.byte W06
	.byte Fs4
	.byte W06
	.byte Ds5
	.byte W06
	.byte Fs4
	.byte W06
	.byte Cs5
	.byte W06
	.byte Fs4
	.byte W06
	.byte Ds5
	.byte W06
	.byte Bn4
	.byte W06
	.byte Fs4
	.byte W06
	.byte GOTO
	 .4byte song_unk_13_2_002
	.byte FINE
song_unk_13_3: @ 0x08347495
	.byte KEYSH, 0x00
song_unk_13_3_003: @ 0x08347497
	.byte VOICE, 0x5D
	.byte VOL, 0x7F
	.byte N05, Cn1, v080
	.byte W12
	.byte N11, Fs1, v020
	.byte W12
	.byte N05, Cn1, v080
	.byte W12
	.byte N11, Fs1, v020
	.byte W12
	.byte N05, Cn1, v080
	.byte W12
	.byte N11, Fs1, v020
	.byte W12
	.byte N05, Cn1, v080
	.byte W12
	.byte N11, Fs1, v020
	.byte W12
	.byte N05, Cn1, v080
	.byte W12
	.byte N11, Fs1, v020
	.byte W12
	.byte N05, Cn1, v080
	.byte W12
	.byte N11, Fs1, v020
	.byte W12
	.byte N05, Cn1, v080
	.byte W12
	.byte N11, Fs1, v020
	.byte W12
	.byte N05, Cn1, v080
	.byte W12
	.byte N05
	.byte N11, Fs1, v020
	.byte W12
	.byte N05, Cn1, v080
	.byte W12
	.byte N11, Fs1, v020
	.byte W12
	.byte N05, Cn1, v080
	.byte W12
	.byte N11, Fs1, v020
	.byte W12
	.byte N05, Cn1, v080
	.byte W12
	.byte N11, Fs1, v020
	.byte W12
	.byte N05, Cn1, v080
	.byte W12
	.byte N11, Fs1, v020
	.byte W12
	.byte N05, Cn1, v080
	.byte W12
	.byte N11, Fs1, v020
	.byte W12
	.byte N05, Cn1, v080
	.byte W12
	.byte N11, Fs1, v020
	.byte W06
	.byte N05, Cn1, v080
	.byte W06
	.byte N05
	.byte W12
	.byte N05
	.byte N11, Fs1, v020
	.byte W12
	.byte N05, Cn1, v080
	.byte W12
	.byte N05
	.byte N11, Fs1, v020
	.byte W12
	.byte GOTO
	 .4byte song_unk_13_3_003
	.byte FINE
	.align 2, 0
	.global song_unk_13
song_unk_13: @ 0x08347528 (song header)
	.byte 4, 0, 10, 0 @ trackCount, blockCount, priority, reverb
	.4byte gUnknown_0804CE78 @ voice group
	.4byte song_unk_13_0
	.4byte song_unk_13_1
	.4byte song_unk_13_2
	.4byte song_unk_13_3

