	.include "MPlayDef.s"
	.section .rodata
	.align 2, 0
song_unk_678_0: @ 0x0835168C
	.byte KEYSH, 0x00
	.byte TEMPO, 0x41
	.byte VOICE, 0x01
	.byte VOL, 0x7F
	.byte N23, Ds4, v052
	.byte W24
	.byte N05, Dn4
	.byte W08
	.byte N05
	.byte W08
	.byte N05
	.byte W08
	.byte Cn4
	.byte W12
	.byte As3
	.byte W12
	.byte Gn3
	.byte W12
	.byte As3
	.byte W12
	.byte Cn4
	.byte W18
	.byte As3
	.byte W06
	.byte N23, Cn4
	.byte W24
	.byte N05, Fn2
	.byte W06
	.byte Gn2
	.byte W06
	.byte An2
	.byte W06
	.byte As2
	.byte W06
	.byte Cn3
	.byte W06
	.byte Dn3
	.byte W06
	.byte Ds3
	.byte W06
	.byte Fn3
	.byte W06
song_unk_678_0_000: @ 0x083516BF
	.byte N05, Dn3, v052
	.byte W18
	.byte Ds3
	.byte W06
	.byte N32, Fn3
	.byte W48
	.byte N23, As3
	.byte W24
	.byte PEND
song_unk_678_0_001: @ 0x083516CC
	.byte N05, Gs3, v052
	.byte W12
	.byte N05
	.byte W06
	.byte As3
	.byte W06
	.byte N32, Cn4
	.byte W48
	.byte N05
	.byte W12
	.byte Dn4
	.byte W12
	.byte PEND
song_unk_678_0_002: @ 0x083516DC
	.byte N23, Ds4, v052
	.byte W24
	.byte N11, Dn4
	.byte W18
	.byte N05
	.byte W06
	.byte N23, Cn4
	.byte W24
	.byte As3
	.byte W24
	.byte PEND
	.byte N05, Dn4
	.byte W18
	.byte As3
	.byte W06
	.byte N32, Fn3
	.byte W48
	.byte N23, Ds3
	.byte W24
	.byte PATT
	 .4byte song_unk_678_0_000
	.byte PATT
	 .4byte song_unk_678_0_001
	.byte PATT
	 .4byte song_unk_678_0_002
	.byte N05, Dn4, v052
	.byte W18
	.byte Ds4
	.byte W06
	.byte N32, Fn4
	.byte W48
	.byte N23, As3
	.byte W24
song_unk_678_0_003: @ 0x08351711
	.byte N17, Gn4, v052
	.byte W24
	.byte N17
	.byte W18
	.byte N05, An4
	.byte W06
	.byte N23, As4
	.byte W24
	.byte N17, An4
	.byte W18
	.byte N05, Gn4
	.byte W06
	.byte PEND
song_unk_678_0_004: @ 0x08351724
	.byte N32, Fn4, v052
	.byte W36
	.byte N11, Ds4
	.byte W12
	.byte N23, Dn4
	.byte W24
	.byte N17, Cn4
	.byte W18
	.byte N05, Dn4
	.byte W06
	.byte PEND
	.byte N17, Ds4
	.byte W24
	.byte N17
	.byte W18
	.byte N05, Fn4
	.byte W06
	.byte N23, Gn4
	.byte W24
	.byte N17, Fn4
	.byte W18
	.byte N05, Ds4
	.byte W06
	.byte N40, Dn4
	.byte W48
	.byte N11, Gn3
	.byte W12
	.byte An3
	.byte W12
	.byte As3
	.byte W12
	.byte Dn4
	.byte W12
	.byte PATT
	 .4byte song_unk_678_0_003
	.byte PATT
	 .4byte song_unk_678_0_004
	.byte N05, Ds4, v052
	.byte W12
	.byte N05
	.byte W06
	.byte Fn4
	.byte W06
	.byte N44, Gn4
	.byte W48
	.byte N11, Fn4
	.byte W12
	.byte Ds4
	.byte W12
	.byte N32, Dn4
	.byte W36
	.byte N05, Cn4
	.byte W06
	.byte As3
	.byte W06
	.byte N23, Cn4
	.byte W24
	.byte Fn3
	.byte W24
	.byte GOTO
	 .4byte song_unk_678_0_000
	.byte FINE
song_unk_678_1: @ 0x0835177F
	.byte KEYSH, 0x00
	.byte VOICE, 0x40
	.byte VOL, 0x7F
	.byte N23, Gs2, v080
	.byte W24
	.byte N05
	.byte W08
	.byte N05
	.byte W08
	.byte N05
	.byte W08
	.byte N05
	.byte W12
	.byte N05
	.byte W24
	.byte N05
	.byte W12
	.byte Fn2
	.byte W24
	.byte N23, Fn1
	.byte W60
	.byte N05
	.byte W06
	.byte N05
	.byte W06
song_unk_678_1_005: @ 0x0835179E
	.byte N05, As1, v080
	.byte W36
	.byte N05
	.byte W06
	.byte N05
	.byte W06
	.byte N05
	.byte W12
	.byte N05
	.byte W24
	.byte N05
	.byte W12
	.byte PEND
	.byte PATT
	 .4byte song_unk_678_1_005
song_unk_678_1_006: @ 0x083517B2
	.byte N05, Gs1, v080
	.byte W36
	.byte N05
	.byte W06
	.byte N05
	.byte W06
	.byte N05
	.byte W12
	.byte N05
	.byte W24
	.byte N05
	.byte W12
	.byte PEND
	.byte PATT
	 .4byte song_unk_678_1_005
	.byte PATT
	 .4byte song_unk_678_1_005
	.byte PATT
	 .4byte song_unk_678_1_005
	.byte PATT
	 .4byte song_unk_678_1_006
	.byte PATT
	 .4byte song_unk_678_1_005
song_unk_678_1_007: @ 0x083517DA
	.byte N05, Ds2, v080
	.byte W36
	.byte N05
	.byte W06
	.byte N05
	.byte W06
	.byte N05
	.byte W12
	.byte N05
	.byte W24
	.byte N05
	.byte W12
	.byte PEND
	.byte PATT
	 .4byte song_unk_678_1_005
	.byte N05, Cn2, v080
	.byte W36
	.byte N05
	.byte W06
	.byte N05
	.byte W06
	.byte N05
	.byte W12
	.byte N05
	.byte W24
	.byte N05
	.byte W12
	.byte Gn2
	.byte W36
	.byte N05
	.byte W06
	.byte N05
	.byte W06
	.byte N05
	.byte W12
	.byte N05
	.byte W24
	.byte N05
	.byte W12
	.byte PATT
	 .4byte song_unk_678_1_007
	.byte PATT
	 .4byte song_unk_678_1_005
	.byte PATT
	 .4byte song_unk_678_1_006
	.byte N05, Ds2, v080
	.byte W36
	.byte N05
	.byte W06
	.byte N05
	.byte W06
	.byte Fn2
	.byte W12
	.byte N05
	.byte W24
	.byte N05
	.byte W12
	.byte GOTO
	 .4byte song_unk_678_1_005
	.byte FINE
song_unk_678_2: @ 0x0835182B
	.byte KEYSH, 0x00
	.byte VOICE, 0x65
	.byte VOL, 0x7F
	.byte N01, Fn3, v040
	.byte W24
	.byte N01
	.byte W08
	.byte N01
	.byte W08
	.byte N01
	.byte W08
	.byte N01
	.byte W12
	.byte N01
	.byte W12
	.byte N01
	.byte W06
	.byte N01
	.byte W06
	.byte N01
	.byte W06
	.byte N01
	.byte W06
	.byte N01
	.byte W18
	.byte N01
	.byte W06
	.byte N01
	.byte W24
	.byte N01
	.byte W06
	.byte N01
	.byte W06
	.byte N01
	.byte W06
	.byte N01
	.byte W06
	.byte N01
	.byte W04
	.byte Fn3, v032
	.byte W04
	.byte N01
	.byte W04
	.byte N01
	.byte W04
	.byte N01
	.byte W04
	.byte N01
	.byte W04
song_unk_678_2_008: @ 0x08351862
	.byte N01, Fn3, v040
	.byte W24
	.byte N01
	.byte W06
	.byte N01
	.byte W06
	.byte N01
	.byte W06
	.byte N01
	.byte W06
	.byte N01
	.byte W12
	.byte N01
	.byte W24
	.byte N01
	.byte W06
	.byte N01
	.byte W06
	.byte PEND
song_unk_678_2_009: @ 0x08351877
	.byte N01, Fn3, v040
	.byte W24
	.byte N01
	.byte W06
	.byte N01
	.byte W06
	.byte N01
	.byte W06
	.byte N01
	.byte W06
	.byte N01
	.byte W12
	.byte N01
	.byte W12
	.byte N01
	.byte W06
	.byte N01
	.byte W06
	.byte N01
	.byte W12
	.byte PEND
	.byte PATT
	 .4byte song_unk_678_2_008
	.byte PATT
	 .4byte song_unk_678_2_009
	.byte PATT
	 .4byte song_unk_678_2_008
	.byte PATT
	 .4byte song_unk_678_2_009
	.byte PATT
	 .4byte song_unk_678_2_008
	.byte N01, Fn3, v040
	.byte W24
	.byte N01
	.byte W06
	.byte N01
	.byte W06
	.byte N01
	.byte W06
	.byte N01
	.byte W06
	.byte N01
	.byte W12
	.byte N01
	.byte W06
	.byte N01
	.byte W06
	.byte N01
	.byte W06
	.byte N01
	.byte W06
	.byte N01
	.byte W06
	.byte N01
	.byte W06
	.byte PATT
	 .4byte song_unk_678_2_008
	.byte PATT
	 .4byte song_unk_678_2_009
	.byte PATT
	 .4byte song_unk_678_2_008
	.byte PATT
	 .4byte song_unk_678_2_009
	.byte PATT
	 .4byte song_unk_678_2_008
	.byte PATT
	 .4byte song_unk_678_2_009
	.byte PATT
	 .4byte song_unk_678_2_008
	.byte N01, Fn3, v040
	.byte W12
	.byte N01
	.byte W12
	.byte N01
	.byte W12
	.byte N01
	.byte W12
	.byte N01
	.byte W12
	.byte N01
	.byte W06
	.byte N01
	.byte W06
	.byte N01
	.byte W04
	.byte Fn3, v032
	.byte W04
	.byte N01
	.byte W04
	.byte N01
	.byte W04
	.byte N01
	.byte W04
	.byte N01
	.byte W04
	.byte GOTO
	 .4byte song_unk_678_2_008
	.byte FINE
	.align 2, 0
	.global song_unk_678
song_unk_678: @ 0x08351908 (song header)
	.byte 3, 0, 10, 0 @ trackCount, blockCount, priority, reverb
	.4byte gUnknown_0804CE78 @ voice group
	.4byte song_unk_678_0
	.4byte song_unk_678_1
	.4byte song_unk_678_2

