	.include "MPlayDef.s"
	.section .rodata
	.align 2, 0
song_unk_706_0: @ 0x08351EC8
	.byte VOL, 0x7F
	.byte KEYSH, 0x00
song_unk_706_0_001: @ 0x08351ECC
	.byte TEMPO, 0x41
	.byte VOICE, 0x01
	.byte W12
	.byte N02, Dn3, v032
	.byte W18
	.byte N02
	.byte W18
	.byte N02
	.byte W18
	.byte N02
	.byte W18
	.byte N02
	.byte W12
song_unk_706_0_000: @ 0x08351EDD
	.byte W12
	.byte N02, Dn3, v032
	.byte W18
	.byte N02
	.byte W18
	.byte N02
	.byte W18
	.byte N02
	.byte W18
	.byte N02
	.byte W12
	.byte PEND
	.byte PATT
	 .4byte song_unk_706_0_000
	.byte PATT
	 .4byte song_unk_706_0_000
	.byte GOTO
	 .4byte song_unk_706_0_001
	.byte FINE
song_unk_706_1: @ 0x08351EFB
	.byte VOL, 0x7F
	.byte KEYSH, 0x00
song_unk_706_1_003: @ 0x08351EFF
	.byte VOICE, 0x01
	.byte W12
	.byte N02, Cn3, v032
	.byte W18
	.byte N02
	.byte W18
	.byte N02
	.byte W18
	.byte N02
	.byte W18
	.byte N02
	.byte W12
song_unk_706_1_002: @ 0x08351F0E
	.byte W12
	.byte N02, Cn3, v032
	.byte W18
	.byte N02
	.byte W18
	.byte N02
	.byte W18
	.byte N02
	.byte W18
	.byte N02
	.byte W12
	.byte PEND
	.byte PATT
	 .4byte song_unk_706_1_002
	.byte PATT
	 .4byte song_unk_706_1_002
	.byte GOTO
	 .4byte song_unk_706_1_003
	.byte FINE
song_unk_706_2: @ 0x08351F2C
	.byte VOL, 0x7F
	.byte KEYSH, 0x00
song_unk_706_2_005: @ 0x08351F30
	.byte VOICE, 0x7F
	.byte N04, Dn2, v096
	.byte W06
	.byte Dn2, v064
	.byte W06
	.byte En2, v096
	.byte W06
	.byte Dn2, v048
	.byte W06
	.byte Dn2, v064
	.byte W06
	.byte Dn2, v032
	.byte W06
	.byte Gn2, v127
	.byte W06
	.byte N04
	.byte W06
	.byte Dn2, v096
	.byte W06
	.byte Dn2, v064
	.byte W06
	.byte En2, v096
	.byte W06
	.byte Dn2, v048
	.byte W06
	.byte Dn2, v064
	.byte W06
	.byte Dn2, v032
	.byte W06
	.byte Fn2, v127
	.byte W06
	.byte N04
	.byte W06
song_unk_706_2_004: @ 0x08351F61
	.byte N04, Dn2, v096
	.byte W06
	.byte Dn2, v064
	.byte W06
	.byte En2, v096
	.byte W06
	.byte Dn2, v048
	.byte W06
	.byte Dn2, v064
	.byte W06
	.byte Dn2, v032
	.byte W06
	.byte Gn2, v127
	.byte W06
	.byte N04
	.byte W06
	.byte Dn2, v096
	.byte W06
	.byte Dn2, v064
	.byte W06
	.byte En2, v096
	.byte W06
	.byte Dn2, v048
	.byte W06
	.byte Dn2, v064
	.byte W06
	.byte Dn2, v032
	.byte W06
	.byte Fn2, v127
	.byte W06
	.byte N04
	.byte W06
	.byte PEND
	.byte PATT
	 .4byte song_unk_706_2_004
	.byte N04, Dn2, v096
	.byte W06
	.byte Dn2, v064
	.byte W06
	.byte En2, v096
	.byte W06
	.byte Dn2, v048
	.byte W06
	.byte Dn2, v064
	.byte W06
	.byte Dn2, v032
	.byte W06
	.byte Gn2, v127
	.byte W06
	.byte N04
	.byte W06
	.byte Dn2, v096
	.byte W06
	.byte En2, v064
	.byte W06
	.byte Dn2, v032
	.byte W06
	.byte Dn2, v127
	.byte W06
	.byte Dn2, v032
	.byte W06
	.byte En2, v096
	.byte W06
	.byte N02, Fn2, v127
	.byte W04
	.byte N02
	.byte W04
	.byte N02
	.byte W04
	.byte GOTO
	 .4byte song_unk_706_2_005
	.byte FINE
song_unk_706_3: @ 0x08351FCE
	.byte VOL, 0x7F
	.byte KEYSH, 0x00
song_unk_706_3_007: @ 0x08351FD2
	.byte VOICE, 0x7F
	.byte N04, Bn1, v032
	.byte W06
	.byte Bn1, v016
	.byte W06
	.byte Bn1, v024
	.byte W06
	.byte Bn1, v016
	.byte W06
	.byte Bn1, v024
	.byte W06
	.byte Bn1, v016
	.byte W06
	.byte Bn1, v024
	.byte W06
	.byte Bn1, v016
	.byte W06
	.byte Bn1, v032
	.byte W06
	.byte Bn1, v016
	.byte W06
	.byte Bn1, v024
	.byte W06
	.byte Bn1, v016
	.byte W06
	.byte Bn1, v024
	.byte W06
	.byte Bn1, v016
	.byte W06
	.byte Bn1, v024
	.byte W06
	.byte Bn1, v016
	.byte W06
song_unk_706_3_006: @ 0x08352005
	.byte N04, Bn1, v032
	.byte W06
	.byte Bn1, v016
	.byte W06
	.byte Bn1, v024
	.byte W06
	.byte Bn1, v016
	.byte W06
	.byte Bn1, v024
	.byte W06
	.byte Bn1, v016
	.byte W06
	.byte Bn1, v024
	.byte W06
	.byte Bn1, v016
	.byte W06
	.byte Bn1, v032
	.byte W06
	.byte Bn1, v016
	.byte W06
	.byte Bn1, v024
	.byte W06
	.byte Bn1, v016
	.byte W06
	.byte Bn1, v024
	.byte W06
	.byte Bn1, v016
	.byte W06
	.byte Bn1, v024
	.byte W06
	.byte Bn1, v016
	.byte W06
	.byte PEND
	.byte PATT
	 .4byte song_unk_706_3_006
	.byte PATT
	 .4byte song_unk_706_3_006
	.byte GOTO
	 .4byte song_unk_706_3_007
	.byte FINE
song_unk_706_4: @ 0x08352047
	.byte VOL, 0x7F
	.byte KEYSH, 0x00
song_unk_706_4_009: @ 0x0835204B
	.byte VOICE, 0x7F
	.byte N10, Cn1, v127
	.byte W24
	.byte N10
	.byte W24
	.byte N10
	.byte W24
	.byte N10
	.byte W24
song_unk_706_4_008: @ 0x08352057
	.byte N10, Cn1, v127
	.byte W24
	.byte N10
	.byte W24
	.byte N10
	.byte W24
	.byte N10
	.byte W24
	.byte PEND
	.byte PATT
	 .4byte song_unk_706_4_008
	.byte PATT
	 .4byte song_unk_706_4_008
	.byte GOTO
	 .4byte song_unk_706_4_009
	.byte FINE
song_unk_706_5: @ 0x08352072
	.byte VOL, 0x7F
	.byte KEYSH, 0x00
song_unk_706_5_011: @ 0x08352076
	.byte VOICE, 0x7F
	.byte W12
	.byte N10, En1, v032
	.byte W24
	.byte N10
	.byte W24
	.byte N10
	.byte W24
	.byte N10
	.byte W12
song_unk_706_5_010: @ 0x08352083
	.byte W12
	.byte N10, En1, v032
	.byte W24
	.byte N10
	.byte W24
	.byte N10
	.byte W24
	.byte N10
	.byte W12
	.byte PEND
	.byte PATT
	 .4byte song_unk_706_5_010
	.byte PATT
	 .4byte song_unk_706_5_010
	.byte GOTO
	 .4byte song_unk_706_5_011
	.byte FINE
	.align 2, 0
	.global song_unk_706
song_unk_706: @ 0x083520A0 (song header)
	.byte 6, 0, 10, 0 @ trackCount, blockCount, priority, reverb
	.4byte gUnknown_0804DE80 @ voice group
	.4byte song_unk_706_0
	.4byte song_unk_706_1
	.4byte song_unk_706_2
	.4byte song_unk_706_3
	.4byte song_unk_706_4
	.4byte song_unk_706_5

