	.include "MPlayDef.s"
	.section .rodata
	.align 2, 0
song_unk_736_0: @ 0x08354570
	.byte VOL, 0x6E
	.byte KEYSH, 0x00
song_unk_736_0_000: @ 0x08354574
	.byte TEMPO, 0x2F
	.byte VOICE, 0x4D
	.byte PAN, 0x50
	.byte W96
	.byte W96
	.byte W96
	.byte W96
	.byte MOD, 0x00
	.byte N96, Cn4, v048
	.byte W36
	.byte MOD, 0x01
	.byte W36
	.byte 0x04
	.byte W24
	.byte W96
	.byte 0x00
	.byte BEND, 0x36
	.byte N96, Dn4
	.byte W36
	.byte BEND, 0x3B
	.byte W12
	.byte 0x40
	.byte W12
	.byte MOD, 0x01
	.byte W12
	.byte 0x04
	.byte W24
	.byte W96
	.byte GOTO
	 .4byte song_unk_736_0_000
	.byte FINE
song_unk_736_1: @ 0x083545A1
	.byte VOL, 0x6E
	.byte KEYSH, 0x00
song_unk_736_1_001: @ 0x083545A5
	.byte VOICE, 0x04
	.byte N12, Ds1, v096
	.byte W96
	.byte PEND
song_unk_736_1_002: @ 0x083545AC
	.byte PAN, 0x7F
	.byte W12
	.byte N12, Cn3, v064
	.byte W48
	.byte N04
	.byte W12
	.byte Dn3
	.byte W12
	.byte Cn3
	.byte W06
	.byte PAN, 0x40
	.byte W06
	.byte PEND
	.byte PATT
	 .4byte song_unk_736_1_001
	.byte PATT
	 .4byte song_unk_736_1_002
	.byte PATT
	 .4byte song_unk_736_1_001
	.byte PATT
	 .4byte song_unk_736_1_002
	.byte PATT
	 .4byte song_unk_736_1_001
	.byte PATT
	 .4byte song_unk_736_1_002
	.byte GOTO
	 .4byte song_unk_736_1_001
	.byte FINE
song_unk_736_2: @ 0x083545E1
	.byte VOL, 0x6E
	.byte KEYSH, 0x00
song_unk_736_2_003: @ 0x083545E5
	.byte VOICE, 0x5D
	.byte N10, Cn1, v127
	.byte W60
	.byte N10
	.byte W36
	.byte PEND
	.byte PATT
	 .4byte song_unk_736_2_003
	.byte PATT
	 .4byte song_unk_736_2_003
	.byte PATT
	 .4byte song_unk_736_2_003
	.byte PATT
	 .4byte song_unk_736_2_003
	.byte PATT
	 .4byte song_unk_736_2_003
	.byte PATT
	 .4byte song_unk_736_2_003
	.byte PATT
	 .4byte song_unk_736_2_003
	.byte GOTO
	 .4byte song_unk_736_2_003
	.byte FINE
song_unk_736_3: @ 0x08354617
	.byte VOL, 0x6E
	.byte KEYSH, 0x00
song_unk_736_3_004: @ 0x0835461B
	.byte VOICE, 0x5E
	.byte W24
	.byte N03, Cn4, v056
	.byte W48
	.byte N03
	.byte W24
	.byte PEND
	.byte PATT
	 .4byte song_unk_736_3_004
	.byte PATT
	 .4byte song_unk_736_3_004
	.byte PATT
	 .4byte song_unk_736_3_004
	.byte PATT
	 .4byte song_unk_736_3_004
	.byte PATT
	 .4byte song_unk_736_3_004
	.byte PATT
	 .4byte song_unk_736_3_004
	.byte PATT
	 .4byte song_unk_736_3_004
	.byte GOTO
	 .4byte song_unk_736_3_004
	.byte FINE
song_unk_736_4: @ 0x0835464E
	.byte VOL, 0x6E
	.byte KEYSH, 0x00
song_unk_736_4_005: @ 0x08354652
	.byte VOICE, 0x64
	.byte PAN, 0x00
	.byte N01, Fs6, v080
	.byte W24
	.byte N01
	.byte W24
	.byte N01
	.byte W24
	.byte N01
	.byte W24
	.byte PEND
	.byte PATT
	 .4byte song_unk_736_4_005
	.byte PATT
	 .4byte song_unk_736_4_005
	.byte PATT
	 .4byte song_unk_736_4_005
	.byte PATT
	 .4byte song_unk_736_4_005
	.byte PATT
	 .4byte song_unk_736_4_005
	.byte PATT
	 .4byte song_unk_736_4_005
	.byte PATT
	 .4byte song_unk_736_4_005
	.byte GOTO
	 .4byte song_unk_736_4_005
	.byte FINE
song_unk_736_5: @ 0x0835468A
	.byte VOL, 0x6E
	.byte KEYSH, 0x00
song_unk_736_5_007: @ 0x0835468E
	.byte W96
song_unk_736_5_006: @ 0x0835468F
	.byte VOICE, 0x22
	.byte PAN, 0x00
	.byte W12
	.byte N12, Gs2, v064
	.byte W48
	.byte N04
	.byte W12
	.byte As2
	.byte W12
	.byte Gs2
	.byte W12
	.byte PEND
	.byte W96
	.byte PATT
	 .4byte song_unk_736_5_006
	.byte W96
	.byte PATT
	 .4byte song_unk_736_5_006
	.byte W96
	.byte PATT
	 .4byte song_unk_736_5_006
	.byte GOTO
	 .4byte song_unk_736_5_007
	.byte FINE
song_unk_736_6: @ 0x083546B7
	.byte VOL, 0x6E
	.byte KEYSH, 0x00
song_unk_736_6_008: @ 0x083546BB
	.byte VOICE, 0x7C
	.byte PAN, 0x40
	.byte N04, Fn3, v096
	.byte N04, As3, v064
	.byte W12
	.byte Dn4, v096
	.byte N04, As4, v064
	.byte W12
	.byte As3, v096
	.byte N04, Gn4, v064
	.byte W12
	.byte Cn4, v096
	.byte N04, Gs4, v064
	.byte W60
	.byte W96
	.byte W12
	.byte Fn3, v096
	.byte N04, As3, v064
	.byte W12
	.byte Dn4, v096
	.byte N04, As4, v064
	.byte W12
	.byte As3, v096
	.byte N04, Gn4, v064
	.byte W12
	.byte Cn4, v096
	.byte N04, Gs4, v064
	.byte W48
	.byte W96
	.byte W96
	.byte W96
	.byte W96
	.byte W96
	.byte GOTO
	 .4byte song_unk_736_6_008
	.byte FINE
	.align 2, 0
	.global song_unk_736
song_unk_736: @ 0x08354700 (song header)
	.byte 7, 0, 10, 0 @ trackCount, blockCount, priority, reverb
	.4byte voicegroup000 @ voice group
	.4byte song_unk_736_0
	.4byte song_unk_736_1
	.4byte song_unk_736_2
	.4byte song_unk_736_3
	.4byte song_unk_736_4
	.4byte song_unk_736_5
	.4byte song_unk_736_6
	.size song_unk_736,.-song_unk_736
