	.include "MPlayDef.s"
	.section .rodata
	.align 2, 0
song_unk_27_0: @ 0x083479BC
	.byte KEYSH, 0x00
	.byte TEMPO, 0x4B
	.byte VOICE, 0x45
	.byte VOL, 0x7F
	.byte N00, Cn4, v112
	.byte N00, Dn4
	.byte W01
	.byte En4, v096
	.byte W01
	.byte Fs4
	.byte W01
	.byte Gs4, v080
	.byte N00, As4
	.byte W01
	.byte Fn4, v112
	.byte W01
	.byte Gn4
	.byte W01
	.byte An4, v096
	.byte N00, Bn4
	.byte W01
	.byte Cs5, v080
	.byte W01
	.byte Ds5
	.byte W01
	.byte As4, v112
	.byte N00, Cn5
	.byte W01
	.byte Dn5, v096
	.byte W01
	.byte En5
	.byte W01
	.byte Fs5, v080
	.byte N00, Gs5
	.byte W01
	.byte Ds5, v112
	.byte W01
	.byte Fn5
	.byte W01
	.byte Gn5, v096
	.byte N00, An5
	.byte W01
	.byte Bn5, v080
	.byte W01
	.byte Cs6
	.byte W01
	.byte Gs5, v112
	.byte N00, As5
	.byte W01
	.byte Cn6, v096
	.byte W01
	.byte Dn6
	.byte W01
	.byte En6, v080
	.byte N00, Fs6
	.byte W01
	.byte Cs6, v112
	.byte W01
	.byte Ds6
	.byte W01
	.byte Fn6, v096
	.byte N00, Gn6
	.byte W01
	.byte An6, v080
	.byte W01
	.byte Bn6
	.byte W01
	.byte Fs6, v096
	.byte N00, Gs6
	.byte W01
	.byte As6, v080
	.byte W01
	.byte Cn7
	.byte W01
	.byte Fn4, v112
	.byte N00, Gn4
	.byte W01
	.byte An4, v096
	.byte W01
	.byte Bn4
	.byte W01
	.byte Cs5, v080
	.byte N00, Ds5
	.byte W01
	.byte As4, v112
	.byte W01
	.byte Cn5
	.byte W01
	.byte Dn5, v096
	.byte N00, En5
	.byte W01
	.byte Fs5, v080
	.byte W01
	.byte Gs5
	.byte W01
	.byte Ds5, v112
	.byte N00, Fn5
	.byte W01
	.byte Gn5, v096
	.byte W01
	.byte An5
	.byte W01
	.byte Bn5, v080
	.byte N00, Cs6
	.byte W01
	.byte Gs5, v112
	.byte W01
	.byte As5
	.byte W01
	.byte Cn6, v096
	.byte N00, Dn6
	.byte W01
	.byte En6, v080
	.byte W01
	.byte Fs6
	.byte W01
	.byte Cs6, v112
	.byte N00, Ds6
	.byte W01
	.byte Fn6, v096
	.byte W01
	.byte Gn6
	.byte W01
	.byte An6, v080
	.byte N00, Bn6
	.byte W01
	.byte Fs6, v112
	.byte W01
	.byte Gs6
	.byte W01
	.byte As6, v096
	.byte N00, Cn7
	.byte W01
	.byte Dn7, v080
	.byte W01
	.byte En7
	.byte W01
	.byte Bn6, v096
	.byte N00, Cs7
	.byte W01
	.byte Ds7, v080
	.byte W01
	.byte Fn7
	.byte W01
	.byte As4, v112
	.byte N00, Cn5
	.byte W01
	.byte Dn5, v096
	.byte W01
	.byte En5
	.byte W01
	.byte Fs5, v080
	.byte N00, Gs5
	.byte W01
	.byte Ds5, v112
	.byte W01
	.byte Fn5
	.byte W01
	.byte Gn5, v096
	.byte N00, An5
	.byte W01
	.byte Bn5, v080
	.byte W01
	.byte Cs6
	.byte W01
	.byte Gs5, v112
	.byte N00, As5
	.byte W01
	.byte Cn6, v096
	.byte W01
	.byte Dn6
	.byte W01
	.byte En6, v080
	.byte N00, Fs6
	.byte W01
	.byte Cs6, v112
	.byte W01
	.byte Ds6
	.byte W01
	.byte Fn6, v096
	.byte N00, Gn6
	.byte W01
	.byte An6, v080
	.byte W01
	.byte Bn6
	.byte W01
	.byte Fs6, v112
	.byte N00, Gs6
	.byte W01
	.byte As6, v096
	.byte W01
	.byte Cn7
	.byte W01
	.byte Dn7, v080
	.byte N00, En7
	.byte W01
	.byte Bn6, v112
	.byte W01
	.byte Cs7
	.byte W01
	.byte Ds7, v096
	.byte N00, Fn7
	.byte W01
	.byte Gn7, v080
	.byte W01
	.byte An7
	.byte W01
	.byte En7, v096
	.byte N00, Fs7
	.byte W01
	.byte Gs7, v080
	.byte W01
	.byte As7
	.byte W01
	.byte Ds5, v112
	.byte N00, Fn5
	.byte W01
	.byte Gn5, v096
	.byte W01
	.byte An5
	.byte W01
	.byte Bn5, v080
	.byte N00, Cs6
	.byte W01
	.byte Gs5, v112
	.byte W01
	.byte As5
	.byte W01
	.byte Cn6, v096
	.byte N00, Dn6
	.byte W01
	.byte En6, v080
	.byte W01
	.byte Fs6
	.byte W01
	.byte Cs6, v112
	.byte N00, Ds6
	.byte W01
	.byte Fn6, v096
	.byte W01
	.byte Gn6
	.byte W01
	.byte An6, v080
	.byte N00, Bn6
	.byte W01
	.byte Fs6, v112
	.byte W01
	.byte Gs6
	.byte W01
	.byte As6, v096
	.byte N00, Cn7
	.byte W01
	.byte Dn7, v080
	.byte W01
	.byte En7
	.byte W01
	.byte Bn6, v112
	.byte N00, Cs7
	.byte W01
	.byte Ds7, v096
	.byte W01
	.byte Fn7
	.byte W01
	.byte Gn7, v080
	.byte N00, An7
	.byte W01
	.byte En7, v112
	.byte W01
	.byte Fs7
	.byte W01
	.byte Gs7, v096
	.byte N00, As7
	.byte W01
	.byte Cn8, v080
	.byte W01
	.byte Dn8
	.byte W01
	.byte An7, v096
	.byte N00, Bn7
	.byte W01
	.byte Cs8, v080
	.byte W01
	.byte Ds8
	.byte W01
	.byte FINE
	.align 2, 0
	.global song_unk_27
song_unk_27: @ 0x08347B58 (song header)
	.byte 1, 0, 10, 0 @ trackCount, blockCount, priority, reverb
	.4byte gUnknown_0804CE78 @ voice group
	.4byte song_unk_27_0

