	.include "MPlayDef.s"
	.section .rodata
	.align 2, 0
song_unk_238_0: @ 0x0834D5AC
	.byte KEYSH, 0x00
	.byte TEMPO, 0x52
	.byte VOICE, 0x02
	.byte VOL, 0x7F
	.byte N07, An2, v052
	.byte W08
	.byte Cs3
	.byte W08
	.byte Fs3
	.byte W08
	.byte N23, Fn3
	.byte W24
	.byte N07, Bn2
	.byte W08
	.byte Ds3
	.byte W08
	.byte Gs3
	.byte W08
	.byte N23, Gn3
	.byte W24
	.byte N07, Cs3
	.byte W08
	.byte Fn3
	.byte W08
	.byte As3
	.byte W08
	.byte N23, An3
	.byte W24
	.byte N56, Cn4
	.byte W48
	.byte W24
	.byte N05, Fs3
	.byte W06
	.byte Gn3
	.byte W06
	.byte Gs3
	.byte W06
	.byte An3
	.byte W06
	.byte As3
	.byte W06
	.byte Bn3
	.byte W06
	.byte Cn4
	.byte W06
	.byte Cs4
	.byte W06
song_unk_238_0_002: @ 0x0834D5E8
	.byte N42, Dn4, v052
	.byte W24
song_unk_238_0_000: @ 0x0834D5EC
	.byte W24
	.byte N30, As3, v052
	.byte W36
	.byte N10, Dn4
	.byte W12
	.byte Cs4
	.byte W12
	.byte An3
	.byte W12
	.byte PEND
	.byte N42, En3
	.byte W72
	.byte Cn4
	.byte W24
song_unk_238_0_001: @ 0x0834D5FE
	.byte W24
	.byte N30, Gs3, v052
	.byte W36
	.byte N10, Cn4
	.byte W12
	.byte As3
	.byte W12
	.byte An3
	.byte W12
	.byte PEND
	.byte N42, As3
	.byte W48
	.byte N04, Gn3
	.byte W06
	.byte An3
	.byte W06
	.byte As3
	.byte W06
	.byte Cn4
	.byte W06
	.byte N42, Dn4
	.byte W24
	.byte PATT
	 .4byte song_unk_238_0_000
	.byte N42, En3, v052
	.byte W72
	.byte Cn4
	.byte W24
	.byte PATT
	 .4byte song_unk_238_0_001
	.byte N36, As3, v052
	.byte W48
	.byte N04
	.byte W06
	.byte Cn4
	.byte W06
	.byte Cs4
	.byte W06
	.byte Ds4
	.byte W06
	.byte N42, Fn4
	.byte W24
	.byte W24
	.byte N30, Cs4
	.byte W36
	.byte N10, Fn4
	.byte W12
	.byte En4
	.byte W12
	.byte Cn4
	.byte W12
	.byte N42, Gn3
	.byte W72
	.byte Ds4
	.byte W24
	.byte W24
	.byte N30, Bn3
	.byte W36
	.byte N10, Ds4
	.byte W12
	.byte Cs4
	.byte W12
	.byte Cn4
	.byte W12
	.byte N36, Cs4
	.byte W48
	.byte N04
	.byte W06
	.byte Ds4
	.byte W06
	.byte En4
	.byte W06
	.byte Fs4
	.byte W06
	.byte N42, Gs4
	.byte W24
	.byte W24
	.byte N30, En4
	.byte W36
	.byte N10, Gs4
	.byte W12
	.byte Gn4
	.byte W12
	.byte Ds4
	.byte W12
	.byte N42, As3
	.byte W48
	.byte N22, Gn4
	.byte W24
	.byte N90, Bn4
	.byte W24
	.byte W72
	.byte N42, As4
	.byte W24
	.byte W24
	.byte An4
	.byte W48
	.byte GOTO
	 .4byte song_unk_238_0_002
	.byte FINE
song_unk_238_1: @ 0x0834D683
	.byte KEYSH, 0x00
	.byte VOICE, 0x41
	.byte VOL, 0x7F
	.byte N23, Ds2, v080
	.byte W24
	.byte N07, Dn2
	.byte W08
	.byte Cs2
	.byte W08
	.byte Cn2
	.byte W08
	.byte N23, Fn2
	.byte W24
	.byte N07, En2
	.byte W08
	.byte Ds2
	.byte W08
	.byte Dn2
	.byte W08
	.byte N23, Gn2
	.byte W24
	.byte N07, Fs2
	.byte W08
	.byte Fn2
	.byte W08
	.byte En2
	.byte W08
	.byte N56, As2
	.byte W48
	.byte W24
	.byte N23, As1
	.byte W24
	.byte Gs1
	.byte W24
song_unk_238_1_005: @ 0x0834D6B1
	.byte N11, Gn1, v080
	.byte W24
song_unk_238_1_003: @ 0x0834D6B5
	.byte N11, Gn1, v080
	.byte W24
	.byte N11
	.byte W24
	.byte N11
	.byte W24
	.byte N11
	.byte W24
	.byte PEND
	.byte PATT
	 .4byte song_unk_238_1_003
	.byte PATT
	 .4byte song_unk_238_1_003
	.byte PATT
	 .4byte song_unk_238_1_003
	.byte PATT
	 .4byte song_unk_238_1_003
	.byte PATT
	 .4byte song_unk_238_1_003
	.byte PATT
	 .4byte song_unk_238_1_003
	.byte N11, Gn1, v080
	.byte W24
	.byte N11
	.byte W24
	.byte N11
	.byte W24
	.byte As1
	.byte W24
song_unk_238_1_004: @ 0x0834D6E8
	.byte N11, As1, v080
	.byte W24
	.byte N11
	.byte W24
	.byte N11
	.byte W24
	.byte N11
	.byte W24
	.byte PEND
	.byte PATT
	 .4byte song_unk_238_1_004
	.byte PATT
	 .4byte song_unk_238_1_004
	.byte N11, As1, v080
	.byte W24
	.byte N11
	.byte W24
	.byte N11
	.byte W24
	.byte Cs2
	.byte W24
	.byte N11
	.byte W24
	.byte N11
	.byte W24
	.byte N11
	.byte W24
	.byte N11
	.byte W24
	.byte N11
	.byte W24
	.byte N11
	.byte W24
	.byte N11
	.byte W24
	.byte Dn2
	.byte W24
	.byte N11
	.byte W24
	.byte N11
	.byte W24
	.byte N11
	.byte W24
	.byte N11
	.byte W24
	.byte N11
	.byte W24
	.byte N11
	.byte W24
	.byte N11
	.byte W24
	.byte GOTO
	 .4byte song_unk_238_1_005
	.byte FINE
song_unk_238_2: @ 0x0834D72B
	.byte KEYSH, 0x00
	.byte VOICE, 0x66
	.byte VOL, 0x7F
	.byte W96
	.byte W96
	.byte W24
	.byte N02, Cn3, v052
	.byte W06
	.byte N02
	.byte W06
	.byte N02
	.byte W12
	.byte N02
	.byte W12
	.byte N02
	.byte W12
song_unk_238_2_008: @ 0x0834D740
	.byte N01, Fn2, v052
	.byte W12
	.byte Cn4, v020
	.byte W12
song_unk_238_2_006: @ 0x0834D747
	.byte N02, Cn3, v052
	.byte W12
	.byte N01, Cn4, v020
	.byte W12
	.byte Fn2, v052
	.byte W12
	.byte Cn4, v020
	.byte W12
	.byte N02, Cn3, v052
	.byte W12
	.byte N01, Cn4, v020
	.byte W12
	.byte Fn2, v052
	.byte W12
	.byte Cn4, v020
	.byte W12
	.byte PEND
	.byte PATT
	 .4byte song_unk_238_2_006
	.byte PATT
	 .4byte song_unk_238_2_006
song_unk_238_2_007: @ 0x0834D76E
	.byte N02, Cn3, v052
	.byte W12
	.byte N01, Cn4, v020
	.byte W12
	.byte Fn2, v052
	.byte W12
	.byte Cn4, v020
	.byte W12
	.byte N02, Cn3, v052
	.byte W12
	.byte N02
	.byte W06
	.byte N02
	.byte W06
	.byte N01, Fn2
	.byte W12
	.byte Cn4, v020
	.byte W12
	.byte PEND
	.byte PATT
	 .4byte song_unk_238_2_006
	.byte PATT
	 .4byte song_unk_238_2_006
	.byte PATT
	 .4byte song_unk_238_2_006
	.byte N02, Cn3, v052
	.byte W12
	.byte N01, Cn4, v020
	.byte W12
	.byte Fn2, v052
	.byte W06
	.byte N02, Cn3
	.byte W06
	.byte N02
	.byte W12
	.byte N02
	.byte W12
	.byte N02
	.byte W06
	.byte N02
	.byte W06
	.byte N01, Fn2
	.byte W12
	.byte Cn4, v020
	.byte W12
	.byte PATT
	 .4byte song_unk_238_2_006
	.byte PATT
	 .4byte song_unk_238_2_006
	.byte PATT
	 .4byte song_unk_238_2_006
	.byte PATT
	 .4byte song_unk_238_2_007
	.byte PATT
	 .4byte song_unk_238_2_006
	.byte PATT
	 .4byte song_unk_238_2_006
	.byte N02, Cn3, v052
	.byte W12
	.byte N01, Cn4, v020
	.byte W12
	.byte Fn2, v052
	.byte W12
	.byte Cn4, v020
	.byte W12
	.byte N02, Cn3, v052
	.byte W12
	.byte N01, Cn4, v020
	.byte W12
	.byte Fn2, v052
	.byte W12
	.byte N02, Cn3
	.byte W12
	.byte N02
	.byte W06
	.byte N02
	.byte W06
	.byte N02
	.byte W12
	.byte N02
	.byte W12
	.byte N02
	.byte W12
	.byte N02
	.byte W12
	.byte N02
	.byte W12
	.byte GOTO
	 .4byte song_unk_238_2_008
	.byte FINE
	.align 2, 0
	.global song_unk_238
song_unk_238: @ 0x0834D804 (song header)
	.byte 3, 0, 10, 0 @ trackCount, blockCount, priority, reverb
	.4byte gUnknown_0804CE78 @ voice group
	.4byte song_unk_238_0
	.4byte song_unk_238_1
	.4byte song_unk_238_2

