	.include "MPlayDef.s"
	.section .rodata
	.align 2, 0
song_unk_753_0: @ 0x083AAF3C
	.byte VOL, 0x6E
	.byte KEYSH, 0x00
song_unk_753_0_001: @ 0x083AAF40
	.byte TEMPO, 0x37
	.byte VOICE, 0x03
	.byte PAN, 0x40
	.byte N23, Gs4, v080
	.byte W24
	.byte N11, Gn4
	.byte W12
	.byte Fn4
	.byte W12
	.byte N32, Ds4
	.byte W36
	.byte N05, Cn4
	.byte W06
	.byte Cs4
	.byte W06
song_unk_753_0_000: @ 0x083AAF57
	.byte N23, Ds4, v080
	.byte W24
	.byte N11
	.byte W12
	.byte Fn4
	.byte W12
	.byte N03, Cs4
	.byte W04
	.byte Ds4
	.byte W04
	.byte Cs4
	.byte W04
	.byte N11, Cn4
	.byte W12
	.byte Cs4
	.byte W12
	.byte Ds4
	.byte W12
	.byte PEND
	.byte N44, Cn4
	.byte W96
	.byte W96
	.byte VOICE, 0x03
	.byte N23, Gs4
	.byte W24
	.byte N11, Gn4
	.byte W12
	.byte Fn4
	.byte W12
	.byte N32, Ds4
	.byte W36
	.byte N05, Cn4
	.byte W06
	.byte Cs4
	.byte W06
	.byte PATT
	 .4byte song_unk_753_0_000
	.byte N23, Cn4, v080
	.byte W24
	.byte PAN, 0x00
	.byte N23, Ds5, v064
	.byte W24
	.byte N44, Gs5
	.byte W48
	.byte W96
	.byte GOTO
	 .4byte song_unk_753_0_001
	.byte FINE
song_unk_753_1: @ 0x083AAF9D
	.byte VOL, 0x6E
	.byte KEYSH, 0x00
song_unk_753_1_002: @ 0x083AAFA1
	.byte VOICE, 0x5D
	.byte PAN, 0x00
	.byte N23, Fs1, v016
	.byte W24
	.byte N23
	.byte W24
	.byte N23
	.byte W24
	.byte N23
	.byte W24
	.byte PEND
	.byte PATT
	 .4byte song_unk_753_1_002
	.byte PATT
	 .4byte song_unk_753_1_002
	.byte PATT
	 .4byte song_unk_753_1_002
	.byte PATT
	 .4byte song_unk_753_1_002
	.byte PATT
	 .4byte song_unk_753_1_002
	.byte PATT
	 .4byte song_unk_753_1_002
	.byte PATT
	 .4byte song_unk_753_1_002
	.byte GOTO
	 .4byte song_unk_753_1_002
	.byte FINE
song_unk_753_2: @ 0x083AAFD9
	.byte VOL, 0x6E
	.byte KEYSH, 0x00
song_unk_753_2_003: @ 0x083AAFDD
	.byte VOICE, 0x78
	.byte PAN, 0x60
	.byte N44, Cn3, v024
	.byte W48
	.byte Cs3
	.byte W48
	.byte PEND
song_unk_753_2_004: @ 0x083AAFE8
	.byte N44, Ds3, v024
	.byte W48
	.byte Cs3
	.byte W48
	.byte PEND
	.byte PATT
	 .4byte song_unk_753_2_003
	.byte PATT
	 .4byte song_unk_753_2_004
	.byte PATT
	 .4byte song_unk_753_2_003
	.byte PATT
	 .4byte song_unk_753_2_004
	.byte PATT
	 .4byte song_unk_753_2_003
	.byte PATT
	 .4byte song_unk_753_2_004
	.byte GOTO
	 .4byte song_unk_753_2_003
	.byte FINE
song_unk_753_3: @ 0x083AB013
	.byte VOL, 0x6E
	.byte KEYSH, 0x00
song_unk_753_3_005: @ 0x083AB017
	.byte VOICE, 0x78
	.byte PAN, 0x20
	.byte N44, Ds2, v024
	.byte W48
	.byte Fn2
	.byte W48
	.byte PEND
song_unk_753_3_006: @ 0x083AB022
	.byte N44, Gn2, v024
	.byte W48
	.byte Fn2
	.byte W48
	.byte PEND
	.byte PATT
	 .4byte song_unk_753_3_005
	.byte PATT
	 .4byte song_unk_753_3_006
	.byte PATT
	 .4byte song_unk_753_3_005
	.byte PATT
	 .4byte song_unk_753_3_006
	.byte PATT
	 .4byte song_unk_753_3_005
	.byte PATT
	 .4byte song_unk_753_3_006
	.byte GOTO
	 .4byte song_unk_753_3_005
	.byte FINE
song_unk_753_4: @ 0x083AB04D
	.byte VOL, 0x6E
	.byte KEYSH, 0x00
song_unk_753_4_007: @ 0x083AB051
	.byte VOICE, 0x78
	.byte TIE, Gs2, v024
	.byte W96
	.byte PEND
	.byte W96
	.byte EOT
	.byte PATT
	 .4byte song_unk_753_4_007
	.byte W96
	.byte EOT, Gs2
	.byte PATT
	 .4byte song_unk_753_4_007
	.byte W96
	.byte EOT, Gs2
	.byte PATT
	 .4byte song_unk_753_4_007
	.byte W96
	.byte EOT, Gs2
	.byte GOTO
	 .4byte song_unk_753_4_007
	.byte FINE
song_unk_753_5: @ 0x083AB078
	.byte VOL, 0x6E
	.byte KEYSH, 0x00
song_unk_753_5_008: @ 0x083AB07C
	.byte VOICE, 0x1F
	.byte PAN, 0x7F
	.byte W96
	.byte W96
	.byte W96
	.byte W24
	.byte N23, Cn5, v048
	.byte W24
	.byte Cs5
	.byte W24
	.byte Gn5
	.byte W24
	.byte Gs5
	.byte W24
	.byte N11, Gn5
	.byte W12
	.byte Fn5
	.byte W12
	.byte N32, Ds5
	.byte W36
	.byte N05, Cn5
	.byte W06
	.byte Cs5
	.byte W06
	.byte N23, Ds5
	.byte W24
	.byte N11
	.byte W12
	.byte Fn5
	.byte W12
	.byte N03, Cs5
	.byte W04
	.byte Ds5
	.byte W04
	.byte Cs5
	.byte W04
	.byte N11, Cn5
	.byte W12
	.byte Cs5
	.byte W12
	.byte Ds5
	.byte W12
	.byte N44, Cn5
	.byte W96
	.byte W96
	.byte GOTO
	 .4byte song_unk_753_5_008
	.byte FINE
	.align 2, 0
	.global song_unk_753
song_unk_753: @ 0x083AB0BC (song header)
	.byte 6, 0, 10, 0 @ trackCount, blockCount, priority, reverb
	.4byte gUnknown_0804CE78 @ voice group
	.4byte song_unk_753_0
	.4byte song_unk_753_1
	.4byte song_unk_753_2
	.4byte song_unk_753_3
	.4byte song_unk_753_4
	.4byte song_unk_753_5

