	.include "MPlayDef.s"
	.section .rodata
	.align 2, 0
song_unk_762_0: @ 0x083AB584
	.byte VOL, 0x6E
	.byte KEYSH, 0x00
	.byte TEMPO, 0x50
	.byte VOICE, 0x45
	.byte W24
	.byte N05, Cn6, v127
	.byte W12
	.byte Dn6
	.byte W06
	.byte En6
	.byte W06
	.byte N48, Fn6
	.byte W72
song_unk_762_0_000: @ 0x083AB598
	.byte W96
	.byte W96
	.byte W96
	.byte W96
	.byte GOTO
	 .4byte song_unk_762_0_000
	.byte FINE
song_unk_762_1: @ 0x083AB5A2
	.byte VOL, 0x6E
	.byte KEYSH, 0x00
	.byte VOICE, 0x5E
	.byte PAN, 0x50
	.byte N01, Cn4, v016
	.byte W02
	.byte N01
	.byte W02
	.byte Cn4, v024
	.byte W02
	.byte N01
	.byte W02
	.byte Cn4, v032
	.byte W02
	.byte N01
	.byte W02
	.byte Cn4, v040
	.byte W02
	.byte N01
	.byte W02
	.byte Cn4, v048
	.byte W02
	.byte Cn4, v064
	.byte W02
	.byte Cn4, v080
	.byte W02
	.byte Cn4, v096
	.byte W02
	.byte N06, Cn4, v048
	.byte W12
	.byte N06
	.byte W06
	.byte N06
	.byte W06
	.byte N06
	.byte W72
song_unk_762_1_002: @ 0x083AB5D5
	.byte W36
	.byte N06, Cn4, v016
	.byte W60
song_unk_762_1_001: @ 0x083AB5DA
	.byte W36
	.byte N06, Cn4, v016
	.byte W06
	.byte N06
	.byte W54
	.byte PEND
	.byte W36
	.byte N06
	.byte W60
	.byte PATT
	 .4byte song_unk_762_1_001
	.byte GOTO
	 .4byte song_unk_762_1_002
	.byte FINE
song_unk_762_2: @ 0x083AB5F0
	.byte VOL, 0x6E
	.byte KEYSH, 0x00
	.byte VOICE, 0x5D
	.byte PAN, 0x30
	.byte W24
	.byte W24
	.byte N12, As2, v064
	.byte W24
	.byte N01, Gs6, v016
	.byte W02
	.byte N01
	.byte W02
	.byte Gs6, v024
	.byte W02
	.byte N01
	.byte W02
	.byte Gs6, v032
	.byte W02
	.byte N01
	.byte W02
	.byte Gs6, v040
	.byte W02
	.byte N01
	.byte W02
	.byte Gs6, v048
	.byte W02
	.byte Gs6, v064
	.byte W02
	.byte Gs6, v080
	.byte W02
	.byte Gs6, v096
	.byte W24
	.byte W02
song_unk_762_2_003: @ 0x083AB620
	.byte N01, An1, v032
	.byte W12
	.byte N01
	.byte W48
	.byte N01
	.byte W36
	.byte PEND
	.byte W60
	.byte N01
	.byte W36
	.byte PATT
	 .4byte song_unk_762_2_003
	.byte W60
	.byte N01, An1, v032
	.byte W36
	.byte GOTO
	 .4byte song_unk_762_2_003
	.byte FINE
song_unk_762_3: @ 0x083AB63C
	.byte VOL, 0x6E
	.byte KEYSH, 0x00
	.byte VOICE, 0x3D
	.byte MOD, 0x00
	.byte W24
	.byte W96
song_unk_762_3_004: @ 0x083AB646
	.byte W24
	.byte N03, Gn5, v127
	.byte W12
	.byte Cn6
	.byte W06
	.byte En6
	.byte W06
	.byte Gn6
	.byte W48
	.byte W24
	.byte N03
	.byte W12
	.byte En6
	.byte W06
	.byte Cn6
	.byte W06
	.byte Gn5
	.byte W48
	.byte W24
	.byte N03
	.byte W12
	.byte Cn6
	.byte W06
	.byte En6
	.byte W06
	.byte Gn6
	.byte W12
	.byte N03
	.byte W12
	.byte N03
	.byte W12
	.byte En6
	.byte W06
	.byte Cn6
	.byte W06
	.byte Gn5
	.byte W12
	.byte N03
	.byte W12
	.byte Cn6
	.byte W12
	.byte En6
	.byte W06
	.byte Cn6
	.byte W06
	.byte Gn5
	.byte W48
	.byte GOTO
	 .4byte song_unk_762_3_004
	.byte FINE
song_unk_762_4: @ 0x083AB67D
	.byte VOL, 0x6E
	.byte KEYSH, 0x00
	.byte VOICE, 0x00
	.byte PAN, 0x7F
	.byte W24
	.byte N04, An3, v040
	.byte W12
	.byte Bn3
	.byte W06
	.byte Cn4
	.byte W06
	.byte N48, Dn4
	.byte W48
	.byte N01, Gn3
	.byte W01
	.byte As3
	.byte W01
	.byte Cs4
	.byte W01
	.byte En4
	.byte W01
	.byte Gn4
	.byte W01
	.byte As4
	.byte W01
	.byte Cs5
	.byte W01
	.byte Ds5
	.byte W01
	.byte Fn5
	.byte W01
	.byte Gn5
	.byte W01
	.byte An5
	.byte W01
	.byte Bn5
	.byte W01
	.byte Cs6
	.byte W01
	.byte Ds6
	.byte W01
	.byte Fn6
	.byte W01
	.byte Gn6
	.byte W01
	.byte An6
	.byte W01
	.byte Bn6
	.byte W07
song_unk_762_4_005: @ 0x083AB6B6
	.byte N06, Gn3, v040
	.byte W24
	.byte Cn4
	.byte W24
	.byte Dn4
	.byte W24
	.byte Cn4
	.byte W24
	.byte PEND
song_unk_762_4_006: @ 0x083AB6C1
	.byte N06, Gn3, v040
	.byte W24
	.byte Cn4
	.byte W12
	.byte N06
	.byte W12
	.byte Dn4
	.byte W24
	.byte Cn4
	.byte W24
	.byte PEND
	.byte PATT
	 .4byte song_unk_762_4_005
	.byte PATT
	 .4byte song_unk_762_4_006
	.byte GOTO
	 .4byte song_unk_762_4_005
	.byte FINE
song_unk_762_5: @ 0x083AB6DE
	.byte VOL, 0x6E
	.byte KEYSH, 0x00
	.byte VOICE, 0x1E
	.byte PAN, 0x00
	.byte W24
	.byte N06, Dn3, v032
	.byte W12
	.byte En3
	.byte W06
	.byte Fn3
	.byte W06
	.byte N48, Cn3
	.byte W72
song_unk_762_5_007: @ 0x083AB6F2
	.byte N06, Cn3, v032
	.byte W24
	.byte An3
	.byte W24
	.byte Bn3
	.byte W24
	.byte An3
	.byte W24
	.byte PEND
song_unk_762_5_008: @ 0x083AB6FD
	.byte N06, Cn3, v032
	.byte W24
	.byte An3
	.byte W12
	.byte N06
	.byte W12
	.byte Bn3
	.byte W24
	.byte An3
	.byte W24
	.byte PEND
	.byte PATT
	 .4byte song_unk_762_5_007
	.byte PATT
	 .4byte song_unk_762_5_008
	.byte GOTO
	 .4byte song_unk_762_5_007
	.byte FINE
song_unk_762_6: @ 0x083AB71A
	.byte VOL, 0x6E
	.byte KEYSH, 0x00
	.byte VOICE, 0x64
	.byte PAN, 0x00
	.byte W24
	.byte W96
song_unk_762_6_009: @ 0x083AB724
	.byte W12
	.byte N01, Cn4, v096
	.byte W06
	.byte N01
	.byte W18
	.byte N01
	.byte W06
	.byte N01
	.byte W18
	.byte N01
	.byte W06
	.byte N01
	.byte W18
	.byte N01
	.byte W06
	.byte N01
	.byte W06
	.byte PEND
	.byte PATT
	 .4byte song_unk_762_6_009
	.byte PATT
	 .4byte song_unk_762_6_009
	.byte PATT
	 .4byte song_unk_762_6_009
	.byte GOTO
	 .4byte song_unk_762_6_009
	.byte FINE
	.align 2, 0
	.global song_unk_762
song_unk_762: @ 0x083AB750 (song header)
	.byte 7, 0, 10, 0 @ trackCount, blockCount, priority, reverb
	.4byte voicegroup000 @ voice group
	.4byte song_unk_762_0
	.4byte song_unk_762_1
	.4byte song_unk_762_2
	.4byte song_unk_762_3
	.4byte song_unk_762_4
	.4byte song_unk_762_5
	.4byte song_unk_762_6
	.size song_unk_762,.-song_unk_762
