	.include "MPlayDef.s"
	.section .rodata
	.align 2, 0
song_unk_128_0: @ 0x0834A1B0
	.byte KEYSH, 0x00
song_unk_128_0_003: @ 0x0834A1B2
	.byte TEMPO, 0x41
	.byte VOICE, 0x1F
	.byte VOL, 0x5A
	.byte PAN, 0x7F
	.byte N03, Dn4, v060
	.byte W06
	.byte Dn3, v040
	.byte W06
	.byte Cs4, v060
	.byte W06
	.byte Cs3, v040
	.byte W12
	.byte Dn4, v060
	.byte W06
	.byte Dn3, v040
	.byte W06
	.byte Cs4, v060
	.byte W06
	.byte Cs3, v040
	.byte W12
	.byte Dn4, v060
	.byte W06
	.byte Dn3, v040
	.byte W06
	.byte Cs4, v060
	.byte W06
	.byte Cs3, v040
	.byte W12
	.byte Dn4, v060
	.byte W06
song_unk_128_0_000: @ 0x0834A1E2
	.byte N03, Dn3, v040
	.byte W06
	.byte Cs4, v060
	.byte W06
	.byte Cs3, v040
	.byte W84
	.byte PEND
song_unk_128_0_001: @ 0x0834A1ED
	.byte N03, Dn4, v060
	.byte W06
	.byte Dn3, v040
	.byte W06
	.byte Cs4, v060
	.byte W06
	.byte Cs3, v040
	.byte W12
	.byte Dn4, v060
	.byte W06
	.byte Dn3, v040
	.byte W06
	.byte Cs4, v060
	.byte W06
	.byte Cs3, v040
	.byte W12
	.byte Dn4, v060
	.byte W06
	.byte Dn3, v040
	.byte W06
	.byte Cs4, v060
	.byte W06
	.byte Cs3, v040
	.byte W12
	.byte Dn4, v060
	.byte W06
	.byte PEND
	.byte PATT
	 .4byte song_unk_128_0_000
	.byte PATT
	 .4byte song_unk_128_0_001
	.byte PATT
	 .4byte song_unk_128_0_000
	.byte PATT
	 .4byte song_unk_128_0_001
	.byte PATT
	 .4byte song_unk_128_0_000
song_unk_128_0_002: @ 0x0834A22F
	.byte N03, Fs3, v060
	.byte W06
	.byte N03
	.byte W06
	.byte Cs3, v040
	.byte W06
	.byte N03
	.byte W18
	.byte Fs3, v060
	.byte W06
	.byte N03
	.byte W18
	.byte N03
	.byte W06
	.byte N03
	.byte W06
	.byte Cs3, v040
	.byte W06
	.byte N03
	.byte W18
	.byte PEND
	.byte Fs3, v060
	.byte W06
	.byte N03
	.byte W42
	.byte En3
	.byte W06
	.byte N03
	.byte W06
	.byte Bn2, v040
	.byte W06
	.byte N03
	.byte W18
	.byte En3, v060
	.byte W06
	.byte N03
	.byte W06
	.byte W12
	.byte N03
	.byte W06
	.byte N03
	.byte W06
	.byte Bn2, v040
	.byte W06
	.byte N03
	.byte W18
	.byte En3, v060
	.byte W06
	.byte N03
	.byte W42
	.byte PATT
	 .4byte song_unk_128_0_002
	.byte N03, Fs3, v060
	.byte W06
	.byte N03
	.byte W90
	.byte W48
	.byte An3
	.byte W06
	.byte En3, v052
	.byte W06
	.byte Bn2
	.byte W06
	.byte As3, v060
	.byte W06
	.byte Fn3, v052
	.byte W06
	.byte Cn3
	.byte W06
	.byte Bn3, v060
	.byte W06
	.byte Fs3, v052
	.byte W06
	.byte Cs3
	.byte W06
	.byte Gs2
	.byte W06
	.byte Cs4, v060
	.byte W06
	.byte Gs3, v052
	.byte W06
	.byte Ds3
	.byte W06
	.byte En4, v060
	.byte W06
	.byte Bn3, v052
	.byte W06
	.byte Fs3
	.byte W06
	.byte GOTO
	 .4byte song_unk_128_0_003
	.byte FINE
song_unk_128_1: @ 0x0834A2A6
	.byte KEYSH, 0x00
song_unk_128_1_007: @ 0x0834A2A8
	.byte VOICE, 0x02
	.byte VOL, 0x5A
	.byte PAN, 0x00
	.byte N03, An3, v060
	.byte W06
	.byte An2, v040
	.byte W06
	.byte Gs3, v060
	.byte W06
	.byte Gs2, v040
	.byte W12
	.byte An3, v060
	.byte W06
	.byte An2, v040
	.byte W06
	.byte Gs3, v060
	.byte W06
	.byte Gs2, v040
	.byte W12
	.byte An3, v060
	.byte W06
	.byte An2, v040
	.byte W06
	.byte Gs3, v060
	.byte W06
	.byte Gs2, v040
	.byte W12
	.byte An3, v060
	.byte W06
song_unk_128_1_004: @ 0x0834A2D6
	.byte N03, An2, v040
	.byte W06
	.byte Gs3, v060
	.byte W06
	.byte Gs2, v040
	.byte W84
	.byte PEND
song_unk_128_1_005: @ 0x0834A2E1
	.byte N03, An3, v060
	.byte W06
	.byte An2, v040
	.byte W06
	.byte Gs3, v060
	.byte W06
	.byte Gs2, v040
	.byte W12
	.byte An3, v060
	.byte W06
	.byte An2, v040
	.byte W06
	.byte Gs3, v060
	.byte W06
	.byte Gs2, v040
	.byte W12
	.byte An3, v060
	.byte W06
	.byte An2, v040
	.byte W06
	.byte Gs3, v060
	.byte W06
	.byte Gs2, v040
	.byte W12
	.byte An3, v060
	.byte W06
	.byte PEND
	.byte PATT
	 .4byte song_unk_128_1_004
	.byte PATT
	 .4byte song_unk_128_1_005
	.byte PATT
	 .4byte song_unk_128_1_004
	.byte PATT
	 .4byte song_unk_128_1_005
	.byte PATT
	 .4byte song_unk_128_1_004
song_unk_128_1_006: @ 0x0834A323
	.byte N03, Cs3, v060
	.byte W06
	.byte N03
	.byte W06
	.byte Gs2, v040
	.byte W06
	.byte N03
	.byte W18
	.byte Cs3, v060
	.byte W06
	.byte N03
	.byte W18
	.byte N03
	.byte W06
	.byte N03
	.byte W06
	.byte Gs2, v040
	.byte W06
	.byte N03
	.byte W18
	.byte PEND
	.byte Cs3, v060
	.byte W06
	.byte N03
	.byte W42
	.byte Bn2
	.byte W06
	.byte N03
	.byte W06
	.byte Fs2, v040
	.byte W06
	.byte N03
	.byte W18
	.byte Bn2, v060
	.byte W06
	.byte N03
	.byte W06
	.byte W12
	.byte N03
	.byte W06
	.byte N03
	.byte W06
	.byte Fs2, v040
	.byte W06
	.byte N03
	.byte W18
	.byte Bn2, v060
	.byte W06
	.byte N03
	.byte W42
	.byte PATT
	 .4byte song_unk_128_1_006
	.byte N03, Cs3, v060
	.byte W06
	.byte N03
	.byte W90
	.byte W48
	.byte En3
	.byte W06
	.byte Bn2, v052
	.byte W06
	.byte Fs2
	.byte W06
	.byte Fn3, v060
	.byte W06
	.byte Cn3, v052
	.byte W06
	.byte Gn2
	.byte W06
	.byte Fs3, v060
	.byte W06
	.byte Cs3, v052
	.byte W06
	.byte Gs2
	.byte W06
	.byte Ds2
	.byte W06
	.byte Gs3, v060
	.byte W06
	.byte Ds3, v052
	.byte W06
	.byte As2
	.byte W06
	.byte Bn3, v060
	.byte W06
	.byte Fs3, v052
	.byte W06
	.byte Cs3
	.byte W06
	.byte GOTO
	 .4byte song_unk_128_1_007
	.byte FINE
song_unk_128_2: @ 0x0834A39A
	.byte KEYSH, 0x00
song_unk_128_2_012: @ 0x0834A39C
	.byte VOICE, 0x57
	.byte VOL, 0x5A
	.byte N03, En3, v072
	.byte W06
	.byte N03
	.byte W06
	.byte N03
	.byte W06
	.byte En4
	.byte W06
	.byte En3
	.byte W06
	.byte N03
	.byte W06
	.byte N03
	.byte W06
	.byte En4
	.byte W18
	.byte En3
	.byte W06
	.byte N03
	.byte W06
	.byte N03
	.byte W06
	.byte En4
	.byte W06
	.byte En3
	.byte W06
	.byte N03
	.byte W06
song_unk_128_2_009: @ 0x0834A3BE
	.byte N03, En3, v072
	.byte W06
	.byte En4
	.byte W18
	.byte N17, An3, v060
	.byte W18
	.byte Bn3
	.byte W18
	.byte Fs3
	.byte W18
	.byte Fn3
	.byte W18
	.byte PEND
song_unk_128_2_008: @ 0x0834A3CF
	.byte N03, En3, v072
	.byte W06
	.byte N03
	.byte W06
	.byte N03
	.byte W06
	.byte En4
	.byte W06
	.byte En3
	.byte W06
	.byte N03
	.byte W06
	.byte N03
	.byte W06
	.byte En4
	.byte W18
	.byte En3
	.byte W06
	.byte N03
	.byte W06
	.byte N03
	.byte W06
	.byte En4
	.byte W06
	.byte En3
	.byte W06
	.byte N03
	.byte W06
	.byte PEND
song_unk_128_2_010: @ 0x0834A3EE
	.byte N03, En3, v072
	.byte W06
	.byte En4
	.byte W18
	.byte N17, An3, v060
	.byte W18
	.byte Bn3
	.byte W18
	.byte Fs3
	.byte W18
	.byte Cs3
	.byte W18
	.byte PEND
	.byte PATT
	 .4byte song_unk_128_2_008
	.byte PATT
	 .4byte song_unk_128_2_009
	.byte PATT
	 .4byte song_unk_128_2_008
	.byte PATT
	 .4byte song_unk_128_2_010
song_unk_128_2_011: @ 0x0834A413
	.byte N03, Ds3, v072
	.byte W06
	.byte N03
	.byte W06
	.byte N03
	.byte W06
	.byte Ds4
	.byte W06
	.byte Ds3
	.byte W06
	.byte N03
	.byte W06
	.byte N03
	.byte W06
	.byte Ds4
	.byte W18
	.byte Ds3
	.byte W06
	.byte N03
	.byte W06
	.byte N03
	.byte W06
	.byte Ds4
	.byte W06
	.byte Ds3
	.byte W06
	.byte N03
	.byte W06
	.byte PEND
	.byte N03
	.byte W06
	.byte Ds4
	.byte W42
	.byte Dn3
	.byte W06
	.byte N03
	.byte W06
	.byte N03
	.byte W06
	.byte Dn4
	.byte W06
	.byte Dn3
	.byte W06
	.byte N03
	.byte W06
	.byte N03
	.byte W06
	.byte Dn4
	.byte W06
	.byte W12
	.byte Dn3
	.byte W06
	.byte N03
	.byte W06
	.byte N03
	.byte W06
	.byte Dn4
	.byte W06
	.byte Dn3
	.byte W06
	.byte N03
	.byte W06
	.byte N03
	.byte W06
	.byte Dn4
	.byte W42
	.byte PATT
	 .4byte song_unk_128_2_011
	.byte N03, Ds3, v072
	.byte W06
	.byte Ds4
	.byte W42
	.byte N17, Fs4, v060
	.byte W18
	.byte Bn4
	.byte W18
	.byte N23, En4
	.byte W12
	.byte W12
	.byte N17, An4
	.byte W18
	.byte Gn4
	.byte W18
	.byte Fs4
	.byte W18
	.byte Fn4
	.byte W18
	.byte N23, En4
	.byte W12
	.byte W12
	.byte N17, Dn4
	.byte W18
	.byte Cn4
	.byte W18
	.byte GOTO
	 .4byte song_unk_128_2_012
	.byte FINE
song_unk_128_3: @ 0x0834A484
	.byte KEYSH, 0x00
song_unk_128_3_015: @ 0x0834A486
	.byte VOICE, 0x78
	.byte VOL, 0x5A
	.byte W96
song_unk_128_3_013: @ 0x0834A48B
	.byte W24
	.byte N17, Gn2, v040
	.byte N17, Cn3, v052
	.byte W18
	.byte An2, v040
	.byte N17, Dn3, v052
	.byte W18
	.byte En2, v040
	.byte N17, An2, v052
	.byte W18
	.byte Dn2, v040
	.byte N17, Gn2, v052
	.byte W18
	.byte PEND
	.byte W96
song_unk_128_3_014: @ 0x0834A4A7
	.byte W24
	.byte N17, Gn2, v040
	.byte N17, Cn3, v052
	.byte W18
	.byte An2, v040
	.byte N17, Dn3, v052
	.byte W18
	.byte En2, v040
	.byte N17, An2, v052
	.byte W18
	.byte Bn2, v040
	.byte N17, En3, v052
	.byte W18
	.byte PEND
	.byte W96
	.byte PATT
	 .4byte song_unk_128_3_013
	.byte W96
	.byte PATT
	 .4byte song_unk_128_3_014
	.byte W96
	.byte W96
	.byte W96
	.byte W96
	.byte W48
	.byte N17, Bn1, v040
	.byte N17, En2, v052
	.byte W18
	.byte An1, v040
	.byte N17, Dn2, v052
	.byte W18
	.byte N23, Dn2, v040
	.byte N23, Gn2, v052
	.byte W12
	.byte W12
	.byte N17, Cs2, v040
	.byte N17, Fs2, v052
	.byte W18
	.byte Bn1, v040
	.byte N17, En2, v052
	.byte W18
	.byte En2, v040
	.byte N17, An2, v052
	.byte W18
	.byte Fn2, v040
	.byte N17, As2, v052
	.byte W18
	.byte N23, Fs2, v040
	.byte N23, Bn2, v052
	.byte W12
	.byte W12
	.byte N17, Gs2, v040
	.byte N17, Cs3, v052
	.byte W18
	.byte Bn2, v040
	.byte N17, En3, v052
	.byte W18
	.byte GOTO
	 .4byte song_unk_128_3_015
	.byte FINE
song_unk_128_4: @ 0x0834A51C
	.byte KEYSH, 0x00
song_unk_128_4_019: @ 0x0834A51E
	.byte VOICE, 0x5D
	.byte VOL, 0x5A
	.byte N05, Cn1, v072
	.byte N00, Fs1, v016
	.byte W06
	.byte N00
	.byte W06
	.byte N11
	.byte W12
	.byte N05, Dn1, v052
	.byte N00, Fs1, v016
	.byte W06
	.byte N00
	.byte W06
	.byte N11
	.byte W12
	.byte N00
	.byte N12, Gn1, v052
	.byte W06
	.byte N00, Fs1, v016
	.byte W06
	.byte N05, Cn1, v072
	.byte N11, Fs1, v016
	.byte W12
	.byte N05, Dn1, v052
	.byte N00, Fs1, v016
	.byte W06
	.byte N00
	.byte W06
	.byte N11
	.byte W06
	.byte N05, Cn1, v072
	.byte W06
song_unk_128_4_016: @ 0x0834A557
	.byte N00, Fs1, v016
	.byte W06
	.byte N00
	.byte W06
	.byte N05, Cn1, v072
	.byte N11, Fs1, v016
	.byte W12
	.byte N05, Dn1, v052
	.byte N00, Fs1, v016
	.byte W06
	.byte N00
	.byte W06
	.byte N11
	.byte W06
	.byte N05, Cn1, v072
	.byte W06
	.byte N00, Fs1, v016
	.byte W06
	.byte N00
	.byte W06
	.byte N05, Cn1, v072
	.byte N11, Fs1, v016
	.byte W12
	.byte N05, Dn1, v052
	.byte N00, Fs1, v016
	.byte W06
	.byte N05, Cn1, v072
	.byte N00, Fs1, v016
	.byte W06
	.byte N11
	.byte N05, An1, v052
	.byte W06
	.byte N11
	.byte W06
	.byte PEND
song_unk_128_4_017: @ 0x0834A596
	.byte N05, Cn1, v072
	.byte N00, Fs1, v016
	.byte W06
	.byte N00
	.byte W06
	.byte N11
	.byte W12
	.byte N05, Dn1, v052
	.byte N00, Fs1, v016
	.byte W06
	.byte N00
	.byte W06
	.byte N11
	.byte W12
	.byte N00
	.byte N11, Gn1, v040
	.byte W06
	.byte N00, Fs1, v016
	.byte W06
	.byte N05, Cn1, v072
	.byte N11, Fs1, v016
	.byte W12
	.byte N05, Dn1, v052
	.byte N00, Fs1, v016
	.byte W06
	.byte N00
	.byte W06
	.byte N11
	.byte W06
	.byte N05, Cn1, v072
	.byte W06
	.byte PEND
	.byte N00, Fs1, v016
	.byte W06
	.byte N00
	.byte W06
	.byte N05, Cn1, v072
	.byte N11, Fs1, v016
	.byte W12
	.byte N05, Dn1, v052
	.byte N00, Fs1, v016
	.byte W06
	.byte N00
	.byte W06
	.byte N11
	.byte W06
	.byte N05, Cn1, v072
	.byte W06
	.byte N00, Fs1, v016
	.byte W06
	.byte N00
	.byte W06
	.byte N05, Cn1, v072
	.byte N11, Fs1, v016
	.byte W06
	.byte N05, Cn1, v072
	.byte W06
	.byte Dn1, v052
	.byte N00, Fs1, v016
	.byte W06
	.byte N00
	.byte W06
	.byte N05, Dn1, v052
	.byte N11, Fs1, v016
	.byte W06
	.byte N05, Dn1, v052
	.byte W06
	.byte Cn1, v072
	.byte N00, Fs1, v016
	.byte W06
	.byte N00
	.byte W06
	.byte N11
	.byte W12
	.byte N05, Dn1, v052
	.byte N00, Fs1, v016
	.byte W06
	.byte N00
	.byte W06
	.byte N11
	.byte W12
	.byte N00
	.byte N12, Gn1, v052
	.byte W06
	.byte N00, Fs1, v016
	.byte W06
	.byte N05, Cn1, v072
	.byte N11, Fs1, v016
	.byte W12
	.byte N05, Dn1, v052
	.byte N00, Fs1, v016
	.byte W06
	.byte N00
	.byte W06
	.byte N11
	.byte W06
	.byte N05, Cn1, v072
	.byte W06
	.byte PATT
	 .4byte song_unk_128_4_016
	.byte PATT
	 .4byte song_unk_128_4_017
	.byte N00, Fs1, v016
	.byte W06
	.byte N00
	.byte W06
	.byte N05, Cn1, v072
	.byte N11, Fs1, v016
	.byte W12
	.byte N05, Dn1, v052
	.byte N00, Fs1, v016
	.byte W06
	.byte N05, Cn1, v072
	.byte N00, Fs1, v016
	.byte W06
	.byte N11
	.byte N03, Cn2, v052
	.byte W04
	.byte N03
	.byte W04
	.byte Bn1
	.byte W04
	.byte N00, Fs1, v016
	.byte N03, Bn1, v052
	.byte W04
	.byte An1, v060
	.byte W02
	.byte N00, Fs1, v016
	.byte W02
	.byte N03, An1, v060
	.byte W04
	.byte N11, Fs1, v016
	.byte N03, Gn1, v052
	.byte W04
	.byte N03
	.byte W04
	.byte N09
	.byte W04
	.byte N05, Dn1
	.byte N00, Fs1, v016
	.byte W06
	.byte N05, Cn1, v072
	.byte N00, Fs1, v016
	.byte W06
	.byte N11
	.byte W06
	.byte N05, Dn1, v052
	.byte W06
song_unk_128_4_018: @ 0x0834A69E
	.byte N05, Cn1, v072
	.byte N00, Fs1, v016
	.byte W06
	.byte N00
	.byte W06
	.byte N11
	.byte W12
	.byte N05, Dn1, v052
	.byte N00, Fs1, v016
	.byte W06
	.byte N00
	.byte W06
	.byte N11
	.byte W12
	.byte N00
	.byte N11, Gn1, v040
	.byte W06
	.byte N00, Fs1, v016
	.byte W06
	.byte N05, Cn1, v072
	.byte N11, Fs1, v016
	.byte W12
	.byte N05, Dn1, v052
	.byte N00, Fs1, v016
	.byte W06
	.byte N00
	.byte W06
	.byte N11
	.byte N05, Cn2, v040
	.byte W06
	.byte N05
	.byte W06
	.byte PEND
	.byte Cn1, v072
	.byte N00, Fs1, v016
	.byte W06
	.byte N05, Cn1, v072
	.byte N00, Fs1, v016
	.byte W06
	.byte N05, Cn1, v072
	.byte N11, Fs1, v016
	.byte W06
	.byte N05, Cn1, v072
	.byte W06
	.byte Dn1, v052
	.byte N00, Fs1, v016
	.byte W06
	.byte N00
	.byte W06
	.byte N11
	.byte N05, Bn1, v040
	.byte W06
	.byte N05
	.byte W06
	.byte Cn1, v072
	.byte N00, Fs1, v016
	.byte W06
	.byte N00
	.byte W06
	.byte N11
	.byte W12
	.byte N05, Dn1, v052
	.byte N00, Fs1, v016
	.byte W06
	.byte N00
	.byte W06
	.byte N11
	.byte W12
	.byte N00
	.byte N11, Gn1, v040
	.byte W06
	.byte N00, Fs1, v016
	.byte W06
	.byte N05, Cn1, v072
	.byte N11, Fs1, v016
	.byte W12
	.byte N05, Dn1, v052
	.byte N00, Fs1, v016
	.byte W06
	.byte N00
	.byte W06
	.byte N11
	.byte N05, Cn2, v040
	.byte W06
	.byte N05
	.byte W06
	.byte Cn1, v072
	.byte N00, Fs1, v016
	.byte W06
	.byte N05, Cn1, v072
	.byte N00, Fs1, v016
	.byte W06
	.byte N05, Cn1, v072
	.byte N11, Fs1, v016
	.byte W06
	.byte N05, Cn1, v072
	.byte W06
	.byte Dn1, v052
	.byte N00, Fs1, v016
	.byte W06
	.byte N05, Dn1, v052
	.byte N00, Fs1, v016
	.byte W06
	.byte N05, Dn1, v052
	.byte N11, Fs1, v016
	.byte W06
	.byte N05, Dn1, v052
	.byte W06
	.byte PATT
	 .4byte song_unk_128_4_018
	.byte N05, Cn1, v072
	.byte N00, Fs1, v016
	.byte W06
	.byte N05, Cn1, v072
	.byte N00, Fs1, v016
	.byte W06
	.byte N05, Cn1, v072
	.byte N11, Fs1, v016
	.byte W06
	.byte N05, Cn1, v072
	.byte W06
	.byte Dn1, v052
	.byte N00, Fs1, v016
	.byte W06
	.byte N05, Dn1, v052
	.byte N00, Fs1, v016
	.byte W06
	.byte N11
	.byte N03, Bn1, v052
	.byte W04
	.byte Cn2
	.byte W04
	.byte An1, v060
	.byte W04
	.byte N05, Cn1, v072
	.byte N00, Fs1, v016
	.byte W06
	.byte N00
	.byte W06
	.byte N05, Cn1, v072
	.byte N11, Fs1, v016
	.byte W06
	.byte N05, Cn1, v072
	.byte W06
	.byte Dn1, v052
	.byte N00, Fs1, v016
	.byte W06
	.byte N00
	.byte W06
	.byte N05, Cn1, v072
	.byte N11, Fs1, v016
	.byte W06
	.byte N05, Cn1, v072
	.byte W06
	.byte N00, Fs1, v016
	.byte W06
	.byte N00
	.byte W06
	.byte N05, Cn1, v072
	.byte N11, Fs1, v016
	.byte W06
	.byte N05, Cn1, v072
	.byte W06
	.byte Dn1, v052
	.byte N00, Fs1, v016
	.byte W06
	.byte N00
	.byte W06
	.byte N11
	.byte N03, An1, v060
	.byte W04
	.byte Bn1, v052
	.byte W04
	.byte Gn1
	.byte W04
	.byte N05, Cn1, v072
	.byte N00, Fs1, v016
	.byte W06
	.byte N05, Cn1, v072
	.byte N00, Fs1, v016
	.byte W06
	.byte N05, Cn1, v072
	.byte N11, Fs1, v016
	.byte W06
	.byte N05, Cn1, v072
	.byte W06
	.byte Dn1, v052
	.byte N00, Fs1, v016
	.byte W06
	.byte N00
	.byte W06
	.byte N05, Dn1, v052
	.byte N11, Fs1, v016
	.byte W12
	.byte N05, Dn1, v052
	.byte N00, Fs1, v016
	.byte W06
	.byte N05, Dn1, v052
	.byte N00, Fs1, v016
	.byte W06
	.byte N11
	.byte N05, Cn2, v040
	.byte W06
	.byte N05
	.byte W06
	.byte N00, Fs1, v016
	.byte N03, Bn1, v052
	.byte W04
	.byte N03
	.byte W02
	.byte N00, Fs1, v016
	.byte W02
	.byte N03, An1, v060
	.byte W04
	.byte N11, Fs1, v016
	.byte N03, An1, v060
	.byte W04
	.byte Gn1, v052
	.byte W04
	.byte N03
	.byte W04
	.byte GOTO
	 .4byte song_unk_128_4_019
	.byte FINE
	.align 2, 0
	.global song_unk_128
song_unk_128: @ 0x0834A840 (song header)
	.byte 5, 0, 10, 0 @ trackCount, blockCount, priority, reverb
	.4byte gUnknown_0804CE78 @ voice group
	.4byte song_unk_128_0
	.4byte song_unk_128_1
	.4byte song_unk_128_2
	.4byte song_unk_128_3
	.4byte song_unk_128_4

