	.include "MPlayDef.s"
	.section .rodata
	.align 2, 0
song_unk_717_0: @ 0x08352794
	.byte VOL, 0x6E
	.byte KEYSH, 0x00
song_unk_717_0_002: @ 0x08352798
	.byte TEMPO, 0x40
	.byte VOICE, 0x5D
	.byte N23, Cn1, v127
	.byte W24
	.byte Ds4, v064
	.byte W24
	.byte Cn1, v127
	.byte W24
	.byte Ds4, v064
	.byte W24
song_unk_717_0_000: @ 0x083527A9
	.byte N23, Cn1, v127
	.byte W24
	.byte Ds4, v064
	.byte W24
	.byte Cn1, v127
	.byte W24
	.byte Ds4, v064
	.byte W24
	.byte PEND
	.byte PATT
	 .4byte song_unk_717_0_000
song_unk_717_0_001: @ 0x083527BC
	.byte N23, Cn1, v127
	.byte W24
	.byte Ds4, v064
	.byte W24
	.byte N15, Cn1, v127
	.byte W16
	.byte N07, Cn3, v064
	.byte W08
	.byte N23, Ds4
	.byte W24
	.byte PEND
	.byte PATT
	 .4byte song_unk_717_0_000
	.byte PATT
	 .4byte song_unk_717_0_000
	.byte PATT
	 .4byte song_unk_717_0_000
	.byte PATT
	 .4byte song_unk_717_0_001
	.byte GOTO
	 .4byte song_unk_717_0_002
	.byte FINE
song_unk_717_1: @ 0x083527E9
	.byte VOL, 0x6E
	.byte KEYSH, 0x00
song_unk_717_1_004: @ 0x083527ED
	.byte VOICE, 0x64
	.byte PAN, 0x28
	.byte N01, Cn4, v072
	.byte W16
	.byte N01
	.byte W08
	.byte N01
	.byte W16
	.byte N01
	.byte W08
	.byte N01
	.byte W16
	.byte N01
	.byte W08
	.byte N01
	.byte W16
	.byte N01
	.byte W08
song_unk_717_1_003: @ 0x08352803
	.byte N01, Cn4, v072
	.byte W16
	.byte N01
	.byte W08
	.byte N01
	.byte W16
	.byte N01
	.byte W08
	.byte N01
	.byte W16
	.byte N01
	.byte W08
	.byte N01
	.byte W16
	.byte N01
	.byte W08
	.byte PEND
	.byte PATT
	 .4byte song_unk_717_1_003
	.byte PATT
	 .4byte song_unk_717_1_003
	.byte PATT
	 .4byte song_unk_717_1_003
	.byte PATT
	 .4byte song_unk_717_1_003
	.byte PATT
	 .4byte song_unk_717_1_003
	.byte PATT
	 .4byte song_unk_717_1_003
	.byte GOTO
	 .4byte song_unk_717_1_004
	.byte FINE
song_unk_717_2: @ 0x0835283A
	.byte VOL, 0x6E
	.byte KEYSH, 0x00
song_unk_717_2_007: @ 0x0835283E
	.byte VOICE, 0x7C
	.byte PAN, 0x60
	.byte N05, Dn4, v048
	.byte W40
	.byte As3
	.byte W56
song_unk_717_2_005: @ 0x08352848
	.byte N05, Cn4, v048
	.byte W40
	.byte Gs3
	.byte W56
	.byte PEND
song_unk_717_2_006: @ 0x0835284F
	.byte N05, Dn4, v048
	.byte W40
	.byte As3
	.byte W56
	.byte PEND
	.byte PATT
	 .4byte song_unk_717_2_005
	.byte PATT
	 .4byte song_unk_717_2_006
	.byte PATT
	 .4byte song_unk_717_2_005
	.byte PATT
	 .4byte song_unk_717_2_006
	.byte PATT
	 .4byte song_unk_717_2_005
	.byte GOTO
	 .4byte song_unk_717_2_007
	.byte FINE
song_unk_717_3: @ 0x08352875
	.byte VOL, 0x6E
	.byte KEYSH, 0x00
song_unk_717_3_010: @ 0x08352879
	.byte VOICE, 0x7C
	.byte PAN, 0x60
	.byte N05, As3, v048
	.byte W40
	.byte Gn3
	.byte W56
song_unk_717_3_008: @ 0x08352883
	.byte N05, Gs3, v048
	.byte W40
	.byte Fn3
	.byte W56
	.byte PEND
song_unk_717_3_009: @ 0x0835288A
	.byte N05, As3, v048
	.byte W40
	.byte Gn3
	.byte W56
	.byte PEND
	.byte PATT
	 .4byte song_unk_717_3_008
	.byte PATT
	 .4byte song_unk_717_3_009
	.byte PATT
	 .4byte song_unk_717_3_008
	.byte PATT
	 .4byte song_unk_717_3_009
	.byte PATT
	 .4byte song_unk_717_3_008
	.byte GOTO
	 .4byte song_unk_717_3_010
	.byte FINE
song_unk_717_4: @ 0x083528B0
	.byte VOL, 0x6E
	.byte KEYSH, 0x00
song_unk_717_4_012: @ 0x083528B4
	.byte VOICE, 0x52
	.byte W16
	.byte N05, Ds1, v127
	.byte W08
	.byte As1, v064
	.byte W72
song_unk_717_4_011: @ 0x083528BE
	.byte W16
	.byte N05, Ds1, v127
	.byte W08
	.byte As1, v064
	.byte W72
	.byte PEND
	.byte PATT
	 .4byte song_unk_717_4_011
	.byte PATT
	 .4byte song_unk_717_4_011
	.byte PATT
	 .4byte song_unk_717_4_011
	.byte PATT
	 .4byte song_unk_717_4_011
	.byte PATT
	 .4byte song_unk_717_4_011
	.byte PATT
	 .4byte song_unk_717_4_011
	.byte GOTO
	 .4byte song_unk_717_4_012
	.byte FINE
song_unk_717_5: @ 0x083528EB
	.byte VOL, 0x6E
	.byte KEYSH, 0x00
song_unk_717_5_013: @ 0x083528EF
	.byte VOICE, 0x03
	.byte N23, As4, v048
	.byte W24
	.byte N44, Gs4
	.byte W48
	.byte As3
	.byte W24
	.byte W96
	.byte N23, Gn4
	.byte W24
	.byte N44, Fn4
	.byte W48
	.byte As3
	.byte W24
	.byte W96
	.byte N23, As4
	.byte W24
	.byte N44, Gs4
	.byte W48
	.byte As3
	.byte W24
	.byte W24
	.byte As4
	.byte W48
	.byte Ds4
	.byte W24
	.byte W96
	.byte W96
	.byte GOTO
	 .4byte song_unk_717_5_013
	.byte FINE
song_unk_717_6: @ 0x08352919
	.byte VOL, 0x6E
	.byte KEYSH, 0x00
song_unk_717_6_014: @ 0x0835291D
	.byte VOICE, 0x21
	.byte W16
	.byte N23, Gn4, v048
	.byte W24
	.byte N44, As4
	.byte W48
	.byte N54, Gs4
	.byte W08
	.byte W96
	.byte W16
	.byte N23, Ds4
	.byte W24
	.byte N44, Gn4
	.byte W48
	.byte N54, Fn4
	.byte W08
	.byte W96
	.byte W16
	.byte N23, Gn4
	.byte W24
	.byte N44, As4
	.byte W48
	.byte N54, Cn5
	.byte W08
	.byte W40
	.byte Gs4
	.byte W48
	.byte N44, Gn4
	.byte W08
	.byte W96
	.byte W96
	.byte GOTO
	 .4byte song_unk_717_6_014
	.byte FINE
	.align 2, 0
	.global song_unk_717
song_unk_717: @ 0x08352950 (song header)
	.byte 7, 0, 10, 0 @ trackCount, blockCount, priority, reverb
	.4byte voicegroup000 @ voice group
	.4byte song_unk_717_0
	.4byte song_unk_717_1
	.4byte song_unk_717_2
	.4byte song_unk_717_3
	.4byte song_unk_717_4
	.4byte song_unk_717_5
	.4byte song_unk_717_6
	.size song_unk_717,.-song_unk_717
