	.include "MPlayDef.s"
	.section .rodata
	.align 2, 0
song_unk_129_0: @ 0x0834A85C
	.byte KEYSH, 0x00
song_unk_129_0_000: @ 0x0834A85E
	.byte TEMPO, 0x4B
	.byte VOICE, 0x78
	.byte VOL, 0x5A
	.byte N24, Cn3, v040
	.byte N24, Ds3, v052
	.byte W24
	.byte N12, Cs3, v040
	.byte N12, Fn3, v052
	.byte W12
	.byte N30, Fn2, v040
	.byte N30, Gs2, v052
	.byte W36
	.byte N12, Fn2, v040
	.byte N12, Gs2, v052
	.byte W12
	.byte Gs2, v040
	.byte N12, Cs3, v052
	.byte W12
	.byte N24, Fn3, v032
	.byte N24, Gs3, v040
	.byte W24
	.byte Ds3, v032
	.byte N24, Fs3, v040
	.byte W24
	.byte Cs3, v032
	.byte N24, Fn3, v040
	.byte W24
	.byte Gs2
	.byte N24, Cs3, v052
	.byte W24
	.byte Cn3, v040
	.byte N24, Ds3, v052
	.byte W24
	.byte N12, Cs3, v040
	.byte N12, Fn3, v052
	.byte W12
	.byte N30, Fn2, v040
	.byte N30, Gs2, v052
	.byte W36
	.byte N12, Fn2, v040
	.byte N12, Gs2, v052
	.byte W12
	.byte N12
	.byte N12, Cs3, v040
	.byte W12
	.byte N24, Ds3, v032
	.byte N24, Fs3, v040
	.byte W24
	.byte Cs3, v032
	.byte N24, Fn3, v040
	.byte W24
	.byte Gs2
	.byte N24, Cs3, v052
	.byte W24
	.byte Fs2, v040
	.byte N24, As2, v052
	.byte W24
	.byte Cn3, v040
	.byte N24, Ds3, v052
	.byte W24
	.byte N12, Cs3, v040
	.byte N12, Fn3, v052
	.byte W12
	.byte N30, Fn2, v040
	.byte N30, Gs2, v052
	.byte W36
	.byte N12, Fn2, v040
	.byte N12, Gs2, v052
	.byte W12
	.byte Gs2, v040
	.byte N12, Cs3, v052
	.byte W12
	.byte N24, Fn3, v032
	.byte N24, Gs3, v040
	.byte W24
	.byte Ds3, v032
	.byte N24, Fs3, v040
	.byte W24
	.byte N12, Cs3, v032
	.byte N12, Fn3, v040
	.byte W12
	.byte Ds3, v032
	.byte N12, Fs3, v040
	.byte W12
	.byte Fn3, v032
	.byte N12, Gs3, v040
	.byte W12
	.byte N60, Fs3, v032
	.byte TIE, As3, v040
	.byte W12
	.byte W48
	.byte N12, Gs3, v032
	.byte W12
	.byte Fs3
	.byte W12
	.byte Fn3
	.byte W12
	.byte Cs3
	.byte W12
	.byte EOT, As3
	.byte N12, Ds3
	.byte N12, Fs3, v040
	.byte W12
	.byte Fn3, v032
	.byte N12, Gs3, v040
	.byte W12
	.byte Ds3, v032
	.byte N12, Fs3, v040
	.byte W12
	.byte N24, As2
	.byte N24, Cs3, v052
	.byte W24
	.byte N36, Fs2, v040
	.byte N36, As2, v052
	.byte W36
	.byte GOTO
	 .4byte song_unk_129_0_000
	.byte FINE
song_unk_129_1: @ 0x0834A950
	.byte KEYSH, 0x00
song_unk_129_1_002: @ 0x0834A952
	.byte VOICE, 0x58
	.byte VOL, 0x5A
	.byte N12, Cs3, v060
	.byte W12
	.byte N12
	.byte W12
	.byte Gs3
	.byte W12
	.byte Cs4
	.byte W24
	.byte Cs3
	.byte W12
	.byte Ds3
	.byte W12
	.byte En3
	.byte W12
song_unk_129_1_001: @ 0x0834A966
	.byte N12, Fn3, v060
	.byte W12
	.byte N12
	.byte W12
	.byte Cn4
	.byte W12
	.byte Fn4, v052
	.byte W24
	.byte Fn3, v060
	.byte W12
	.byte Ds3
	.byte W12
	.byte Fn3
	.byte W12
	.byte PEND
	.byte Fs3
	.byte W12
	.byte N12
	.byte W12
	.byte Cs4
	.byte W12
	.byte Fs4, v052
	.byte W24
	.byte Fs3, v060
	.byte W12
	.byte Fn3
	.byte W12
	.byte Fs3
	.byte W12
	.byte Bn2
	.byte W12
	.byte N12
	.byte W12
	.byte Fs3
	.byte W12
	.byte Bn3
	.byte W24
	.byte Bn2
	.byte W12
	.byte As2
	.byte W12
	.byte Bn2
	.byte W12
	.byte Cs3
	.byte W12
	.byte N12
	.byte W12
	.byte Gs3
	.byte W12
	.byte Cs4
	.byte W24
	.byte Cs3
	.byte W12
	.byte Ds3
	.byte W12
	.byte En3
	.byte W12
	.byte PATT
	 .4byte song_unk_129_1_001
	.byte N12, Fs3, v060
	.byte W12
	.byte N12
	.byte W12
	.byte Cs4
	.byte W12
	.byte Fs4, v052
	.byte W24
	.byte Fn3, v060
	.byte W12
	.byte Cn4
	.byte W12
	.byte Fn4, v052
	.byte W12
	.byte Ds3, v060
	.byte W12
	.byte Fn3
	.byte W12
	.byte Fs3
	.byte W12
	.byte Gs3
	.byte W24
	.byte Gs4, v040
	.byte W12
	.byte Fs3, v060
	.byte W12
	.byte Gs3
	.byte W12
	.byte GOTO
	 .4byte song_unk_129_1_002
	.byte FINE
song_unk_129_2: @ 0x0834A9D4
	.byte KEYSH, 0x00
song_unk_129_2_004: @ 0x0834A9D6
	.byte VOICE, 0x5D
	.byte VOL, 0x5A
	.byte N06, Cn1, v072
	.byte N01, Fs1, v016
	.byte W12
	.byte N01
	.byte W12
	.byte N06, Dn1, v052
	.byte N01, Fs1, v016
	.byte W12
	.byte N01
	.byte W12
	.byte N06, Cn1, v072
	.byte N01, Fs1, v016
	.byte W12
	.byte N01
	.byte W12
	.byte N06, Dn1, v052
	.byte N01, Fs1, v016
	.byte W12
	.byte N12
	.byte W12
song_unk_129_2_003: @ 0x0834A9FE
	.byte N06, Cn1, v072
	.byte N01, Fs1, v016
	.byte W12
	.byte N01
	.byte W12
	.byte N06, Dn1, v052
	.byte N01, Fs1, v016
	.byte W12
	.byte N01
	.byte W12
	.byte N06, Cn1, v072
	.byte N01, Fs1, v016
	.byte W12
	.byte N01
	.byte W12
	.byte N06, Dn1, v052
	.byte N01, Fs1, v016
	.byte W12
	.byte N12
	.byte W12
	.byte PEND
	.byte PATT
	 .4byte song_unk_129_2_003
	.byte N06, Cn1, v072
	.byte N01, Fs1, v016
	.byte W12
	.byte N01
	.byte W12
	.byte N06, Dn1, v052
	.byte N01, Fs1, v016
	.byte W12
	.byte N01
	.byte W12
	.byte N06, Cn1, v072
	.byte N01, Fs1, v016
	.byte W12
	.byte N06, Cn1, v072
	.byte N01, Fs1, v016
	.byte W12
	.byte N06, Dn1, v052
	.byte N01, Fs1, v016
	.byte W12
	.byte N12
	.byte W12
	.byte PATT
	 .4byte song_unk_129_2_003
	.byte PATT
	 .4byte song_unk_129_2_003
	.byte PATT
	 .4byte song_unk_129_2_003
	.byte N06, Cn1, v072
	.byte N01, Fs1, v016
	.byte W12
	.byte N01
	.byte W12
	.byte N06, Dn1, v052
	.byte N01, Fs1, v016
	.byte W12
	.byte N01
	.byte W12
	.byte N06, Cn1, v072
	.byte N01, Fs1, v016
	.byte W12
	.byte N06, Cn1, v072
	.byte N01, Fs1, v016
	.byte W12
	.byte N06, Dn1, v052
	.byte N01, Fs1, v016
	.byte W12
	.byte N06, Dn1, v052
	.byte N12, Fs1, v016
	.byte W12
	.byte GOTO
	 .4byte song_unk_129_2_004
	.byte FINE
song_unk_129_3: @ 0x0834AA94
	.byte KEYSH, 0x00
song_unk_129_3_008: @ 0x0834AA96
	.byte VOICE, 0x1F
	.byte VOL, 0x59
	.byte PAN, 0x7F
	.byte W12
	.byte N06, Fn3, v060
	.byte W24
	.byte N06
	.byte W24
	.byte N06
	.byte W24
	.byte N06
	.byte W12
song_unk_129_3_006: @ 0x0834AAA7
	.byte W12
	.byte N06, Ds3, v060
	.byte W24
	.byte N06
	.byte W24
	.byte Gs3
	.byte W24
	.byte N06
	.byte W12
	.byte PEND
song_unk_129_3_005: @ 0x0834AAB3
	.byte W12
	.byte N06, Fn3, v060
	.byte W24
	.byte N06
	.byte W24
	.byte N06
	.byte W24
	.byte N06
	.byte W12
	.byte PEND
song_unk_129_3_007: @ 0x0834AABF
	.byte W12
	.byte N06, Ds3, v060
	.byte W24
	.byte N06
	.byte W24
	.byte Fs3
	.byte W24
	.byte N06
	.byte W12
	.byte PEND
	.byte PATT
	 .4byte song_unk_129_3_005
	.byte PATT
	 .4byte song_unk_129_3_006
	.byte PATT
	 .4byte song_unk_129_3_005
	.byte PATT
	 .4byte song_unk_129_3_007
	.byte GOTO
	 .4byte song_unk_129_3_008
	.byte FINE
song_unk_129_4: @ 0x0834AAE5
	.byte KEYSH, 0x00
song_unk_129_4_012: @ 0x0834AAE7
	.byte VOICE, 0x02
	.byte VOL, 0x59
	.byte PAN, 0x00
	.byte W12
	.byte N06, Cs3, v060
	.byte W24
	.byte N06
	.byte W24
	.byte N06
	.byte W24
	.byte N06
	.byte W12
song_unk_129_4_010: @ 0x0834AAF8
	.byte W12
	.byte N06, Cn3, v060
	.byte W24
	.byte N06
	.byte W24
	.byte Ds3
	.byte W24
	.byte N06
	.byte W12
	.byte PEND
song_unk_129_4_009: @ 0x0834AB04
	.byte W12
	.byte N06, Cs3, v060
	.byte W24
	.byte N06
	.byte W24
	.byte N06
	.byte W24
	.byte N06
	.byte W12
	.byte PEND
song_unk_129_4_011: @ 0x0834AB10
	.byte W12
	.byte N06, As2, v060
	.byte W24
	.byte N06
	.byte W24
	.byte Ds3
	.byte W24
	.byte N06
	.byte W12
	.byte PEND
	.byte PATT
	 .4byte song_unk_129_4_009
	.byte PATT
	 .4byte song_unk_129_4_010
	.byte W12
	.byte N06, Cs3, v060
	.byte W24
	.byte N06
	.byte W24
	.byte Cn3
	.byte W24
	.byte N06
	.byte W12
	.byte PATT
	 .4byte song_unk_129_4_011
	.byte GOTO
	 .4byte song_unk_129_4_012
	.byte FINE
	.align 2, 0
	.global song_unk_129
song_unk_129: @ 0x0834AB3C (song header)
	.byte 5, 0, 10, 0 @ trackCount, blockCount, priority, reverb
	.4byte voicegroup000 @ voice group
	.4byte song_unk_129_0
	.4byte song_unk_129_1
	.4byte song_unk_129_2
	.4byte song_unk_129_3
	.4byte song_unk_129_4
	.size song_unk_129,.-song_unk_129
