	.include "MPlayDef.s"
	.section .rodata
	.align 2, 0
song_unk_743_0: @ 0x083AA0CC
	.byte VOL, 0x78
	.byte KEYSH, 0x00
song_unk_743_0_001: @ 0x083AA0D0
	.byte TEMPO, 0x39
	.byte VOICE, 0x5D
	.byte BEND, 0x40
	.byte N23, Ds4, v024
	.byte W24
	.byte N00, Ds1, v048
	.byte W48
	.byte Bn5
	.byte W12
	.byte N00
	.byte W12
song_unk_743_0_000: @ 0x083AA0E2
	.byte N23, Ds4, v024
	.byte W24
	.byte N00, Ds1, v048
	.byte W48
	.byte Bn5
	.byte W12
	.byte N00
	.byte W12
	.byte PEND
	.byte PATT
	 .4byte song_unk_743_0_000
	.byte PATT
	 .4byte song_unk_743_0_000
	.byte PATT
	 .4byte song_unk_743_0_000
	.byte PATT
	 .4byte song_unk_743_0_000
	.byte PATT
	 .4byte song_unk_743_0_000
	.byte PATT
	 .4byte song_unk_743_0_000
	.byte GOTO
	 .4byte song_unk_743_0_001
	.byte FINE
song_unk_743_1: @ 0x083AA113
	.byte VOL, 0x78
	.byte KEYSH, 0x00
song_unk_743_1_005: @ 0x083AA117
	.byte VOICE, 0x64
	.byte PAN, 0x7F
	.byte N00, Cn4, v127
	.byte W12
	.byte PAN, 0x00
	.byte N00, An3
	.byte W04
	.byte N00
	.byte W04
	.byte N00
	.byte W04
	.byte PAN, 0x7F
	.byte N00, Cn4, v064
	.byte W12
	.byte PAN, 0x00
	.byte N00, An3, v127
	.byte W12
	.byte PAN, 0x7F
	.byte N00, Cn4
	.byte W12
	.byte PAN, 0x00
	.byte N00, An3
	.byte W12
	.byte PAN, 0x7F
	.byte N00, Cn4, v064
	.byte W12
	.byte PAN, 0x00
	.byte N00, An3, v127
	.byte W12
song_unk_743_1_003: @ 0x083AA14A
	.byte PAN, 0x7F
	.byte N00, Cn4, v127
	.byte W12
	.byte PAN, 0x00
	.byte N00, An3
	.byte W12
	.byte PAN, 0x7F
	.byte N00, Cn4, v064
	.byte W12
	.byte PAN, 0x00
	.byte N00, An3, v127
	.byte W12
	.byte PAN, 0x7F
	.byte N00, Cn4
	.byte W12
	.byte PAN, 0x00
	.byte N00, An3
	.byte W12
	.byte PAN, 0x7F
	.byte N00, Cn4, v064
	.byte W12
	.byte PAN, 0x00
	.byte N00, An3, v127
	.byte W12
	.byte PEND
song_unk_743_1_002: @ 0x083AA178
	.byte PAN, 0x7F
	.byte N00, Cn4, v127
	.byte W12
	.byte PAN, 0x00
	.byte N00, An3
	.byte W04
	.byte N00
	.byte W04
	.byte N00
	.byte W04
	.byte PAN, 0x7F
	.byte N00, Cn4, v064
	.byte W12
	.byte PAN, 0x00
	.byte N00, An3, v127
	.byte W12
	.byte PAN, 0x7F
	.byte N00, Cn4
	.byte W12
	.byte PAN, 0x00
	.byte N00, An3
	.byte W12
	.byte PAN, 0x7F
	.byte N00, Cn4, v064
	.byte W12
	.byte PAN, 0x00
	.byte N00, An3, v127
	.byte W12
	.byte PEND
song_unk_743_1_004: @ 0x083AA1AA
	.byte PAN, 0x7F
	.byte N00, Cn4, v127
	.byte W24
	.byte Cn4, v064
	.byte W24
	.byte Cn4, v127
	.byte W24
	.byte N11, Cn4, v064
	.byte W24
	.byte PEND
	.byte PATT
	 .4byte song_unk_743_1_002
	.byte PATT
	 .4byte song_unk_743_1_003
	.byte PATT
	 .4byte song_unk_743_1_002
	.byte PATT
	 .4byte song_unk_743_1_004
	.byte GOTO
	 .4byte song_unk_743_1_005
	.byte FINE
song_unk_743_2: @ 0x083AA1D5
	.byte VOL, 0x78
	.byte KEYSH, 0x00
song_unk_743_2_008: @ 0x083AA1D9
	.byte VOICE, 0x4D
	.byte N05, Fn1, v127
	.byte W36
	.byte Cn2
	.byte W12
	.byte An2
	.byte W48
song_unk_743_2_006: @ 0x083AA1E3
	.byte N05, Fn1, v127
	.byte W36
	.byte Cn2
	.byte W12
	.byte Gn2
	.byte W48
	.byte PEND
song_unk_743_2_007: @ 0x083AA1EC
	.byte N05, Fn1, v127
	.byte W36
	.byte Cn2
	.byte W12
	.byte An2
	.byte W48
	.byte PEND
	.byte PATT
	 .4byte song_unk_743_2_006
	.byte PATT
	 .4byte song_unk_743_2_007
	.byte PATT
	 .4byte song_unk_743_2_006
	.byte PATT
	 .4byte song_unk_743_2_007
	.byte PATT
	 .4byte song_unk_743_2_006
	.byte GOTO
	 .4byte song_unk_743_2_008
	.byte FINE
song_unk_743_3: @ 0x083AA214
	.byte VOL, 0x78
	.byte KEYSH, 0x00
song_unk_743_3_009: @ 0x083AA218
	.byte VOICE, 0x03
	.byte N44, An3, v064
	.byte W96
	.byte W24
	.byte N23, Cn4
	.byte W24
	.byte N30, As3
	.byte W32
	.byte N36, Cn4
	.byte W16
	.byte W96
	.byte W80
	.byte N15, As3
	.byte W16
	.byte N44, Gn3
	.byte W96
	.byte W80
	.byte N15, En3
	.byte W16
	.byte N44, Cn3
	.byte W96
	.byte W96
	.byte GOTO
	 .4byte song_unk_743_3_009
	.byte FINE
song_unk_743_4: @ 0x083AA23E
	.byte VOL, 0x78
	.byte KEYSH, 0x00
song_unk_743_4_010: @ 0x083AA242
	.byte VOICE, 0x21
	.byte N44, Fn3, v064
	.byte W96
	.byte W12
	.byte N23, En4
	.byte W24
	.byte N24, An3
	.byte W28
	.byte N15, Dn4
	.byte W16
	.byte N36, An3
	.byte W16
	.byte W96
	.byte W88
	.byte N07
	.byte W08
	.byte N44, En3
	.byte W96
	.byte W88
	.byte N07, Fn3
	.byte W08
	.byte N44, An2
	.byte W96
	.byte W96
	.byte GOTO
	 .4byte song_unk_743_4_010
	.byte FINE
	.align 2, 0
	.global song_unk_743
song_unk_743: @ 0x083AA26C (song header)
	.byte 5, 0, 10, 0 @ trackCount, blockCount, priority, reverb
	.4byte gUnknown_0804CE78 @ voice group
	.4byte song_unk_743_0
	.4byte song_unk_743_1
	.4byte song_unk_743_2
	.4byte song_unk_743_3
	.4byte song_unk_743_4

