	.include "MPlayDef.s"
	.section .rodata
	.align 2, 0
song_unk_12_0: @ 0x08346850
	.byte KEYSH, 0x00
	.byte TEMPO, 0x46
	.byte VOICE, 0x7A
	.byte VOL, 0x50
	.byte W06
	.byte N12, Gn3, v072
	.byte W18
	.byte N12
	.byte W18
	.byte Fn3
	.byte W18
	.byte N12
	.byte W24
	.byte N12
	.byte W12
song_unk_12_0_000: @ 0x08346865
	.byte W06
	.byte N12, Gs3, v072
	.byte W18
	.byte N12
	.byte W18
	.byte Ds3
	.byte W18
	.byte N12
	.byte W24
	.byte N12
	.byte W12
	.byte PEND
song_unk_12_0_001: @ 0x08346873
	.byte W06
	.byte N12, Gn3, v072
	.byte W18
	.byte N12
	.byte W18
	.byte Fn3
	.byte W18
	.byte N12
	.byte W24
	.byte N12
	.byte W12
	.byte PEND
	.byte PATT
	 .4byte song_unk_12_0_000
	.byte PATT
	 .4byte song_unk_12_0_001
	.byte PATT
	 .4byte song_unk_12_0_000
	.byte PATT
	 .4byte song_unk_12_0_001
	.byte PATT
	 .4byte song_unk_12_0_000
song_unk_12_0_002: @ 0x0834689A
	.byte PATT
	 .4byte song_unk_12_0_001
	.byte PATT
	 .4byte song_unk_12_0_000
	.byte PATT
	 .4byte song_unk_12_0_001
	.byte PATT
	 .4byte song_unk_12_0_000
	.byte PATT
	 .4byte song_unk_12_0_001
	.byte PATT
	 .4byte song_unk_12_0_000
	.byte PATT
	 .4byte song_unk_12_0_001
	.byte PATT
	 .4byte song_unk_12_0_000
	.byte PATT
	 .4byte song_unk_12_0_001
	.byte PATT
	 .4byte song_unk_12_0_000
	.byte PATT
	 .4byte song_unk_12_0_001
	.byte PATT
	 .4byte song_unk_12_0_000
	.byte PATT
	 .4byte song_unk_12_0_001
	.byte PATT
	 .4byte song_unk_12_0_000
	.byte PATT
	 .4byte song_unk_12_0_001
	.byte PATT
	 .4byte song_unk_12_0_000
	.byte W96
	.byte W96
	.byte W96
	.byte W96
	.byte W96
	.byte W96
	.byte W96
	.byte W96
	.byte W96
	.byte W96
	.byte W96
	.byte W96
	.byte W96
	.byte W96
	.byte W96
	.byte W96
	.byte PATT
	 .4byte song_unk_12_0_001
	.byte PATT
	 .4byte song_unk_12_0_000
	.byte PATT
	 .4byte song_unk_12_0_001
	.byte PATT
	 .4byte song_unk_12_0_000
	.byte GOTO
	 .4byte song_unk_12_0_002
	.byte FINE
song_unk_12_1: @ 0x08346914
	.byte KEYSH, 0x00
	.byte W96
	.byte W96
	.byte W96
	.byte W96
	.byte W96
	.byte W96
	.byte W96
	.byte W96
song_unk_12_1_005: @ 0x0834691E
	.byte W96
	.byte W96
	.byte W96
	.byte W96
	.byte W96
	.byte W96
	.byte W96
	.byte W96
	.byte W96
	.byte W96
	.byte W96
	.byte W96
	.byte W96
	.byte W96
	.byte W96
	.byte W96
	.byte VOICE, 0x78
	.byte VOL, 0x50
	.byte TIE, An2, v052
	.byte TIE, Dn3
	.byte W96
	.byte W96
	.byte EOT, An2
	.byte Dn3
song_unk_12_1_003: @ 0x0834693C
	.byte TIE, Cn3, v052
	.byte TIE, Fn3
	.byte W96
	.byte PEND
	.byte W48
	.byte EOT, Cn3
	.byte Fn3
	.byte N48, As2
	.byte N48, Ds3
	.byte W48
song_unk_12_1_004: @ 0x0834694C
	.byte TIE, An2, v052
	.byte TIE, Dn3
	.byte W96
	.byte PEND
	.byte W96
	.byte EOT, An2
	.byte Dn3
	.byte PATT
	 .4byte song_unk_12_1_003
	.byte W48
	.byte EOT, Cn3
	.byte Fn3
	.byte N48, As2, v052
	.byte N48, Ds3
	.byte W48
	.byte PATT
	 .4byte song_unk_12_1_004
	.byte W96
	.byte EOT, An2
	.byte Dn3
	.byte PATT
	 .4byte song_unk_12_1_003
	.byte W48
	.byte EOT, Cn3
	.byte Fn3
	.byte N48, As2, v052
	.byte N48, Ds3
	.byte W48
	.byte PATT
	 .4byte song_unk_12_1_004
	.byte W96
	.byte EOT, An2
	.byte Dn3
	.byte N96, Cn3, v052
	.byte N96, Fn3
	.byte W96
	.byte Dn3
	.byte N96, Gn3
	.byte W96
	.byte W96
	.byte W96
	.byte W96
	.byte W96
	.byte GOTO
	 .4byte song_unk_12_1_005
	.byte FINE
song_unk_12_2: @ 0x0834699B
	.byte KEYSH, 0x00
	.byte W96
	.byte W96
	.byte W96
	.byte W96
	.byte W96
	.byte W96
	.byte W96
	.byte W96
song_unk_12_2_007: @ 0x083469A5
	.byte VOICE, 0x57
	.byte VOL, 0x50
	.byte N06, Gn3, v076
	.byte W06
	.byte N06
	.byte W06
	.byte N06
	.byte W06
	.byte N06
	.byte W06
	.byte An3
	.byte W06
	.byte N06
	.byte W66
	.byte W96
song_unk_12_2_006: @ 0x083469B8
	.byte N06, Gn3, v076
	.byte W06
	.byte N06
	.byte W06
	.byte N06
	.byte W06
	.byte N06
	.byte W06
	.byte An3
	.byte W06
	.byte N06
	.byte W66
	.byte PEND
	.byte W96
	.byte PATT
	 .4byte song_unk_12_2_006
	.byte W96
	.byte PATT
	 .4byte song_unk_12_2_006
	.byte W96
	.byte PATT
	 .4byte song_unk_12_2_006
	.byte W96
	.byte PATT
	 .4byte song_unk_12_2_006
	.byte W96
	.byte PATT
	 .4byte song_unk_12_2_006
	.byte W96
	.byte PATT
	 .4byte song_unk_12_2_006
	.byte W96
	.byte TIE, As3, v052
	.byte W96
	.byte W96
	.byte EOT
	.byte TIE, Cs4
	.byte W96
	.byte W48
	.byte EOT
	.byte N48, Bn3
	.byte W48
	.byte TIE, As3
	.byte W96
	.byte W96
	.byte EOT
	.byte TIE, Cs4
	.byte W96
	.byte W48
	.byte EOT
	.byte N48, Bn3
	.byte W48
	.byte TIE, As3
	.byte W96
	.byte W96
	.byte EOT
	.byte TIE, Cs4
	.byte W96
	.byte W48
	.byte EOT
	.byte N48, Bn3
	.byte W48
	.byte TIE, As3
	.byte W96
	.byte W96
	.byte EOT
	.byte N96, Cs4
	.byte W96
	.byte Ds4
	.byte W96
	.byte W96
	.byte W96
	.byte W96
	.byte W96
	.byte GOTO
	 .4byte song_unk_12_2_007
	.byte FINE
song_unk_12_3: @ 0x08346A28
	.byte KEYSH, 0x00
	.byte VOICE, 0x5D
	.byte VOL, 0x50
	.byte W96
	.byte W96
	.byte W96
	.byte W96
song_unk_12_3_008: @ 0x08346A32
	.byte N01, Fs1, v016
	.byte W06
	.byte N01
	.byte W06
	.byte N12
	.byte W12
	.byte N01
	.byte W06
	.byte N01
	.byte W06
	.byte N12
	.byte W12
	.byte N01
	.byte W06
	.byte N01
	.byte W06
	.byte N12
	.byte W12
	.byte N01
	.byte W06
	.byte N01
	.byte W06
	.byte N12
	.byte W12
	.byte PEND
	.byte PATT
	 .4byte song_unk_12_3_008
	.byte PATT
	 .4byte song_unk_12_3_008
	.byte PATT
	 .4byte song_unk_12_3_008
song_unk_12_3_009: @ 0x08346A5C
	.byte N06, Cn1, v080
	.byte N01, Fs1, v016
	.byte W06
	.byte N01
	.byte W06
	.byte N12
	.byte W12
	.byte N01
	.byte W06
	.byte N01
	.byte W06
	.byte N06, Cn1, v080
	.byte N12, Fs1, v016
	.byte W12
	.byte N01
	.byte W06
	.byte N01
	.byte W06
	.byte N06, Cn1, v080
	.byte N12, Fs1, v016
	.byte W12
	.byte N01
	.byte W06
	.byte N06, Cn1, v080
	.byte N01, Fs1, v016
	.byte W06
	.byte N06, Cn1, v080
	.byte N12, Fs1, v016
	.byte W12
	.byte PEND
song_unk_12_3_010: @ 0x08346A8E
	.byte N06, Cn1, v080
	.byte N01, Fs1, v016
	.byte W06
	.byte N01
	.byte W06
	.byte N12
	.byte W12
	.byte N01
	.byte W06
	.byte N01
	.byte W06
	.byte N06, Cn1, v080
	.byte N12, Fs1, v016
	.byte W12
	.byte N01
	.byte W06
	.byte N01
	.byte W06
	.byte N06, Cn1, v080
	.byte N12, Fs1, v016
	.byte W12
	.byte N01
	.byte W06
	.byte N01
	.byte W06
	.byte N12
	.byte W12
	.byte PEND
	.byte PATT
	 .4byte song_unk_12_3_009
	.byte PATT
	 .4byte song_unk_12_3_010
	.byte PATT
	 .4byte song_unk_12_3_009
	.byte PATT
	 .4byte song_unk_12_3_010
	.byte PATT
	 .4byte song_unk_12_3_009
	.byte PATT
	 .4byte song_unk_12_3_010
	.byte PATT
	 .4byte song_unk_12_3_009
	.byte PATT
	 .4byte song_unk_12_3_010
	.byte PATT
	 .4byte song_unk_12_3_009
	.byte PATT
	 .4byte song_unk_12_3_010
	.byte PATT
	 .4byte song_unk_12_3_009
	.byte PATT
	 .4byte song_unk_12_3_010
	.byte PATT
	 .4byte song_unk_12_3_009
	.byte PATT
	 .4byte song_unk_12_3_010
	.byte PATT
	 .4byte song_unk_12_3_008
	.byte PATT
	 .4byte song_unk_12_3_008
	.byte PATT
	 .4byte song_unk_12_3_008
	.byte PATT
	 .4byte song_unk_12_3_008
	.byte PATT
	 .4byte song_unk_12_3_008
	.byte PATT
	 .4byte song_unk_12_3_008
	.byte PATT
	 .4byte song_unk_12_3_008
	.byte PATT
	 .4byte song_unk_12_3_008
song_unk_12_3_011: @ 0x08346B24
	.byte N06, Cn1, v080
	.byte N01, Fs1, v016
	.byte W06
	.byte N01
	.byte W06
	.byte N12
	.byte W12
	.byte N06, Cn1, v080
	.byte N01, Fs1, v016
	.byte W06
	.byte N01
	.byte W06
	.byte N12
	.byte W12
	.byte N06, Cn1, v080
	.byte N01, Fs1, v016
	.byte W06
	.byte N01
	.byte W06
	.byte N12
	.byte W12
	.byte N06, Cn1, v080
	.byte N01, Fs1, v016
	.byte W06
	.byte N01
	.byte W06
	.byte N12
	.byte W12
	.byte PEND
	.byte PATT
	 .4byte song_unk_12_3_011
	.byte PATT
	 .4byte song_unk_12_3_011
	.byte PATT
	 .4byte song_unk_12_3_011
	.byte PATT
	 .4byte song_unk_12_3_011
	.byte PATT
	 .4byte song_unk_12_3_011
	.byte PATT
	 .4byte song_unk_12_3_011
	.byte PATT
	 .4byte song_unk_12_3_011
	.byte W96
	.byte W96
	.byte PATT
	 .4byte song_unk_12_3_008
	.byte PATT
	 .4byte song_unk_12_3_008
	.byte GOTO
	 .4byte song_unk_12_3_009
	.byte FINE
song_unk_12_4: @ 0x08346B86
	.byte KEYSH, 0x00
	.byte VOICE, 0x5E
	.byte VOL, 0x50
	.byte W96
	.byte W96
	.byte W96
	.byte W96
	.byte W96
	.byte W96
	.byte W96
song_unk_12_4_018: @ 0x08346B93
	.byte N06, Cn3, v028
	.byte W06
	.byte N06
	.byte W06
	.byte Cn3, v032
	.byte W06
	.byte N06
	.byte W06
	.byte Cn3, v036
	.byte W06
	.byte N06
	.byte W06
	.byte Cn3, v040
	.byte W06
	.byte N06
	.byte W06
	.byte Cn3, v048
	.byte W06
	.byte N06
	.byte W06
	.byte Cn3, v052
	.byte W06
	.byte N06
	.byte W06
	.byte N04, Cn3, v056
	.byte W04
	.byte N04
	.byte W04
	.byte N04
	.byte W04
	.byte N04
	.byte W04
	.byte N04
	.byte W04
	.byte N04
	.byte W04
	.byte PEND
song_unk_12_4_012: @ 0x08346BC1
	.byte W24
	.byte N06, Cn3, v056
	.byte W48
	.byte N06
	.byte W24
	.byte PEND
song_unk_12_4_013: @ 0x08346BC9
	.byte W24
	.byte N06, Cn3, v056
	.byte W30
	.byte N06
	.byte W18
	.byte N06
	.byte W24
	.byte PEND
	.byte PATT
	 .4byte song_unk_12_4_012
	.byte W24
	.byte N06, Cn3, v056
	.byte W30
	.byte N06
	.byte W18
	.byte N06
	.byte W18
	.byte N06
	.byte W06
	.byte PATT
	 .4byte song_unk_12_4_012
	.byte PATT
	 .4byte song_unk_12_4_013
	.byte PATT
	 .4byte song_unk_12_4_012
	.byte W06
	.byte N06, Cn3, v056
	.byte W18
	.byte N06
	.byte W30
	.byte N06
	.byte W18
	.byte N06
	.byte W12
	.byte N06
	.byte W12
song_unk_12_4_014: @ 0x08346BFF
	.byte W06
	.byte N03, Cn4, v036
	.byte W06
	.byte N03
	.byte W12
	.byte N06, Cn3, v056
	.byte W06
	.byte N03, Cn4, v036
	.byte W12
	.byte N03
	.byte W12
	.byte N03
	.byte W06
	.byte N03
	.byte W12
	.byte N06, Cn3, v056
	.byte W12
	.byte N03, Cn4, v036
	.byte W06
	.byte N03
	.byte W06
	.byte PEND
song_unk_12_4_015: @ 0x08346C1F
	.byte W06
	.byte N03, Cn4, v036
	.byte W06
	.byte N03
	.byte W12
	.byte N06, Cn3, v056
	.byte W06
	.byte N03, Cn4, v036
	.byte W12
	.byte N03
	.byte W12
	.byte N06, Cn3, v056
	.byte W06
	.byte N03, Cn4, v036
	.byte W06
	.byte N03
	.byte W06
	.byte N06, Cn3, v056
	.byte W06
	.byte N03, Cn4, v036
	.byte W12
	.byte N03
	.byte W06
	.byte PEND
	.byte PATT
	 .4byte song_unk_12_4_014
	.byte W06
	.byte N03, Cn4, v036
	.byte W06
	.byte N03
	.byte W12
	.byte N06, Cn3, v056
	.byte W06
	.byte N03, Cn4, v036
	.byte W12
	.byte N03
	.byte W12
	.byte N06, Cn3, v056
	.byte W06
	.byte N03, Cn4, v036
	.byte W06
	.byte N03
	.byte W06
	.byte N06, Cn3, v056
	.byte W06
	.byte N03, Cn4, v036
	.byte W06
	.byte N03
	.byte W06
	.byte N06, Cn3, v056
	.byte W06
	.byte PATT
	 .4byte song_unk_12_4_014
	.byte PATT
	 .4byte song_unk_12_4_015
	.byte PATT
	 .4byte song_unk_12_4_014
	.byte W06
	.byte N06, Cn3, v056
	.byte N03, Cn4, v036
	.byte W06
	.byte N03
	.byte W12
	.byte N06, Cn3, v056
	.byte W06
	.byte N03, Cn4, v036
	.byte W12
	.byte N03
	.byte W12
	.byte N06, Cn3, v056
	.byte W06
	.byte N03, Cn4, v036
	.byte W06
	.byte N03
	.byte W06
	.byte N06, Cn3, v056
	.byte W06
	.byte N06
	.byte W06
	.byte N03, Cn4, v036
	.byte W06
	.byte N06, Cn3, v056
	.byte W06
	.byte W96
	.byte W96
	.byte W96
	.byte W96
	.byte W96
	.byte W96
	.byte W96
	.byte W96
song_unk_12_4_016: @ 0x08346CB6
	.byte W06
	.byte N03, Cn4, v036
	.byte W06
	.byte N03
	.byte W18
	.byte N03
	.byte W12
	.byte N03
	.byte W12
	.byte N03
	.byte W06
	.byte N03
	.byte W24
	.byte N03
	.byte W06
	.byte N03
	.byte W06
	.byte PEND
song_unk_12_4_017: @ 0x08346CCA
	.byte W06
	.byte N03, Cn4, v036
	.byte W06
	.byte N03
	.byte W18
	.byte N03
	.byte W12
	.byte N03
	.byte W18
	.byte N03
	.byte W06
	.byte N03
	.byte W12
	.byte N03
	.byte W12
	.byte N03
	.byte W06
	.byte PEND
	.byte PATT
	 .4byte song_unk_12_4_016
	.byte W06
	.byte N03, Cn4, v036
	.byte W06
	.byte N03
	.byte W18
	.byte N03
	.byte W12
	.byte N03
	.byte W18
	.byte N03
	.byte W06
	.byte N03
	.byte W12
	.byte N03
	.byte W06
	.byte N03
	.byte W12
	.byte PATT
	 .4byte song_unk_12_4_016
	.byte PATT
	 .4byte song_unk_12_4_017
	.byte PATT
	 .4byte song_unk_12_4_016
	.byte N06, Cn3, v028
	.byte W06
	.byte N06
	.byte N03, Cn4, v036
	.byte W06
	.byte N06, Cn3, v032
	.byte N03, Cn4, v036
	.byte W06
	.byte N06, Cn3, v032
	.byte W06
	.byte Cn3, v036
	.byte W06
	.byte N06
	.byte N03, Cn4
	.byte W06
	.byte N06, Cn3, v040
	.byte W06
	.byte N06
	.byte N03, Cn4, v036
	.byte W06
	.byte N06, Cn3, v048
	.byte W06
	.byte N06
	.byte W06
	.byte Cn3, v052
	.byte N03, Cn4, v036
	.byte W06
	.byte N06, Cn3, v052
	.byte N03, Cn4, v036
	.byte W06
	.byte N04, Cn3, v056
	.byte W04
	.byte N04
	.byte W02
	.byte N03, Cn4, v036
	.byte W02
	.byte N04, Cn3, v056
	.byte W04
	.byte N04
	.byte W04
	.byte N04
	.byte W02
	.byte N03, Cn4, v036
	.byte W02
	.byte N04, Cn3, v056
	.byte W04
	.byte W96
	.byte W96
	.byte W96
	.byte PATT
	 .4byte song_unk_12_4_018
	.byte GOTO
	 .4byte song_unk_12_4_012
	.byte FINE
song_unk_12_5: @ 0x08346D64
	.byte KEYSH, 0x00
	.byte W96
	.byte W96
	.byte W96
	.byte W96
	.byte W96
	.byte W96
	.byte W96
	.byte W96
song_unk_12_5_019: @ 0x08346D6E
	.byte W96
	.byte W96
	.byte W96
	.byte W96
	.byte W96
	.byte W96
	.byte W96
	.byte W96
	.byte VOICE, 0x79
	.byte VOL, 0x50
	.byte W96
	.byte W96
	.byte W96
	.byte W06
	.byte N06, As3, v072
	.byte W06
	.byte Fn3
	.byte W06
	.byte Cn3
	.byte W06
	.byte Gn3
	.byte W06
	.byte Dn3
	.byte W06
	.byte An2
	.byte W06
	.byte En2
	.byte W06
	.byte N12, As2
	.byte W12
	.byte N06, An2
	.byte W06
	.byte Gs2
	.byte W30
	.byte W96
	.byte W96
	.byte W96
	.byte W06
	.byte N06
	.byte W06
	.byte Cs3
	.byte W06
	.byte Fs3
	.byte W06
	.byte As2
	.byte W06
	.byte Ds3
	.byte W06
	.byte Gs3
	.byte W06
	.byte Cn3
	.byte W06
	.byte Fn3
	.byte W06
	.byte As3
	.byte W06
	.byte Dn3
	.byte W06
	.byte Gn3
	.byte W06
	.byte Cn4
	.byte W06
	.byte Dn4
	.byte W18
	.byte W96
	.byte W96
	.byte W96
	.byte W96
	.byte W96
	.byte W96
	.byte W96
	.byte W96
	.byte W96
	.byte W96
	.byte W96
	.byte W96
	.byte W96
	.byte W96
	.byte W96
	.byte W96
	.byte W96
	.byte W96
	.byte W96
	.byte W96
	.byte GOTO
	 .4byte song_unk_12_5_019
	.byte FINE
song_unk_12_6: @ 0x08346DCE
	.byte KEYSH, 0x00
	.byte W96
	.byte W96
	.byte W96
	.byte W96
	.byte W96
	.byte W96
	.byte W96
	.byte W96
song_unk_12_6_024: @ 0x08346DD8
	.byte W96
	.byte W96
	.byte W96
	.byte W96
	.byte W96
	.byte W96
	.byte W96
	.byte W96
	.byte W96
	.byte W96
	.byte W96
	.byte W96
	.byte W96
	.byte W96
	.byte W96
	.byte W96
	.byte VOICE, 0x05
	.byte VOL, 0x50
	.byte PAN, 0x00
	.byte N02, As2, v060
	.byte W02
	.byte As2, v032
	.byte W04
	.byte Fn2, v060
	.byte W02
	.byte Fn2, v032
	.byte W04
	.byte As2, v060
	.byte W02
	.byte As2, v032
	.byte W04
	.byte Cn3, v060
	.byte W02
	.byte Cn3, v032
	.byte W04
	.byte Dn3, v060
	.byte W02
	.byte Dn3, v032
	.byte W04
	.byte Fn3, v060
	.byte W02
	.byte Fn3, v032
	.byte W04
	.byte As3, v060
	.byte W02
	.byte As3, v032
	.byte W04
	.byte Fn3, v060
	.byte W02
	.byte Fn3, v032
	.byte W04
	.byte As3, v060
	.byte W02
	.byte As3, v032
	.byte W04
	.byte Cn4, v060
	.byte W02
	.byte Cn4, v032
	.byte W04
	.byte Dn4, v060
	.byte W02
	.byte Dn4, v032
	.byte W04
	.byte As3, v060
	.byte W02
	.byte As3, v032
	.byte W04
	.byte Cn4, v060
	.byte W02
	.byte Cn4, v032
	.byte W04
	.byte Dn4, v060
	.byte W02
	.byte Dn4, v032
	.byte W04
	.byte Fn4, v060
	.byte W02
	.byte Fn4, v032
	.byte W04
	.byte As4, v060
	.byte W02
	.byte As4, v032
	.byte W04
song_unk_12_6_020: @ 0x08346E4F
	.byte N02, Cn5, v060
	.byte W02
	.byte Cn5, v032
	.byte W04
	.byte As4, v060
	.byte W02
	.byte As4, v032
	.byte W04
	.byte Fn4, v060
	.byte W02
	.byte Fn4, v032
	.byte W04
	.byte As4, v060
	.byte W02
	.byte As4, v032
	.byte W04
	.byte Cn5, v060
	.byte W02
	.byte Cn5, v032
	.byte W04
	.byte Dn5, v060
	.byte W02
	.byte Dn5, v032
	.byte W04
	.byte Fn4, v060
	.byte W02
	.byte Fn4, v032
	.byte W04
	.byte As4, v060
	.byte W02
	.byte As4, v032
	.byte W04
	.byte Cn5, v060
	.byte W02
	.byte Cn5, v032
	.byte W04
	.byte As4, v060
	.byte W02
	.byte As4, v032
	.byte W04
	.byte Fn5, v060
	.byte W02
	.byte Fn5, v032
	.byte W04
	.byte Cn5, v060
	.byte W02
	.byte Cn5, v032
	.byte W04
	.byte Dn5, v060
	.byte W02
	.byte Dn5, v032
	.byte W04
	.byte Fn5, v060
	.byte W02
	.byte Fn5, v032
	.byte W04
	.byte As5, v060
	.byte W02
	.byte As5, v032
	.byte W04
	.byte Fn5, v060
	.byte W02
	.byte Fn5, v032
	.byte W04
	.byte PEND
song_unk_12_6_021: @ 0x08346EB1
	.byte N02, Gs5, v060
	.byte W02
	.byte Gs5, v032
	.byte W04
	.byte Ds5, v060
	.byte W02
	.byte Ds5, v032
	.byte W04
	.byte Fn5, v060
	.byte W02
	.byte Fn5, v032
	.byte W04
	.byte Cs5, v060
	.byte W02
	.byte Cs5, v032
	.byte W04
	.byte Ds5, v060
	.byte W02
	.byte Ds5, v032
	.byte W04
	.byte Fn5, v060
	.byte W02
	.byte Fn5, v032
	.byte W04
	.byte Gs4, v060
	.byte W02
	.byte Gs4, v032
	.byte W04
	.byte Cs5, v060
	.byte W02
	.byte Cs5, v032
	.byte W04
	.byte Ds5, v060
	.byte W02
	.byte Ds5, v032
	.byte W04
	.byte Cs5, v060
	.byte W02
	.byte Cs5, v032
	.byte W04
	.byte Gs4, v060
	.byte W02
	.byte Gs4, v032
	.byte W04
	.byte Cs5, v060
	.byte W02
	.byte Cs5, v032
	.byte W04
	.byte Gs4, v060
	.byte W02
	.byte Gs4, v032
	.byte W04
	.byte Ds4, v060
	.byte W02
	.byte Ds4, v032
	.byte W04
	.byte Fn4, v060
	.byte W02
	.byte Fn4, v032
	.byte W04
	.byte Cs4, v060
	.byte W02
	.byte Cs4, v032
	.byte W04
	.byte PEND
song_unk_12_6_022: @ 0x08346F13
	.byte N02, Ds4, v060
	.byte W02
	.byte Ds4, v032
	.byte W04
	.byte Fn4, v060
	.byte W02
	.byte Fn4, v032
	.byte W04
	.byte Cs4, v060
	.byte W02
	.byte Cs4, v032
	.byte W04
	.byte Gs3, v060
	.byte W02
	.byte Gs3, v032
	.byte W04
	.byte Cs4, v060
	.byte W02
	.byte Cs4, v032
	.byte W04
	.byte Gs3, v060
	.byte W02
	.byte Gs3, v032
	.byte W04
	.byte Ds4, v060
	.byte W02
	.byte Ds4, v032
	.byte W04
	.byte Fn4, v060
	.byte W02
	.byte Fn4, v032
	.byte W04
	.byte Fs4, v060
	.byte W02
	.byte Fs4, v032
	.byte W04
	.byte Cs4, v060
	.byte W02
	.byte Cs4, v032
	.byte W04
	.byte Ds4, v060
	.byte W02
	.byte Ds4, v032
	.byte W04
	.byte Bn3, v060
	.byte W02
	.byte Bn3, v032
	.byte W04
	.byte Cs4, v060
	.byte W02
	.byte Cs4, v032
	.byte W04
	.byte Bn3, v060
	.byte W02
	.byte Bn3, v032
	.byte W04
	.byte Fs3, v060
	.byte W02
	.byte Fs3, v032
	.byte W04
	.byte Bn2, v060
	.byte W02
	.byte Bn2, v032
	.byte W04
	.byte PEND
song_unk_12_6_023: @ 0x08346F75
	.byte N02, As2, v060
	.byte W02
	.byte As2, v032
	.byte W04
	.byte Fn2, v060
	.byte W02
	.byte Fn2, v032
	.byte W04
	.byte As2, v060
	.byte W02
	.byte As2, v032
	.byte W04
	.byte Cn3, v060
	.byte W02
	.byte Cn3, v032
	.byte W04
	.byte Dn3, v060
	.byte W02
	.byte Dn3, v032
	.byte W04
	.byte Fn3, v060
	.byte W02
	.byte Fn3, v032
	.byte W04
	.byte As3, v060
	.byte W02
	.byte As3, v032
	.byte W04
	.byte Fn3, v060
	.byte W02
	.byte Fn3, v032
	.byte W04
	.byte As3, v060
	.byte W02
	.byte As3, v032
	.byte W04
	.byte Cn4, v060
	.byte W02
	.byte Cn4, v032
	.byte W04
	.byte Dn4, v060
	.byte W02
	.byte Dn4, v032
	.byte W04
	.byte As3, v060
	.byte W02
	.byte As3, v032
	.byte W04
	.byte Cn4, v060
	.byte W02
	.byte Cn4, v032
	.byte W04
	.byte Dn4, v060
	.byte W02
	.byte Dn4, v032
	.byte W04
	.byte Fn4, v060
	.byte W02
	.byte Fn4, v032
	.byte W04
	.byte As4, v060
	.byte W02
	.byte As4, v032
	.byte W04
	.byte PEND
	.byte PATT
	 .4byte song_unk_12_6_020
	.byte PATT
	 .4byte song_unk_12_6_021
	.byte PATT
	 .4byte song_unk_12_6_022
	.byte PATT
	 .4byte song_unk_12_6_023
	.byte PATT
	 .4byte song_unk_12_6_020
	.byte PATT
	 .4byte song_unk_12_6_021
	.byte PATT
	 .4byte song_unk_12_6_022
	.byte PATT
	 .4byte song_unk_12_6_023
	.byte PATT
	 .4byte song_unk_12_6_020
	.byte PATT
	 .4byte song_unk_12_6_021
	.byte N02, Ds4, v060
	.byte W02
	.byte Ds4, v032
	.byte W04
	.byte Fn4, v060
	.byte W02
	.byte Fn4, v032
	.byte W04
	.byte Gn4, v060
	.byte W02
	.byte Gn4, v032
	.byte W04
	.byte As4, v060
	.byte W02
	.byte As4, v032
	.byte W04
	.byte Ds5, v060
	.byte W02
	.byte Ds5, v032
	.byte W04
	.byte Fn5, v060
	.byte W02
	.byte Fn5, v032
	.byte W04
	.byte Gn5, v060
	.byte W02
	.byte Gn5, v032
	.byte W04
	.byte As5, v060
	.byte W02
	.byte As5, v032
	.byte W04
	.byte Fn5, v060
	.byte W02
	.byte Fn5, v032
	.byte W04
	.byte Ds5, v060
	.byte W02
	.byte Ds5, v032
	.byte W04
	.byte As4, v060
	.byte W02
	.byte As4, v032
	.byte W04
	.byte Gn4, v060
	.byte W02
	.byte Gn4, v032
	.byte W04
	.byte Fn4, v060
	.byte W02
	.byte Fn4, v032
	.byte W04
	.byte Ds4, v060
	.byte W02
	.byte Ds4, v032
	.byte W04
	.byte As3, v060
	.byte W02
	.byte As3, v032
	.byte W04
	.byte Ds4, v060
	.byte W02
	.byte Ds4, v032
	.byte W04
	.byte W96
	.byte W96
	.byte W96
	.byte W96
	.byte GOTO
	 .4byte song_unk_12_6_024
	.byte FINE
song_unk_12_7: @ 0x08347074
	.byte KEYSH, 0x00
	.byte W96
	.byte W96
	.byte W96
	.byte W96
	.byte W96
	.byte W96
	.byte W96
	.byte W96
song_unk_12_7_029: @ 0x0834707E
	.byte W96
	.byte W96
	.byte W96
	.byte W96
	.byte W96
	.byte W96
	.byte W96
	.byte W96
	.byte W96
	.byte W96
	.byte W96
	.byte W96
	.byte W96
	.byte W96
	.byte W96
	.byte W96
	.byte VOICE, 0x22
	.byte VOL, 0x50
	.byte PAN, 0x7F
	.byte N02, Fn2, v060
	.byte W02
	.byte Fn2, v032
	.byte W04
	.byte Dn2, v060
	.byte W02
	.byte Dn2, v032
	.byte W04
	.byte Fn2, v060
	.byte W02
	.byte Fn2, v032
	.byte W04
	.byte An2, v060
	.byte W02
	.byte An2, v032
	.byte W04
	.byte As2, v060
	.byte W02
	.byte As2, v032
	.byte W04
	.byte Dn3, v060
	.byte W02
	.byte Dn3, v032
	.byte W04
	.byte Fn3, v060
	.byte W02
	.byte Fn3, v032
	.byte W04
	.byte Dn3, v060
	.byte W02
	.byte Dn3, v032
	.byte W04
	.byte Fn3, v060
	.byte W02
	.byte Fn3, v032
	.byte W04
	.byte An3, v060
	.byte W02
	.byte An3, v032
	.byte W04
	.byte As3, v060
	.byte W02
	.byte As3, v032
	.byte W04
	.byte Fn3, v060
	.byte W02
	.byte Fn3, v032
	.byte W04
	.byte An3, v060
	.byte W02
	.byte An3, v032
	.byte W04
	.byte As3, v060
	.byte W02
	.byte As3, v032
	.byte W04
	.byte Dn4, v060
	.byte W02
	.byte Dn4, v032
	.byte W04
	.byte Fn4, v060
	.byte W02
	.byte Fn4, v032
	.byte W04
song_unk_12_7_025: @ 0x083470F5
	.byte N02, An4, v060
	.byte W02
	.byte An4, v032
	.byte W04
	.byte Fn4, v060
	.byte W02
	.byte Fn4, v032
	.byte W04
	.byte Dn4, v060
	.byte W02
	.byte Dn4, v040
	.byte W04
	.byte Fn4, v060
	.byte W02
	.byte Fn4, v040
	.byte W04
	.byte An4, v060
	.byte W02
	.byte An4, v040
	.byte W04
	.byte As4, v060
	.byte W02
	.byte As4, v032
	.byte W04
	.byte Dn4, v060
	.byte W02
	.byte Dn4, v032
	.byte W04
	.byte Fn4, v060
	.byte W02
	.byte Fn4, v032
	.byte W04
	.byte An4, v060
	.byte W02
	.byte An4, v032
	.byte W04
	.byte Fn4, v060
	.byte W02
	.byte Fn4, v032
	.byte W04
	.byte Dn5, v060
	.byte W02
	.byte Dn5, v032
	.byte W04
	.byte An4, v060
	.byte W02
	.byte An4, v032
	.byte W04
	.byte As4, v060
	.byte W02
	.byte As4, v032
	.byte W04
	.byte Dn5, v060
	.byte W02
	.byte Dn5, v032
	.byte W04
	.byte Fn5, v060
	.byte W02
	.byte Fn5, v032
	.byte W04
	.byte Dn5, v060
	.byte W02
	.byte Dn5, v032
	.byte W04
	.byte PEND
song_unk_12_7_026: @ 0x08347157
	.byte N02, Fn5, v060
	.byte W02
	.byte Fn5, v032
	.byte W04
	.byte Cn5, v060
	.byte W02
	.byte Cn5, v032
	.byte W04
	.byte Cs5, v060
	.byte W02
	.byte Cs5, v032
	.byte W04
	.byte Gs4, v060
	.byte W02
	.byte Gs4, v032
	.byte W04
	.byte Cn5, v060
	.byte W02
	.byte Cn5, v032
	.byte W04
	.byte Cs5, v060
	.byte W02
	.byte Cs5, v032
	.byte W04
	.byte Fn4, v060
	.byte W02
	.byte Fn4, v032
	.byte W04
	.byte Gs4, v060
	.byte W02
	.byte Gs4, v032
	.byte W04
	.byte Cn5, v060
	.byte W02
	.byte Cn5, v032
	.byte W04
	.byte Gs4, v060
	.byte W02
	.byte Gs4, v032
	.byte W04
	.byte Fn4, v060
	.byte W02
	.byte Fn4, v032
	.byte W04
	.byte Gs4, v060
	.byte W02
	.byte Gs4, v032
	.byte W04
	.byte Fn4, v060
	.byte W02
	.byte Fn4, v032
	.byte W04
	.byte Cn4, v060
	.byte W02
	.byte Cn4, v032
	.byte W04
	.byte Cs4, v060
	.byte W02
	.byte Cs4, v032
	.byte W04
	.byte Gs3, v060
	.byte W02
	.byte Gs3, v032
	.byte W04
	.byte PEND
song_unk_12_7_027: @ 0x083471B9
	.byte N02, Cn4, v060
	.byte W02
	.byte Cn4, v032
	.byte W04
	.byte Cs4, v060
	.byte W02
	.byte Cs4, v032
	.byte W04
	.byte Gs3, v060
	.byte W02
	.byte Gs3, v032
	.byte W04
	.byte Fn3, v060
	.byte W02
	.byte Fn3, v032
	.byte W04
	.byte Gs3, v060
	.byte W02
	.byte Gs3, v032
	.byte W04
	.byte Fn3, v060
	.byte W02
	.byte Fn3, v032
	.byte W04
	.byte Cn4, v060
	.byte W02
	.byte Cn4, v032
	.byte W04
	.byte Cs4, v060
	.byte W02
	.byte Cs4, v032
	.byte W04
	.byte Ds4, v060
	.byte W02
	.byte Ds4, v032
	.byte W04
	.byte As3, v060
	.byte W02
	.byte As3, v032
	.byte W04
	.byte Bn3, v060
	.byte W02
	.byte Bn3, v032
	.byte W04
	.byte Fs3, v060
	.byte W02
	.byte Fs3, v032
	.byte W04
	.byte As3, v060
	.byte W02
	.byte As3, v032
	.byte W04
	.byte Fs3, v060
	.byte W02
	.byte Fs3, v032
	.byte W04
	.byte Ds3, v060
	.byte W02
	.byte Ds3, v032
	.byte W04
	.byte Fs2, v060
	.byte W02
	.byte Fs2, v032
	.byte W04
	.byte PEND
song_unk_12_7_028: @ 0x0834721B
	.byte N02, Fn2, v060
	.byte W02
	.byte Fn2, v032
	.byte W04
	.byte Dn2, v060
	.byte W02
	.byte Dn2, v032
	.byte W04
	.byte Fn2, v060
	.byte W02
	.byte Fn2, v032
	.byte W04
	.byte An2, v060
	.byte W02
	.byte An2, v032
	.byte W04
	.byte As2, v060
	.byte W02
	.byte As2, v032
	.byte W04
	.byte Dn3, v060
	.byte W02
	.byte Dn3, v032
	.byte W04
	.byte Fn3, v060
	.byte W02
	.byte Fn3, v032
	.byte W04
	.byte Dn3, v060
	.byte W02
	.byte Dn3, v032
	.byte W04
	.byte Fn3, v060
	.byte W02
	.byte Fn3, v032
	.byte W04
	.byte An3, v060
	.byte W02
	.byte An3, v032
	.byte W04
	.byte As3, v060
	.byte W02
	.byte As3, v032
	.byte W04
	.byte Fn3, v060
	.byte W02
	.byte Fn3, v032
	.byte W04
	.byte An3, v060
	.byte W02
	.byte An3, v032
	.byte W04
	.byte As3, v060
	.byte W02
	.byte As3, v032
	.byte W04
	.byte Dn4, v060
	.byte W02
	.byte Dn4, v032
	.byte W04
	.byte Fn4, v060
	.byte W02
	.byte Fn4, v032
	.byte W04
	.byte PEND
	.byte PATT
	 .4byte song_unk_12_7_025
	.byte PATT
	 .4byte song_unk_12_7_026
	.byte PATT
	 .4byte song_unk_12_7_027
	.byte PATT
	 .4byte song_unk_12_7_028
	.byte PATT
	 .4byte song_unk_12_7_025
	.byte PATT
	 .4byte song_unk_12_7_026
	.byte PATT
	 .4byte song_unk_12_7_027
	.byte PATT
	 .4byte song_unk_12_7_028
	.byte PATT
	 .4byte song_unk_12_7_025
	.byte PATT
	 .4byte song_unk_12_7_026
	.byte N02, As3, v060
	.byte W02
	.byte As3, v032
	.byte W04
	.byte Dn4, v060
	.byte W02
	.byte Dn4, v032
	.byte W04
	.byte Ds4, v060
	.byte W02
	.byte Ds4, v032
	.byte W04
	.byte Gn4, v060
	.byte W02
	.byte Gn4, v032
	.byte W04
	.byte As4, v060
	.byte W02
	.byte As4, v032
	.byte W04
	.byte Dn5, v060
	.byte W02
	.byte Dn5, v032
	.byte W04
	.byte Ds5, v060
	.byte W02
	.byte Ds5, v032
	.byte W04
	.byte Gn5, v060
	.byte W02
	.byte Gn5, v032
	.byte W04
	.byte Dn5, v060
	.byte W02
	.byte Dn5, v032
	.byte W04
	.byte As4, v060
	.byte W02
	.byte As4, v032
	.byte W04
	.byte Gn4, v060
	.byte W02
	.byte Gn4, v032
	.byte W04
	.byte Ds4, v060
	.byte W02
	.byte Ds4, v032
	.byte W04
	.byte Dn4, v060
	.byte W02
	.byte Dn4, v032
	.byte W04
	.byte As3, v060
	.byte W02
	.byte As3, v032
	.byte W04
	.byte Gn3, v060
	.byte W02
	.byte Gn3, v032
	.byte W04
	.byte As3, v060
	.byte W02
	.byte As3, v032
	.byte W04
	.byte W96
	.byte W96
	.byte W96
	.byte W96
	.byte GOTO
	 .4byte song_unk_12_7_029
	.byte FINE
	.align 2, 0
	.global song_unk_12
song_unk_12: @ 0x0834731C (song header)
	.byte 8, 0, 10, 0 @ trackCount, blockCount, priority, reverb
	.4byte voicegroup000 @ voice group
	.4byte song_unk_12_0
	.4byte song_unk_12_1
	.4byte song_unk_12_2
	.4byte song_unk_12_3
	.4byte song_unk_12_4
	.4byte song_unk_12_5
	.4byte song_unk_12_6
	.4byte song_unk_12_7
	.size song_unk_12,.-song_unk_12
