	.include "MPlayDef.s"
	.section .rodata
	.align 2, 0
song_unk_253_0: @ 0x0834E114
	.byte KEYSH, 0x00
	.byte TEMPO, 0x2D
	.byte VOICE, 0x01
	.byte VOL, 0x7F
	.byte N05, Gn3, v052
	.byte W08
	.byte N03, Fs3
	.byte W04
	.byte N05, Gn3
	.byte W08
	.byte N03, An3
	.byte W04
	.byte N05, Bn3
	.byte W12
	.byte Cn4
	.byte W12
	.byte Dn4
	.byte W24
	.byte Gn3
	.byte W24
song_unk_253_0_000: @ 0x0834E132
	.byte N05, En3, v052
	.byte W08
	.byte N03, Gn3
	.byte W04
	.byte N05, Cn4
	.byte W08
	.byte N03, En3
	.byte W04
	.byte N05, Gn3
	.byte W08
	.byte N03, Cn4
	.byte W04
	.byte N05, En3
	.byte W08
	.byte N03, Gn3
	.byte W04
	.byte N05, Cn4
	.byte W08
	.byte N03, En3
	.byte W04
	.byte N05, Gn3
	.byte W08
	.byte N03, Cn4
	.byte W04
	.byte N05, En3
	.byte W08
	.byte N03, Gn3
	.byte W04
	.byte N05, Cn4
	.byte W08
	.byte N03, Gn3
	.byte W04
	.byte PEND
	.byte N05, Fs3
	.byte W08
	.byte N03, An3
	.byte W04
	.byte N05, En4
	.byte W12
	.byte N05
	.byte W12
	.byte Ds4
	.byte W08
	.byte N24, Dn4
	.byte W52
	.byte N05, Gs3
	.byte W08
	.byte N03, An3
	.byte W04
	.byte N05, Cn4
	.byte W08
	.byte N03, Gs3
	.byte W04
	.byte N05, An3
	.byte W08
	.byte N03, Cn4
	.byte W04
	.byte N05, Gs3
	.byte W08
	.byte N03, An3
	.byte W04
	.byte N05, Cn4
	.byte W08
	.byte N03, Gs3
	.byte W04
	.byte N05, An3
	.byte W08
	.byte N03, Cn4
	.byte W04
	.byte N05, Gs3
	.byte W08
	.byte N03, An3
	.byte W04
	.byte N05, Cn4
	.byte W08
	.byte N03, An3
	.byte W04
	.byte N05, Gn3
	.byte W08
	.byte N03, En4
	.byte W04
	.byte N05, Ds4
	.byte W08
	.byte N03, Fs3
	.byte W04
	.byte N05, Dn4
	.byte W08
	.byte N03, Cs4
	.byte W04
	.byte N05, Fn3
	.byte W08
	.byte N03, Cn4
	.byte W04
	.byte N05, En3
	.byte W08
	.byte N03, Fn3
	.byte W04
	.byte N05, Fs3
	.byte W08
	.byte N03, Gn3
	.byte W28
	.byte PATT
	 .4byte song_unk_253_0_000
	.byte N05, Fs3, v052
	.byte W08
	.byte N03, An3
	.byte W04
	.byte N05, En4
	.byte W12
	.byte N05
	.byte W12
	.byte Ds4
	.byte W08
	.byte N24, Dn4
	.byte W36
	.byte N03, Cn4
	.byte W04
	.byte N05, Bn3
	.byte W08
	.byte N03, As3
	.byte W04
	.byte N05, An3
	.byte W08
	.byte N03, Gs3
	.byte W04
	.byte N05, An3
	.byte W08
	.byte N03, Bn3
	.byte W04
	.byte N05, Cn4
	.byte W08
	.byte N03, As3
	.byte W04
	.byte N05, Gs3
	.byte W08
	.byte N03, As3
	.byte W04
	.byte N05, Gn3
	.byte W08
	.byte N03, Cn4
	.byte W04
	.byte N05, En4
	.byte W08
	.byte N03, Gn4
	.byte W04
	.byte N05, Fn4
	.byte W08
	.byte N03, En4
	.byte W04
	.byte N05, Cs4
	.byte W08
	.byte N03, An3
	.byte W04
	.byte N05, Fn4
	.byte W08
	.byte N03, An3
	.byte W04
	.byte N05, En4
	.byte W08
	.byte N03, Fn4
	.byte W04
	.byte N05, Dn4
	.byte W08
	.byte N03, Cn4
	.byte W04
	.byte N05, Bn3
	.byte W08
	.byte N03, Dn4
	.byte W04
	.byte N23, Cn4
	.byte W48
	.byte GOTO
	 .4byte song_unk_253_0_000
	.byte FINE
song_unk_253_1: @ 0x0834E238
	.byte KEYSH, 0x00
	.byte VOICE, 0x41
	.byte VOL, 0x7F
	.byte N05, Gn3, v060
	.byte W08
	.byte N03
	.byte W12
	.byte N03
	.byte W04
	.byte N05, Fn3
	.byte W12
	.byte Fs3
	.byte W12
	.byte Gn3
	.byte W24
	.byte Cs3
	.byte W24
song_unk_253_1_001: @ 0x0834E24F
	.byte N05, Cn3, v060
	.byte W12
	.byte Gn3
	.byte W12
	.byte En3
	.byte W12
	.byte Gn3
	.byte W12
	.byte Cn3
	.byte W12
	.byte Gn3
	.byte W12
	.byte En3
	.byte W12
	.byte Gn3
	.byte W12
	.byte PEND
song_unk_253_1_002: @ 0x0834E262
	.byte N05, Dn3, v060
	.byte W12
	.byte An3
	.byte W12
	.byte Fs3
	.byte W12
	.byte An3
	.byte W12
	.byte Dn3
	.byte W12
	.byte An3
	.byte W12
	.byte Fs3
	.byte W12
	.byte An3
	.byte W12
	.byte PEND
	.byte Fn3
	.byte W12
	.byte Cn4
	.byte W12
	.byte An3
	.byte W12
	.byte Cn4
	.byte W12
	.byte Gn3
	.byte W12
	.byte Dn4
	.byte W12
	.byte Bn3
	.byte W12
	.byte Dn4
	.byte W12
	.byte Cn3
	.byte W12
	.byte Gn3
	.byte W12
	.byte En3
	.byte W12
	.byte Gn3
	.byte W12
	.byte Cn3
	.byte W12
	.byte As3
	.byte W08
	.byte An3
	.byte W12
	.byte N17, Cs3
	.byte W16
	.byte PATT
	 .4byte song_unk_253_1_001
	.byte PATT
	 .4byte song_unk_253_1_002
	.byte N05, Fn3, v060
	.byte W12
	.byte Cn4
	.byte W12
	.byte Fs3
	.byte W12
	.byte Cn4
	.byte W12
	.byte Gn3
	.byte W12
	.byte Cn4
	.byte W12
	.byte An3
	.byte W12
	.byte En4
	.byte W12
	.byte Dn3
	.byte W12
	.byte An3
	.byte W12
	.byte Gn3
	.byte W12
	.byte Dn4
	.byte W12
	.byte Cn4
	.byte W12
	.byte Gn3
	.byte W12
	.byte Cn3
	.byte W24
	.byte GOTO
	 .4byte song_unk_253_1_001
	.byte FINE
song_unk_253_2: @ 0x0834E2C6
	.byte KEYSH, 0x00
	.byte VOICE, 0x65
	.byte VOL, 0x7F
	.byte N01, Gs3, v032
	.byte W08
	.byte N01
	.byte W12
	.byte N01
	.byte W04
	.byte N01
	.byte W12
	.byte N01
	.byte W12
	.byte N01
	.byte W24
	.byte N01
	.byte W24
song_unk_253_2_003: @ 0x0834E2DC
	.byte N01, Gs2, v052
	.byte W08
	.byte Fn4, v020
	.byte W04
	.byte Gs3, v032
	.byte W08
	.byte Fn4, v020
	.byte W04
	.byte Gs2, v052
	.byte W08
	.byte Fn4, v020
	.byte W04
	.byte Gs3, v032
	.byte W08
	.byte Fn4, v020
	.byte W04
	.byte Gs2, v052
	.byte W08
	.byte Fn4, v020
	.byte W04
	.byte Gs3, v032
	.byte W08
	.byte Fn4, v020
	.byte W04
	.byte Gs2, v052
	.byte W08
	.byte Fn4, v020
	.byte W04
	.byte Gs3, v032
	.byte W08
	.byte Fn4, v020
	.byte W04
	.byte PEND
	.byte PATT
	 .4byte song_unk_253_2_003
	.byte PATT
	 .4byte song_unk_253_2_003
	.byte N01, Gs2, v052
	.byte W08
	.byte Fn4, v020
	.byte W04
	.byte Gs3, v032
	.byte W08
	.byte Fn4, v020
	.byte W04
	.byte Gs2, v052
	.byte W08
	.byte Fn4, v020
	.byte W04
	.byte Gs3, v032
	.byte W08
	.byte Fn4, v020
	.byte W04
	.byte Gs2, v052
	.byte W08
	.byte Fn4, v020
	.byte W04
	.byte Gs3, v032
	.byte W08
	.byte Fn4, v020
	.byte W12
	.byte Gs3, v032
	.byte W04
	.byte N01
	.byte W08
	.byte N01
	.byte W04
	.byte PATT
	 .4byte song_unk_253_2_003
	.byte N01, Gs2, v052
	.byte W08
	.byte Fn4, v020
	.byte W04
	.byte Gs3, v032
	.byte W08
	.byte Fn4, v020
	.byte W04
	.byte Gs2, v052
	.byte W08
	.byte Fn4, v020
	.byte W04
	.byte Gs3, v032
	.byte W08
	.byte Fn4, v020
	.byte W04
	.byte Gs2, v052
	.byte W08
	.byte Fn4, v020
	.byte W04
	.byte Gs3, v032
	.byte W08
	.byte Fn4, v020
	.byte W04
	.byte Gs2, v052
	.byte W08
	.byte Gs3, v032
	.byte W04
	.byte N01
	.byte W08
	.byte N01
	.byte W04
	.byte PATT
	 .4byte song_unk_253_2_003
	.byte N01, Gs2, v052
	.byte W08
	.byte Fn4, v020
	.byte W04
	.byte Gs3, v032
	.byte W08
	.byte Fn4, v020
	.byte W04
	.byte Gs2, v052
	.byte W08
	.byte Fn4, v020
	.byte W04
	.byte Gs3, v032
	.byte W08
	.byte Fn4, v020
	.byte W04
	.byte Gs2, v052
	.byte W08
	.byte Fn4, v020
	.byte W04
	.byte Gs3, v032
	.byte W08
	.byte Fn4, v020
	.byte W04
	.byte Gs3, v032
	.byte W24
	.byte GOTO
	 .4byte song_unk_253_2_003
	.byte FINE
	.align 2, 0
	.global song_unk_253
song_unk_253: @ 0x0834E3AC (song header)
	.byte 3, 0, 10, 0 @ trackCount, blockCount, priority, reverb
	.4byte gUnknown_0804CE78 @ voice group
	.4byte song_unk_253_0
	.4byte song_unk_253_1
	.4byte song_unk_253_2

