	.include "MPlayDef.s"
	.section .rodata
	.align 2, 0
song_unk_725_0: @ 0x08353328
	.byte VOL, 0x6E
	.byte KEYSH, 0x00
song_unk_725_0_002: @ 0x0835332C
	.byte TEMPO, 0x37
	.byte VOICE, 0x5D
	.byte N11, Cn1, v112
	.byte W36
	.byte Ds4, v096
	.byte W12
	.byte Cn1, v112
	.byte W12
	.byte Gs6, v064
	.byte W24
	.byte Ds4, v096
	.byte W12
song_unk_725_0_000: @ 0x08353340
	.byte N11, Cn1, v112
	.byte W12
	.byte Gs6, v064
	.byte W24
	.byte Ds4, v096
	.byte W12
	.byte Cn1, v112
	.byte W12
	.byte Gs6, v064
	.byte W24
	.byte Ds4, v096
	.byte W12
	.byte PEND
song_unk_725_0_001: @ 0x08353354
	.byte N11, Cn1, v112
	.byte W36
	.byte Ds4, v096
	.byte W12
	.byte Cn1, v112
	.byte W12
	.byte Gs6, v064
	.byte W24
	.byte Ds4, v096
	.byte W12
	.byte PEND
	.byte PATT
	 .4byte song_unk_725_0_000
	.byte PATT
	 .4byte song_unk_725_0_001
	.byte PATT
	 .4byte song_unk_725_0_000
	.byte PATT
	 .4byte song_unk_725_0_001
	.byte PATT
	 .4byte song_unk_725_0_000
	.byte GOTO
	 .4byte song_unk_725_0_002
	.byte FINE
song_unk_725_1: @ 0x08353384
	.byte VOL, 0x6E
	.byte KEYSH, 0x00
song_unk_725_1_004: @ 0x08353388
	.byte VOICE, 0x5E
	.byte PAN, 0x48
	.byte W24
	.byte N11, Cs4, v048
	.byte W48
	.byte N11
	.byte W24
song_unk_725_1_003: @ 0x08353393
	.byte W24
	.byte N11, Cs4, v048
	.byte W48
	.byte N11
	.byte W24
	.byte PEND
	.byte PATT
	 .4byte song_unk_725_1_003
	.byte PATT
	 .4byte song_unk_725_1_003
	.byte PATT
	 .4byte song_unk_725_1_003
	.byte PATT
	 .4byte song_unk_725_1_003
	.byte PATT
	 .4byte song_unk_725_1_003
	.byte PATT
	 .4byte song_unk_725_1_003
	.byte GOTO
	 .4byte song_unk_725_1_004
	.byte FINE
song_unk_725_2: @ 0x083533BF
	.byte VOL, 0x6E
	.byte KEYSH, 0x00
song_unk_725_2_007: @ 0x083533C3
	.byte VOICE, 0x64
	.byte PAN, 0x20
	.byte W12
	.byte N00, Fs6, v127
	.byte W24
	.byte N00
	.byte W30
	.byte N00
	.byte W18
	.byte N00
	.byte W12
song_unk_725_2_005: @ 0x083533D2
	.byte W12
	.byte N00, Fs6, v127
	.byte W24
	.byte N00
	.byte W24
	.byte N00
	.byte W24
	.byte N00
	.byte W12
	.byte PEND
song_unk_725_2_006: @ 0x083533DE
	.byte W12
	.byte N00, Fs6, v127
	.byte W24
	.byte N00
	.byte W30
	.byte N00
	.byte W18
	.byte N00
	.byte W12
	.byte PEND
	.byte PATT
	 .4byte song_unk_725_2_005
	.byte PATT
	 .4byte song_unk_725_2_006
	.byte PATT
	 .4byte song_unk_725_2_005
	.byte PATT
	 .4byte song_unk_725_2_006
	.byte PATT
	 .4byte song_unk_725_2_005
	.byte GOTO
	 .4byte song_unk_725_2_007
	.byte FINE
song_unk_725_3: @ 0x08353409
	.byte VOL, 0x6E
	.byte KEYSH, 0x00
song_unk_725_3_010: @ 0x0835340D
	.byte VOICE, 0x4D
	.byte N08, Ds2, v112
	.byte W24
	.byte As1
	.byte W24
	.byte Ds2
	.byte W18
	.byte As2
	.byte W18
	.byte As1
	.byte W12
song_unk_725_3_008: @ 0x0835341B
	.byte N08, Ds2, v112
	.byte W24
	.byte As1
	.byte W24
	.byte Ds2
	.byte W18
	.byte As1
	.byte W18
	.byte N08
	.byte W12
	.byte PEND
song_unk_725_3_009: @ 0x08353428
	.byte N08, Ds2, v112
	.byte W24
	.byte As1
	.byte W24
	.byte Ds2
	.byte W18
	.byte As2
	.byte W18
	.byte As1
	.byte W12
	.byte PEND
	.byte PATT
	 .4byte song_unk_725_3_008
	.byte N08, Fn2, v112
	.byte W24
	.byte As1
	.byte W24
	.byte Fn2
	.byte W18
	.byte As2
	.byte W18
	.byte As1
	.byte W12
	.byte Fn2
	.byte W24
	.byte As1
	.byte W24
	.byte Fn2
	.byte W18
	.byte As1
	.byte W18
	.byte N08
	.byte W12
	.byte PATT
	 .4byte song_unk_725_3_009
	.byte N08, Ds2, v127
	.byte W96
	.byte GOTO
	 .4byte song_unk_725_3_010
	.byte FINE
song_unk_725_4: @ 0x0835345F
	.byte VOL, 0x6E
	.byte KEYSH, 0x00
song_unk_725_4_011: @ 0x08353463
	.byte VOICE, 0x20
	.byte MOD, 0x00
	.byte W12
	.byte N05, Gn2, v080
	.byte W06
	.byte Gs2
	.byte W06
	.byte As2
	.byte W12
	.byte Cn3
	.byte W12
	.byte N92, Dn3
	.byte W48
	.byte W12
	.byte MOD, 0x02
	.byte W84
	.byte 0x00
	.byte W12
	.byte N05, Gn2
	.byte W06
	.byte Gs2
	.byte W06
	.byte As2
	.byte W12
	.byte Cn3
	.byte W12
	.byte N92, Dn3
	.byte W48
	.byte W12
	.byte MOD, 0x02
	.byte W72
	.byte 0x00
	.byte N05, Ds3
	.byte W12
	.byte N23, Cn3
	.byte W36
	.byte N05, Dn3
	.byte W12
	.byte N56, As2
	.byte W48
	.byte MOD, 0x02
	.byte W36
	.byte 0x00
	.byte N05, Cn3
	.byte W12
	.byte N23, Gs2
	.byte W36
	.byte N05, As1
	.byte W12
	.byte N80, Gn2
	.byte W60
	.byte MOD, 0x02
	.byte W36
	.byte W96
	.byte GOTO
	 .4byte song_unk_725_4_011
	.byte FINE
song_unk_725_5: @ 0x083534B2
	.byte VOL, 0x6E
	.byte KEYSH, 0x00
song_unk_725_5_012: @ 0x083534B6
	.byte VOICE, 0x03
	.byte PAN, 0x7F
	.byte W96
	.byte N11, As4, v064
	.byte W12
	.byte Gn4
	.byte W12
	.byte Gs4
	.byte W12
	.byte N32, As4
	.byte W60
	.byte W96
	.byte N11
	.byte W12
	.byte Gn4
	.byte W12
	.byte Gs4
	.byte W12
	.byte N32, As4
	.byte W48
	.byte N11, Cn5
	.byte W12
	.byte N32, Gs4
	.byte W36
	.byte N11, As4
	.byte W12
	.byte N44, Gn4
	.byte W48
	.byte W36
	.byte N11, Gs4
	.byte W12
	.byte N32, Fn4
	.byte W36
	.byte N05, Ds4
	.byte W06
	.byte Dn4
	.byte W06
	.byte N44, Cn4
	.byte W96
	.byte W96
	.byte GOTO
	 .4byte song_unk_725_5_012
	.byte FINE
	.align 2, 0
	.global song_unk_725
song_unk_725: @ 0x083534F4 (song header)
	.byte 6, 0, 10, 0 @ trackCount, blockCount, priority, reverb
	.4byte gUnknown_0804CE78 @ voice group
	.4byte song_unk_725_0
	.4byte song_unk_725_1
	.4byte song_unk_725_2
	.4byte song_unk_725_3
	.4byte song_unk_725_4
	.4byte song_unk_725_5

