	.include "MPlayDef.s"
	.section .rodata
	.align 2, 0
song_unk_93_0: @ 0x08349314
	.byte KEYSH, 0x00
	.byte TEMPO, 0x50
	.byte W48
song_unk_93_0_001: @ 0x08349319
	.byte VOICE, 0x05
	.byte VOL, 0x7F
	.byte PAN, 0x40
	.byte W28
	.byte N07, An3, v048
	.byte W08
	.byte N23, En4
	.byte W12
song_unk_93_0_000: @ 0x08349327
	.byte W76
	.byte N07, An3, v048
	.byte W08
	.byte N23, Dn4
	.byte W12
	.byte PEND
	.byte W76
	.byte N07, Fs3
	.byte W08
	.byte N23, Cs4
	.byte W12
	.byte W76
	.byte N07, Fs3
	.byte W08
	.byte N23, Dn4
	.byte W12
	.byte W76
	.byte N07, An3
	.byte W08
	.byte N23, En4
	.byte W12
	.byte PATT
	 .4byte song_unk_93_0_000
	.byte W76
	.byte N07, Gn3, v048
	.byte W08
	.byte N23, Cs4
	.byte W12
	.byte W76
	.byte N07, Fn3
	.byte W08
	.byte N23, Cn4
	.byte W12
	.byte W48
	.byte GOTO
	 .4byte song_unk_93_0_001
	.byte FINE
song_unk_93_1: @ 0x08349360
	.byte KEYSH, 0x00
	.byte W48
song_unk_93_1_003: @ 0x08349363
	.byte VOICE, 0x23
	.byte VOL, 0x7F
	.byte PAN, 0x40
	.byte W24
	.byte N07, En3, v048
	.byte W08
	.byte N23, Bn3
	.byte W16
song_unk_93_1_002: @ 0x08349371
	.byte W72
	.byte N07, En3, v048
	.byte W08
	.byte N23, An3
	.byte W16
	.byte PEND
	.byte PATT
	 .4byte song_unk_93_1_002
	.byte PATT
	 .4byte song_unk_93_1_002
	.byte W72
	.byte N07, En3, v048
	.byte W08
	.byte N23, Bn3
	.byte W16
	.byte PATT
	 .4byte song_unk_93_1_002
	.byte PATT
	 .4byte song_unk_93_1_002
	.byte PATT
	 .4byte song_unk_93_1_002
	.byte W48
	.byte GOTO
	 .4byte song_unk_93_1_003
	.byte FINE
song_unk_93_2: @ 0x083493A2
	.byte KEYSH, 0x00
	.byte W48
song_unk_93_2_005: @ 0x083493A5
	.byte VOICE, 0x41
	.byte VOL, 0x7F
	.byte N08, Dn2, v088
	.byte W12
	.byte N03, Ds2
	.byte W06
	.byte N03
	.byte W06
	.byte En2
	.byte W06
	.byte N03
	.byte W06
	.byte En1
	.byte W06
	.byte N03
	.byte W06
song_unk_93_2_004: @ 0x083493BA
	.byte N03, Dn2, v088
	.byte W06
	.byte En1
	.byte W06
	.byte N03
	.byte W06
	.byte Cs2
	.byte W06
	.byte En1
	.byte W06
	.byte N03
	.byte W06
	.byte Dn2
	.byte W06
	.byte Ds2
	.byte W06
	.byte N11, En2
	.byte W12
	.byte N03, Cs2
	.byte W06
	.byte N03
	.byte W06
	.byte Dn2
	.byte W06
	.byte N03
	.byte W06
	.byte Ds2
	.byte W06
	.byte En2
	.byte W06
	.byte PEND
	.byte An1
	.byte W06
	.byte An2
	.byte W06
	.byte Gn2
	.byte W06
	.byte Gn1
	.byte W06
	.byte An1
	.byte W06
	.byte An2
	.byte W06
	.byte Gn2
	.byte W06
	.byte En1
	.byte W06
	.byte N08, Dn2
	.byte W12
	.byte N03, Ds2
	.byte W06
	.byte N03
	.byte W06
	.byte En2
	.byte W06
	.byte N03
	.byte W06
	.byte En1
	.byte W06
	.byte N03
	.byte W06
	.byte PATT
	 .4byte song_unk_93_2_004
	.byte N03, An1, v088
	.byte W06
	.byte N03
	.byte W06
	.byte Cs2
	.byte W06
	.byte N03
	.byte W06
	.byte Dn2
	.byte W06
	.byte N03
	.byte W06
	.byte Cs2
	.byte W06
	.byte N03
	.byte W06
	.byte N08, Dn2
	.byte W12
	.byte N03, Ds2
	.byte W06
	.byte N03
	.byte W06
	.byte En2
	.byte W06
	.byte N03
	.byte W06
	.byte En1
	.byte W06
	.byte N03
	.byte W06
	.byte PATT
	 .4byte song_unk_93_2_004
	.byte N03, An1, v088
	.byte W06
	.byte An2
	.byte W06
	.byte Gn2
	.byte W06
	.byte Gn1
	.byte W06
	.byte An1
	.byte W06
	.byte An2
	.byte W06
	.byte Gn2
	.byte W06
	.byte En1
	.byte W06
	.byte N08, Gn2
	.byte W12
	.byte N03, Gs2
	.byte W06
	.byte N03
	.byte W06
	.byte An2
	.byte W06
	.byte N03
	.byte W06
	.byte An1
	.byte W06
	.byte N03
	.byte W06
	.byte Gn2
	.byte W06
	.byte An1
	.byte W06
	.byte N03
	.byte W06
	.byte Fs2
	.byte W06
	.byte An1
	.byte W06
	.byte N03
	.byte W06
	.byte Gn2
	.byte W06
	.byte An2
	.byte W06
	.byte N11, Fn2
	.byte W12
	.byte N03, An2
	.byte W06
	.byte N03
	.byte W06
	.byte As2
	.byte W06
	.byte N03
	.byte W06
	.byte Bn2
	.byte W06
	.byte Cn3
	.byte W06
	.byte Fn3
	.byte W06
	.byte N03
	.byte W06
	.byte En3
	.byte W06
	.byte N03
	.byte W06
	.byte Dn3
	.byte W06
	.byte N03
	.byte W06
	.byte Cn3
	.byte W06
	.byte N03
	.byte W06
	.byte GOTO
	 .4byte song_unk_93_2_005
	.byte FINE
song_unk_93_3: @ 0x08349481
	.byte KEYSH, 0x00
	.byte VOICE, 0x5D
	.byte VOL, 0x7F
	.byte N05, Cn1, v072
	.byte W12
	.byte Dn1, v052
	.byte W12
	.byte N05
	.byte W06
	.byte N05
	.byte W12
	.byte N05
	.byte W06
song_unk_93_3_008: @ 0x08349494
	.byte N05, Cn1, v072
	.byte N00, Fs1, v020
	.byte W12
	.byte N05, Cn1, v072
	.byte N00, Fs1, v020
	.byte W12
	.byte N05, Dn1, v052
	.byte N00, Fs1, v020
	.byte W12
	.byte N00
	.byte W06
	.byte N05, Cn1, v072
	.byte W06
song_unk_93_3_006: @ 0x083494AF
	.byte N00, Fs1, v020
	.byte W12
	.byte N05, Cn1, v072
	.byte N00, Fs1, v020
	.byte W12
	.byte N05, Dn1, v052
	.byte N00, Fs1, v020
	.byte W12
	.byte N00
	.byte W12
	.byte N05, Cn1, v072
	.byte N00, Fs1, v020
	.byte W12
	.byte N05, Cn1, v072
	.byte N00, Fs1, v020
	.byte W12
	.byte N05, Dn1, v052
	.byte N00, Fs1, v020
	.byte W12
	.byte N00
	.byte W06
	.byte N05, Cn1, v072
	.byte W06
	.byte PEND
song_unk_93_3_007: @ 0x083494DF
	.byte N00, Fs1, v020
	.byte W12
	.byte N05, Cn1, v072
	.byte N00, Fs1, v020
	.byte W12
	.byte N05, Dn1, v052
	.byte N00, Fs1, v020
	.byte W06
	.byte N05, Cn1, v072
	.byte W06
	.byte N05
	.byte N11, Fs1, v020
	.byte W12
	.byte N05, Cn1, v072
	.byte N00, Fs1, v020
	.byte W12
	.byte N05, Cn1, v072
	.byte N00, Fs1, v020
	.byte W12
	.byte N05, Dn1, v052
	.byte N00, Fs1, v020
	.byte W12
	.byte N00
	.byte W06
	.byte N05, Cn1, v072
	.byte W06
	.byte PEND
	.byte PATT
	 .4byte song_unk_93_3_006
	.byte N00, Fs1, v020
	.byte W12
	.byte N05, Cn1, v072
	.byte N00, Fs1, v020
	.byte W12
	.byte N05, Dn1, v052
	.byte N00, Fs1, v020
	.byte W12
	.byte N11
	.byte W06
	.byte N05, Dn1, v052
	.byte W06
	.byte Cn1, v072
	.byte N00, Fs1, v020
	.byte W12
	.byte N05, Cn1, v072
	.byte N00, Fs1, v020
	.byte W12
	.byte N05, Dn1, v052
	.byte N00, Fs1, v020
	.byte W12
	.byte N00
	.byte W06
	.byte N05, Cn1, v072
	.byte W06
	.byte PATT
	 .4byte song_unk_93_3_006
	.byte PATT
	 .4byte song_unk_93_3_007
	.byte PATT
	 .4byte song_unk_93_3_006
	.byte N00, Fs1, v020
	.byte W12
	.byte N05, Dn1, v056
	.byte N00, Fs1, v020
	.byte W12
	.byte N05, Dn1, v056
	.byte N00, Fs1, v020
	.byte W06
	.byte N05, Dn1, v056
	.byte W06
	.byte N11, Fs1, v020
	.byte W06
	.byte N05, Dn1, v056
	.byte W06
	.byte GOTO
	 .4byte song_unk_93_3_008
	.byte FINE
song_unk_93_4: @ 0x08349580
	.byte KEYSH, 0x00
	.byte W48
song_unk_93_4_011: @ 0x08349583
	.byte VOICE, 0x78
	.byte VOL, 0x7F
	.byte W32
	.byte N40, Bn2, v048
	.byte N40, En3
	.byte W16
song_unk_93_4_009: @ 0x0834958E
	.byte W80
	.byte N40, Bn2, v048
	.byte N40, Dn3
	.byte W16
	.byte PEND
song_unk_93_4_010: @ 0x08349596
	.byte W80
	.byte N40, An2, v048
	.byte N40, Cs3
	.byte W16
	.byte PEND
	.byte W80
	.byte An2
	.byte N40, Dn3
	.byte W16
	.byte W80
	.byte Bn2
	.byte N40, En3
	.byte W16
	.byte PATT
	 .4byte song_unk_93_4_009
	.byte PATT
	 .4byte song_unk_93_4_010
	.byte W80
	.byte N40, An2, v048
	.byte N40, Cn3
	.byte W16
	.byte W48
	.byte GOTO
	 .4byte song_unk_93_4_011
	.byte FINE
	.align 2, 0
	.global song_unk_93
song_unk_93: @ 0x083495C0 (song header)
	.byte 5, 0, 10, 0 @ trackCount, blockCount, priority, reverb
	.4byte gUnknown_0804CE78 @ voice group
	.4byte song_unk_93_0
	.4byte song_unk_93_1
	.4byte song_unk_93_2
	.4byte song_unk_93_3
	.4byte song_unk_93_4

