	.include "MPlayDef.s"
	.section .rodata
	.align 2, 0
song_unk_82_0: @ 0x08348C00
	.byte KEYSH, 0x00
	.byte TEMPO, 0x48
	.byte W48
song_unk_82_0_002: @ 0x08348C05
	.byte VOICE, 0x04
	.byte VOL, 0x7F
	.byte PAN, 0x7F
	.byte N02, Gn2, v052
	.byte W06
	.byte Gn3
	.byte W06
	.byte Gn2
	.byte W06
	.byte N02
	.byte W06
	.byte Gn3
	.byte W06
	.byte Gn2
	.byte W06
	.byte Gn3
	.byte W06
	.byte N02
	.byte W06
song_unk_82_0_000: @ 0x08348C1D
	.byte N02, Gn2, v052
	.byte W06
	.byte Gn3
	.byte W06
	.byte Gn2
	.byte W06
	.byte Gn3
	.byte W06
	.byte N02
	.byte W06
	.byte Gn2
	.byte W06
	.byte Gn3
	.byte W06
	.byte Gn2
	.byte W06
	.byte Gn3
	.byte W06
	.byte N02
	.byte W06
	.byte Gn2
	.byte W06
	.byte Gn3
	.byte W06
	.byte Gn2
	.byte W06
	.byte Gn3
	.byte W06
	.byte N02
	.byte W06
	.byte Gn2
	.byte W06
	.byte PEND
song_unk_82_0_001: @ 0x08348C40
	.byte N02, An3, v052
	.byte W06
	.byte N02
	.byte W06
	.byte An2
	.byte W06
	.byte An3
	.byte W06
	.byte Fn2
	.byte W06
	.byte N02
	.byte W06
	.byte Fn3
	.byte W06
	.byte Fn2
	.byte W06
	.byte Gn2
	.byte W06
	.byte Gn3
	.byte W06
	.byte Gn2
	.byte W06
	.byte N02
	.byte W06
	.byte Gn3
	.byte W06
	.byte Gn2
	.byte W06
	.byte Gn3
	.byte W06
	.byte N02
	.byte W06
	.byte PEND
	.byte PATT
	 .4byte song_unk_82_0_000
	.byte N02, Gn4, v052
	.byte W06
	.byte N02
	.byte W06
	.byte Gn3
	.byte W06
	.byte Gn4
	.byte W06
	.byte Gn3
	.byte W06
	.byte N02
	.byte W06
	.byte Gn4
	.byte W06
	.byte Gn3
	.byte W06
	.byte Gn2
	.byte W06
	.byte Gn3
	.byte W06
	.byte Gn2
	.byte W06
	.byte N02
	.byte W06
	.byte Gn3
	.byte W06
	.byte Gn2
	.byte W06
	.byte Gn3
	.byte W06
	.byte N02
	.byte W06
	.byte PATT
	 .4byte song_unk_82_0_000
	.byte PATT
	 .4byte song_unk_82_0_001
	.byte PATT
	 .4byte song_unk_82_0_000
	.byte N02, Gn4, v052
	.byte W06
	.byte N02
	.byte W06
	.byte Gn3
	.byte W06
	.byte Gn4
	.byte W06
	.byte Gn3
	.byte W06
	.byte N02
	.byte W06
	.byte Gn4
	.byte W06
	.byte Gn3
	.byte W06
	.byte GOTO
	 .4byte song_unk_82_0_002
	.byte FINE
song_unk_82_1: @ 0x08348CB1
	.byte KEYSH, 0x00
	.byte W48
song_unk_82_1_005: @ 0x08348CB4
	.byte VOICE, 0x23
	.byte VOL, 0x7F
	.byte PAN, 0x00
	.byte W01
	.byte N02, Bn2, v060
	.byte W06
	.byte Bn3
	.byte W06
	.byte Bn2
	.byte W06
	.byte N02
	.byte W06
	.byte Bn3
	.byte W06
	.byte Bn2
	.byte W06
	.byte Bn3
	.byte W06
	.byte N02
	.byte W05
song_unk_82_1_003: @ 0x08348CCD
	.byte W01
	.byte N02, Bn2, v060
	.byte W06
	.byte Bn3
	.byte W06
	.byte Bn2
	.byte W06
	.byte Bn3
	.byte W06
	.byte N02
	.byte W06
	.byte Bn2
	.byte W06
	.byte Bn3
	.byte W06
	.byte Bn2
	.byte W06
	.byte Bn3
	.byte W06
	.byte N02
	.byte W06
	.byte Bn2
	.byte W06
	.byte Bn3
	.byte W06
	.byte Bn2
	.byte W06
	.byte Bn3
	.byte W06
	.byte N02
	.byte W06
	.byte Bn2
	.byte W05
	.byte PEND
song_unk_82_1_004: @ 0x08348CF1
	.byte W01
	.byte N02, Cn4, v060
	.byte W06
	.byte N02
	.byte W06
	.byte Cn3
	.byte W06
	.byte Cn4
	.byte W06
	.byte An2
	.byte W06
	.byte N02
	.byte W06
	.byte An3
	.byte W06
	.byte An2
	.byte W06
	.byte Bn2
	.byte W06
	.byte Bn3
	.byte W06
	.byte Bn2
	.byte W06
	.byte N02
	.byte W06
	.byte Bn3
	.byte W06
	.byte Bn2
	.byte W06
	.byte Bn3
	.byte W06
	.byte N02
	.byte W05
	.byte PEND
	.byte PATT
	 .4byte song_unk_82_1_003
	.byte W01
	.byte N02, Bn4, v060
	.byte W06
	.byte N02
	.byte W06
	.byte Bn3
	.byte W06
	.byte Bn4
	.byte W06
	.byte Bn3
	.byte W06
	.byte N02
	.byte W06
	.byte Bn4
	.byte W06
	.byte Bn3
	.byte W06
	.byte Bn2
	.byte W06
	.byte Bn3
	.byte W06
	.byte Bn2
	.byte W06
	.byte N02
	.byte W06
	.byte Bn3
	.byte W06
	.byte Bn2
	.byte W06
	.byte Bn3
	.byte W06
	.byte N02
	.byte W05
	.byte PATT
	 .4byte song_unk_82_1_003
	.byte PATT
	 .4byte song_unk_82_1_004
	.byte PATT
	 .4byte song_unk_82_1_003
	.byte W01
	.byte N02, Bn4, v060
	.byte W06
	.byte N02
	.byte W06
	.byte Bn3
	.byte W06
	.byte Bn4
	.byte W06
	.byte Bn3
	.byte W06
	.byte N02
	.byte W06
	.byte Bn4
	.byte W06
	.byte Bn3
	.byte W05
	.byte GOTO
	 .4byte song_unk_82_1_005
	.byte FINE
song_unk_82_2: @ 0x08348D65
	.byte KEYSH, 0x00
	.byte W48
song_unk_82_2_007: @ 0x08348D68
	.byte VOICE, 0x41
	.byte VOL, 0x7F
	.byte N32, Gn1, v088
	.byte W36
	.byte N08
	.byte W12
	.byte W84
	.byte N11
	.byte W12
song_unk_82_2_006: @ 0x08348D75
	.byte N23, An1, v088
	.byte W24
	.byte Fn1
	.byte W24
	.byte N32, Gn1
	.byte W36
	.byte N08
	.byte W12
	.byte PEND
	.byte W96
	.byte W48
	.byte N32
	.byte W36
	.byte N08
	.byte W12
	.byte W84
	.byte N11
	.byte W12
	.byte PATT
	 .4byte song_unk_82_2_006
	.byte W96
	.byte W48
	.byte GOTO
	 .4byte song_unk_82_2_007
	.byte FINE
song_unk_82_3: @ 0x08348D97
	.byte KEYSH, 0x00
	.byte VOICE, 0x5D
	.byte VOL, 0x7F
	.byte N05, Cn2, v060
	.byte W06
	.byte N11
	.byte W06
	.byte N05, An1
	.byte W06
	.byte N11
	.byte W06
	.byte N05, Dn1, v040
	.byte W12
	.byte N05
	.byte W06
	.byte N05
	.byte W06
song_unk_82_3_008: @ 0x08348DB0
	.byte N05, Cn1, v072
	.byte N00, Fs1, v020
	.byte W12
	.byte N00
	.byte W12
	.byte N00
	.byte W12
	.byte N05, Cn1, v072
	.byte N00, Fs1, v020
	.byte W12
	.byte N00
	.byte W12
	.byte N05, Cn1, v080
	.byte N00, Fs1, v020
	.byte W06
	.byte N05, Cn1, v080
	.byte W06
	.byte Dn1, v040
	.byte N00, Fs1, v020
	.byte W12
	.byte N00
	.byte W12
	.byte N00
	.byte W12
	.byte N05, Dn1, v040
	.byte N00, Fs1, v020
	.byte W12
	.byte N05, Dn1, v040
	.byte N00, Fs1, v020
	.byte W12
	.byte N05, Cn1, v072
	.byte N00, Fs1, v020
	.byte W12
	.byte N05, Cn1, v072
	.byte N00, Fs1, v020
	.byte W12
	.byte N00
	.byte W12
	.byte N05, Cn1, v072
	.byte N00, Fs1, v020
	.byte W12
	.byte N11
	.byte W12
	.byte N05, Cn1, v072
	.byte N00, Fs1, v020
	.byte W12
	.byte N00
	.byte W12
	.byte N00
	.byte W12
	.byte N05, Cn1, v072
	.byte N00, Fs1, v020
	.byte W12
	.byte N00
	.byte W12
	.byte N05, Dn1, v040
	.byte N00, Fs1, v020
	.byte W12
	.byte N05, Dn1, v040
	.byte N00, Fs1, v020
	.byte W12
	.byte N05, Cn1, v080
	.byte N00, Fs1, v020
	.byte W12
	.byte N05, Cn1, v080
	.byte N00, Fs1, v020
	.byte W12
	.byte N00
	.byte W06
	.byte N05, Cn1, v080
	.byte W06
	.byte Dn1, v040
	.byte N00, Fs1, v020
	.byte W06
	.byte N05, Dn1, v040
	.byte W06
	.byte N00, Fs1, v020
	.byte N11, Cn2, v060
	.byte W12
	.byte N00, Fs1, v020
	.byte N11, Cn2, v060
	.byte W12
	.byte N00, Fs1, v020
	.byte N03, Bn1, v060
	.byte W04
	.byte N03
	.byte W04
	.byte An1
	.byte W04
	.byte N00, Fs1, v020
	.byte N03, An1, v060
	.byte W04
	.byte Gn1
	.byte W04
	.byte N03
	.byte W04
	.byte N11, Fs1, v020
	.byte N11, Gn1, v060
	.byte W12
	.byte N05, Cn1, v072
	.byte N00, Fs1, v020
	.byte W12
	.byte N00
	.byte W12
	.byte N00
	.byte W12
	.byte N05, Cn1, v072
	.byte N00, Fs1, v020
	.byte W12
	.byte N00
	.byte W12
	.byte N05, Cn1, v080
	.byte N00, Fs1, v020
	.byte W06
	.byte N05, Cn1, v080
	.byte W06
	.byte Dn1, v040
	.byte N00, Fs1, v020
	.byte W12
	.byte N00
	.byte W06
	.byte N05, Dn1, v040
	.byte W06
	.byte N00, Fs1, v020
	.byte W12
	.byte N05, Dn1, v040
	.byte N00, Fs1, v020
	.byte W12
	.byte N05, Dn1, v040
	.byte N00, Fs1, v020
	.byte W12
	.byte N05, Cn1, v072
	.byte N00, Fs1, v020
	.byte W12
	.byte N05, Cn1, v072
	.byte N00, Fs1, v020
	.byte W12
	.byte N00
	.byte W12
	.byte N05, Cn1, v072
	.byte N00, Fs1, v020
	.byte W12
	.byte N05, Dn1, v040
	.byte N11, Fs1, v020
	.byte W06
	.byte N05, Dn1, v040
	.byte W06
	.byte Cn1, v072
	.byte N00, Fs1, v020
	.byte W12
	.byte N00
	.byte W12
	.byte N00
	.byte W12
	.byte N05, Cn1, v072
	.byte N00, Fs1, v020
	.byte W12
	.byte N00
	.byte W12
	.byte N05, Dn1, v040
	.byte N00, Fs1, v020
	.byte W12
	.byte N05, Dn1, v040
	.byte N00, Fs1, v020
	.byte W12
	.byte N05, Cn1, v080
	.byte N00, Fs1, v020
	.byte W12
	.byte N05, Dn1, v040
	.byte N00, Fs1, v020
	.byte W06
	.byte N17, Bn1, v060
	.byte W06
	.byte N00, Fs1, v020
	.byte N17, An1, v060
	.byte W06
	.byte N05, Dn1, v040
	.byte W06
	.byte N00, Fs1, v020
	.byte W06
	.byte N05, Dn1, v040
	.byte W06
	.byte N05
	.byte N00, Fs1, v020
	.byte W06
	.byte N05, Cn1, v080
	.byte W06
	.byte N00, Fs1, v020
	.byte N03, Cn2, v060
	.byte W04
	.byte N03
	.byte W04
	.byte An1
	.byte W04
	.byte N00, Fs1, v020
	.byte N03, An1, v060
	.byte W04
	.byte Gn1
	.byte W04
	.byte N15
	.byte W04
	.byte N05, Dn1, v040
	.byte N00, Fs1, v020
	.byte W12
	.byte N05, Dn1, v040
	.byte N11, Fs1, v020
	.byte W06
	.byte N05, Dn1, v040
	.byte W06
	.byte GOTO
	 .4byte song_unk_82_3_008
	.byte FINE
song_unk_82_4: @ 0x08348F47
	.byte KEYSH, 0x00
	.byte W48
song_unk_82_4_011: @ 0x08348F4A
	.byte VOICE, 0x78
	.byte VOL, 0x7F
	.byte N32, Bn2, v052
	.byte N32, Dn3
	.byte W36
	.byte N11, Bn2
	.byte N11, Dn3
	.byte W12
song_unk_82_4_009: @ 0x08348F59
	.byte W84
	.byte N11, Bn2, v052
	.byte N11, Dn3
	.byte W12
	.byte PEND
song_unk_82_4_010: @ 0x08348F61
	.byte N23, Cn3, v052
	.byte N23, En3
	.byte W24
	.byte An2
	.byte N23, Cn3
	.byte W24
	.byte N32, Bn2
	.byte N32, Dn3
	.byte W36
	.byte N11, Bn2
	.byte N11, Dn3
	.byte W12
	.byte PEND
	.byte W96
	.byte W48
	.byte N32, Bn2
	.byte N32, Dn3
	.byte W36
	.byte N11, Bn2
	.byte N11, Dn3
	.byte W12
	.byte PATT
	 .4byte song_unk_82_4_009
	.byte PATT
	 .4byte song_unk_82_4_010
	.byte W48
	.byte VOL, 0x05
	.byte N90, Gn2, v052
	.byte N90, Gn3
	.byte W06
	.byte VOL, 0x09
	.byte W06
	.byte 0x0E
	.byte W06
	.byte 0x17
	.byte W06
	.byte 0x24
	.byte W06
	.byte 0x32
	.byte W06
	.byte 0x40
	.byte W06
	.byte 0x52
	.byte W06
	.byte 0x64
	.byte W48
	.byte GOTO
	 .4byte song_unk_82_4_011
	.byte FINE
	.align 2, 0
	.global song_unk_82
song_unk_82: @ 0x08348FAC (song header)
	.byte 5, 0, 10, 0 @ trackCount, blockCount, priority, reverb
	.4byte gUnknown_0804CE78 @ voice group
	.4byte song_unk_82_0
	.4byte song_unk_82_1
	.4byte song_unk_82_2
	.4byte song_unk_82_3
	.4byte song_unk_82_4

