	.include "MPlayDef.s"
	.section .rodata
	.align 2, 0
song_unk_731_0: @ 0x08353C80
	.byte VOL, 0x6E
	.byte KEYSH, 0x00
	.byte TEMPO, 0x3D
	.byte VOICE, 0x5E
	.byte PAN, 0x48
	.byte W24
song_unk_731_0_000: @ 0x08353C8B
	.byte W24
	.byte N12, Cn4, v064
	.byte W48
	.byte N12
	.byte W24
	.byte PEND
	.byte W72
	.byte N12
	.byte W24
	.byte PATT
	 .4byte song_unk_731_0_000
	.byte W72
	.byte N12, Cn4, v064
	.byte W24
	.byte PATT
	 .4byte song_unk_731_0_000
	.byte W72
	.byte N12, Cn4, v064
	.byte W24
	.byte PATT
	 .4byte song_unk_731_0_000
	.byte W72
	.byte N12, Cn4, v064
	.byte W24
	.byte GOTO
	 .4byte song_unk_731_0_000
	.byte FINE
song_unk_731_1: @ 0x08353CBA
	.byte VOL, 0x6E
	.byte KEYSH, 0x00
	.byte VOICE, 0x02
	.byte PAN, 0x40
	.byte W24
song_unk_731_1_001: @ 0x08353CC3
	.byte N06, En1, v127
	.byte W36
	.byte N06
	.byte W12
	.byte N06
	.byte W48
	.byte PEND
song_unk_731_1_002: @ 0x08353CCC
	.byte W12
	.byte N06, En1, v127
	.byte W24
	.byte N06
	.byte W12
	.byte N06
	.byte W48
	.byte PEND
	.byte PATT
	 .4byte song_unk_731_1_001
	.byte PATT
	 .4byte song_unk_731_1_002
	.byte PATT
	 .4byte song_unk_731_1_001
	.byte PATT
	 .4byte song_unk_731_1_002
	.byte PATT
	 .4byte song_unk_731_1_001
	.byte PATT
	 .4byte song_unk_731_1_002
	.byte GOTO
	 .4byte song_unk_731_1_001
	.byte FINE
song_unk_731_2: @ 0x08353CFA
	.byte VOL, 0x6E
	.byte KEYSH, 0x00
	.byte VOICE, 0x7B
	.byte PAN, 0x40
	.byte W24
song_unk_731_2_003: @ 0x08353D03
	.byte N06, Fs3, v064
	.byte W12
	.byte N06
	.byte W12
	.byte Gn3
	.byte W12
	.byte Fs3
	.byte W12
	.byte En3
	.byte W12
	.byte N06
	.byte W12
	.byte Dn3
	.byte W12
	.byte N12, En3
	.byte W12
	.byte PEND
song_unk_731_2_004: @ 0x08353D17
	.byte W12
	.byte N06, Fs3, v064
	.byte W12
	.byte Gn3
	.byte W12
	.byte Fs3
	.byte W12
	.byte En3
	.byte W12
	.byte N06
	.byte W12
	.byte Dn3
	.byte W24
	.byte PEND
	.byte PATT
	 .4byte song_unk_731_2_003
	.byte PATT
	 .4byte song_unk_731_2_004
	.byte W96
	.byte W96
	.byte W96
	.byte W96
	.byte GOTO
	 .4byte song_unk_731_2_003
	.byte FINE
song_unk_731_3: @ 0x08353D3B
	.byte VOL, 0x6E
	.byte KEYSH, 0x00
	.byte VOICE, 0x7B
	.byte PAN, 0x60
	.byte W24
song_unk_731_3_005: @ 0x08353D44
	.byte N06, Dn3, v048
	.byte W12
	.byte N06
	.byte W12
	.byte En3
	.byte W12
	.byte Dn3
	.byte W12
	.byte Cs3
	.byte W12
	.byte N06
	.byte W12
	.byte Bn2
	.byte W12
	.byte N12, Cs3
	.byte W12
	.byte PEND
song_unk_731_3_006: @ 0x08353D58
	.byte W12
	.byte N06, Dn3, v048
	.byte W12
	.byte En3
	.byte W12
	.byte Dn3
	.byte W12
	.byte Cs3
	.byte W12
	.byte N06
	.byte W12
	.byte Bn2
	.byte W24
	.byte PEND
	.byte PATT
	 .4byte song_unk_731_3_005
	.byte PATT
	 .4byte song_unk_731_3_006
	.byte W96
	.byte W96
	.byte W96
	.byte W96
	.byte GOTO
	 .4byte song_unk_731_3_005
	.byte FINE
song_unk_731_4: @ 0x08353D7C
	.byte VOL, 0x6E
	.byte KEYSH, 0x00
	.byte VOICE, 0x7B
	.byte PAN, 0x20
	.byte W24
song_unk_731_4_007: @ 0x08353D85
	.byte N06, Gs2, v048
	.byte W12
	.byte N06
	.byte W12
	.byte An2
	.byte W12
	.byte Gs2
	.byte W12
	.byte N06
	.byte W12
	.byte N06
	.byte W12
	.byte Fs2
	.byte W12
	.byte N12, Gs2
	.byte W12
	.byte PEND
song_unk_731_4_008: @ 0x08353D99
	.byte W12
	.byte N06, Gs2, v048
	.byte W12
	.byte An2
	.byte W12
	.byte Gs2
	.byte W12
	.byte N06
	.byte W12
	.byte N06
	.byte W12
	.byte Fs2
	.byte W24
	.byte PEND
	.byte PATT
	 .4byte song_unk_731_4_007
	.byte PATT
	 .4byte song_unk_731_4_008
	.byte W96
	.byte W96
	.byte W96
	.byte W96
	.byte GOTO
	 .4byte song_unk_731_4_007
	.byte FINE
song_unk_731_5: @ 0x08353DBD
	.byte VOL, 0x6E
	.byte KEYSH, 0x00
	.byte VOICE, 0x5D
	.byte PAN, 0x40
	.byte W24
song_unk_731_5_009: @ 0x08353DC6
	.byte N12, Cn1, v112
	.byte W36
	.byte N12
	.byte W12
	.byte N12
	.byte W48
	.byte PEND
song_unk_731_5_010: @ 0x08353DCF
	.byte W12
	.byte N12, Cn1, v112
	.byte W24
	.byte N12
	.byte W12
	.byte N12
	.byte W36
	.byte N12
	.byte W12
	.byte PEND
	.byte PATT
	 .4byte song_unk_731_5_009
	.byte PATT
	 .4byte song_unk_731_5_010
	.byte PATT
	 .4byte song_unk_731_5_009
	.byte PATT
	 .4byte song_unk_731_5_010
	.byte PATT
	 .4byte song_unk_731_5_009
	.byte PATT
	 .4byte song_unk_731_5_010
	.byte GOTO
	 .4byte song_unk_731_5_009
	.byte FINE
song_unk_731_6: @ 0x08353DFF
	.byte VOL, 0x6E
	.byte KEYSH, 0x00
	.byte VOICE, 0x3E
	.byte PAN, 0x20
	.byte W24
song_unk_731_6_011: @ 0x08353E08
	.byte N01, Fs6, v032
	.byte W12
	.byte N01
	.byte W12
	.byte N14, Fs6, v020
	.byte W24
	.byte N01, Fs6, v032
	.byte W12
	.byte N01
	.byte W12
	.byte N14, Fs6, v020
	.byte W24
	.byte PEND
	.byte PATT
	 .4byte song_unk_731_6_011
	.byte PATT
	 .4byte song_unk_731_6_011
	.byte PATT
	 .4byte song_unk_731_6_011
	.byte PATT
	 .4byte song_unk_731_6_011
	.byte PATT
	 .4byte song_unk_731_6_011
	.byte PATT
	 .4byte song_unk_731_6_011
	.byte PATT
	 .4byte song_unk_731_6_011
	.byte GOTO
	 .4byte song_unk_731_6_011
	.byte FINE
	.align 2, 0
	.global song_unk_731
song_unk_731: @ 0x08353E48 (song header)
	.byte 7, 0, 10, 0 @ trackCount, blockCount, priority, reverb
	.4byte voicegroup000 @ voice group
	.4byte song_unk_731_0
	.4byte song_unk_731_1
	.4byte song_unk_731_2
	.4byte song_unk_731_3
	.4byte song_unk_731_4
	.4byte song_unk_731_5
	.4byte song_unk_731_6
	.size song_unk_731,.-song_unk_731
