	.include "MPlayDef.s"
	.section .rodata
	.align 2, 0
song_unk_735_0: @ 0x083543D0
	.byte VOL, 0x6E
	.byte KEYSH, 0x00
song_unk_735_0_001: @ 0x083543D4
	.byte TEMPO, 0x2E
	.byte VOICE, 0x2C
	.byte PAN, 0x7F
	.byte W96
	.byte W96
	.byte W48
	.byte N03, Cn4, v096
	.byte W12
	.byte An3
	.byte W12
	.byte As3
	.byte W12
	.byte N11, Cn4
	.byte W12
song_unk_735_0_000: @ 0x083543E8
	.byte W60
	.byte N03, Cn4, v096
	.byte W12
	.byte Cn3
	.byte W12
	.byte N03
	.byte W12
	.byte PEND
	.byte W96
	.byte W96
	.byte W48
	.byte As3
	.byte W12
	.byte Gn3
	.byte W12
	.byte An3
	.byte W12
	.byte N11, As3
	.byte W12
	.byte PATT
	 .4byte song_unk_735_0_000
	.byte GOTO
	 .4byte song_unk_735_0_001
	.byte FINE
song_unk_735_1: @ 0x08354409
	.byte VOL, 0x6E
	.byte KEYSH, 0x00
song_unk_735_1_003: @ 0x0835440D
	.byte VOICE, 0x5D
	.byte PAN, 0x40
	.byte N04, Cn1, v127
	.byte W24
	.byte Ds4
	.byte W24
	.byte Cn1
	.byte W18
	.byte N04
	.byte W06
	.byte Ds4
	.byte W24
song_unk_735_1_002: @ 0x0835441D
	.byte N04, Cn1, v127
	.byte W24
	.byte Ds4
	.byte W24
	.byte Cn1
	.byte W18
	.byte N04
	.byte W06
	.byte Ds4
	.byte W24
	.byte PEND
	.byte PATT
	 .4byte song_unk_735_1_002
	.byte PATT
	 .4byte song_unk_735_1_002
	.byte PATT
	 .4byte song_unk_735_1_002
	.byte PATT
	 .4byte song_unk_735_1_002
	.byte PATT
	 .4byte song_unk_735_1_002
	.byte PATT
	 .4byte song_unk_735_1_002
	.byte GOTO
	 .4byte song_unk_735_1_003
	.byte FINE
song_unk_735_2: @ 0x0835444E
	.byte VOL, 0x6E
	.byte KEYSH, 0x00
song_unk_735_2_005: @ 0x08354452
	.byte VOICE, 0x64
	.byte PAN, 0x00
	.byte N00, Fs6, v080
	.byte W12
	.byte N00
	.byte W12
	.byte N00
	.byte W12
	.byte N00
	.byte W12
	.byte N00
	.byte W12
	.byte N00
	.byte W12
	.byte N00
	.byte W12
	.byte N00
	.byte W12
song_unk_735_2_004: @ 0x08354468
	.byte N00, Fs6, v080
	.byte W12
	.byte N00
	.byte W12
	.byte N00
	.byte W12
	.byte N00
	.byte W12
	.byte N00
	.byte W12
	.byte N00
	.byte W12
	.byte N00
	.byte W12
	.byte N00
	.byte W12
	.byte PEND
	.byte PATT
	 .4byte song_unk_735_2_004
	.byte PATT
	 .4byte song_unk_735_2_004
	.byte PATT
	 .4byte song_unk_735_2_004
	.byte PATT
	 .4byte song_unk_735_2_004
	.byte PATT
	 .4byte song_unk_735_2_004
	.byte PATT
	 .4byte song_unk_735_2_004
	.byte GOTO
	 .4byte song_unk_735_2_005
	.byte FINE
song_unk_735_3: @ 0x0835449F
	.byte VOL, 0x6E
	.byte KEYSH, 0x00
song_unk_735_3_006: @ 0x083544A3
	.byte VOICE, 0x7C
	.byte PAN, 0x48
	.byte W12
	.byte N01, An3, v127
	.byte W12
	.byte As3
	.byte W12
	.byte Cn4
	.byte W36
	.byte En4
	.byte W12
	.byte Dn4
	.byte W12
	.byte W24
	.byte As3
	.byte W12
	.byte Cn4
	.byte W60
	.byte W96
	.byte W96
	.byte W12
	.byte Gn3
	.byte W12
	.byte An3
	.byte W12
	.byte As3
	.byte W36
	.byte Dn4
	.byte W12
	.byte Cn4
	.byte W12
	.byte W24
	.byte An3
	.byte W12
	.byte As3
	.byte W60
	.byte W96
	.byte W96
	.byte GOTO
	 .4byte song_unk_735_3_006
	.byte FINE
song_unk_735_4: @ 0x083544D3
	.byte VOL, 0x6E
	.byte KEYSH, 0x00
song_unk_735_4_007: @ 0x083544D7
	.byte VOICE, 0x7C
	.byte PAN, 0x38
	.byte W12
	.byte N01, Fn3, v127
	.byte W12
	.byte Gn3
	.byte W12
	.byte An3
	.byte W36
	.byte Cn4
	.byte W12
	.byte As3
	.byte W12
	.byte W24
	.byte Gn3
	.byte W12
	.byte An3
	.byte W60
	.byte W96
	.byte W96
	.byte W12
	.byte En3
	.byte W12
	.byte Fn3
	.byte W12
	.byte Gn3
	.byte W36
	.byte As3
	.byte W12
	.byte An3
	.byte W12
	.byte W24
	.byte Fn3
	.byte W12
	.byte Gn3
	.byte W60
	.byte W96
	.byte W96
	.byte GOTO
	 .4byte song_unk_735_4_007
	.byte FINE
song_unk_735_5: @ 0x08354507
	.byte VOL, 0x6E
	.byte KEYSH, 0x00
song_unk_735_5_009: @ 0x0835450B
	.byte VOICE, 0x00
	.byte N09, Fn1, v080
	.byte W36
	.byte N03, Dn2, v064
	.byte W12
	.byte N09, Cn2
	.byte W36
	.byte N03, Cn1, v080
	.byte W12
song_unk_735_5_008: @ 0x0835451C
	.byte N09, Fn1, v096
	.byte W36
	.byte N03, Dn2, v080
	.byte W12
	.byte N09, Cn2
	.byte W36
	.byte N03, Cn1, v096
	.byte W12
	.byte PEND
	.byte PATT
	 .4byte song_unk_735_5_008
	.byte PATT
	 .4byte song_unk_735_5_008
	.byte PATT
	 .4byte song_unk_735_5_008
	.byte PATT
	 .4byte song_unk_735_5_008
	.byte PATT
	 .4byte song_unk_735_5_008
	.byte PATT
	 .4byte song_unk_735_5_008
	.byte GOTO
	 .4byte song_unk_735_5_009
	.byte FINE
	.align 2, 0
	.global song_unk_735
song_unk_735: @ 0x08354550 (song header)
	.byte 6, 0, 10, 0 @ trackCount, blockCount, priority, reverb
	.4byte gUnknown_0804CE78 @ voice group
	.4byte song_unk_735_0
	.4byte song_unk_735_1
	.4byte song_unk_735_2
	.4byte song_unk_735_3
	.4byte song_unk_735_4
	.4byte song_unk_735_5

