	.include "MPlayDef.s"
	.section .rodata
	.align 2, 0
song_unk_732_0: @ 0x08353E6C
	.byte VOL, 0x6E
	.byte KEYSH, 0x00
	.byte TEMPO, 0x28
	.byte VOICE, 0x44
	.byte W24
song_unk_732_0_000: @ 0x08353E75
	.byte N05, Dn1, v127
	.byte W12
	.byte N11
	.byte W84
	.byte PEND
	.byte PATT
	 .4byte song_unk_732_0_000
	.byte PATT
	 .4byte song_unk_732_0_000
	.byte PATT
	 .4byte song_unk_732_0_000
	.byte PATT
	 .4byte song_unk_732_0_000
	.byte PATT
	 .4byte song_unk_732_0_000
	.byte PATT
	 .4byte song_unk_732_0_000
	.byte PATT
	 .4byte song_unk_732_0_000
	.byte GOTO
	 .4byte song_unk_732_0_000
	.byte FINE
song_unk_732_1: @ 0x08353EA5
	.byte VOL, 0x6E
	.byte KEYSH, 0x00
	.byte VOICE, 0x5D
	.byte PAN, 0x40
	.byte W24
song_unk_732_1_001: @ 0x08353EAE
	.byte N10, Cn1, v127
	.byte W12
	.byte N10
	.byte W24
	.byte Gs6
	.byte W24
	.byte Cn1
	.byte W12
	.byte Gs6
	.byte W24
	.byte PEND
song_unk_732_1_002: @ 0x08353EBB
	.byte N10, Cn1, v127
	.byte W12
	.byte N10
	.byte W24
	.byte Gs6
	.byte W24
	.byte Cn1
	.byte W24
	.byte Gs6
	.byte W12
	.byte PEND
	.byte PATT
	 .4byte song_unk_732_1_001
	.byte PATT
	 .4byte song_unk_732_1_002
	.byte PATT
	 .4byte song_unk_732_1_001
	.byte PATT
	 .4byte song_unk_732_1_002
	.byte PATT
	 .4byte song_unk_732_1_001
	.byte PATT
	 .4byte song_unk_732_1_002
	.byte GOTO
	 .4byte song_unk_732_1_001
	.byte FINE
song_unk_732_2: @ 0x08353EEC
	.byte VOL, 0x6E
	.byte KEYSH, 0x00
	.byte VOICE, 0x64
	.byte PAN, 0x00
	.byte W24
song_unk_732_2_003: @ 0x08353EF5
	.byte N00, Fs6, v080
	.byte W12
	.byte N00
	.byte W12
	.byte N00
	.byte W12
	.byte N00
	.byte W12
	.byte N00
	.byte W12
	.byte N00
	.byte W12
	.byte N00
	.byte W12
	.byte N00
	.byte W12
	.byte PEND
	.byte PATT
	 .4byte song_unk_732_2_003
	.byte PATT
	 .4byte song_unk_732_2_003
	.byte PATT
	 .4byte song_unk_732_2_003
	.byte PATT
	 .4byte song_unk_732_2_003
	.byte PATT
	 .4byte song_unk_732_2_003
	.byte PATT
	 .4byte song_unk_732_2_003
	.byte PATT
	 .4byte song_unk_732_2_003
	.byte GOTO
	 .4byte song_unk_732_2_003
	.byte FINE
song_unk_732_3: @ 0x08353F31
	.byte VOL, 0x6E
	.byte KEYSH, 0x00
	.byte VOICE, 0x7C
	.byte PAN, 0x60
	.byte W24
song_unk_732_3_004: @ 0x08353F3A
	.byte W24
	.byte N02, An4, v096
	.byte W24
	.byte Bn4
	.byte W24
	.byte Fs4
	.byte W12
	.byte An4
	.byte W12
	.byte W96
	.byte W24
	.byte N02
	.byte W24
	.byte Bn4
	.byte W24
	.byte Fs4
	.byte W12
	.byte Gn4
	.byte W12
	.byte W96
	.byte W24
	.byte N02
	.byte W24
	.byte An4
	.byte W24
	.byte En4
	.byte W12
	.byte Gn4
	.byte W12
	.byte W84
	.byte Fs4
	.byte W08
	.byte En4
	.byte W04
	.byte Dn4
	.byte W84
	.byte Cs4
	.byte W08
	.byte Dn4
	.byte W04
	.byte Cs4
	.byte W36
	.byte Bn3
	.byte W60
	.byte GOTO
	 .4byte song_unk_732_3_004
	.byte FINE
song_unk_732_4: @ 0x08353F6E
	.byte VOL, 0x6E
	.byte KEYSH, 0x00
	.byte W24
song_unk_732_4_005: @ 0x08353F73
	.byte W32
	.byte W02
	.byte N01, An4, v012
	.byte W24
	.byte Bn4
	.byte W24
	.byte Fs4
	.byte W12
	.byte An4
	.byte W02
	.byte W96
	.byte W32
	.byte W02
	.byte N01
	.byte W24
	.byte Bn4
	.byte W24
	.byte Fs4
	.byte W12
	.byte Gn4
	.byte W02
	.byte W96
	.byte W32
	.byte W02
	.byte N01
	.byte W24
	.byte An4
	.byte W24
	.byte En4
	.byte W12
	.byte Gn4
	.byte W02
	.byte W92
	.byte W03
	.byte N00, Fs4
	.byte W01
	.byte W06
	.byte N01, En4
	.byte W04
	.byte Dn4
	.byte W84
	.byte W01
	.byte N00, Cs4
	.byte W01
	.byte W06
	.byte N01, Dn4
	.byte W04
	.byte Cs4
	.byte W36
	.byte Bn3
	.byte W48
	.byte W02
	.byte GOTO
	 .4byte song_unk_732_4_005
	.byte FINE
song_unk_732_5: @ 0x08353FB3
	.byte VOL, 0x6E
	.byte KEYSH, 0x00
	.byte VOICE, 0x7C
	.byte PAN, 0x40
	.byte W24
song_unk_732_5_006: @ 0x08353FBC
	.byte W24
	.byte N02, An3, v096
	.byte W24
	.byte Bn3
	.byte W24
	.byte Fs3
	.byte W12
	.byte An3
	.byte W12
	.byte W96
	.byte W24
	.byte N02
	.byte W24
	.byte Bn3
	.byte W24
	.byte Fs3
	.byte W12
	.byte Gn3
	.byte W12
	.byte W96
	.byte W24
	.byte N02
	.byte W24
	.byte An3
	.byte W24
	.byte En3
	.byte W12
	.byte Gn3
	.byte W12
	.byte W84
	.byte Fs3
	.byte W08
	.byte En3
	.byte W04
	.byte Dn3
	.byte W84
	.byte Cs3
	.byte W08
	.byte Dn3
	.byte W04
	.byte Cs3
	.byte W36
	.byte Bn2
	.byte W60
	.byte GOTO
	 .4byte song_unk_732_5_006
	.byte FINE
song_unk_732_6: @ 0x08353FF0
	.byte VOL, 0x6E
	.byte KEYSH, 0x00
	.byte W24
song_unk_732_6_007: @ 0x08353FF5
	.byte W32
	.byte W02
	.byte N01, An3, v012
	.byte W24
	.byte Bn3
	.byte W24
	.byte Fs3
	.byte W12
	.byte An3
	.byte W02
	.byte W96
	.byte W32
	.byte W02
	.byte N01
	.byte W24
	.byte Bn3
	.byte W24
	.byte Fs3
	.byte W12
	.byte Gn3
	.byte W02
	.byte W96
	.byte W32
	.byte W02
	.byte N01
	.byte W24
	.byte An3
	.byte W24
	.byte En3
	.byte W12
	.byte Gn3
	.byte W02
	.byte W92
	.byte W03
	.byte N00, Fs3
	.byte W01
	.byte W06
	.byte N01, En3
	.byte W04
	.byte Dn3
	.byte W84
	.byte W01
	.byte N00, Cs3
	.byte W01
	.byte W06
	.byte N01, Dn3
	.byte W04
	.byte Cs3
	.byte W36
	.byte Bn2
	.byte W48
	.byte W02
	.byte GOTO
	 .4byte song_unk_732_6_007
	.byte FINE
	.align 2, 0
	.global song_unk_732
song_unk_732: @ 0x08354038 (song header)
	.byte 7, 0, 10, 0 @ trackCount, blockCount, priority, reverb
	.4byte gUnknown_0804CE78 @ voice group
	.4byte song_unk_732_0
	.4byte song_unk_732_1
	.4byte song_unk_732_2
	.4byte song_unk_732_3
	.4byte song_unk_732_4
	.4byte song_unk_732_5
	.4byte song_unk_732_6

