	.include "MPlayDef.s"
	.section .rodata
	.align 2, 0
song_unk_721_0: @ 0x08352DCC
	.byte VOL, 0x78
	.byte KEYSH, 0x00
song_unk_721_0_001: @ 0x08352DD0
	.byte TEMPO, 0x34
	.byte VOICE, 0x02
	.byte N05, Gn1, v096
	.byte W36
	.byte Gn1, v064
	.byte W12
	.byte Dn1, v096
	.byte W48
song_unk_721_0_000: @ 0x08352DDE
	.byte N05, Gn1, v096
	.byte W36
	.byte Gn1, v064
	.byte W12
	.byte Dn1, v096
	.byte W48
	.byte PEND
	.byte PATT
	 .4byte song_unk_721_0_000
	.byte PATT
	 .4byte song_unk_721_0_000
	.byte PATT
	 .4byte song_unk_721_0_000
	.byte PATT
	 .4byte song_unk_721_0_000
	.byte PATT
	 .4byte song_unk_721_0_000
	.byte PATT
	 .4byte song_unk_721_0_000
	.byte GOTO
	 .4byte song_unk_721_0_001
	.byte FINE
song_unk_721_1: @ 0x08352E0D
	.byte VOL, 0x78
	.byte KEYSH, 0x00
song_unk_721_1_004: @ 0x08352E11
	.byte VOICE, 0x5D
	.byte N11, Cn1, v096
	.byte W24
	.byte Gs6, v032
	.byte W12
	.byte Ds4, v048
	.byte W12
	.byte Cn1, v096
	.byte W24
	.byte Ds4, v048
	.byte W24
song_unk_721_1_002: @ 0x08352E23
	.byte N11, Cn1, v096
	.byte W24
	.byte Gs6, v032
	.byte W12
	.byte Ds4, v048
	.byte W12
	.byte Cn1, v096
	.byte W12
	.byte N03, Gs6, v032
	.byte W04
	.byte N03
	.byte W04
	.byte N03
	.byte W04
	.byte N11
	.byte W12
	.byte Ds4, v048
	.byte W12
	.byte PEND
song_unk_721_1_003: @ 0x08352E3E
	.byte N11, Cn1, v096
	.byte W24
	.byte Gs6, v032
	.byte W12
	.byte Ds4, v048
	.byte W12
	.byte Cn1, v096
	.byte W24
	.byte Ds4, v048
	.byte W24
	.byte PEND
	.byte PATT
	 .4byte song_unk_721_1_002
	.byte PATT
	 .4byte song_unk_721_1_003
	.byte PATT
	 .4byte song_unk_721_1_002
	.byte PATT
	 .4byte song_unk_721_1_003
	.byte PATT
	 .4byte song_unk_721_1_002
	.byte GOTO
	 .4byte song_unk_721_1_004
	.byte FINE
song_unk_721_2: @ 0x08352E6E
	.byte VOL, 0x78
	.byte KEYSH, 0x00
song_unk_721_2_005: @ 0x08352E72
	.byte VOICE, 0x65
	.byte PAN, 0x28
	.byte W84
	.byte N01, Cn4, v040
	.byte W12
	.byte W96
	.byte W84
	.byte N01
	.byte W12
	.byte W96
	.byte W84
	.byte N01
	.byte W12
	.byte W96
	.byte W84
	.byte N01
	.byte W12
	.byte W96
	.byte GOTO
	 .4byte song_unk_721_2_005
	.byte FINE
song_unk_721_3: @ 0x08352E8E
	.byte VOL, 0x78
	.byte KEYSH, 0x00
song_unk_721_3_006: @ 0x08352E92
	.byte VOICE, 0x1E
	.byte PAN, 0x60
	.byte W12
	.byte N05, Bn3, v064
	.byte W06
	.byte Cn4
	.byte W06
	.byte Dn4
	.byte W12
	.byte N05
	.byte W12
	.byte N05
	.byte W36
	.byte En4
	.byte W12
	.byte Bn3
	.byte W96
	.byte W96
	.byte W96
	.byte W12
	.byte Gn3
	.byte W06
	.byte An3
	.byte W06
	.byte Bn3
	.byte W12
	.byte N05
	.byte W12
	.byte N05
	.byte W36
	.byte Cn4
	.byte W12
	.byte Bn3
	.byte W96
	.byte W96
	.byte W96
	.byte GOTO
	 .4byte song_unk_721_3_006
	.byte FINE
song_unk_721_4: @ 0x08352EC0
	.byte VOL, 0x78
	.byte KEYSH, 0x00
song_unk_721_4_007: @ 0x08352EC4
	.byte VOICE, 0x7C
	.byte PAN, 0x60
	.byte W96
	.byte W96
	.byte W12
	.byte N05, Dn4, v080
	.byte W12
	.byte En4
	.byte W12
	.byte Gn4
	.byte W12
	.byte Fs4
	.byte W24
	.byte Dn4
	.byte W12
	.byte En4
	.byte W12
	.byte W36
	.byte Dn4
	.byte W06
	.byte Cn4
	.byte W06
	.byte Bn3
	.byte W48
	.byte W96
	.byte W96
	.byte W96
	.byte W96
	.byte GOTO
	 .4byte song_unk_721_4_007
	.byte FINE
song_unk_721_5: @ 0x08352EEA
	.byte VOL, 0x78
	.byte KEYSH, 0x00
song_unk_721_5_008: @ 0x08352EEE
	.byte VOICE, 0x44
	.byte MOD, 0x00
	.byte PAN, 0x20
	.byte W12
	.byte N05, Gn4, v064
	.byte W06
	.byte An4
	.byte W06
	.byte Bn4
	.byte W12
	.byte N05
	.byte W12
	.byte N05
	.byte W36
	.byte Cn5
	.byte W12
	.byte Gn4
	.byte W96
	.byte W96
	.byte W96
	.byte W12
	.byte En4
	.byte W06
	.byte Fs4
	.byte W06
	.byte Gn4
	.byte W12
	.byte N05
	.byte W12
	.byte N05
	.byte W36
	.byte An4
	.byte W12
	.byte Gn4
	.byte W96
	.byte W96
	.byte W96
	.byte GOTO
	 .4byte song_unk_721_5_008
	.byte FINE
	.align 2, 0
	.global song_unk_721
song_unk_721: @ 0x08352F20 (song header)
	.byte 6, 0, 10, 0 @ trackCount, blockCount, priority, reverb
	.4byte voicegroup000 @ voice group
	.4byte song_unk_721_0
	.4byte song_unk_721_1
	.4byte song_unk_721_2
	.4byte song_unk_721_3
	.4byte song_unk_721_4
	.4byte song_unk_721_5
	.size song_unk_721,.-song_unk_721
