	.include "MPlayDef.s"
	.section .rodata
	.align 2, 0
song_unk_728_0: @ 0x083538C0
	.byte VOL, 0x6E
	.byte KEYSH, 0x00
song_unk_728_0_000: @ 0x083538C4
	.byte TEMPO, 0x3B
	.byte VOICE, 0x5E
	.byte PAN, 0x30
	.byte W48
	.byte N03, Cn4, v064
	.byte W48
	.byte W48
	.byte N03
	.byte W48
	.byte W48
	.byte N03
	.byte W48
	.byte W48
	.byte N03
	.byte W48
	.byte W48
	.byte N03
	.byte W48
	.byte W48
	.byte N03
	.byte W48
	.byte W48
	.byte N03
	.byte W48
	.byte W48
	.byte N03
	.byte W48
	.byte GOTO
	 .4byte song_unk_728_0_000
	.byte FINE
song_unk_728_1: @ 0x083538EA
	.byte VOL, 0x6E
	.byte KEYSH, 0x00
song_unk_728_1_003: @ 0x083538EE
	.byte VOICE, 0x64
	.byte PAN, 0x00
	.byte W06
	.byte N01, Cn4, v127
	.byte W06
	.byte N01
	.byte W84
song_unk_728_1_001: @ 0x083538F9
	.byte W06
	.byte N01, Cn4, v127
	.byte W06
	.byte N01
	.byte W72
	.byte N01
	.byte W06
	.byte N01
	.byte W06
	.byte PEND
song_unk_728_1_002: @ 0x08353905
	.byte W06
	.byte N01, Cn4, v127
	.byte W06
	.byte N01
	.byte W84
	.byte PEND
	.byte PATT
	 .4byte song_unk_728_1_001
	.byte PATT
	 .4byte song_unk_728_1_002
	.byte PATT
	 .4byte song_unk_728_1_001
	.byte PATT
	 .4byte song_unk_728_1_002
	.byte PATT
	 .4byte song_unk_728_1_001
	.byte GOTO
	 .4byte song_unk_728_1_003
	.byte FINE
song_unk_728_2: @ 0x0835392C
	.byte VOL, 0x6E
	.byte KEYSH, 0x00
song_unk_728_2_006: @ 0x08353930
	.byte VOICE, 0x45
	.byte PAN, 0x40
	.byte N06, Dn3, v127
	.byte W18
	.byte N06
	.byte W06
	.byte N12, An2
	.byte W12
	.byte An3
	.byte W60
song_unk_728_2_004: @ 0x0835393F
	.byte N06, Dn3, v127
	.byte W18
	.byte N06
	.byte W06
	.byte N12, Gn2
	.byte W12
	.byte Gn3
	.byte W60
	.byte PEND
song_unk_728_2_005: @ 0x0835394B
	.byte N06, Dn3, v127
	.byte W18
	.byte N06
	.byte W06
	.byte N12, An2
	.byte W12
	.byte An3
	.byte W60
	.byte PEND
	.byte PATT
	 .4byte song_unk_728_2_004
	.byte PATT
	 .4byte song_unk_728_2_005
	.byte PATT
	 .4byte song_unk_728_2_004
	.byte PATT
	 .4byte song_unk_728_2_005
	.byte PATT
	 .4byte song_unk_728_2_004
	.byte GOTO
	 .4byte song_unk_728_2_006
	.byte FINE
song_unk_728_3: @ 0x08353976
	.byte VOL, 0x6E
	.byte KEYSH, 0x00
song_unk_728_3_007: @ 0x0835397A
	.byte VOICE, 0x02
	.byte W12
	.byte N02, An3, v127
	.byte W12
	.byte Bn3
	.byte W12
	.byte Dn4
	.byte W12
	.byte Cs4
	.byte W24
	.byte An3
	.byte W12
	.byte Bn3
	.byte W12
	.byte W96
	.byte W12
	.byte An3
	.byte W12
	.byte Bn3
	.byte W12
	.byte Dn4
	.byte W12
	.byte Cs4
	.byte W24
	.byte An3
	.byte W12
	.byte Fs3
	.byte W12
	.byte W84
	.byte An3
	.byte W12
	.byte En3
	.byte W84
	.byte Fs3
	.byte W12
	.byte Dn3
	.byte W96
	.byte W96
	.byte W96
	.byte GOTO
	 .4byte song_unk_728_3_007
	.byte FINE
song_unk_728_4: @ 0x083539AA
	.byte VOL, 0x6E
	.byte KEYSH, 0x00
song_unk_728_4_008: @ 0x083539AE
	.byte W22
	.byte N02, An3, v024
	.byte W12
	.byte Bn3
	.byte W12
	.byte Dn4
	.byte W12
	.byte Cs4
	.byte W24
	.byte An3
	.byte W12
	.byte Bn3
	.byte W02
	.byte W96
	.byte W22
	.byte An3
	.byte W12
	.byte Bn3
	.byte W12
	.byte Dn4
	.byte W12
	.byte Cs4
	.byte W24
	.byte An3
	.byte W12
	.byte Fs3
	.byte W02
	.byte W92
	.byte W02
	.byte An3
	.byte W02
	.byte W10
	.byte En3
	.byte W84
	.byte Fs3
	.byte W02
	.byte W10
	.byte Dn3
	.byte W84
	.byte W02
	.byte W96
	.byte W96
	.byte GOTO
	 .4byte song_unk_728_4_008
	.byte FINE
song_unk_728_5: @ 0x083539E0
	.byte VOL, 0x6E
	.byte KEYSH, 0x00
song_unk_728_5_009: @ 0x083539E4
	.byte VOICE, 0x20
	.byte PAN, 0x7F
	.byte W12
	.byte N02, Fs3, v112
	.byte W12
	.byte Gn3
	.byte W12
	.byte Bn3
	.byte W12
	.byte An3
	.byte W24
	.byte Fs3
	.byte W12
	.byte Gn3
	.byte W12
	.byte W96
	.byte W12
	.byte Fs3
	.byte W12
	.byte Gn3
	.byte W12
	.byte Bn3
	.byte W12
	.byte An3
	.byte W24
	.byte Fs3
	.byte W12
	.byte Dn3
	.byte W12
	.byte W84
	.byte Fs3
	.byte W12
	.byte Cs3
	.byte W84
	.byte Dn3
	.byte W12
	.byte Bn2
	.byte W96
	.byte W96
	.byte W96
	.byte GOTO
	 .4byte song_unk_728_5_009
	.byte FINE
song_unk_728_6: @ 0x08353A16
	.byte VOL, 0x6E
	.byte KEYSH, 0x00
song_unk_728_6_010: @ 0x08353A1A
	.byte W22
	.byte N02, Fs3, v024
	.byte W12
	.byte Gn3
	.byte W12
	.byte Bn3
	.byte W12
	.byte An3
	.byte W24
	.byte Fs3
	.byte W12
	.byte Gn3
	.byte W02
	.byte W96
	.byte W22
	.byte Fs3
	.byte W12
	.byte Gn3
	.byte W12
	.byte Bn3
	.byte W12
	.byte An3
	.byte W24
	.byte Fs3
	.byte W12
	.byte Dn3
	.byte W02
	.byte W92
	.byte W02
	.byte Fs3
	.byte W02
	.byte W10
	.byte Cs3
	.byte W84
	.byte Dn3
	.byte W02
	.byte W10
	.byte Bn2
	.byte W84
	.byte W02
	.byte W96
	.byte W96
	.byte GOTO
	 .4byte song_unk_728_6_010
	.byte FINE
	.align 2, 0
	.global song_unk_728
song_unk_728: @ 0x08353A4C (song header)
	.byte 7, 0, 10, 0 @ trackCount, blockCount, priority, reverb
	.4byte voicegroup000 @ voice group
	.4byte song_unk_728_0
	.4byte song_unk_728_1
	.4byte song_unk_728_2
	.4byte song_unk_728_3
	.4byte song_unk_728_4
	.4byte song_unk_728_5
	.4byte song_unk_728_6
	.size song_unk_728,.-song_unk_728
