	.include "MPlayDef.s"
	.section .rodata
	.align 2, 0
song_unk_734_0: @ 0x08354244
	.byte VOL, 0x64
	.byte KEYSH, 0x00
song_unk_734_0_001: @ 0x08354248
	.byte TEMPO, 0x39
	.byte VOICE, 0x5D
	.byte PAN, 0x40
	.byte N10, Cn1, v127
	.byte W18
	.byte N10
	.byte W18
	.byte Ds4
	.byte W12
	.byte Cn1
	.byte W18
	.byte N10
	.byte W18
	.byte Ds4
	.byte W12
song_unk_734_0_000: @ 0x0835425C
	.byte N10, Cn1, v127
	.byte W18
	.byte N10
	.byte W18
	.byte Ds4
	.byte W12
	.byte Cn1
	.byte W18
	.byte N10
	.byte W18
	.byte Ds4
	.byte W12
	.byte PEND
	.byte PATT
	 .4byte song_unk_734_0_000
	.byte PATT
	 .4byte song_unk_734_0_000
	.byte GOTO
	 .4byte song_unk_734_0_001
	.byte FINE
song_unk_734_1: @ 0x0835427B
	.byte VOL, 0x64
	.byte KEYSH, 0x00
song_unk_734_1_003: @ 0x0835427F
	.byte VOICE, 0x64
	.byte PAN, 0x00
	.byte N00, Fs6, v080
	.byte W12
	.byte N00
	.byte W12
	.byte N00
	.byte W12
	.byte N00
	.byte W12
	.byte N00
	.byte W12
	.byte N00
	.byte W12
	.byte N00
	.byte W12
	.byte N00
	.byte W12
song_unk_734_1_002: @ 0x08354295
	.byte N00, Fs6, v080
	.byte W12
	.byte N00
	.byte W12
	.byte N00
	.byte W12
	.byte N00
	.byte W12
	.byte N00
	.byte W12
	.byte N00
	.byte W12
	.byte N00
	.byte W12
	.byte N00
	.byte W12
	.byte PEND
	.byte PATT
	 .4byte song_unk_734_1_002
	.byte PATT
	 .4byte song_unk_734_1_002
	.byte GOTO
	 .4byte song_unk_734_1_003
	.byte FINE
song_unk_734_2: @ 0x083542B8
	.byte VOL, 0x64
	.byte KEYSH, 0x00
song_unk_734_2_004: @ 0x083542BC
	.byte VOICE, 0x7C
	.byte PAN, 0x44
	.byte W12
	.byte N03, An4, v096
	.byte W12
	.byte As4
	.byte W12
	.byte Dn5
	.byte W12
	.byte N11, Cn5
	.byte W18
	.byte N03, An4
	.byte W18
	.byte N11, As4
	.byte W12
	.byte W12
	.byte N03, Gn4
	.byte W12
	.byte An4
	.byte W12
	.byte Cn5
	.byte W12
	.byte N11, As4
	.byte W18
	.byte N03, Gn4
	.byte W18
	.byte N11, An4
	.byte W12
	.byte W12
	.byte N03, Fn4
	.byte W12
	.byte Gn4
	.byte W12
	.byte As4
	.byte W12
	.byte N11, An4
	.byte W18
	.byte N03, Fn4
	.byte W18
	.byte N11, Gn4
	.byte W12
	.byte W12
	.byte N03, Fs4
	.byte W12
	.byte N44, Gn4
	.byte W72
	.byte GOTO
	 .4byte song_unk_734_2_004
	.byte FINE
song_unk_734_3: @ 0x08354301
	.byte VOL, 0x64
	.byte KEYSH, 0x00
song_unk_734_3_005: @ 0x08354305
	.byte VOICE, 0x7C
	.byte PAN, 0x3C
	.byte W12
	.byte N03, Fn4, v096
	.byte W12
	.byte Gn4
	.byte W12
	.byte As4
	.byte W12
	.byte N11, An4
	.byte W18
	.byte N03, Fn4
	.byte W18
	.byte N11, Gn4
	.byte W12
	.byte W12
	.byte N03, Ds4
	.byte W12
	.byte Fn4
	.byte W12
	.byte An4
	.byte W12
	.byte N11, Gn4
	.byte W18
	.byte N03, Ds4
	.byte W18
	.byte N11, Fn4
	.byte W12
	.byte W12
	.byte N03, Dn4
	.byte W12
	.byte Ds4
	.byte W12
	.byte Gn4
	.byte W12
	.byte N11, Fn4
	.byte W18
	.byte N03, Dn4
	.byte W18
	.byte N11, Ds4
	.byte W12
	.byte W12
	.byte N03, Dn4
	.byte W12
	.byte N44, Ds4
	.byte W72
	.byte GOTO
	 .4byte song_unk_734_3_005
	.byte FINE
song_unk_734_4: @ 0x0835434A
	.byte VOL, 0x64
	.byte KEYSH, 0x00
song_unk_734_4_007: @ 0x0835434E
	.byte VOICE, 0x02
	.byte PAN, 0x7F
	.byte W12
	.byte N02, Dn3, v080
	.byte W24
	.byte N02
	.byte W24
	.byte N02
	.byte W24
	.byte N02
	.byte W12
song_unk_734_4_006: @ 0x0835435D
	.byte W12
	.byte N02, Ds3, v080
	.byte W24
	.byte N02
	.byte W24
	.byte N02
	.byte W24
	.byte N02
	.byte W12
	.byte PEND
	.byte W12
	.byte Dn3
	.byte W24
	.byte N02
	.byte W24
	.byte N02
	.byte W24
	.byte N02
	.byte W12
	.byte PATT
	 .4byte song_unk_734_4_006
	.byte GOTO
	 .4byte song_unk_734_4_007
	.byte FINE
song_unk_734_5: @ 0x0835437D
	.byte VOL, 0x64
	.byte KEYSH, 0x00
song_unk_734_5_009: @ 0x08354381
	.byte VOICE, 0x20
	.byte PAN, 0x00
	.byte W12
	.byte N02, Fn3, v080
	.byte W24
	.byte N02
	.byte W24
	.byte N02
	.byte W24
	.byte N02
	.byte W12
song_unk_734_5_008: @ 0x08354390
	.byte W12
	.byte N02, Gn3, v080
	.byte W24
	.byte N02
	.byte W24
	.byte N02
	.byte W24
	.byte N02
	.byte W12
	.byte PEND
	.byte W12
	.byte Fn3
	.byte W24
	.byte N02
	.byte W24
	.byte N02
	.byte W24
	.byte N02
	.byte W12
	.byte PATT
	 .4byte song_unk_734_5_008
	.byte GOTO
	 .4byte song_unk_734_5_009
	.byte FINE
	.align 2, 0
	.global song_unk_734
song_unk_734: @ 0x083543B0 (song header)
	.byte 6, 0, 10, 0 @ trackCount, blockCount, priority, reverb
	.4byte gUnknown_0804CE78 @ voice group
	.4byte song_unk_734_0
	.4byte song_unk_734_1
	.4byte song_unk_734_2
	.4byte song_unk_734_3
	.4byte song_unk_734_4
	.4byte song_unk_734_5

