	.include "MPlayDef.s"
	.section .rodata
	.align 2, 0
song_unk_724_0: @ 0x08353194
	.byte VOL, 0x6E
	.byte KEYSH, 0x00
song_unk_724_0_002: @ 0x08353198
	.byte TEMPO, 0x36
	.byte VOICE, 0x20
	.byte N03, Ds2, v072
	.byte W12
	.byte As2, v040
	.byte W12
	.byte N03
	.byte W12
	.byte Ds2, v072
	.byte W12
	.byte As2, v040
	.byte W12
	.byte N03
	.byte W12
	.byte Ds2, v072
	.byte W12
	.byte As2, v040
	.byte W12
song_unk_724_0_000: @ 0x083531B3
	.byte N03, Ds2, v072
	.byte W12
	.byte Gs2, v040
	.byte W12
	.byte N03
	.byte W12
	.byte Ds2, v072
	.byte W12
	.byte Gs2, v040
	.byte W12
	.byte N03
	.byte W12
	.byte Ds2, v072
	.byte W12
	.byte Gs2, v040
	.byte W12
	.byte PEND
song_unk_724_0_001: @ 0x083531CB
	.byte N03, Ds2, v072
	.byte W12
	.byte As2, v040
	.byte W12
	.byte N03
	.byte W12
	.byte Ds2, v072
	.byte W12
	.byte As2, v040
	.byte W12
	.byte N03
	.byte W12
	.byte Ds2, v072
	.byte W12
	.byte As2, v040
	.byte W12
	.byte PEND
	.byte PATT
	 .4byte song_unk_724_0_000
	.byte PATT
	 .4byte song_unk_724_0_001
	.byte PATT
	 .4byte song_unk_724_0_000
	.byte PATT
	 .4byte song_unk_724_0_001
	.byte PATT
	 .4byte song_unk_724_0_000
	.byte GOTO
	 .4byte song_unk_724_0_002
	.byte FINE
song_unk_724_1: @ 0x08353202
	.byte VOL, 0x6E
	.byte KEYSH, 0x00
song_unk_724_1_005: @ 0x08353206
	.byte VOICE, 0x02
	.byte PAN, 0x30
	.byte W12
	.byte N03, Dn3, v040
	.byte W12
	.byte N03
	.byte W24
	.byte N03
	.byte W12
	.byte N03
	.byte W24
	.byte N03
	.byte W12
song_unk_724_1_003: @ 0x08353217
	.byte W12
	.byte N03, Cn3, v040
	.byte W12
	.byte N03
	.byte W24
	.byte N03
	.byte W12
	.byte N03
	.byte W24
	.byte N03
	.byte W12
	.byte PEND
song_unk_724_1_004: @ 0x08353225
	.byte W12
	.byte N03, Dn3, v040
	.byte W12
	.byte N03
	.byte W24
	.byte N03
	.byte W12
	.byte N03
	.byte W24
	.byte N03
	.byte W12
	.byte PEND
	.byte PATT
	 .4byte song_unk_724_1_003
	.byte PATT
	 .4byte song_unk_724_1_004
	.byte PATT
	 .4byte song_unk_724_1_003
	.byte PATT
	 .4byte song_unk_724_1_004
	.byte PATT
	 .4byte song_unk_724_1_003
	.byte GOTO
	 .4byte song_unk_724_1_005
	.byte FINE
song_unk_724_2: @ 0x08353252
	.byte VOL, 0x6E
	.byte KEYSH, 0x00
song_unk_724_2_007: @ 0x08353256
	.byte VOICE, 0x67
	.byte PAN, 0x20
	.byte W12
	.byte N01, Cn4, v024
	.byte W24
	.byte N01
	.byte W24
	.byte N01
	.byte W24
	.byte N01
	.byte W12
song_unk_724_2_006: @ 0x08353265
	.byte W12
	.byte N01, Cn4, v024
	.byte W24
	.byte N01
	.byte W24
	.byte N01
	.byte W24
	.byte N01
	.byte W12
	.byte PEND
	.byte PATT
	 .4byte song_unk_724_2_006
	.byte PATT
	 .4byte song_unk_724_2_006
	.byte PATT
	 .4byte song_unk_724_2_006
	.byte PATT
	 .4byte song_unk_724_2_006
	.byte PATT
	 .4byte song_unk_724_2_006
	.byte PATT
	 .4byte song_unk_724_2_006
	.byte GOTO
	 .4byte song_unk_724_2_007
	.byte FINE
song_unk_724_3: @ 0x08353295
	.byte VOL, 0x6E
	.byte KEYSH, 0x00
song_unk_724_3_009: @ 0x08353299
	.byte VOICE, 0x7C
	.byte PAN, 0x40
	.byte N04, As4, v096
	.byte W12
	.byte Gn4
	.byte W12
	.byte Gs4
	.byte W12
	.byte As4
	.byte W24
	.byte Cn5
	.byte W12
	.byte Ds5
	.byte W12
	.byte Dn5
	.byte W12
song_unk_724_3_008: @ 0x083532AD
	.byte W12
	.byte N04, As4, v096
	.byte W24
	.byte Cn5
	.byte W24
	.byte As4
	.byte W06
	.byte Gs4
	.byte W06
	.byte Gn4
	.byte W24
	.byte PEND
	.byte W96
	.byte W96
	.byte As4
	.byte W12
	.byte Gn4
	.byte W12
	.byte Gs4
	.byte W12
	.byte As4
	.byte W24
	.byte Cn5
	.byte W12
	.byte Ds5
	.byte W12
	.byte Dn5
	.byte W12
	.byte PATT
	 .4byte song_unk_724_3_008
	.byte W96
	.byte W96
	.byte GOTO
	 .4byte song_unk_724_3_009
	.byte FINE
song_unk_724_4: @ 0x083532D8
	.byte VOL, 0x6E
	.byte KEYSH, 0x00
song_unk_724_4_010: @ 0x083532DC
	.byte VOICE, 0x44
	.byte PAN, 0x60
	.byte W96
	.byte W96
	.byte W36
	.byte N03, Gn4, v088
	.byte W12
	.byte Gs4
	.byte W12
	.byte N11, As4
	.byte W24
	.byte N03, As3
	.byte W12
	.byte N44, Gs4
	.byte W96
	.byte W96
	.byte W96
	.byte W36
	.byte N03, Ds4
	.byte W12
	.byte Fn4
	.byte W12
	.byte N11, Gn4
	.byte W24
	.byte N03, As3
	.byte W12
	.byte N44, Fn4
	.byte W96
	.byte GOTO
	 .4byte song_unk_724_4_010
	.byte FINE
	.align 2, 0
	.global song_unk_724
song_unk_724: @ 0x0835330C (song header)
	.byte 5, 0, 10, 0 @ trackCount, blockCount, priority, reverb
	.4byte voicegroup000 @ voice group
	.4byte song_unk_724_0
	.4byte song_unk_724_1
	.4byte song_unk_724_2
	.4byte song_unk_724_3
	.4byte song_unk_724_4
	.size song_unk_724,.-song_unk_724
